<svg fill="currentColor" viewBox="0 0 24 24" width="1em" height="1em"><path fill="none" d="M0,0H24V24H0Z"/><path d="M17.13,11.69a1.28,1.28,0,0,1-.26.8,2.91,2.91,0,0,0-1.09-.3,2.12,2.12,0,0,0-1.15.35,1.36,1.36,0,0,1-.29-.85,1.4,1.4,0,1,1,2.79,0ZM8.26,10.28a1.39,1.39,0,0,0-1.14,2.2,2.84,2.84,0,0,1,1.09-.3,2.12,2.12,0,0,1,1.15.35,1.36,1.36,0,0,0,.29-.85A1.39,1.39,0,0,0,8.26,10.28ZM22,7.19V17.8a1.34,1.34,0,0,1-1.34,1.35H17.17s-.36-.65-.49-.86a.57.57,0,0,0-.45-.19H7.75a.54.54,0,0,0-.46.19c-.17.23-.5.86-.5.86H3.35A1.35,1.35,0,0,1,2,17.81V7.2A1.35,1.35,0,0,1,3.34,5.85H20.65A1.35,1.35,0,0,1,22,7.19Zm-2.6,4.39a2.82,2.82,0,0,0-2.84-2.86H7.43a2.85,2.85,0,0,0,0,5.7h9.13A2.84,2.84,0,0,0,19.4,11.58Z"/></svg>