<svg xmlns="http://www.w3.org/2000/svg" viewBox="0 0 24 24">
    <path d="M0 0h24v24H0Z" fill="none" />
    <path d="M18.93 5.26A16.5 16.5 0 0 0 14.86 4c-.03 0-.05 0-.07.03a11 11 0 0 0-.5 1.04 15.23 15.23 0 0 0-4.57 0 11.2 11.2 0 0 0-.52-1.04.06.06 0 0 0-.06-.03 16.45 16.45 0 0 0-4.1 1.29A16.88 16.88 0 0 0 2.1 16.72a16.58 16.58 0 0 0 5 2.52c.02.01.05 0 .06-.02.39-.53.73-1.08 1.02-1.66a.06.06 0 0 0-.03-.1c-.54-.2-1.06-.45-1.56-.73a.06.06 0 0 1 0-.11l.3-.24a.06.06 0 0 1 .07-.01c3.27 1.5 6.81 1.5 10.05 0h.06l.32.25c.03.03.03.08-.01.1-.5.3-1.02.54-1.56.75a.06.06 0 0 0-.04.09c.3.58.65 1.13 1.03 1.66.01.02.04.03.07.02a16.53 16.53 0 0 0 5.02-2.57 16.77 16.77 0 0 0-2.98-11.4ZM8.68 14.4c-.98 0-1.8-.9-1.8-2.02 0-1.1.8-2.01 1.8-2.01 1.01 0 1.82.9 1.8 2.01 0 1.11-.8 2.02-1.8 2.02Zm6.65 0c-.99 0-1.8-.9-1.8-2.02 0-1.1.8-2.01 1.8-2.01s1.81.9 1.8 2.01c0 1.11-.8 2.02-1.8 2.02Z" />
</svg>