<svg xmlns="http://www.w3.org/2000/svg" viewBox="0 0 24 24"><path d="M0,0H24V24H0Z" fill="none"/><path d="M6.27,3c-.33,0-.66,0-1,0A2.44,2.44,0,0,0,5.7,5.13a4.89,4.89,0,0,0,1.8,1.4c.67.35,1.39.41,2,.79a2.65,2.65,0,0,1,1,.93,2.68,2.68,0,0,1,.39,1.39l0,.85s.33.85,1.05.85,1-.85,1-.85l.05-.85a2.7,2.7,0,0,1,.39-1.39,2.36,2.36,0,0,1,.95-.93c.64-.38,1.37-.44,2-.79a4.77,4.77,0,0,0,1.75-1.4A2.43,2.43,0,0,0,18.62,3a7.71,7.71,0,0,0-3.86.69c-1.56.83-2.51.54-2.79,1.78h0c-.29-1.25-1.22-1-2.8-1.78A6.75,6.75,0,0,0,6.27,3Zm2.45,7.88a.18.18,0,0,0-.18.18,3.46,3.46,0,1,0,6.92,0,.18.18,0,0,0-.18-.18H14a.19.19,0,0,0-.18.18,1.79,1.79,0,0,1-3.58,0,.19.19,0,0,0-.18-.18Zm-6.54,0A.19.19,0,0,0,2,11a10,10,0,0,0,20,0,.19.19,0,0,0-.18-.18H20.51a.18.18,0,0,0-.18.18A8.34,8.34,0,0,1,3.65,11a.19.19,0,0,0-.18-.18Zm3.28,0a.19.19,0,0,0-.18.18,6.72,6.72,0,0,0,13.44,0,.19.19,0,0,0-.18-.18H17.23a.19.19,0,0,0-.18.18A5.06,5.06,0,1,1,6.93,11a.19.19,0,0,0-.18-.18Z"/></svg>