<svg fill="currentColor" viewBox="0 0 24 24" width="1em" height="1em"><path fill="none" d="M0,0H24V24H0Z"/><path d="M18.33,18.34H15.67V14.16c0-1,0-2.28-1.39-2.28s-1.6,1.09-1.6,2.21v4.25H10V9.75h2.56v1.17h0a2.83,2.83,0,0,1,2.53-1.39c2.7,0,3.2,1.78,3.2,4.09v4.72ZM7,8.57A1.55,1.55,0,0,1,5.45,7h0a1.55,1.55,0,0,1,3.1,0A1.54,1.54,0,0,1,7,8.57Zm1.34,9.77H5.67V9.75H8.34v8.59ZM19.67,3H4.33A1.31,1.31,0,0,0,3,4.3V19.7A1.31,1.31,0,0,0,4.33,21H19.67A1.32,1.32,0,0,0,21,19.7V4.3A1.32,1.32,0,0,0,19.67,3Z"/></svg>