<svg fill="currentColor" viewBox="0 0 24 24" width="1em" height="1em"><path fill="none" d="M0,0H24V24H0Z"/><path d="M21.26,14c-.28,1.41-2.46,3-5,3.25a23.66,23.66,0,0,1-4,.24,22.68,22.68,0,0,1-4-.54,4,4,0,0,0,0,.62c.29,2.22,2.19,2.35,4,2.41a11.23,11.23,0,0,0,3.44-.45l.07,1.65a9.21,9.21,0,0,1-3.54.81,14.73,14.73,0,0,1-4.61-.51C3.8,20.43,3.12,16.25,3,12c0-1.26,0-2.45,0-3.44C3,4.23,5.85,3,5.85,3A17.64,17.64,0,0,1,12.3,2h.06a17.64,17.64,0,0,1,6.45,1s2.85,1.27,2.85,5.61A33.59,33.59,0,0,1,21.26,14Zm-3-5.09a3.78,3.78,0,0,0-.82-2.56,2.87,2.87,0,0,0-2.23-1,2.68,2.68,0,0,0-2.4,1.23l-.52.87-.52-.87A2.68,2.68,0,0,0,9.4,5.39a2.83,2.83,0,0,0-2.22,1A3.79,3.79,0,0,0,6.35,8.9v5.26H8.43V9.06c0-1.08.46-1.62,1.36-1.62s1.5.64,1.5,1.92v2.79h2.07V9.36q0-1.92,1.5-1.92c.91,0,1.36.54,1.36,1.62v5.1H18.3V8.9Z"/></svg>