<svg fill="currentColor" viewBox="0 0 24 24" width="1em" height="1em"><path fill="none" d="M0,0H24V24H0Z"/><path d="M9.43 16.04c-.87 0-1.61-.52-1.96-1.13-.2-.26-.56-.35-.57 0v1.67c0 .66-.24 1.24-.73 1.73-.47.47-1.05.7-1.73.7a2.4 2.4 0 0 1-1.73-.7A2.4 2.4 0 0 1 2 16.58V7.44c0-.51.15-.98.44-1.4a2.38 2.38 0 0 1 2-1.04c.75 0 1.38.3 1.88.88l2.5 2.9c.05.04.21.36.6.36.4 0 .58-.32.64-.37l2.47-2.9a2.43 2.43 0 0 1 2.74-.72c.47.16.85.46 1.14.9.3.41.46.88.46 1.39v9.14c0 .66-.24 1.24-.73 1.73-.47.47-1.05.7-1.73.7a2.4 2.4 0 0 1-2.44-2.43v-1.66c-.04-.46-.44-.17-.58 0-.38.69-1.1 1.12-1.96 1.12Zm10.44-6.83c-.58 0-1.08-.2-1.5-.6-.4-.42-.6-.92-.6-1.5 0-.59.2-1.08.6-1.48.42-.42.92-.63 1.5-.63.59 0 1.09.2 1.5.63.42.4.63.9.63 1.48s-.2 1.08-.63 1.5c-.41.4-.91.6-1.5.6Zm.02.42c.59 0 1.08.2 1.48.63.42.41.63.91.63 1.5v5.15c0 .58-.2 1.08-.63 1.5-.4.4-.9.6-1.48.6a2.08 2.08 0 0 1-2.12-2.1v-5.15c0-.59.2-1.09.62-1.5.42-.42.92-.63 1.5-.63Z"/></svg>