<svg xmlns="http://www.w3.org/2000/svg" viewBox="0 0 24 24"><path d="M0,0H24V24H0Z" fill="none"/><path d="M12,22A10,10,0,1,1,22,12,10,10,0,0,1,12,22Zm6.67-10a1.46,1.46,0,0,0-1.51-1.41,1.5,1.5,0,0,0-1,.41,7.15,7.15,0,0,0-3.85-1.23L13,6.65l2.14.45a1,1,0,1,0,.13-.61L12.82,6a.31.31,0,0,0-.37.24h0l-.74,3.47a7.14,7.14,0,0,0-3.9,1.23A1.46,1.46,0,1,0,6.2,13.33a3.23,3.23,0,0,0,0,.44C6.2,16,8.81,17.83,12,17.83s5.83-1.82,5.83-4.06a3.23,3.23,0,0,0,0-.44A1.47,1.47,0,0,0,18.67,12Zm-10,1a1,1,0,1,1,1,1A1,1,0,0,1,8.67,13Zm5.81,2.75a3.84,3.84,0,0,1-2.47.77,3.84,3.84,0,0,1-2.47-.77.27.27,0,0,1,.38-.38A3.3,3.3,0,0,0,12,16a3.25,3.25,0,0,0,2.09-.61.27.27,0,0,1,.4,0,.28.28,0,0,1,0,.39l0,0ZM14.3,14a1,1,0,1,1,1-1,1,1,0,0,1-1,1h-.05Z"/></svg>