<svg xmlns="http://www.w3.org/2000/svg" viewBox="0 0 24 24"><path d="M22,18.23a4.28,4.28,0,0,1-1.32,2.9c-.18.14-.36.06-.28-.15.26-.65.87-2.14.58-2.49s-1-.24-1.73-.18c-.33,0-.61.06-.83.1s-.25-.16,0-.3a3.36,3.36,0,0,1,.87-.43,3.87,3.87,0,0,1,2.67.09.84.84,0,0,1,.08.46Zm-1.92,1.29a7,7,0,0,1-.83.55A14.69,14.69,0,0,1,12,22,14.57,14.57,0,0,1,2.1,18.23c-.22-.18,0-.45.22-.3a19.85,19.85,0,0,0,9.89,2.63,19.55,19.55,0,0,0,7-1.34l.5-.2C20.12,18.85,20.44,19.26,20.08,19.52Zm-6.17-11a3.85,3.85,0,0,0-.31-2.18A1.7,1.7,0,0,0,12,5.66a2,2,0,0,0-1.87,1.53.55.55,0,0,1-.44.48L7.29,7.36a.4.4,0,0,1-.35-.52C7.46,4.09,9.81,3.13,12,3h.53a5.89,5.89,0,0,1,3.79,1.26c1.21,1.14,1.08,2.67,1.08,4.32v3.93a3.24,3.24,0,0,0,1,2.31.48.48,0,0,1,0,.66c-.48.43-1.4,1.22-1.92,1.65a.57.57,0,0,1-.61.05,6.86,6.86,0,0,1-1.43-1.66A5.45,5.45,0,0,1,12,17.13a7.11,7.11,0,0,1-1.78.22A3.56,3.56,0,0,1,6.5,13.47a4.2,4.2,0,0,1,2.7-4.1,15.59,15.59,0,0,1,4.7-.88Zm-.48,5.2c.52-.88.47-1.59.47-3.19a8.6,8.6,0,0,0-1.87.18A2.29,2.29,0,0,0,10.16,13c0,1.09.57,1.84,1.52,1.84a1.18,1.18,0,0,0,.35,0A2,2,0,0,0,13.43,13.69Z"/><path d="M0,0H24V24H0Z" fill="none"/></svg>