<svg xmlns="http://www.w3.org/2000/svg" viewBox="0 0 24 24"><path d="M0,0H24V24H0Z" fill="none"/><path d="M12.06,2.52A8.55,8.55,0,0,0,4.82,6.4,9.93,9.93,0,0,0,3.69,9a8.64,8.64,0,0,0,2.69,8.59,10.55,10.55,0,0,0,1,.73,3.82,3.82,0,0,0,.24-.61c.12-.34.21-.64.21-.66a1.08,1.08,0,0,0-.21-.19,8.14,8.14,0,0,1-1.2-1.16,7.2,7.2,0,0,1-1.62-4.61A7,7,0,0,1,5.5,7.88a7.23,7.23,0,0,1,5.49-4,8.62,8.62,0,0,1,2,0,7.27,7.27,0,0,1,6.17,6.17,9.1,9.1,0,0,1,0,1.88,7.35,7.35,0,0,1-1.62,3.76,9.94,9.94,0,0,1-1.14,1.11,1.31,1.31,0,0,0-.23.21s.1.31.22.64l.22.61.26-.17a8.18,8.18,0,0,0,1.14-1,8,8,0,0,0,1.62-2.25,8.58,8.58,0,0,0,.69-5.71A8.4,8.4,0,0,0,18.12,5.1a8.39,8.39,0,0,0-6.06-2.58ZM12,5.83a4.59,4.59,0,0,0-1.64.25A5.52,5.52,0,0,0,7.54,8.26a6.34,6.34,0,0,0-.74,1.93,7.2,7.2,0,0,0,0,1.67,5.44,5.44,0,0,0,1,2.39,5.31,5.31,0,0,0,.71.77,6.13,6.13,0,0,0,.26-.65c.12-.36.23-.67.23-.69a1.41,1.41,0,0,0-.17-.26,3.84,3.84,0,0,1-.75-2.36,3.68,3.68,0,0,1,.52-2,3.95,3.95,0,0,1,7,3.7,3.51,3.51,0,0,1-.36.61l-.19.26.17.44c.09.24.19.54.24.67a.74.74,0,0,0,.1.23,6.13,6.13,0,0,0,.8-.89,5.44,5.44,0,0,0,.85-2,5.14,5.14,0,0,0-.4-3.33,4.74,4.74,0,0,0-1-1.47,5.07,5.07,0,0,0-2.08-1.29A4.51,4.51,0,0,0,12,5.83Zm0,3.28a1.93,1.93,0,0,0-1.38.59A1.84,1.84,0,0,0,10,11.2a1.92,1.92,0,0,0,.44,1.14l.15.19-.11.3c0,.16-.49,1.4-1,2.75S8.36,18.92,8,20s-.64,1.8-.7,1.95a12.15,12.15,0,0,0,1.57.55L9,22c.1-.27.34-1,.55-1.55l.37-1H10l.55.1a6.71,6.71,0,0,0,1.43.08,6.43,6.43,0,0,0,1.41-.08l.54-.1.1,0L14.62,21c.27.78.5,1.44.53,1.54A12.34,12.34,0,0,0,16.73,22h0S16,19.89,15.1,17.39l-1.66-4.7-.06-.16.17-.22a2,2,0,0,0,.22-2.12,2.32,2.32,0,0,0-.87-.86A2,2,0,0,0,12,9.11Zm0,4.51s1.5,4.12,1.51,4.21a7.6,7.6,0,0,1-2.09.16,5.39,5.39,0,0,1-.9-.15S12,13.67,12,13.62Z" fill-opacity="0.88"/></svg>