<svg xmlns="http://www.w3.org/2000/svg" viewBox="0 0 24 24"><path d="M0,0H24V24H0Z" fill="none"/><path d="M11.36,22.27c-.77-.28-.94-.65-1.25-2.84-.37-2.54-.45-4.11-.23-4.61a2.11,2.11,0,0,1,2.11-1,2.09,2.09,0,0,1,2.12,1c.21.5.13,2.07-.24,4.61-.24,1.78-.38,2.23-.72,2.53a1.78,1.78,0,0,1-1.78.31ZM8.08,19.66a9,9,0,0,1-5-6.45,11.9,11.9,0,0,1,0-3.26A9.05,9.05,0,0,1,5.43,5.33,9,9,0,0,1,18.5,5.26,8.83,8.83,0,0,1,20.92,10a12.6,12.6,0,0,1,0,3.07,9.08,9.08,0,0,1-3.47,5.68A10.5,10.5,0,0,1,15,20.08c-.09,0-.1-.1-.06-.5.08-.63.16-.76.52-.92a8.2,8.2,0,0,0,4.31-5.33,10.13,10.13,0,0,0-.06-3.76,8,8,0,0,0-6-5.74,9.67,9.67,0,0,0-3.22,0A8.06,8.06,0,0,0,4.33,9.76a10.76,10.76,0,0,0,0,3.58,8.27,8.27,0,0,0,3.42,4.84,7,7,0,0,0,.89.5c.36.16.43.29.5.92,0,.39,0,.5-.06.5a6.76,6.76,0,0,1-1-.41Zm0-3.49A6.54,6.54,0,0,1,6.1,13a7.36,7.36,0,0,1,0-2.92A6.3,6.3,0,0,1,10.2,5.72a7.57,7.57,0,0,1,3.13-.12A6.12,6.12,0,0,1,18,12.23a6,6,0,0,1-1.3,3.09,5.44,5.44,0,0,1-1.39,1.23,2.06,2.06,0,0,1-.05-.65v-.64l.44-.54a4.87,4.87,0,0,0-.27-6.67,4.66,4.66,0,0,0-2.6-1.34,3.25,3.25,0,0,0-1.55,0A4.71,4.71,0,0,0,8.6,8.05a4.88,4.88,0,0,0-.28,6.67l.44.54v.65a1.9,1.9,0,0,1-.06.65,3,3,0,0,1-.55-.39Zm3-3.51a2,2,0,0,1-1.19-1.9,2.1,2.1,0,0,1,1.2-1.87,2.28,2.28,0,0,1,1.81,0A2.35,2.35,0,0,1,14,10.25a2.08,2.08,0,0,1-2.91,2.41Z"/></svg>