<svg xmlns="http://www.w3.org/2000/svg" viewBox="0 0 24 24"><path d="M0,0H24V24H0Z" fill="none"/><path d="M2.46,15.14l.07.48a7.24,7.24,0,0,0,1.56,3.22C5.29,20.28,7.63,22,12,22s6.71-1.72,7.9-3.16a7.2,7.2,0,0,0,1.57-3.22l.07-.48Zm9.54,6a10.56,10.56,0,0,1-5.34-1.24,9.09,9.09,0,0,1,.3-1.1,5.35,5.35,0,0,1,.78-1.45A5.06,5.06,0,0,1,9.54,16H13l0,0A6,6,0,0,0,11.8,19h0c0,.18,0,.41.14.49a.33.33,0,0,0,.37-.1,1,1,0,0,0,.17-.37,7.32,7.32,0,0,1,1.88-3h6.17C20.11,17.34,18.35,21.17,12,21.17ZM20.24,9.49h0c0-.39-.76-7.41-8.18-7.49h-.12C4.53,2.08,3.8,9.09,3.76,9.49c0,.19-.28,2.38.77,3.58a2.24,2.24,0,0,0,1.78.76H17.69a2.24,2.24,0,0,0,1.78-.76C20.52,11.87,20.26,9.68,20.24,9.49Zm-7.6-1.57a1.25,1.25,0,1,1,1.25,1.24A1.25,1.25,0,0,1,12.64,7.92Zm6.21,4.6h0a1.45,1.45,0,0,1-1.16.48H14A4.35,4.35,0,1,0,10,13H6.31a1.45,1.45,0,0,1-1.16-.48c-.82-.94-.57-2.91-.57-2.93v0c0-.27.55-6.69,7.41-6.73s7.39,6.46,7.41,6.73v0A4.39,4.39,0,0,1,18.85,12.52Z"/></svg>