<svg fill="currentColor" viewBox="0 0 24 24" width="1em" height="1em"><path fill="none" d="M0,0H24V24H0Z"/><path d="M13.3,13.07a1.91,1.91,0,0,1,.48,0,2.51,2.51,0,0,1,1.88,1.63c.08.26.19.66.26.93l.09.37h.38a5.49,5.49,0,0,0,5.38-5.46c0-4.52-3.77-8.28-9.54-8.28A10.16,10.16,0,0,0,5.9,4.56,10,10,0,0,0,2.23,12.3a10.64,10.64,0,0,0,.28,2.35,10,10,0,0,0,9.72,7.65,11.07,11.07,0,0,0,1.3-.08A10,10,0,0,0,20,18.6l.1-.12-.2-.73-.38.1a14.32,14.32,0,0,1-3.72.48,14.14,14.14,0,0,1-3-.31,2.51,2.51,0,0,1-1.87-1.65,2.51,2.51,0,0,1,.48-2.44A2.5,2.5,0,0,1,13.3,13.07ZM12.23,3.24c5.34,0,8.6,3.42,8.6,7.34a4.55,4.55,0,0,1-4.1,4.5c-.06-.22-.13-.45-.18-.62a15.25,15.25,0,0,0-9.36-9.7A8.79,8.79,0,0,1,12.23,3.24ZM3.17,12.3A9,9,0,0,1,6.3,5.45a14.35,14.35,0,0,1,8.38,7A3.26,3.26,0,0,0,14,12.2a15.86,15.86,0,0,0-3.17-.33,15.65,15.65,0,0,0-7.51,1.94A9.33,9.33,0,0,1,3.17,12.3Zm9.44,6.64a15.9,15.9,0,0,0,3.19.33,16.77,16.77,0,0,0,2.46-.19,9,9,0,0,1-4.6,2.17,13.91,13.91,0,0,1-1.73-2.52A3.83,3.83,0,0,0,12.61,18.94Zm-.07,2.42h-.31a8.82,8.82,0,0,1-4.16-1A14.24,14.24,0,0,1,9.88,16a4.07,4.07,0,0,0,.16.71A15.68,15.68,0,0,0,12.54,21.36Zm-1.83-8a15.6,15.6,0,0,0-3.48,6.55,9,9,0,0,1-3.72-5.1,14.27,14.27,0,0,1,7.29-1.95h.44A3.57,3.57,0,0,0,10.71,13.31Z"/></svg>