<svg fill="currentColor" viewBox="0 0 24 24" width="1em" height="1em"><path fill="none" d="M0,0H24V24H0Z"/><path d="m19.54 3.4058c-0.31949 0-0.57508 0.67093-0.76677 1.7252-0.31949-1.8211-0.79872-3.0032-1.3419-3.0032-0.63898 0-1.2141 1.6933-1.4696 4.1214-0.25559-1.7891-0.63898-2.9073-1.1182-2.9073-0.63898 0-1.1502 2.2364-1.3419 5.3355-0.38339-1.5974-0.89457-2.5879-1.5016-2.5879-0.57508 0-1.1182 0.95847-1.5016 2.5559-0.19169-3.0671-0.70288-5.3035-1.3419-5.3035-0.44728 0-0.83067 1.1182-1.1182 2.8754-0.25559-2.3962-0.83067-4.0895-1.4696-4.0895-0.54313 0-1.0543 1.1821-1.3419 3.0032-0.19169-1.0543-0.44728-1.7252-0.76677-1.7252-0.54313 0-0.99042 2.3323-0.99042 5.1757s0.44728 5.1438 0.99042 5.1438c0.25559 0 0.44728-0.38339 0.63898-1.0543 0.25559 2.4281 0.83067 4.0895 1.4696 4.0895 0.51118 0 0.95847-1.0224 1.278-2.5559 0.19169 2.9712 0.70288 5.0799 1.3099 5.0799 0.38339 0 0.73482-0.83067 0.95847-2.2045 0.31949 2.8115 1.0543 4.7923 1.9169 4.7923 0.79872 0 1.5335-1.9808 1.8211-4.7923 0.25559 1.3738 0.63898 2.2045 0.99042 2.2045 0.63898 0 1.1502-2.1086 1.3419-5.1118 0.31949 1.5974 0.76677 2.5559 1.278 2.5559 0.63898 0 1.1821-1.6294 1.4696-4.0575 0.15974 0.67093 0.38339 1.0543 0.60703 1.0543 0.54313 0 1.0224-2.3003 1.0224-5.1438 0-2.8754-0.47923-5.1757-1.0224-5.1757zm-16.965 6.9649c0.31949 0 0.57508-1.0224 0.57508-2.3003s-0.25559-2.3003-0.57508-2.3003-0.57508 1.0224-0.57508 2.3003 0.25559 2.3003 0.57508 2.3003zm19.425-2.3003c0 1.278-0.25559 2.3003-0.57508 2.3003s-0.57508-1.0224-0.57508-2.3003 0.25559-2.3003 0.57508-2.3003 0.57508 1.0224 0.57508 2.3003z"/></svg>