<svg fill="currentColor" viewBox="0 0 24 24" width="1em" height="1em"><path fill="none" d="M0 0h24v24H0Z"/><path d="M8.82 21.87c.14-.17.13-.23-.1-.76a6.83 6.83 0 0 1-.38-3.22 6.26 6.26 0 0 1 .89-3.15 2.59 2.59 0 0 1 .42-.51A1.57 1.57 0 0 1 11.2 14a5.2 5.2 0 0 0 2.43.33 4.33 4.33 0 0 0 2.73-1.18 2.11 2.11 0 0 0 .45-2.67 3.17 3.17 0 0 0-2.18-1.59 8.69 8.69 0 0 0-2.57-.11 6.35 6.35 0 0 0-5.22 5.38A11.6 11.6 0 0 0 7.65 21c.33.67.63 1 .9 1a.28.28 0 0 0 .27-.13ZM8 10.25a7.17 7.17 0 0 1 1.52-1.4c.47-.31.48-.32.68-.72a1.47 1.47 0 0 1 1.37-1 1.44 1.44 0 0 1 .74.1 5.09 5.09 0 0 0 1.32.36 3.71 3.71 0 0 0 3-1.15 2 2 0 0 0 .71-1.8 3.2 3.2 0 0 0-2.71-2.54 5.37 5.37 0 0 0-4.92 1.68 7.67 7.67 0 0 0-2 4.94 9.12 9.12 0 0 0 .07 1.71.83.83 0 0 0 .22-.18Z"/></svg>