<svg fill="currentColor" viewBox="0 0 24 24" width="1em" height="1em"><path fill="none" d="M0 0h24v24H0Z"/><path fill-rule="evenodd" d="M22 12.05a9.28 9.28 0 0 0-2.74-2.85 6.78 6.78 0 0 0-.19-4.2 9.45 9.45 0 0 0-4-.07A6.71 6.71 0 0 0 12 2.05a9.39 9.39 0 0 0-2.85 2.74A6.74 6.74 0 0 0 4.93 5a9.34 9.34 0 0 0-.07 4A6.67 6.67 0 0 0 2 12.05a9.34 9.34 0 0 0 2.74 2.84 6.78 6.78 0 0 0 .19 4.23 9.45 9.45 0 0 0 4 .07A6.77 6.77 0 0 0 12 22.05a9.53 9.53 0 0 0 2.85-2.75 6.74 6.74 0 0 0 4.22-.18 9.34 9.34 0 0 0 .07-4A6.69 6.69 0 0 0 22 12.05ZM9.73 7.86a2.25 2.25 0 1 1 4.5 0v1.91h-4.5Zm0 2.64h4.5v1.91a2.25 2.25 0 0 1-4.5 0Zm6.14 1.94a3.88 3.88 0 0 1-3.52 3.86v2.06a.36.36 0 1 1-.72 0V16.3a3.87 3.87 0 0 1-3.51-3.86v-1.19a.36.36 0 0 1 .72 0v1.19A3.16 3.16 0 0 0 12 15.6a3.16 3.16 0 0 0 3.15-3.16v-1.19a.37.37 0 0 1 .73 0Z"/></svg>