<svg fill="currentColor" viewBox="0 0 24 24" width="1em" height="1em"><path fill="none" d="M0,0H24V24H0Z"/><path d="M19.42,11.07c0-.08,0-.16,0-.24a4.92,4.92,0,0,0-9.28-2.3,3.87,3.87,0,0,0-.77-.08A3.56,3.56,0,0,0,6,11l-.4,0a3.57,3.57,0,0,0,0,7.14H18.41a3.59,3.59,0,0,0,1-7Zm-6.77,6.71c-1,0-1.76-1.16-1.76-2.24,0-1.28.48-1.28,1.69-1.28s1.83,0,1.83,1.28C14.41,16.62,13.62,17.78,12.65,17.78Zm-1.18-5.3a1.17,1.17,0,1,1,1.17,1.17A1.17,1.17,0,0,1,11.47,12.48Zm2.85,1.33a2.07,2.07,0,0,0,.47-1.33,2.15,2.15,0,1,0-3.86,1.3,1,1,0,0,0-.35.25,2.58,2.58,0,1,1,4.09,0A.9.9,0,0,0,14.32,13.81ZM15,15.89a4.38,4.38,0,0,0,0-.51,2.62,2.62,0,0,0,0-.29,3.53,3.53,0,1,0-4.75,0c0,.09,0,.18,0,.28a3.05,3.05,0,0,0,.05.52,4.14,4.14,0,1,1,4.68,0Z"/></svg>