<svg fill="currentColor" viewBox="0 0 24 24" width="1em" height="1em"><path fill="none" d="M0,0H24V24H0Z"/><path d="M22,11.77A10,10,0,1,0,7.3,20.83V12a4.76,4.76,0,0,1,3.86-4.66V9a3.12,3.12,0,0,0-2.24,3v0h0a3.13,3.13,0,0,0,6.13.85h1.66a4.74,4.74,0,0,1-5.56,3.76,4.59,4.59,0,0,1-2.23-1.09v6A10.33,10.33,0,0,0,12,22a10,10,0,0,0,5.61-1.72V22H22Zm-9.95,2a1.83,1.83,0,1,1,1.82-1.83h0a1.81,1.81,0,0,1-1.81,1.82ZM16.79,12H15.18a3.13,3.13,0,0,0-3.13-3.13h0V7.2h0A4.75,4.75,0,0,1,16.79,12h0Zm2.78,0H18A5.93,5.93,0,0,0,12.05,6h0V4.42h0A7.53,7.53,0,0,1,19.57,12Z"/></svg>