<svg fill="currentColor" viewBox="0 0 24 24" width="1em" height="1em"><path fill="none" d="M0,0H24V24H0Z"/><path d="M7.12,21.73a4.62,4.62,0,0,1-2.46-2.49,10.13,10.13,0,0,0-.85-1.63,10,10,0,1,1,16.4,0,9.39,9.39,0,0,0-.85,1.63,4.5,4.5,0,0,1-2.52,2.49A2.48,2.48,0,0,1,16,22a65.25,65.25,0,0,1,2.21-7.53,1.55,1.55,0,0,1,.59.46,2.13,2.13,0,0,0,.52.46,3.71,3.71,0,0,0,.42-1,7.37,7.37,0,0,0,.24-2.76,5.78,5.78,0,0,0-.76-3.12,8,8,0,0,0-14.34,0,5.79,5.79,0,0,0-.77,3.12,7.56,7.56,0,0,0,.25,2.76,3.71,3.71,0,0,0,.42,1,2.34,2.34,0,0,0,.52-.46,1.49,1.49,0,0,1,.6-.46,10.94,10.94,0,0,1,.84,2.45c.37,1.35.84,3,1,3.71A3.32,3.32,0,0,1,8,21.9a2,2,0,0,1-.84-.17Zm1.41-.3c-.1-.34-.62-2.19-1.17-4.11-.83-3-1-3.51-.72-3.65a1.35,1.35,0,0,1,1.54.16A54.67,54.67,0,0,1,10.34,21c0,.32-.58.78-1.14.92s-.52.06-.67-.49Zm5.84.37a1,1,0,0,1-.62-.61,33.68,33.68,0,0,1,2-7.26,1.14,1.14,0,0,1,.85-.44c1.11,0,1.11,0-.15,4.43A23.9,23.9,0,0,1,15.09,22a4.11,4.11,0,0,1-.72-.2Z"/></svg>