<svg fill="currentColor" viewBox="0 0 24 24" width="1em" height="1em"><path fill="none" d="M0,0H24V24H0Z"/><path fill-rule="evenodd" d="M21.5,5.23H12.06a.49.49,0,0,0-.5.49h0V8.32H2.5a.5.5,0,0,0-.5.5H2v9.45a.5.5,0,0,0,.49.5h9.45a.49.49,0,0,0,.5-.49h0v-2.6H21.5a.49.49,0,0,0,.5-.49h0V5.67A.49.49,0,0,0,21.5,5.23Zm-10,12.6H2.94V9.26H11.5Zm6.41-5.36a.11.11,0,0,1-.11.11h-2a.11.11,0,0,1-.11-.11v-.61a.12.12,0,0,1,.11-.11h.5s0,0,0-.05V9.21c0-.06,0-.06,0-.06h-.45A.12.12,0,0,1,15.7,9v-.6a.11.11,0,0,1,.11-.11h1.88a.11.11,0,0,1,.11.11V9a.11.11,0,0,1-.11.11h-.44c-.05,0-.05,0-.05.06V11.7c0,.05,0,.05.05.05h.5a.12.12,0,0,1,.11.11l.06.61Zm-12-.33v-.61A.11.11,0,0,1,6,11.42H8.46a.11.11,0,0,1,.11.11v.61h0a.12.12,0,0,1-.11.11H7.7c-.06,0-.06,0-.06.05v3.26a.11.11,0,0,1-.11.11H6.92a.11.11,0,0,1-.11-.11V12.3c0-.05,0-.05-.06-.05H6A.12.12,0,0,1,5.87,12.14Z"/></svg>