<svg width="1050" height="300" version="1.1" viewBox="0 0 1050 300" xmlns="http://www.w3.org/2000/svg">
 <rect width="1050" height="300" rx="150" ry="150" fill="#008648"/>
 <g transform="matrix(25.805 0 0 25.805 525 -3846.6)" fill="#fff">
  <path d="m12.765 154.51c0.0337-0.0767 0.0631-0.14717 0.09502-0.2165 0.01373-0.0299 0.06242-0.0446 0.09174-0.0323 0.01685 7e-3 0.01171 0.0207 0.01171 0.0323 0 0.13479 0 0.26957 7.58e-4 0.40393 0 0.0253-0.0079 0.0337-0.0337 0.0337-0.02578 0-0.03369-9e-3 -0.03369-0.0341 1e-3 -0.0954 5.89e-4 -0.1908 0-0.28641 0-0.0147 0.0033-0.0302-0.0062-0.0493-0.02991 0.0724-0.06832 0.1368-0.09123 0.20815-0.0055 0.0169-0.01045 0.0307-0.03193 0.0325-0.02148 2e-3 -0.03201-8e-3 -0.04018-0.0274-0.0235-0.0565-0.04903-0.11229-0.07447-0.16806-0.0049-0.0108-0.0071-0.0243-0.02334-0.0306-0.0089 0.0169-0.0047 0.0352-0.0048 0.0524-5.06e-4 0.0883-9.28e-4 0.1769 0 0.26502 0 0.0259-0.0056 0.0377-0.03471 0.0376-0.02915-8e-5 -0.03024-0.016-0.03024-0.0376 4.22e-4 -0.12905 0-0.25811 6.74e-4 -0.38708 0-0.0169-0.01112-0.0456 0.02022-0.0456 0.02763 0 0.06234-0.0176 0.08028 0.0238 0.02923 0.0674 0.06074 0.13419 0.0914 0.20108 0.0033 7e-3 0.0067 0.0126 0.01272 0.0243z"/>
  <path d="m12.28 154.53c0-0.0518-0.0027-0.10379 9.27e-4 -0.15534 0.0029-0.0421-0.01314-0.0548-0.05248-0.0501-0.02207 3e-3 -0.04482-5.9e-4 -0.06739 7.6e-4 -0.02367 1e-3 -0.03546-4e-3 -0.03563-0.0318 0-0.0294 0.01483-0.0307 0.03681-0.0306 0.10226 5.9e-4 0.20453 7.6e-4 0.3068 0 0.02451 0 0.03555 7e-3 0.03521 0.0337-3.37e-4 0.027-0.01381 0.0298-0.03487 0.0292-0.02662-8.4e-4 -0.05341 2e-3 -0.07977-6.7e-4 -0.0326-3e-3 -0.04364 8e-3 -0.04296 0.0417 2e-3 0.10782 0 0.21573 1e-3 0.32356 0 0.0261 5.06e-4 0.0451-0.03614 0.0444-0.03665-6.7e-4 -0.03176-0.0222-0.03176-0.0445 2.78e-4 -0.0536 3.62e-4 -0.10701 2.52e-4 -0.1603z"/>
  <path d="m6.289 155.55c0.07194-0.0627 0.13723-0.11962 0.2111-0.16527 0.21211-0.13116 0.44369-0.1716 0.68942-0.15029 0.11549 9e-3 0.22632 0.0367 0.3325 0.083 0.15163 0.0674 0.26434 0.1769 0.35642 0.31169 0.015332 0.0223 0.023166 0.0267 0.040351 1e-3 0.15727-0.23512 0.38228-0.36392 0.65867-0.39778 0.27378-0.0337 0.52852 0.02 0.73971 0.2106 0.10648 0.0963 0.16604 0.22028 0.19122 0.3613 0.01608 0.0941 0.023858 0.18886 0.023334 0.28431 0.00109 0.48286 0 0.9658 0.00152 1.4489 0 0.0412-0.011457 0.0505-0.051471 0.0505-0.25407-2e-3 -0.50816-2e-3 -0.76228 0-0.036896 0-0.047006-9e-3 -0.046837-0.0464 0.00146-0.38042 0.00163-0.76085 5.054e-4 -1.1413 9.199e-4 -0.0914-0.00863-0.18177-0.02864-0.271-0.073457-0.31169-0.42718-0.31362-0.58487-0.16612-0.09696 0.0907-0.12914 0.20647-0.14321 0.33148-0.01213 0.10631-0.00741 0.21296-0.00758 0.31952-5.054e-4 0.31028-3.707e-4 0.62051 4.212e-4 0.93068 0 0.0321-0.00708 0.0433-0.041529 0.043-0.25833-1e-3 -0.51667-1e-3 -0.775 0-0.036139 0-0.043719-0.0112-0.043635-0.0452 0.00118-0.38464 6.739e-4 -0.76928 7.581e-4 -1.1541 0-0.0786-0.0027-0.15694-0.01786-0.23436-0.028136-0.14413-0.11431-0.2341-0.25584-0.26956-0.16688-0.0415-0.33173 0.0213-0.41934 0.15845-0.05265 0.0823-0.064023 0.1769-0.064695 0.27058-0.00298 0.40716-0.00357 0.81431-0.00177 1.2215 0 0.0436-0.011793 0.053-0.053577 0.0526-0.25407-2e-3 -0.50816-2e-3 -0.76228 0-0.035549 0-0.044057-0.01-0.043973-0.0446 8.988e-4 -0.74546 8.988e-4 -1.4909 0-2.2363 0-0.0366 0.011708-0.0435 0.04532-0.0433 0.25693 1e-3 0.51383 1e-3 0.77071 0 0.036308 0 0.044563 0.0114 0.043551 0.0453-0.00253 0.0768-0.0011 0.15408-0.0011 0.24109z"/>
  <path d="m3.7061 157.35c-0.052818 0.0513-0.10378 0.10108-0.16132 0.14261-0.13099 0.0951-0.27925 0.14321-0.43922 0.16141-0.24766 0.0281-0.4837-0.0115-0.70197-0.13057-0.3469-0.18912-0.57215-0.47343-0.63415-0.86927-0.050544-0.32441-0.01331-0.63837 0.17387-0.91745 0.20108-0.29897 0.48084-0.48194 0.8413-0.53484 0.26519-0.0391 0.51487 3e-3 0.74586 0.14228 0.061411 0.0369 0.11339 0.0864 0.16974 0.13479 0.010446-0.0169 0.00598-0.0337 0.00598-0.0491 0-0.5179-2.527e-4 -1.0358-7.581e-4 -1.5538 0-0.0427 0.011287-0.0544 0.054082-0.0541 0.25685 2e-3 0.51386 2e-3 0.77054 0 0.032349 0 0.042963 8e-3 0.042963 0.0421-8.988e-4 1.2268-8.988e-4 2.4536 0 3.6803 0 0.0316-0.00615 0.0432-0.041025 0.043-0.26103-2e-3 -0.52217-2e-3 -0.78343 0-0.033696 0-0.043804-0.0106-0.042794-0.0433 0.00177-0.0648 3.369e-4 -0.12931 3.369e-4 -0.19417zm-0.51605-0.40435c0.030832 0 0.062084 3e-3 0.092663-5.1e-4 0.31337-0.0382 0.5249-0.36223 0.43215-0.66658-0.10842-0.35524-0.52919-0.48185-0.82049-0.29392-0.21211 0.13689-0.27133 0.3314-0.23916 0.52995 0.039508 0.24464 0.26898 0.44791 0.53484 0.43106z"/>
  <path d="m-8.5416 155.18c0.30874-5e-4 0.56592 0.041 0.80213 0.16848 0.32853 0.17791 0.56044 0.43804 0.64334 0.80996 0.12636 0.56752-0.14733 1.1152-0.67501 1.3652-0.18735 0.0887-0.3859 0.13023-0.59203 0.14447-0.21986 0.0152-0.4372 3e-3 -0.65024-0.0534-0.39011-0.10328-0.68942-0.32559-0.85486-0.69919-0.18373-0.41463-0.13739-0.92116 0.20546-1.2889 0.21447-0.22998 0.47814-0.35987 0.78393-0.41412 0.12594-0.0217 0.25247-0.0334 0.33729-0.0325zm0.023335 0.70761c-0.04217-8.6e-4 -0.084009 2e-3 -0.12552 0.01-0.31514 0.0617-0.55488 0.42398-0.38228 0.76456 0.11642 0.22972 0.35844 0.34395 0.62615 0.29593 0.30267-0.0544 0.49777-0.35481 0.43097-0.6542-0.047342-0.2122-0.27268-0.42684-0.54933-0.4164l5e-7 1.7e-4z"/>
  <path d="m-0.42281 155.55c0.059228-0.0707 0.12623-0.13314 0.20099-0.18718 0.12409-0.0883 0.26502-0.12956 0.41513-0.14473 0.19173-0.0193 0.38076-0.012 0.56221 0.059 0.2758 0.10842 0.4372 0.31101 0.48977 0.60214 0.014321 0.0791 0.016848 0.15846 0.016848 0.2384-3.369e-4 0.47444-8.42e-5 0.94884 7.582e-4 1.4232 0 0.0375-0.00986 0.0464-0.046669 0.0462-0.25541-2e-3 -0.51094-2e-3 -0.76658 0-0.042626 0-0.049618-0.0131-0.049534-0.052 0.001461-0.39019 0.001461-0.78036 0-1.1705 2.106e-4 -0.0814-0.007965-0.16198-0.024514-0.24169-0.029567-0.13655-0.11591-0.22121-0.24817-0.25052-0.17446-0.0388-0.33131-6.8e-4 -0.45388 0.13815-0.058968 0.0668-0.078763 0.14952-0.089377 0.23587-0.012299 0.0992-0.006824 0.19889-0.006992 0.29829-7.3288e-4 0.33269-5.644e-4 0.66535 5.0544e-4 0.99798 0 0.0347-0.008424 0.0446-0.044057 0.0445-0.25833-2e-3 -0.51667-2e-3 -0.775 0-0.036055 0-0.043553-0.0109-0.043468-0.045 8.989e-4 -0.7453 8.989e-4 -1.4906 0-2.2359 0-0.0378 0.010362-0.0462 0.046838-0.0459 0.25682 2e-3 0.51366 2e-3 0.77054 0 0.033696 0 0.046416 7e-3 0.045152 0.0434-0.002612 0.0786-5.0544e-4 0.15702-5.0544e-4 0.24632z"/>
  <path d="m-1.8386 156.07c0 0.24429 0.00522 0.48858-0.00135 0.73288-0.00842 0.31564-0.14877 0.55724-0.42878 0.71165-0.16924 0.0933-0.35263 0.1379-0.54326 0.16082-0.14793 0.0169-0.29625 0.0216-0.44495 0.0141-0.27209-0.0121-0.53745-0.0569-0.77332-0.20613-0.22503-0.14225-0.35139-0.34636-0.37908-0.61234-0.00555-0.0629-0.00783-0.12584-0.00683-0.18895 1.7e-6 -0.45624 1.7e-6 -0.91256-0.00101-1.3688 0-0.0371 0.00767-0.0497 0.04768-0.0494 0.25693 2e-3 0.51386 2e-3 0.77079 0 0.037992 0 0.049533 8e-3 0.049364 0.0484-0.00152 0.42819-6.739e-4 0.85638-0.00118 1.2846 0 0.0694 0.00741 0.13689 0.035295 0.201 0.049617 0.11414 0.14279 0.17497 0.2592 0.19948 0.10513 0.0221 0.21195 0.0207 0.31506-0.0155 0.14119-0.0497 0.21532-0.1529 0.23469-0.2993 0.00842-0.0642 8e-3 -0.12855 8e-3 -0.193 0-0.39314 5.055e-4 -0.7862-9.266e-4 -1.1794 0-0.0372 0.00935-0.0466 0.046416-0.0463 0.25693 2e-3 0.51386 2e-3 0.77079 0 0.03437 0 0.044984 8e-3 0.044732 0.0437-0.0016 0.25407-8.424e-4 0.50822-8.424e-4 0.76237l-5.055e-4 1.7e-4z"/>
  <path d="m11.795 156.58h-0.84644c-0.04878 0-0.05282 5e-3 -0.04642 0.0536 0.0063 0.0471 0.0094 0.0946 0.02182 0.14093 0.03951 0.14641 0.12729 0.24775 0.27403 0.29298 0.1272 0.0393 0.25558 0.0471 0.38489 8e-3 0.09368-0.0278 0.16738-0.0842 0.225-0.16132 0.01685-0.0222 0.03327-0.033 0.06225-0.0329 0.2471 1e-3 0.4942 1e-3 0.74131 0 0.04069 0 0.04288 0.0121 0.03142 0.0461-0.13032 0.38548-0.40603 0.60652-0.79244 0.70323-0.1256 0.0312-0.25348 0.0426-0.38304 0.0448-0.22441 4e-3 -0.44546-0.016-0.65631-0.096-0.41362-0.15702-0.6756-0.44874-0.75436-0.88805-0.060062-0.33494-0.01634-0.65707 0.16907-0.94955 0.14186-0.22391 0.34142-0.37907 0.59304-0.45994 0.3405-0.10952 0.68723-0.11794 1.0308-0.0202 0.42524 0.12046 0.67703 0.41437 0.79261 0.83313 0.04111 0.14868 0.04692 0.30115 0.0449 0.45447 0 0.0337-0.01988 0.0303-0.04136 0.0303l-0.85082 9e-5zm-0.39037-0.46517h0.44647c0.01752 0 0.04044 5e-3 0.03201-0.0263-0.03125-0.11642-0.08298-0.21995-0.18482-0.29198-0.10184-0.072-0.21717-0.0832-0.33696-0.0785-0.21902 8e-3 -0.38438 0.14809-0.43122 0.36223-0.0067 0.0309 0.0015 0.035 0.02881 0.0349 0.14826-7.6e-4 0.29703-3.4e-4 0.44571-3.4e-4z"/>
  <path d="m-6.2272 156.76c0-0.25819-6.739e-4 -0.51647 7.582e-4 -0.775 0-0.0346-0.00842-0.0459-0.043889-0.0446-0.075816 3e-3 -0.15163 0-0.22745 1e-3 -0.025693 5.1e-4 -0.033696-8e-3 -0.033696-0.0337 8.427e-4 -0.20487 8.427e-4 -0.40986 0-0.61495 0-0.0289 0.010193-0.0352 0.03656-0.0347 0.074383 2e-3 0.14894-2e-3 0.22315 2e-3 0.039003 2e-3 0.046247-0.0118 0.045489-0.0474-0.00236-0.10244-0.00345-0.20496 0-0.30731 0.00665-0.21363 0.042625-0.42187 0.16317-0.60299 0.16048-0.241 0.38598-0.39398 0.66895-0.458 0.1983-0.0449 0.39365-0.0359 0.58462 0.0403 0.03597 0.0143 0.047427 0.0322 0.047006 0.0707-0.00211 0.20344-9.266e-4 0.40704-9.266e-4 0.61057 0 0.0585 0 0.059-0.050544 0.0337-0.090136-0.0455-0.18389-0.0728-0.28641-0.067-0.14161 8e-3 -0.23781 0.10336-0.25095 0.2443-0.013815 0.14843-0.00691 0.29702-0.010446 0.44545-7.581e-4 0.0302 0.00952 0.0377 0.038329 0.0375 0.17269-1e-3 0.34538 0 0.5179-1e-3 0.032265 0 0.043467 7e-3 0.043216 0.0421-0.00157 0.19785-0.00157 0.39576 0 0.59372 0 0.036-0.00842 0.0487-0.046753 0.0482-0.16561-2e-3 -0.33123-1e-3 -0.49701-7.6e-4 -0.061832 0-0.055009-7e-3 -0.055009 0.0574v1.5285c0 0.0571 0 0.0571-0.05703 0.0571-0.25541 0-0.51091-5.9e-4 -0.76658 7.6e-4 -0.032937 0-0.042709-8e-3 -0.04212-0.0421 2.519e-4 -0.26106-3.378e-4 -0.52211-3.378e-4 -0.78326z"/>
  <path d="m13.155 151.67c-0.16452-0.19788-0.55227-0.24665-0.79227-0.13386-0.05054 0.0238-0.10328 0.043-0.14868 0.0758l-1.4398 1.0446c-0.10252 0.0895-0.19535 0.19114-0.20992 0.32322-0.01331 0.12047 0 0.22012 0.10538 0.32769 0.2384 0.24278 0.65926 0.2443 0.85992 0.12198 0.18432-0.11195 1.4019-1.0118 1.6005-1.1585l0.05156-0.0516c0.05888-0.0811 0.1609-0.32364-0.0267-0.54932z"/>
  <path d="m7.0985 153.28c0.10555-0.10757 0.11869-0.20723 0.10538-0.32769-0.014573-0.13208-0.10741-0.23376-0.20992-0.32322l-1.4398-1.0446c-0.045404-0.0329-0.098054-0.0521-0.14868-0.0758-0.24-0.11279-0.62775-0.064-0.79185 0.13386-0.1876 0.22568-0.085587 0.46812-0.026284 0.54907l0.051556 0.0516c0.19779 0.14691 1.4154 1.0468 1.5999 1.1587 0.20049 0.12207 0.62135 0.1208 0.85975-0.12198z"/>
  <path d="m8.8947 153c0.30739 0 0.56499-0.13992 0.6382-0.39971 0.00956-0.0359 0.014301-0.0724 0.014238-0.10951l0.00691-0.93658c0-8e-3 5.897e-4 -0.0158 5.897e-4 -0.0237 0-0.36004-0.2902-0.52734-0.65462-0.52734-0.36223 0-0.65665 0.19434-0.6596 0.55101l-6.739e-4 0.94416c-5.896e-4 0.0369 0.00303 0.0734 0.010867 0.10951 0.06259 0.27016 0.32702 0.39213 0.6441 0.39213z"/>
  <path d="m10.795 153.71c-0.48859-0.24312-1.1344-0.39593-1.9776-0.39593-1.4129 0-2.3603 0.44588-2.8416 1.0939h0.00725l-0.00202 3e-3 5.6862-5.1e-4c-0.20731-0.26855-0.49221-0.5115-0.87213-0.70011z"/>
  <path d="m-11.318 157.32c-0.04212 0.0348-0.07641 0.0644-0.11196 0.0927-0.15416 0.12392-0.3303 0.1903-0.52742 0.20773-0.28094 0.0253-0.54503-0.0238-0.78536-0.17479-0.28987-0.18162-0.45203-0.44883-0.5019-0.78461-0.04212-0.28119-0.01441-0.55598 0.1192-0.80971 0.19139-0.36307 0.4912-0.58285 0.90136-0.64333 0.21498-0.0318 0.42457-0.0134 0.6248 0.0772 0.08955 0.0405 0.16477 0.10109 0.23309 0.17034 0.01323 0.0135 0.02451 0.0289 0.03673 0.0435l0.01272-8e-3c0-0.0625 0.0014-0.12509-6.74e-4 -0.18751-1e-3 -0.0316 0.0064-0.0439 0.04136-0.0437 0.25833 2e-3 0.51667 2e-3 0.775 0 0.02889 0 0.03841 7e-3 0.03841 0.0375-1e-3 0.76085 0.0012 1.5217-3e-3 2.2829-1e-3 0.17623-0.02157 0.35271-0.10479 0.51428-0.12316 0.23933-0.31548 0.40519-0.55598 0.51782-0.1876 0.088-0.3875 0.12485-0.59364 0.13773-0.25592 0.016-0.50763-3e-3 -0.74973-0.0881-0.3073-0.10749-0.54857-0.29627-0.70264-0.58774-0.0283-0.0536-0.0438-0.1117-0.05551-0.17117-0.0061-0.0307-0.0012-0.0404 0.03311-0.0402 0.21473 2e-3 0.42962 8.4e-4 0.64426 8.4e-4h0.24429c0.01744 0 0.03193 0 0.03984 0.0214 0.05164 0.13833 0.16208 0.20066 0.29947 0.21802 0.13537 0.0168 0.26906 6e-3 0.39222-0.0621 0.15668-0.0868 0.23427-0.22374 0.25044-0.39879 0.0097-0.10437 0.0076-0.20891 0.0063-0.32221zm-0.50914-0.36771c0.29298 8e-3 0.55109-0.23183 0.55126-0.53778 0-0.29661-0.23174-0.54554-0.54907-0.54562-0.3362 0-0.54545 0.27917-0.54697 0.54309-0.0017 0.27976 0.2405 0.54511 0.54478 0.54031z"/>
 </g>
</svg>
