<svg width="1050" height="300" version="1.1" viewBox="0 0 1050 300" xmlns="http://www.w3.org/2000/svg">
 <linearGradient id="SVGID_1_" x1="4.322" x2="24.268" y1="33.651" y2="-.503" gradientTransform="matrix(3.9122 0 0 -3.9122 133.76 239.95)" gradientUnits="userSpaceOnUse">
  <stop stop-color="#498a63" offset="0"/>
  <stop stop-color="#61b984" offset=".25"/>
 </linearGradient>
 <linearGradient id="SVGID_2_" x1="19.889" x2="40.524" y1="3.627" y2="36.697" gradientTransform="matrix(3.9122 0 0 -3.9122 133.76 239.95)" gradientUnits="userSpaceOnUse">
  <stop stop-color="#89356d" offset="0"/>
  <stop stop-color="#b94794" offset=".21"/>
 </linearGradient>
 <linearGradient id="SVGID_3_" x1="3.242" x2="37.689" y1="35.782" y2="23.384" gradientTransform="matrix(3.9122 0 0 -3.9122 133.76 239.95)" gradientUnits="userSpaceOnUse">
  <stop stop-color="#f59c1c" offset=".6"/>
  <stop stop-color="#c7702b" offset="1"/>
 </linearGradient>
 <rect width="1050" height="300" rx="150" ry="150" fill="#2e2f5e"/>
  <path d="m411.92 140.44v52.032h-25.821v-46.946c0-5.4771-1.5649-7.042-3.9122-7.042-2.7385 0-5.8683 2.3473-8.6068 7.042v46.946h-25.821v-97.805l25.821-2.7385v36.775c5.8683-6.2595 11.737-8.9981 19.561-8.9981 11.737-.39122 18.779 7.4332 18.779 20.735zm75.114 24.256h-41.861c1.5649 10.172 6.2595 11.737 14.084 11.737 5.0859 0 9.7805-1.9561 15.649-6.2595l10.563 14.475c-7.8244 6.6507-18.387 10.563-28.559 10.563-25.429 0-37.557-16.04-37.557-37.557 0-20.735 11.737-37.948 34.819-37.948 20.343 0 34.036 13.301 34.036 36.775-.39122 1.9561-.78244 5.4771-1.1737 8.2156zm-24.647-15.649c0-7.042-1.5649-12.91-8.2156-12.91-5.4771 0-8.2156 3.1298-9.3893 14.084h17.605zm31.689 23.082v-77.853l25.821-2.7385v79.418c0 2.3473 1.1737 3.521 3.1298 3.521.78244 0 1.9561 0 2.7385-.78244l4.6946 18.387c-4.6946 1.5649-9.3893 2.3473-14.084 2.3473-14.475.78244-22.3-7.8244-22.3-22.3zm39.122 0v-77.853l25.821-2.7385v79.418c0 2.3473 1.1737 3.521 3.1298 3.521.78244 0 1.9561 0 2.7385-.78244l4.6946 18.387c-4.6946 1.5649-9.3893 2.3473-14.084 2.3473-14.475.78244-22.3-7.8244-22.3-22.3zm106.8-14.866c0 23.082-13.693 37.557-35.992 37.557-21.908 0-35.992-13.301-35.992-37.948 0-23.082 13.693-37.557 35.992-37.557 21.908 0 35.992 13.693 35.992 37.948zm-44.99 0c0 14.084 2.7385 19.17 9.3893 19.17 6.2595 0 9.3893-5.4771 9.3893-19.17 0-14.084-2.7385-19.17-9.3893-19.17s-9.7805 5.8683-9.3893 19.17zm116.97 20.735-5.0859 16.822c-8.9981-.78244-14.866-3.1298-18.779-9.7805-5.0859 7.8244-12.91 10.172-21.126 10.172-14.084 0-23.082-9.3893-23.082-22.3 0-15.649 11.737-24.256 33.645-24.256h5.0859v-1.9561c0-7.042-2.3473-8.9981-10.172-8.9981-6.2595.39122-12.128 1.5649-17.996 3.521l-5.4771-16.431c8.6068-3.521 17.996-5.4771 27.385-5.4771 22.3 0 31.298 8.6068 31.298 25.821v24.256c0 5.0859 1.1737 7.4332 4.3034 8.6068zm-29.342-5.4771v-10.563h-2.7385c-7.4332 0-10.563 2.3473-10.563 7.8244 0 3.9122 2.3473 6.6507 5.8683 6.6507 2.7385.39122 5.8683-1.1737 7.4332-3.9122zm91.154-43.817-8.9981 14.084c-5.0859-3.1298-10.563-5.0859-16.431-5.0859-4.3034 0-5.8683 1.1737-5.8683 3.1298 0 2.3473.78244 3.521 14.084 7.4332 13.301 4.3034 20.343 9.7805 20.343 22.691 0 14.475-13.693 24.256-32.862 24.256-12.128 0-23.473-4.3034-30.515-11.345l12.128-13.693c5.0859 3.9122 11.345 7.042 17.605 7.042 4.6946 0 7.4332-1.5649 7.4332-4.3034 0-3.521-1.5649-4.3034-13.301-7.8244-12.91-3.9122-20.343-11.345-20.343-22.691 0-12.519 10.954-22.691 30.124-22.691 10.172-.39122 20.343 3.1298 26.603 8.9981zm64.551 0-8.9981 14.084c-5.0859-3.1298-10.563-5.0859-16.431-5.0859-4.3034 0-5.8683 1.1737-5.8683 3.1298 0 2.3473.78244 3.521 14.084 7.4332 13.301 4.3034 20.343 9.7805 20.343 22.691 0 14.475-13.693 24.256-32.862 24.256-12.128 0-23.473-4.3034-30.515-11.345l12.128-13.693c5.0859 3.9122 11.345 7.042 17.605 7.042 4.6946 0 7.4332-1.5649 7.4332-4.3034 0-3.521-1.5649-4.3034-13.301-7.8244-12.91-3.9122-20.343-11.345-20.343-22.691 0-12.519 10.954-22.691 30.124-22.691 10.172-.39122 19.952 3.1298 26.603 8.9981zm77.853 28.559c0 23.082-13.693 37.557-35.992 37.557-21.908 0-35.992-13.301-35.992-37.948 0-23.082 13.693-37.557 35.992-37.557 21.908 0 35.992 13.693 35.992 37.948zm-44.99 0c0 14.084 2.7385 19.17 9.3893 19.17 6.2595 0 9.3893-5.4771 9.3893-19.17 0-14.084-2.7385-19.17-9.3893-19.17s-9.7805 5.8683-9.3893 19.17z" fill="#fff"/>
  <path d="m184.23 201.47c-25.821-29.733-8.6068-104.85 2.3473-104.85-21.126-.78244-57.118 13.301-52.032 63.769 5.8683 46.946 48.12 79.809 94.284 73.941 14.866-1.9561 28.559-7.8244 40.296-16.822-40.687 29.342-68.072 3.1298-84.895-16.04z" fill="url(#SVGID_1_)"/>
  <path d="m279.29 150.61c-21.517 43.425-87.633 61.813-95.066 50.467 12.91 19.17 44.99 45.382 85.286 15.649 36.775-28.559 43.425-82.156 14.866-119.32-8.9981-11.737-21.126-20.735-34.819-26.603 45.773 20.735 41.078 57.118 29.733 79.809z" fill="url(#SVGID_2_)"/>
  <path d="m186.57 96.623c46.555-5.0859 99.37 43.034 92.719 54.38 12.91-22.691 16.04-59.074-29.342-79.809-43.425-17.605-92.719 3.521-109.93 47.338-5.4771 13.693-7.4332 28.559-5.4771 43.034-3.1298-50.076 34.819-63.378 52.032-64.943z" fill="url(#SVGID_3_)"/>
</svg>
