<svg width="1050" height="300" version="1.1" viewBox="0 0 1050 300" xmlns="http://www.w3.org/2000/svg">
 <rect width="1050" height="300" rx="150" ry="150" fill="#eb1478"/>
 <g transform="matrix(.2146 0 0 -.2146 125 207.11)" fill="#fff">
  <path d="m138.89 6.3047v519.68h-138.89v-519.68h138.89"/>
  <path d="m493.87 285.41-140.27 240.57h-145.88v-519.68h131.84v270l2.105-0.039 159.2-269.96h127.62v519.68h-132.52v-240.57h-2.094"/>
  <path d="m974.1 265.8c0-131.17-37.167-139.53-89.066-139.53h-48.418v273.46h42.777c58.946 0 94.707-3.503 94.707-133.93zm-276.31 260.18v-519.68h174.61c164.8 0 242.63 41.387 242.63 260.18 0 214.6-79.22 259.5-244.72 259.5h-172.52"/>
  <path d="m1303.6 6.3047v519.68h-138.85v-519.68h138.85"/>
  <path d="m2450.9 122.73c-76.43 0-86.96 52.618-86.96 138.14 0 84.867 10.53 137.47 86.96 137.47 75.76 0 86.27-52.602 86.27-137.47 0-85.527-10.51-138.14-86.27-138.14zm0 409.56c-193.54 0-227.91-126.91-227.91-266.49 0-138.87 34.37-265.8 227.91-265.8 192.87 0 227.24 126.93 227.24 265.8 0 139.58-33.69 266.49-227.24 266.49"/>
  <path d="m3424.2 122.73c-76.45 0-87 52.618-87 138.14 0 84.867 10.55 137.47 87 137.47 75.68 0 86.23-52.602 86.23-137.47 0-85.527-10.55-138.14-86.23-138.14zm0 409.56c-193.58 0-227.97-126.91-227.97-266.49 0-138.87 34.39-265.8 227.97-265.8 192.83 0 227.18 126.93 227.18 265.8 0 139.58-33.65 266.49-227.18 266.49"/>
  <path d="m3696.2 15.27c-20.74 0-25.51 14.648-25.51 33.73 0 19.199 4.77 33.828 25.51 33.828 20.76 0 25.62-14.629 25.62-33.828 0-19.082-4.86-33.73-25.62-33.73zm0 73.262c-25.33 0-31.54-17.109-31.54-39.531 0-22.305 6.21-39.316 31.54-39.316 25.21 0 31.66 17.012 31.66 39.316 0 22.422-6.45 39.531-31.66 39.531"/>
  <path d="m3698 50.133h-7.91v14.219h7.91c4.66 0 6.23-1.9727 6.23-7.1485 0-5.0976-1.57-7.0703-6.23-7.0703zm15.66 7.793c0 9.4336-3.11 14.844-15.25 14.844h-17.97v-47.012h9.65v16.602h6.13l7.26-16.602h9.87l-7.89 17.539c6.32 2.0703 8.2 7.2656 8.2 14.629"/>
  <path d="m1956.7 206.85h89.59v-9.082c0-57.422 1.79-82.754-66.61-82.754-63.82 0-85.58 29.453-85.58 146.56 0 122.04 36.46 136.77 91.17 136.77 40.65 0 69.43-10.508 93.28-23.867l74.34 115.74c-39.3 25.254-96.8 42.07-161.31 42.07-179.51 0-237.03-86.269-237.03-266.49 0-157.09 42.07-265.8 212.48-265.8 30.19 0 56.13 2.0703 78.48 6.3086h127.71v313.48h-201.19l-15.33-112.93"/>
  <path d="m2930 206.85h89.59v-9.082c0-57.422 1.79-82.754-66.6-82.754-63.83 0-85.59 29.453-85.59 146.56 0 122.04 36.46 136.77 91.17 136.77 40.65 0 69.43-10.508 93.28-23.867l74.34 115.74c-39.3 25.254-96.8 42.07-161.31 42.07-179.51 0-237.03-86.269-237.03-266.49 0-157.09 42.07-265.8 212.48-265.8 30.19 0 56.13 2.0703 78.48 6.3086h127.71v313.48h-201.19l-15.33-112.93"/>
  <path d="m1718 399.05v126.93h-345.04v-519.68h345.04v123.42h-208.96v77.871h137.24l16.76 123.41h-154v68.047h208.96"/>
 </g>
</svg>
