<svg width="1050" height="300" version="1.1" viewBox="0 0 1050 300" xmlns="http://www.w3.org/2000/svg">
 <rect width="1050" height="300" rx="150" ry="150" fill="#05ce78"/>
 <path d="m200.13 172.35c0 10.244-8.5504 18.827-19.203 18.689-5.8871 0-11.915-2.7686-15.559-8.029l-3.9252-5.5381c-1.8219 8.03-8.8307 13.567-17.801 13.567-10.373 0-18.643-8.3057-18.643-18.551v-46.375c0-10.244 8.1299-18.55 18.643-18.55 9.111 0 16.259 5.9528 17.941 14.12l4.4853-6.0912c3.6445-4.9837 9.5316-7.891 15.419-7.891 10.092 0 18.643 7.891 18.643 18.135 0 3.8759-1.1214 7.7522-3.5042 10.936l-8.9711 12.321 8.9711 12.321c2.3828 3.3219 3.5042 7.0599 3.5042 10.936zm25.809-64.787c11.247 0 20.243 9.1521 20.102 19.968v43.542c0 10.816-8.8558 19.968-20.243 19.968-11.106 0-20.102-9.0136-20.102-19.968v-43.542c0-10.816 8.9965-19.968 20.243-19.968zm98.017 60.535c0 13.407-11.204 22.943-29.185 22.943-24.067 0-41.772-17.829-41.772-41.739 0-23.91 17.705-41.739 41.772-41.739 17.981 0 29.185 9.5365 29.185 22.943 0 8.9834-4.4258 15.064-13.278 18.796 8.8525 3.7322 13.278 9.9512 13.278 18.797zm82.087 4.252c0 10.244-8.5658 18.827-19.098 18.689-5.8983 0-11.937-2.7686-15.588-8.029l-3.9317-5.5381c-1.8258 8.03-8.8475 13.567-17.835 13.567-10.392 0-18.677-8.3057-18.677-18.551v-46.375c0-10.244 8.145-18.55 18.677-18.55 9.1283 0 16.291 5.9528 17.976 14.12l4.3533-6.0912c3.6508-4.9837 9.5492-7.891 15.447-7.891 10.112 0 18.677 7.891 18.677 18.135 0 3.8759-1.1233 7.7522-3.5108 10.936l-8.9875 12.321 8.9875 12.321c2.3875 3.3219 3.5108 7.0599 3.5108 10.936zm70.957-6.9977c0 16.61-12.827 27.08-34.437 27.08-22.028 0-32.346-7.5387-32.346-19.822 0-8.5146 6.5525-13.958 15.893-13.958h0.14l-5.0192-4.6068c-6.2742-5.7232-10.596-11.446-10.596-19.822 0-16.332 11.99-26.661 32.485-26.661 20.913 0 30.812 7.3982 30.812 19.822 0 7.3977-5.0192 12.423-12.547 13.54l5.1583 4.6062c6.2742 5.5836 10.457 11.446 10.457 19.822zm56.732 8.2975c0 10.295-8.7817 18.783-20.072 18.783-10.873 0-19.655-8.4876-19.655-18.783v-28.8c-9.3391-0.55666-17.006-8.209-17.006-17.948 0-10.157 8.085-17.948 17.982-17.948h37.776c9.8975 0 17.982 7.93 17.982 17.948 0 9.7389-7.6667 17.53-17.007 17.948zm48.894 2.8792c-4.7458 9.8128-11.447 14.512-19.544 14.512-14.659 0-25.269-13.406-18.707-28.471l17.172-39.804c4.3283-9.8128 10.61-15.203 21.22-15.203 10.75 0 17.032 5.39 21.221 15.203l17.172 39.804c6.4216 15.065-4.0492 28.471-18.847 28.471-8.2358 0-14.937-4.6989-19.685-14.512zm46.026-46.845c0-13.635 7.2908-20.73 20.33-20.73h24.257c14.722 0 26.219 11.13 26.219 25.46 0 7.7913-3.2258 14.192-8.5533 18.226l7.2908 11.548c1.9625 3.0606 2.8042 6.4004 2.8042 9.8786 0 10.296-8.1325 18.366-18.367 18.366-6.3092 0-12.478-3.2002-15.983-9.0443l-1.9633-3.4782c-2.3833 7.374-8.9733 12.522-17.386 12.522-10.235 0-18.647-8.6266-18.647-19.061zm130.5 43.965c0 10.295-8.6258 18.783-20.174 18.783-10.852 0-19.617-8.4876-19.617-18.783v-28.8c-9.3217-0.55666-16.974-8.209-16.974-17.948 0-10.157 8.07-17.948 17.948-17.948h37.843c9.8783 0 17.947 7.93 17.947 17.948 0 9.7389-7.6517 17.53-16.973 17.948zm87.93 2.7865c0 8.9794-7.1883 16.135-15.898 15.994h-29.032c-13.272 0-20.461-7.0143-20.461-20.764v-41.948c0-13.609 7.1883-20.764 20.461-20.764h29.032c8.71 0 15.898 7.1546 15.898 16.134 0 8.1373-4.9766 14.03-12.166 15.433 3.3183 2.1045 5.1158 5.6116 5.1158 10.241 0 4.6302-1.9358 8.1376-5.1158 10.242 7.0508 1.403 12.166 7.4359 12.166 15.432zm5.5659-46.752c0-13.635 7.1508-20.73 20.33-20.73h24.257c14.722 0 26.218 11.13 26.218 25.46 0 7.7913-3.225 14.192-8.5525 18.226l7.2908 11.548c1.9625 3.0606 2.8042 6.4004 2.8042 9.8786 0 10.296-8.1325 18.366-18.367 18.366-6.3092 0-12.479-3.2002-15.984-9.0443l-1.9625-3.4782c-2.3833 7.374-8.9733 12.522-17.386 12.522-10.236 0-18.647-8.6266-18.647-19.061v-43.687" fill="#fff"/>
</svg>
