<svg width="1050" height="300" version="1.1" viewBox="0 0 1050 300" xmlns="http://www.w3.org/2000/svg">
 <rect width="1050" height="300" rx="150" ry="150"/>
 <path d="m451.53 234.43c-5.1982-1.5812-9.9198-6.0479-11.315-10.704-1.3748-4.5888-0.98625-10.172 0.98296-14.124 3.0594-6.1394 8.3802-8.6365 23.162-10.87 10.665-1.6113 13.347-2.5798 13.469-4.8625 0.14138-2.6542-0.14928-3.481-1.8252-5.1921-1.4683-1.4991-2.1941-1.6804-6.7271-1.6804-4.8892 0-5.1553 0.083-7.0426 2.1952-1.0788 1.2074-1.9614 2.6441-1.9614 3.1929 0 0.83438-1.5333 0.99766-9.3682 0.99766h-9.3682l0.39093-2.5207c1.7348-11.186 11.312-16.972 28.092-16.972 13.434 0 20.84 3.1166 24.755 10.419 1.3598 2.5359 1.4634 3.8918 1.8229 23.862 0.25423 14.121 0.6491 21.804 1.1854 23.066 0.44231 1.0408 0.80423 2.0238 0.80423 2.1846 0 0.16077-4.3723 0.29233-9.7161 0.29233h-9.7161l-0.44137-2.3526c-0.24274-1.294-0.56154-2.3526-0.70845-2.3526-0.1469 0-1.5239 0.91043-3.06 2.0232-1.5361 1.1127-4.3107 2.4739-6.1658 3.0248-3.5444 1.0526-14.254 1.2845-17.249 0.37362zm22.985-14.119c2.1023-2.3108 3.2253-5.8421 3.2306-10.158l4e-3 -3.0592-7.2259 1.7673c-10.34 2.529-11.595 3.4318-11.595 8.3399 0 2.7674 1.7187 4.8447 4.5201 5.4633 1.0261 0.22659 2.1628 0.48458 2.526 0.57331 2.1263 0.51945 6.891-1.1131 8.5406-2.9263zm253.28 14.119c-5.1982-1.5812-9.9198-6.0479-11.315-10.704-1.3748-4.5888-0.98626-10.172 0.98296-14.124 3.0594-6.1394 8.3802-8.6365 23.162-10.87 10.665-1.6113 13.347-2.5798 13.469-4.8625 0.14142-2.6542-0.14928-3.481-1.8252-5.1921-1.4682-1.4991-2.1942-1.6804-6.7271-1.6804-4.8891 0-5.1553 0.083-7.0426 2.1952-1.0788 1.2074-1.9614 2.6441-1.9614 3.1929 0 0.83438-1.5333 0.99766-9.3682 0.99766h-9.3682l0.39094-2.5207c1.7348-11.186 11.312-16.972 28.092-16.972 13.434 0 20.84 3.1166 24.755 10.419 1.3597 2.5359 1.4633 3.8918 1.823 23.862 0.25424 14.121 0.64907 21.804 1.1855 23.066 0.44228 1.0408 0.80418 2.0238 0.80418 2.1846 0 0.16077-4.3722 0.29233-9.7161 0.29233h-9.7161l-0.44138-2.3526c-0.24274-1.294-0.56156-2.3526-0.70846-2.3526-0.14689 0-1.5239 0.91043-3.06 2.0232-1.5361 1.1127-4.3107 2.4739-6.1658 3.0248-3.5444 1.0526-14.254 1.2845-17.249 0.37362zm22.985-14.119c2.1023-2.3108 3.2253-5.8421 3.2306-10.158l5e-3 -3.0592-7.2259 1.7673c-10.34 2.529-11.595 3.4318-11.595 8.3399 0 2.7674 1.7186 4.8447 4.5201 5.4633 1.0261 0.22659 2.1628 0.48458 2.5259 0.57331 2.1263 0.51945 6.8911-1.1131 8.5406-2.9263zm-383.94-26.599v-40.077l24.703 0.22259c23.636 0.21299 24.876 0.28746 28.713 1.7254 5.0079 1.8764 8.184 4.4025 10.776 8.5705 1.831 2.9445 2.015 3.7675 2.0133 9.009-2e-3 4.6318-0.28966 6.3073-1.4623 8.503-1.5411 2.8856-6.3585 7.6636-7.7774 7.7139-0.46106 0.0164 0.37163 0.65469 1.8504 1.4185 3.794 1.9597 6.8888 5.0615 8.9505 8.9705 1.56 2.9579 1.7727 4.1381 1.7738 9.8431 2e-3 6.0751-0.14556 6.77-2.3367 11.066-2.8192 5.5269-6.9837 8.9936-13.429 11.179-4.1333 1.4015-5.7028 1.4937-29.072 1.7073l-24.703 0.22578zm42.397 22.522c3.5348-0.98195 5.4623-3.3796 5.835-7.258 0.38843-4.0423-1.005-7.0321-4.0478-8.6849-1.7461-0.94849-4.2537-1.2265-12.76-1.4148l-10.587-0.23429v18.267l9.5785-4e-3c5.2682-2e-3 10.66-0.30406 11.981-0.67114zm-3.0188-31.674c3.8982-0.98159 5.6576-3.1945 5.6576-7.116 0-2.3834-0.38485-3.3707-1.9072-4.8931-2.336-2.336-5.2934-2.8451-14.897-2.5646l-7.0579 0.20615-0.19383 6.674c-0.10661 3.6707-0.0405 7.0736 0.14695 7.562 0.43657 1.1377 13.871 1.2346 18.252 0.13171zm96.402 19.894v-29.259l18.485 0.37405 0.19857 3.3958 0.19856 3.3958 2.5603-2.4356c4.005-3.8099 8.2829-5.5323 14.628-5.8898 9.8009-0.55218 16.542 2.8789 19.793 10.075 1.5802 3.4972 1.6112 3.9526 1.8086 26.58l0.20085 23.022h-19.501l-0.19673-19.885-0.19674-19.885-2.2763-2.033c-2.1223-1.8954-2.5642-2.0146-6.532-1.762-3.3506 0.21335-4.6362 0.62192-6.0446 1.921-3.4201 3.1547-3.6321 4.5443-3.6321 23.81v17.834h-19.493zm63.857-10.736v-39.995h19.493v39.828l17.607-18.318h10.69c5.8794 0 10.69 0.2074 10.69 0.46089s-4.7136 5.2327-10.475 11.065c-7.0559 7.1431-10.306 10.887-9.9576 11.47 0.28429 0.47644 5.6028 8.4996 11.819 17.829 6.2161 9.3296 11.302 17.118 11.302 17.309 0 0.19019-5.0666 0.33866-11.259 0.32995l-11.259-0.0159-9.4105-14.202-9.4105-14.202-0.18141 14.218-0.18141 14.218h-19.466zm76.628-7e-3v-40.077l24.703 0.2226c23.636 0.21298 24.876 0.28745 28.713 1.7253 5.0079 1.8764 8.1839 4.4025 10.776 8.5705 1.831 2.9445 2.015 3.7674 2.0133 9.009-2e-3 4.6318-0.28966 6.3073-1.4623 8.503-1.5411 2.8856-6.3585 7.6636-7.7774 7.7139-0.46105 0.0164 0.37165 0.65467 1.8504 1.4185 3.794 1.9597 6.8888 5.0615 8.9505 8.9705 1.56 2.9579 1.7727 4.1381 1.7738 9.8431 2e-3 6.0751-0.14557 6.77-2.3367 11.066-2.8192 5.5269-6.9837 8.9936-13.429 11.179-4.1333 1.4015-5.7028 1.4937-29.072 1.7073l-24.703 0.22579zm42.397 22.522c3.5348-0.98192 5.4623-3.3795 5.835-7.258 0.38842-4.0423-1.005-7.0321-4.0478-8.6849-1.7461-0.9485-4.2537-1.2265-12.76-1.4148l-10.587-0.23432v18.267l9.5785-4e-3c5.2682-2e-3 10.66-0.30409 11.981-0.67116zm-2.4847-31.649c3.9275-1.0905 5.7957-3.3074 5.7957-6.8776 0-3.7042-1.8328-6.2059-5.24-7.1522-1.3695-0.38038-6.1955-0.69328-10.724-0.69532l-8.2342-4e-3v15.46l7.8981-4e-3c4.344-2e-3 9.071-0.32942 10.505-0.72747zm95.868 19.869v-29.259l18.485 0.37402 0.19854 3.3958 0.19858 3.3958 2.5604-2.4356c4.005-3.8099 8.2828-5.5323 14.628-5.8898 9.8008-0.55219 16.542 2.8789 19.793 10.075 1.5802 3.4972 1.6112 3.9526 1.8086 26.58l0.20085 23.022h-19.501l-0.19664-19.885-0.19678-19.885-2.2762-2.033c-2.1222-1.8954-2.5643-2.0147-6.532-1.762-3.3505 0.21333-4.6362 0.62192-6.0446 1.921-3.4201 3.1547-3.632 4.5443-3.632 23.81v17.834h-19.493zm63.857-10.736v-39.995h19.493v39.828l17.607-18.318h10.69c5.8794 0 10.69 0.2074 10.69 0.46089 0 0.25351-4.7136 5.2327-10.475 11.065-7.0559 7.1431-10.306 10.887-9.9577 11.47 0.28434 0.47646 5.6029 8.4996 11.819 17.829 6.2161 9.3296 11.302 17.118 11.302 17.309 0 0.19019-5.0666 0.33866-11.259 0.32995l-11.259-0.0159-18.821-28.404-0.18143 14.218-0.1814 14.218h-19.466zm-642.11 20.828c-26.293-4.9828-46.186-23.638-53.389-50.067-0.93564-3.4332-1.1837-6.8892-1.1579-16.132 0.0303-10.859 0.17462-12.228 1.8785-17.813 3.3538-10.993 8.3207-19.61 15.832-27.468 9.8577-10.313 20.972-16.647 34.581-19.708 6.4242-1.445 21.297-1.4479 27.637-0.0057 12.769 2.9053 24.72 9.3451 32.58 17.555l2.3324 2.4363-46.333 46.347 45.701 45.794-2.6887 2.3784c-8.2266 7.2773-18.588 12.902-28.486 15.463-8.253 2.1358-20.815 2.6737-28.488 1.2198zm92.184-21.419c-4.6231-1.6521-7.062-3.7992-26.986-23.758l-20.007-20.042 21.016-20.899c23.924-23.791 23.458-23.466 33.451-23.397 4.8391 0.0331 6.2498 0.31579 9.2176 1.8472 5.0387 2.6001 7.7337 5.2161 10.324 10.021 2.1015 3.8989 2.2782 4.6914 2.2908 10.274 0.0109 4.8022-0.28577 6.6976-1.4388 9.1925-2.0662 4.4708-6.4515 8.9385-11.009 11.216l-3.9213 1.9595 2.9632 1.1317c4.2266 1.6141 9.3165 6.4588 11.537 10.981 1.6383 3.3362 1.8823 4.6175 1.8823 9.8828 0 5.2653-0.24404 6.5466-1.8823 9.8828-2.3569 4.7995-7.4136 9.4298-12.291 11.255-4.2616 1.5945-11.357 1.8064-15.145 0.45248zm197-46.856c-12.5-1.2927-20.822-7.9125-21.953-17.463l-0.3926-3.3149h18.229l0.43212 1.9675c1.3596 6.1901 11.205 8.7528 16.502 4.2954 2.5626-2.1563 2.6811-4.952 0.28962-6.8332-0.95-0.74728-5.0384-2.1135-9.2424-3.0885-12.038-2.792-13.414-3.1894-16.713-4.8267-4.2149-2.0919-7.0761-5.7123-7.9888-10.109-1.4759-7.1094 0.83402-12.968 6.6461-16.855 4.6308-3.0976 9.0073-4.307 17.039-4.7086 17.045-0.85245 27.231 4.6787 29.082 15.792l0.47572 2.8568h-18.099l-0.39749-1.9876c-0.52573-2.6286-3.3868-4.062-8.1078-4.062-6.026 0-8.8639 2.1244-7.1402 5.3451 1.1756 2.1966 4.3602 3.4209 14.263 5.4832 5.1248 1.0673 10.293 2.349 11.484 2.8483 5.4398 2.2795 9.8762 8.6787 9.8896 14.265 0.0341 14.187-13.947 22.501-34.298 20.396zm60.756 0.0496c-10.913-1.1653-17.395-5.027-20.834-12.412-0.86441-1.8562-1.5746-4.5093-1.5782-5.8956l-7e-3 -2.5207h17.936l0.81518 2.7209c0.94331 3.1484 3.5977 5.0936 7.7779 5.6998 5.51 0.79898 11.132-2.8859 10.181-6.6732-0.6693-2.6667-2.7356-3.5852-13.757-6.1155-11.297-2.5935-15.657-4.4525-18.777-8.0058-5.8618-6.6762-4.1666-17.931 3.476-23.077 4.5679-3.0761 9.036-4.2651 17.623-4.6895 17.03-0.84175 26.658 4.5492 28.771 16.11l0.46061 2.5207-17.874-0.029-1.0083-2.167c-1.3016-2.7974-3.4821-3.8337-8.0661-3.8337-4.4282 0-6.9781 1.1367-7.28 3.2453-0.49738 3.474 3.1261 5.2516 15.978 7.8378 10.025 2.0174 14.228 4.1028 17.265 8.5654 3.6021 5.2928 3.5902 12.1-0.0318 18.281-4.5965 7.8434-16.844 11.958-31.072 10.438zm173.98-0.0312c-2.7054-0.27586-6.7888-1.1976-9.0744-2.0482-7.4666-2.7789-13.23-10.276-13.23-17.209v-1.5774l18.401 0.37402 0.55073 2.1289c1.1689 4.5181 7.0067 7.1182 12.6 5.612 3.7565-1.0115 5.553-2.8896 5.2893-5.5295-0.29181-2.9204-2.5385-4.3157-9.6182-5.9733-17.503-4.0981-21.44-5.8817-24.341-11.026-2.0437-3.6247-2.1539-11.282-0.21694-15.079 1.8656-3.6569 6.2135-7.1291 11.027-8.8059 5.0521-1.76 17.045-2.4957 22.87-1.403 10.096 1.8938 16.318 7.3608 17.616 15.479l0.43981 2.7504h-18.153l-0.39752-1.9876c-0.52851-2.6426-3.3881-4.062-8.1836-4.062-4.1625 0-5.9811 0.69702-7.0553 2.7041-1.8925 3.5362 2.2496 5.7774 15.468 8.3698 12.063 2.3657 16.535 5.0898 19.337 11.778 1.3246 3.1615 0.79592 10.242-1.029 13.782-4.5878 8.8988-16.741 13.309-32.302 11.722zm59.938 0.0312c-13.413-1.4323-20.733-7.1858-22.378-17.588l-0.51209-3.2397h18.452l0.40673 2.0337c0.93341 4.6669 6.6965 7.4325 12.558 6.0264 6.5197-1.564 7.9925-7.4317 2.4414-9.727-1.1717-0.48451-5.9115-1.703-10.533-2.7077-13.587-2.954-17.729-5.1016-20.478-10.619-3.9638-7.9542-1.2209-16.844 6.5726-21.303 10.245-5.8612 30.633-5.2248 38.754 1.2096 2.8614 2.2672 6.072 8.2663 6.072 11.346v2.2321l-17.141-0.029-1.0083-2.167c-1.3016-2.7974-3.482-3.8337-8.0661-3.8337-4.6324 0-6.9916 1.1245-7.2646 3.4625-0.41491 3.5547 3.1237 5.1786 17.194 7.8906 8.4906 1.6365 12.944 3.9125 15.841 8.0949 1.8374 2.6534 2.1442 3.7297 2.3586 8.274 0.21678 4.5953 0.0287 5.6682-1.5608 8.9175-4.2886 8.7656-16.646 13.336-31.709 11.728zm-417.66-41.329v-39.995h20.811l0.18142 14.204 0.18141 14.204 26.659-28.409h25.014l-1.6694 1.8485c-1.6683 1.8474-20.046 21.56-24.993 26.808l-2.6182 2.7778 16.069 23.437c8.8379 12.89 16.295 23.815 16.57 24.277 0.39418 0.66024-2.2194 0.84023-12.201 0.84023h-12.703l-30.129-43.896-0.17723 21.948-0.17722 21.948h-20.819zm78.645 10.755v-29.24h18.821v58.48h-18.821zm155.27-10.755v-39.995h20.811l0.18143 14.161 0.18142 14.161 26.614-28.321h25.081l-2.3522 2.5207c-1.2937 1.3864-7.1628 7.6628-13.042 13.948-5.8796 6.2849-11.421 12.236-12.313 13.225l-1.623 1.7977 16.041 23.362c8.8228 12.849 16.283 23.761 16.579 24.249 0.43766 0.72212-1.8326 0.88688-12.22 0.88688h-12.758l-30.006-43.805-0.17723 21.903-0.17724 21.902h-20.819zm78.645 10.755v-29.24h18.821v58.48h-18.821zm-233.92-43.019v-7.73h18.821v15.46h-18.821zm233.92 0v-7.73h18.821v15.46h-18.821z" fill="#fff" stroke-width=".67218"/>
</svg>
