<svg width="1050" height="300" version="1.1" viewBox="0 0 1050 300" xmlns="http://www.w3.org/2000/svg">
 <rect width="1050" height="300" rx="150" ry="150" fill="#ff424d"/>
 <g transform="translate(-49.245)">
  <g transform="matrix(.019653 0 0 -.019653 447.72 185)">
   <path d="m1863.2 2250.3c0 314.6-212.99 585.63-542.06 585.63h-537.16v-1171.1h537.16c329.07 0 542.06 270.86 542.06 585.46zm-1863.2 1224.4h1417.9c750.16 0 1234.2-566.28 1234.2-1224.4s-484.01-1224.2-1234.2-1224.2h-633.9v-938.93h-783.98v3387.6" fill="#fff"/>
   <path d="m4921.7 2506.9-416.21-1393.8h822.66zm730.81-2419.7-130.54 411.34h-1205.1l-130.72-411.34h-837.3l1209.9 3387.6h721.05l1224.4-3387.6h-851.78" fill="#fff"/>
   <path d="m7820.6 2797.2h-764.45v677.48h2317.9v-677.48h-769.51v-2710.1h-783.97v2710.1" fill="#fff"/>
   <path d="m12457 2250.3c0 314.6-213 585.63-542.1 585.63h-537.2v-1171.1h537.2c329.1 0 542.1 270.86 542.1 585.46zm-1863.2 1224.4h1422.9c750 0 1234-566.28 1234-1224.4 0-474.25-251.7-895.17-672.8-1093.7l677.7-1069.5h-909.8l-600.3 938.93h-367.8v-938.93h-783.9v3387.6" fill="#fff"/>
   <g transform="scale(1.0213)">
    <path d="m15044 2786.1v-753.27h1255.6v-601.88h-1255.6v-729.53h1255.6v-616.07h-2023.2v3316.8h2023.2v-616.05h-1255.6" fill="#fff"/>
   </g>
   <g transform="scale(1.3194)">
    <path d="m15695 1349.8c0 421.79-286.2 814.25-751.9 814.25-469.6 0-752-392.46-752-814.25s282.4-814.26 752-814.26c465.7 0 751.9 392.47 751.9 814.26zm-2112.8 0c0 704.22 506.2 1349.8 1360.9 1349.8 850.8 0 1357-645.56 1357-1349.8 0-704.22-506.2-1349.8-1357-1349.8-854.7 0-1360.9 645.56-1360.9 1349.8" fill="#fff"/>
   </g>
   <g transform="scale(1.5724)">
    <path d="m15804 806.4v1403.4h495.5v-2154.4h-520.1l-775.7 1385v-1385h-498.6v2154.4h520.1l778.8-1403.4" fill="#fff"/>
   </g>
  </g>
  <g transform="matrix(.027788 0 0 -.027788 197.08 230)" fill="#fff" fill-rule="evenodd">
   <path d="m3844.9 5757.8c-1190.8 0-2159.5-969.65-2159.5-2161.6 0-1188.3 968.78-2155.1 2159.5-2155.1 1187.1 0 2152.8 966.79 2152.8 2155.1 0 1191.9-965.74 2161.6-2152.8 2161.6"/>
   <path d="M 0,0 H 1054.41 V 5757.81 H 0 V 0"/>
  </g>
 </g>
</svg>
