<svg width="1050" height="300" version="1.1" viewBox="0 0 1050 300" xmlns="http://www.w3.org/2000/svg">
 <rect width="1050" height="300" rx="150" ry="150" fill="#d84759"/>
 <g transform="matrix(1.9051 0 0 1.9051 134.44 -488.69)" fill="#fff">
  <path d="m137.87 348.34h-4.17v-42.82c0-0.73-0.59-1.32-1.31-1.32l-22.14 6.65c-1.01 0.25-1.31 1.2-1.31 1.93v12.71c0 0.73 0.59 1.32 1.31 1.32l3.96-1.19v22.72h-4.17c-0.73 0-1.31 0.59-1.31 1.32v13.31c0 0.73 0.59 1.32 1.31 1.32h27.85c0.73 0 1.31-0.59 1.31-1.32v-13.31c-0.02-0.73-0.61-1.32-1.33-1.32z"/>
  <path d="m280.02 364.43c5.15 0.51 10.66-1.06 15.48-2.7 11.36-3.87 22.13-10 31.7-17.19 4.18-3.13 8.26-6.5 11.67-10.47 2.53-2.94 5-6.41 5.19-10.43 0.21-4.44-6.68-4.42-6.89 0v0.1c-0.01 0.02-0.01 0.05-0.02 0.08-0.07 0.34-0.18 0.67-0.29 1l-0.03 0.09c-0.05 0.11-0.1 0.21-0.15 0.32-0.22 0.44-0.47 0.87-0.72 1.3-0.24 0.39-0.5 0.78-0.77 1.15-0.14 0.2-0.28 0.39-0.43 0.59-0.02 0.03-0.05 0.06-0.09 0.11-0.75 0.94-1.55 1.83-2.38 2.69-4.05 4.24-8.15 7.36-12.81 10.56-5.33 3.66-10.96 6.91-16.79 9.72-4.98 2.39-10.23 4.47-15.97 5.67-0.59 0.12-1.18 0.23-1.77 0.32-0.06 0.01-0.28 0.04-0.43 0.06-0.21 0.02-0.42 0.05-0.63 0.07-1.19 0.12-2.38 0.15-3.57 0.08-0.08 0-0.41-0.04-0.55-0.06-0.17-0.03-0.34-0.07-0.51-0.1-0.45-0.09-0.88-0.23-1.31-0.38 0.43 0.14-0.68-0.34-0.9-0.47-0.09-0.05-0.18-0.11-0.26-0.17 0.07 0.04-0.41-0.32-0.53-0.43-0.14-0.13-0.65-0.72-0.73-0.78-0.15-0.21-0.29-0.43-0.42-0.66 4.81-3.37 9.28-7.29 13.33-11.5 4.69-4.87 9.03-10.35 12.1-16.4 2.99-5.9 5.25-14.04 0.38-19.6-5.03-5.74-13.35-1.62-17.96 2.26-4.62 3.89-7.93 9.17-10.43 14.6-2.41 5.24-4.27 10.77-5.2 16.47-0.59 3.61-0.94 7.53-0.35 11.23-2.06 1.22-4.18 2.34-6.37 3.31-2.48 1.1-5.7 2.06-8.64 2.52 0.18-0.03-0.69 0.07-0.69 0.07-0.35 0.03-0.71 0.05-1.06 0.07-0.67 0.04-1.35 0.03-2.02 0.01-0.19-0.01-0.38-0.02-0.57-0.04 0.19 0.01-0.41-0.06-0.52-0.08-0.52-0.1-1.03-0.25-1.54-0.42 0.32 0.1-0.73-0.36-0.94-0.48-0.1-0.06-0.19-0.12-0.29-0.18-0.09-0.07-0.26-0.19-0.33-0.25-0.29-0.25-0.55-0.54-0.81-0.83-0.07-0.08-0.14-0.17-0.17-0.22-0.17-0.24-0.32-0.5-0.46-0.75 5.38-3.67 10.33-7.97 14.69-12.8 5.36-5.95 10.2-12.88 13.16-20.35 2.42-6.09 1.73-13.88-5.07-16.52-3.05-1.18-6.49-0.22-9.33 1.01-3.86 1.67-7.12 4.89-9.75 8.08-3.43 4.16-5.81 9.04-7.8 14.01-2.14 5.34-3.57 10.97-4.07 16.7-0.19 2.2-0.2 4.55 0.12 6.84-2.59 1.53-5.27 2.91-8.03 4.12-0.17 0.07-0.9 0.37-1.12 0.46-0.35 0.14-0.7 0.27-1.05 0.4-0.31 0.11-0.62 0.22-0.94 0.32-0.66 0.2-1.32 0.37-1.98 0.53-0.31 0.07-0.62 0.13-0.94 0.19-0.06 0.01-0.42 0.07-0.56 0.09-1.05 0.12-2.11 0.13-3.16 0.04-0.03 0-0.05-0.01-0.09-0.02-0.23-0.04-0.45-0.09-0.68-0.15-0.3-0.07-0.6-0.17-0.89-0.27 0.09 0.02-0.68-0.33-0.87-0.44-0.17-0.1-0.34-0.21-0.5-0.32-0.03-0.03-0.07-0.06-0.12-0.11-0.31-0.27-0.59-0.57-0.86-0.87-0.02-0.02-0.04-0.05-0.06-0.07-0.09-0.13-0.18-0.26-0.27-0.39-0.23-0.36-0.44-0.73-0.63-1.11-0.04-0.07-0.07-0.15-0.11-0.23-0.05-0.13-0.2-0.47-0.24-0.58-0.02-0.07-0.04-0.13-0.07-0.2 8.87-5.58 16.4-13.13 21.91-22.17 3.76-6.17 8.24-14.6 4.51-21.78-3.37-6.49-11.66-4.99-16.71-1.71-9.33 6.07-13.99 17-16.29 27.48-0.96 4.37-1.76 9.76-1.26 14.81-1.58 0.85-3.22 1.59-4.87 2.3-1.72 0.75-2.1 3.24-1.24 4.71 1.03 1.76 2.99 1.99 4.71 1.24 1.04-0.46 2.07-0.94 3.09-1.44 0.82 1.83 1.96 3.5 3.5 4.89 4.54 4.13 10.95 3.88 16.49 2.23 3.99-1.24 7.87-3.09 11.54-5.22 0.15 0.25 0.31 0.49 0.47 0.73 3.24 4.68 8.62 6.11 14.07 5.65 6.42-0.54 12.52-3.04 18.09-6.21 2.33 3.71 6.03 5.8 10.66 6.27zm-69.34-24.23c0.03-0.23 0.07-0.47 0.11-0.7 0.09-0.58 0.2-1.16 0.3-1.74 0.24-1.26 0.53-2.51 0.84-3.75 0.6-2.34 1.34-4.64 2.2-6.89 0.17-0.44 0.35-0.88 0.53-1.32 0.01-0.01 0.42-0.94 0.5-1.12 0.46-1 0.95-1.97 1.49-2.93 0.44-0.8 0.92-1.58 1.44-2.34 0.14-0.21 0.28-0.41 0.43-0.61-0.03 0.05 0.55-0.69 0.53-0.66 0.5-0.61 1.03-1.19 1.57-1.77 2.38-2.55 5.18-4.7 8.29-5.34 0.03-0.01 0.05-0.01 0.07-0.02 0.05 0 0.13 0 0.25-0.01 0.29-0.02 0.58-0.01 0.87 0.01h0.01c0.04 0.01 0.09 0.02 0.17 0.04 0.15 0.03 0.29 0.08 0.43 0.12-0.21-0.06 0.28 0.14 0.41 0.22l0.06 0.03c0.02 0.01 0.03 0.02 0.05 0.04 0.06 0.06 0.24 0.26 0.32 0.34 0.07 0.11 0.15 0.23 0.21 0.35 0.02 0.05 0.19 0.42 0.23 0.52 0.09 0.29 0.15 0.58 0.21 0.88 0.01 0.03 0.01 0.05 0.02 0.07 0 0.06 0 0.15 0.01 0.29 0.02 0.35 0.02 0.69 0.01 1.04-0.03 1.47-0.52 3.09-1.15 4.78-1.48 3.96-3.94 7.75-6.35 11.19-2.23 3.18-4.84 6.08-7.65 8.74-2.1 1.99-4.38 3.8-6.77 5.46 0.02-1.51 0.14-3.03 0.32-4.53-0.01-0.05 0.02-0.24 0.04-0.39zm1.76 14.73c-0.04-0.05-0.05-0.07 0 0zm28.86-11.11c0.02-0.24 0.05-0.48 0.08-0.72 0 0.07 0.11-0.81 0.13-0.91 0.43-2.76 1.13-5.48 1.97-8.15 1.57-5 3.41-9.22 6.47-13.83 0.29-0.44 0.6-0.88 0.92-1.31 0.03-0.04 0.06-0.08 0.08-0.11 0.3-0.38 0.62-0.75 0.93-1.12 1.38-1.63 2.93-3.18 4.68-4.41 1.33-0.94 2.54-1.56 3.79-1.95 0.32-0.1 0.65-0.17 0.98-0.24 0.04-0.01 0.07-0.02 0.1-0.02 0.05 0 0.12-0.01 0.22-0.01 0.29-0.02 0.59-0.01 0.88 0h0.12c0.06 0.02 0.16 0.05 0.32 0.09 0.08 0.02 0.31 0.1 0.43 0.15 0.13 0.07 0.26 0.15 0.38 0.22l0.1 0.1c0.06 0.06 0.21 0.24 0.29 0.33 0.09 0.14 0.17 0.28 0.25 0.42 0.02 0.03 0.03 0.06 0.05 0.08 0.01 0.03 0.02 0.07 0.04 0.12 0.1 0.28 0.16 0.56 0.23 0.85 0.01 0.08 0.02 0.14 0.03 0.19 0.01 0.16 0.03 0.31 0.03 0.47 0.17 3.07-1.48 6.37-3.13 9.38-5.11 9.35-12.24 17.26-20.56 23.43 0.01-0.39 0.02-0.78 0.03-1.18 0.05-0.63 0.1-1.25 0.16-1.87zm32.32 1.56c0.03-0.62 0.09-1.25 0.16-1.87 0.01-0.05 0.06-0.49 0.07-0.61 0.03-0.24 0.07-0.47 0.11-0.71 0.22-1.42 0.52-2.83 0.86-4.23 0.67-2.74 1.55-5.44 2.57-8.07 0.12-0.31 0.25-0.62 0.37-0.93 0.04-0.09 0.06-0.15 0.08-0.2s0.05-0.11 0.09-0.2c0.26-0.6 0.53-1.19 0.81-1.79 0.57-1.23 1.2-2.43 1.86-3.62 0.56-1.01 1.17-1.99 1.8-2.95 0.29-0.44 0.6-0.88 0.92-1.31 0.03-0.04 0.06-0.08 0.08-0.11 0.43-0.54 0.88-1.06 1.33-1.58 2.31-2.64 5.31-5.18 8.31-5.97 0.06-0.02 0.52-0.09 0.62-0.12 0.2-0.01 0.4-0.02 0.6-0.02 0.08 0 0.34 0.03 0.48 0.04 0.16 0.04 0.32 0.08 0.48 0.13 0.01 0 0.02 0.01 0.04 0.01 0.03 0.01 0.05 0.03 0.08 0.04 0.08 0.04 0.3 0.19 0.4 0.25l0.32 0.32c0.08 0.12 0.15 0.23 0.22 0.35 0.04 0.07 0.17 0.35 0.22 0.46 0.06 0.19 0.12 0.39 0.18 0.59 0.07 0.26 0.12 0.53 0.17 0.8-0.09-0.47 0.02 0.5 0.02 0.56 0.08 1.72-0.21 2.92-0.74 4.7-0.87 2.91-2.43 5.61-4.06 8.16-3.69 5.8-8.45 10.92-13.64 15.58-1.56 1.4-3.19 2.74-4.86 4.02 0-0.56 0.02-1.14 0.05-1.72z"/>
  <path d="m123.94 302.28c5.39 0 9.76-4.37 9.76-9.76s-4.37-9.76-9.76-9.76-9.76 4.37-9.76 9.76c0.01 5.39 4.37 9.76 9.76 9.76z"/>
  <path d="m100.95 304.2h-10.18v-14.24s0.33-3.71-3.62-2.33-13.04 4.02-13.04 4.02-2.11 0.3-2.11 3.04c0 2.31 0.03 3.65 0.07 9.5h-4.82c-0.73 0-1.31 0.59-1.31 1.32v13.31c0 0.73 0.59 1.32 1.31 1.32h4.88c0.01 7.08 0.02 16.45 0.02 29 0 0-1.19 23.5 28.5 11.93 0 0 1.49-0.81 1.61-2.11v-12.89s0.02-1.97-1.83-1.09c0 0-9.66 4.41-9.66-1.91v-22.95h10.19c0.73 0 1.31-0.59 1.31-1.32v-13.31c0-0.7-0.59-1.29-1.32-1.29z"/>
  <path d="m174.1 304.2c-3.18 0-6.23 0.65-9.05 1.83v-0.56c0-0.73-0.59-1.32-1.31-1.32h-22.46c-0.73 0-1.31 0.59-1.31 1.32v13.31c0 0.73 0.59 1.32 1.31 1.32h4.27v51.69h-4.27c-0.73 0-1.31 0.59-1.31 1.32v13.31c0 0.73 0.59 1.32 1.31 1.32h27.94c0.73 0 1.31-0.59 1.31-1.32v-13.31c0-0.73-0.59-1.32-1.31-1.32h-4.17v-9.33c2.82 1.18 5.87 1.83 9.05 1.83 14.5 0 26.26-13.45 26.26-30.04s-11.76-30.05-26.26-30.05zm0.3 44.51c-5.2-0.02-9.38-6.52-9.35-14.51 0.04-7.99 4.28-14.45 9.48-14.42 5.2 0.02 9.38 6.52 9.35 14.51-0.04 7.98-4.28 14.44-9.48 14.42z"/>
  <path d="m279.41 380.67c-2.18 0-3.37 1.88-3.37 3.4 0 1.58 1.4 3.22 3.37 3.22 2.24 0 3.43-1.43 3.43-3.22 0-1.52-1.25-3.4-3.43-3.4z"/>
  <path d="m292.59 383.2c-1.91-0.03-3.07-1.58-3.07-3.52s0.87-3.82 2.62-3.82c1.37 0 1.82 1.7 1.88 3.13h4.39v-6.74h-3.52l-0.51 1.43c-0.51-0.6-1.7-1.7-3.73-1.7-3.82 0-7.34 2.36-7.34 7.64 0 5.31 3.82 7.97 8.2 7.97 3.22 0 5.91-1.52 7.31-3.04l-2.63-3.04c-0.97 1.07-2.02 1.72-3.6 1.69z"/>
  <path d="m307.63 371.89c-4.12 0-8.14 2.77-8.17 7.76-0.06 5.28 4.06 7.91 8.32 7.91 4.54 0 8.2-2.83 8.14-7.79-0.09-4.98-3.58-7.82-8.29-7.88zm0.15 11.85c-1.25 0-2.21-1.61-2.21-4.06 0-2.18 0.89-3.91 2.06-3.91 1.4 0.03 2.18 1.76 2.18 4s-0.75 3.97-2.03 3.97z"/>
  <path d="m341.43 379.02c0-3.64-0.75-7.16-5.58-7.16-2.06 0-3.46 1.1-4.38 2.15-0.48-0.72-1.43-2.15-4.45-2.15-1.88 0-3.25 1.61-3.73 2.18l-0.66-1.76h-5.64v3.94h1.25v7.04h-1.25v3.91h8.86v-3.91h-1.79v-5.31c0-1.22 0.39-1.79 1.34-1.79 1.19 0 1.25 0.98 1.25 3.4v7.61h7.73v-4h-1.79v-4.83c0-1.28 0.3-2.18 1.58-2.18 1.4 0 1.13 2.27 1.13 3.7v7.31h7.58v-4.03h-1.46v-4.12z"/>
 </g>
</svg>
