<svg width="1050" height="300" version="1.1" viewBox="0 0 1050 300" xmlns="http://www.w3.org/2000/svg">
 <defs>
  <clipPath id="clipPath1961">
   <path d="m0 817.8v-793.72h595.29v793.72z"/>
  </clipPath>
  <clipPath id="clipPath1967">
   <path d="m595.29 817.8v-793.72h-595.29v793.72z"/>
  </clipPath>
  <clipPath id="clipPath1973">
   <path d="m0 0h595.29v841.89h-595.29z"/>
  </clipPath>
 </defs>
 <rect width="1050" height="300" rx="150" ry="150" fill="#18a5d6"/>
 <g transform="matrix(0 -1.5089 -1.5089 0 1164.3 599.12)">
  <g clip-path="url(#clipPath1961)">
   <g clip-path="url(#clipPath1967)">
    <g clip-path="url(#clipPath1973)">
     <path d="m290.35 431.32c-8.2612 0-11.755 4.0252-11.755 9.9556 0 5.932 3.4935 9.9572 11.755 9.9572h17.056c0.8992 0 1.6053 0.7704 1.527 1.6665l-1.1216 12.82c-0.0697 0.7914-0.7325 1.3991-1.527 1.3991h-15.935c-17.687 0-26.583-10.38-26.583-25.842 0-15.462 9.0014-25.841 26.583-25.841h20.188c0.8999 0 1.6053 0.7704 1.527 1.6665l-1.1216 12.82c-0.069 0.7914-0.7317 1.3991-1.527 1.3991z" fill="#fff"/>
     <path d="m290.35 331.14c-8.2612 0-11.755 4.0252-11.755 9.9556 0 5.932 3.4935 9.9572 11.755 9.9572h25.822c0.8991 0 1.6052 0.7712 1.5262 1.6665l-1.1216 12.82c-0.069 0.7914-0.7317 1.3999-1.5262 1.3999h-24.7c-17.687 0-26.583-10.38-26.583-25.843 0-15.462 9.0014-25.841 26.583-25.841h28.953c0.8992 0 1.6053 0.7704 1.527 1.6665l-1.1216 12.82c-0.069 0.7922-0.7317 1.3991-1.527 1.3991z" fill="#fff"/>
     <path d="m281.03 305.3h-14.355c-0.8456 0-1.5324-0.6867-1.5324-1.5332v-29.194c0-0.8456 0.6868-1.5324 1.5324-1.5324h12.822c0.8465 0 1.5332 0.6868 1.5332 1.5324v14.84h40.532c0.8991 0 1.6052 0.7705 1.5269 1.6665l-1.1215 12.822c-0.0698 0.7922-0.7325 1.3991-1.527 1.3991z" fill="#fff"/>
     <path d="m281.03 405.49h-14.355c-0.8456 0-1.5324-0.6859-1.5324-1.5331v-29.194c0-0.8456 0.6868-1.5324 1.5324-1.5324h12.822c0.8465 0 1.5332 0.6868 1.5332 1.5324v14.84h31.767c0.9 0 1.6053 0.7704 1.527 1.6665l-1.1216 12.822c-0.069 0.7922-0.7317 1.3991-1.527 1.3991z" fill="#fff"/>
     <path d="m314.37 224.48h12.876c0.8992 0 1.6053 0.7705 1.527 1.6657l-3.1834 36.381c-0.069 0.7914-0.7317 1.3999-1.527 1.3999h-57.384c-0.8465 0-1.5332-0.6867-1.5332-1.5332v-36.38c0-0.8472 0.6867-1.5332 1.5332-1.5332h12.822c0.8456 0 1.5324 0.686 1.5324 1.5332v22.026h8.6216v-13.397c0-0.8457 0.686-1.5324 1.5324-1.5324h10.707c0.8464 0 1.5324 0.6867 1.5324 1.5324v13.397h7.4783l1.9386-22.16c0.0698-0.7922 0.7325-1.3991 1.527-1.3991" fill="#fff"/>
     <path d="m231.37 556.56c0 36.543 29.729 66.272 66.272 66.272h33.386c2.1262 0 4.1268-0.8286 5.6313-2.3323 1.5037-1.5045 2.3323-3.5043 2.3323-5.6312 0-1.8882-0.6527-3.6764-1.851-5.1057 16.783-12.491 26.774-32.312 26.774-53.203s-9.9913-40.712-26.774-53.202c1.1983-1.4309 1.851-3.2191 1.851-5.1065 0-2.1261-0.8278-4.1259-2.3308-5.6297-1.5076-1.5052-3.5082-2.3338-5.6328-2.3338h-33.386c-36.544 0-66.272 29.73-66.272 66.272" fill="#fff"/>
     <path d="m332.82 496.46c0.4961 0.4953 0.7433 1.1464 0.7433 1.7944 0 0.6511-0.2472 1.2983-0.7433 1.7944l-4.1663 4.1678c17.858 10.603 29.833 30.072 29.833 52.347 0 22.274-11.975 41.743-29.833 52.346l4.1663 4.1678c0.4961 0.4953 0.7433 1.1433 0.7433 1.7944 0 0.648-0.2472 1.2983-0.7433 1.7944-0.4961 0.496-1.1464 0.7441-1.7944 0.7441h-33.386c-33.604 0-60.847-27.242-60.847-60.847 0-33.605 27.242-60.847 60.847-60.847h33.386c0.648 0 1.2983 0.2472 1.7944 0.7433"/>
     <path d="m263.77 530.31c0 10.821 6.1335 20.206 15.112 24.876 1.1239 0.5852 1.1239 2.1641 0 2.7493-8.979 4.6701-15.112 14.055-15.112 24.876 0 16.145 13.651 29.101 30.04 27.957 13.706-0.9565 24.842-11.981 25.925-25.677 0.9487-12.004-5.6762-22.568-15.602-27.442-2.4509 2.1479-5.6498 3.4609-9.165 3.4609-3.8616 0-7.3473-1.5789-9.8719-4.1159-0.2356-0.2364-0.2356-0.6294 0-0.8658 2.5246-2.5369 6.0103-4.1151 9.8719-4.1151 3.5152 0 6.7141 1.3123 9.165 3.4602 9.9254-4.874 16.55-15.437 15.602-27.442-1.0821-13.696-12.219-24.721-25.925-25.677-16.39-1.1441-30.04 11.812-30.04 27.957" fill="#fff"/>
     <path d="m313.64 583.81c-0.5868-6.1134-5.7188-10.917-11.99-10.959-6.6986-0.0427-12.167 5.3498-12.214 12.05-0.0457 6.7001 5.3468 12.169 12.047 12.212 6.3242 0.045 11.526-4.7677 12.128-10.94 7e-3 -8e-4 0.0132-2e-3 0.0201-2e-3 -0.6162 9.2991-8.3627 16.628-17.806 16.565-9.8068-0.0667-17.7-8.0713-17.633-17.873 0.0667-9.8067 8.0667-17.697 17.875-17.635 9.3634 0.0635 16.971 7.3798 17.573 16.581" fill="#18a5d6"/>
     <path d="m311.45 582.34c-1.01-1.0666-2.0161-1.7704-3.6616-1.7603-2.3711 9e-3 -4.2981 2.0145-4.3089 4.4724 0.0155 2.3455 2.006 4.3259 4.3476 4.3407 1.9138 0.0108 2.9757-1.0953 3.5454-1.6898l0.255-0.262c0.6465-0.6712 1.1627-1.2006 1.9843-1.2626-0.6015 6.1722-5.8033 10.986-12.128 10.94-6.7001-0.0427-12.093-5.5111-12.046-12.211 0.0458-6.7009 5.5142-12.093 12.213-12.05 6.2707 0.0411 11.403 4.8453 11.99 10.958 3e-3 0.0326 3e-3 0.0644 5e-3 0.0969-0.7301-0.0635-1.5184-0.827-2.1951-1.5719" fill="#18a5d6"/>
     <path d="m311.45 582.34c-1.01-1.0666-2.0161-1.7704-3.6616-1.7603-2.3711 9e-3 -4.2981 2.0145-4.3089 4.4724 0.0155 2.3455 2.006 4.3259 4.3476 4.3407 1.9138 0.0108 2.9757-1.0953 3.5454-1.6898l0.255-0.262c0.6465-0.6712 1.1627-1.2006 1.9843-1.2626-0.6015 6.1722-5.8033 10.986-12.128 10.94-6.7001-0.0427-12.093-5.5111-12.046-12.211 0.0458-6.7009 5.5142-12.093 12.213-12.05 6.2707 0.0411 11.403 4.8453 11.99 10.958 3e-3 0.0326 3e-3 0.0644 5e-3 0.0969-0.7301-0.0635-1.5184-0.827-2.1951-1.5719" fill="#004e69"/>
     <path d="m313.64 527.07c-5e-3 0-0.0101-2e-3 -0.0155-2e-3 -0.5496-6.2257-5.7777-11.096-12.14-11.052-6.7001 0.0427-12.093 5.5119-12.046 12.212 0.0457 6.7001 5.5142 12.093 12.214 12.05 6.2645-0.0411 11.393-4.8375 11.987-10.944h8e-4c-0.6085 9.1944-8.2132 16.502-17.571 16.566-9.8091 0.0635-17.809-7.8264-17.876-17.634-0.0667-9.8014 7.8271-17.806 17.632-17.873 9.482-0.0628 17.253 7.3249 17.814 16.677" fill="#f01446"/>
     <path d="m311.45 525.49c-1.01-1.0658-2.0161-1.7696-3.6617-1.7595-2.371 9e-3 -4.2988 2.0145-4.3096 4.4724 0.0155 2.3455 2.0068 4.3259 4.3476 4.3407 1.9138 0.0108 2.9749-1.0961 3.5454-1.6898l0.2558-0.2628c0.6534-0.6774 1.1728-1.213 2.0107-1.265-0.5938 6.1056-5.7227 10.902-11.987 10.943-6.6994 0.0426-12.167-5.3491-12.214-12.05-0.0458-6.7001 5.3467-12.169 12.047-12.211 6.3622-0.0457 11.59 4.8251 12.14 11.051-0.7247-0.0759-1.5037-0.8301-2.1742-1.5688" fill="#f01446"/>
     <path d="m311.45 525.49c-1.01-1.0658-2.0161-1.7696-3.6617-1.7595-2.371 9e-3 -4.2988 2.0145-4.3096 4.4724 0.0155 2.3455 2.0068 4.3259 4.3476 4.3407 1.9138 0.0108 2.9749-1.0961 3.5454-1.6898l0.2558-0.2628c0.6534-0.6774 1.1728-1.213 2.0107-1.265-0.5938 6.1056-5.7227 10.902-11.987 10.943-6.6994 0.0426-12.167-5.3491-12.214-12.05-0.0458-6.7001 5.3467-12.169 12.047-12.211 6.3622-0.0457 11.59 4.8251 12.14 11.051-0.7247-0.0759-1.5037-0.8301-2.1742-1.5688" fill="#8b0020"/>
     <path d="m313.64 529.32c0 5e-3 -8e-4 0.0101-8e-4 0.0147h-8e-4c0-5e-3 2e-3 -0.0101 2e-3 -0.0147" fill="#fff"/>
    </g>
   </g>
  </g>
 </g>
</svg>
