<svg xmlns="http://www.w3.org/2000/svg" viewBox="0 0 300 300">
  <g id="blubrry">
    <rect width="300" height="300" rx="67" fill="#b347a3"/>
    <path d="M182.68,88.87s7.79-17.79,7.39-18.13-17.85,10.63-17.85,10.63S150.91,65,150.06,65c-1.14,0-19.27,15-19.27,15S111.46,66,111,66.48,117.26,89,117.26,89c-28.14,11.88-47.74,37.74-47.74,69.11,0,42.45,36,76.9,80.48,76.9,45.92,0,80.48-34.45,80.48-76.9C230.48,126.73,210.82,100.87,182.68,88.87Zm7.85,69a37.88,37.88,0,0,0-21.77-33.42l3-7.45a45.85,45.85,0,0,1,27.12,40.87Zm18.24,0a55,55,0,0,0-33.53-49.67l4.26-10.75c24.39,10.52,41.32,33.6,41.32,60.43Z" fill="#fff"/>
  </g>
</svg>
