<svg xmlns="http://www.w3.org/2000/svg" xmlns:xlink="http://www.w3.org/1999/xlink" viewBox="0 0 300 300">
  <defs>
    <linearGradient id="castbox" x1="19.62" y1="19.62" x2="280.38" y2="280.38" gradientUnits="userSpaceOnUse">
      <stop offset="0" stop-color="#ffb768"/>
      <stop offset="0.19" stop-color="#ff9953"/>
      <stop offset="0.57" stop-color="#ff652e"/>
      <stop offset="0.85" stop-color="#ff4518"/>
      <stop offset="1" stop-color="#ff390f"/>
    </linearGradient>
  </defs>
  <g id="castbox-2" data-name="castbox">
    <rect width="300" height="300" rx="67" fill="url(#castbox)"/>
    <path d="M165.11,103c-5.19,0-9.44,3.78-9.44,9v21.72c0,2.83-2.36,4.72-5.67,4.72s-5.67-2.36-5.67-4.72V104.43c0-4.72-4.25-9-9.44-9s-9.45,3.78-9.45,9V128c0,2.84-2.36,4.72-5.66,4.72s-5.67-2.36-5.67-4.72v-8.5c0-4.72-4.25-9-9.44-9s-9.45,3.78-9.45,9v20.31c0,2.83-2.36,4.72-5.66,4.72s-5.67-2.36-5.67-4.72v-2.36a9.45,9.45,0,1,0-18.89,0v28.33a9.45,9.45,0,0,0,18.89,0v-2.36c0-2.83,2.36-4.72,5.67-4.72s5.66,2.36,5.66,4.72v32.11c0,4.72,4.25,9,9.45,9s9.44-3.78,9.44-9V151.65c0-2.83,2.36-4.72,5.67-4.72s5.66,2.36,5.66,4.72v21.72c0,4.73,4.25,9,9.45,9s9.44-3.78,9.44-9V157.32c0-2.83,2.36-4.72,5.67-4.72s5.67,2.36,5.67,4.72v17.47c0,4.72,4.25,9,9.44,9s9.45-3.77,9.45-9V112c0-4.73-4.25-9-9.45-9" fill="#fff" fill-rule="evenodd"/>
    <path d="M195.33,127.57c-5.19,0-9.44,3.78-9.44,9v35.89c0,4.72,4.25,9,9.44,9s9.45-3.77,9.45-9V136.54c0-5.19-4.25-9-9.45-9" fill="#fff" fill-rule="evenodd"/>
    <path d="M225.56,145.51c-5.2,0-9.45,3.78-9.45,9v9c0,4.72,4.25,9,9.45,9s9.44-3.78,9.44-9v-9c0-5.2-4.25-9-9.44-9" fill="#fff" fill-rule="evenodd"/>
  </g>
</svg>
