<svg xmlns="http://www.w3.org/2000/svg" viewBox="0 0 300 300">
  <g id="playerfm">
    <rect width="300" height="300" rx="67" fill="#c81329"/>
    <path d="M144.92,235A79.78,79.78,0,0,1,126,77.7c9-2.36,18.43,3.3,20.79,12.75,2.36,9-3.31,18.42-12.76,20.79-20.31,4.72-34.48,23.14-34.48,44.4A45.36,45.36,0,0,0,144.92,201c21.26,0,39.21-14.17,44.4-35,2.37-9,11.34-15.11,20.79-12.75,9,2.36,15.11,11.34,12.75,20.78A80.3,80.3,0,0,1,144.92,235Z" fill="#fff"/>
    <path d="M227.59,139.58a7.1,7.1,0,0,1-7.09-5.2c-12.28-42.51-53.85-55.27-54.32-55.27a7.17,7.17,0,1,1,4.25-13.69c1.89.47,49.6,15.11,64.24,64.71,1,3.78-.94,8-4.72,9A5.17,5.17,0,0,1,227.59,139.58Z" fill="#fff"/>
    <path d="M204,144.3a7.1,7.1,0,0,1-7.09-5.19c-8.5-27.4-35.43-36.38-35.43-36.85-3.78-1.42-6.14-5.19-4.72-9s5.2-6.14,9-4.73c1.42.47,34.49,11.34,44.88,46.3.95,3.77-.94,8-4.72,9C205.38,143.83,204.44,144.3,204,144.3Z" fill="#fff"/>
    <path d="M179.88,147.14a7.14,7.14,0,0,1-6.62-4.25c-5.19-11.81-16.53-17.48-16.53-17.48a7.39,7.39,0,1,1,6.61-13.23c.47.47,16.06,8,23.62,24.57a6.93,6.93,0,0,1-3.31,9.44A6.29,6.29,0,0,1,179.88,147.14Z" fill="#fff"/>
  </g>
</svg>
