<svg xmlns="http://www.w3.org/2000/svg" xmlns:xlink="http://www.w3.org/1999/xlink" viewBox="0 0 300 300">
  <defs>
    <linearGradient id="linear-gradient" x1="142.29" y1="253.24" x2="273.52" y2="121.61" gradientUnits="userSpaceOnUse">
      <stop offset="0.13" stop-color="#e85d27"/>
      <stop offset="0.69" stop-color="#f0772b"/>
    </linearGradient>
  </defs>
  <g id="podcast-addict">
    <rect width="300" height="300" rx="67" fill="#f4842d"/>
    <path d="M300,233V183.06L217.93,101,147.86,82,85.5,158.53l14,60.86L180.14,300H233A67,67,0,0,0,300,233Z" fill="url(#linear-gradient)"/>
    <path d="M234.94,148.07a85,85,0,1,0-124.89,77V149.57a40.42,40.42,0,0,1,32.77-39.63v14.13a26.56,26.56,0,0,0-19,25.5v.23h0v.11a26.6,26.6,0,0,0,52.09,7.27H190a40.33,40.33,0,0,1-66.23,22.67v51A85.77,85.77,0,0,0,150,235a84.59,84.59,0,0,0,47.65-14.59V235H235l-.06-86.93Zm-84.62,17a15.52,15.52,0,1,1,15.51-15.51A15.48,15.48,0,0,1,150.32,165.08Zm40.38-15.4H177v-.11a26.58,26.58,0,0,0-26.6-26.6h-.05V109.24h.05a40.33,40.33,0,0,1,40.33,40.33Zm23.65,0H200.73v-.11a50.36,50.36,0,0,0-50.36-50.36h-.05V85.59h.05a64,64,0,0,1,64,64Z" fill="#fff"/>
  </g>
</svg>
