<svg version="1.1" viewBox="0 0 300 300" xmlns="http://www.w3.org/2000/svg" xmlns:cc="http://creativecommons.org/ns#" xmlns:dc="http://purl.org/dc/elements/1.1/" xmlns:rdf="http://www.w3.org/1999/02/22-rdf-syntax-ns#">
 <rect width="300" height="300" rx="67" fill="#a00"/>
 <path d="m50.732 31.317-1.818 1.9434c-16.593 17.73-26.687 38.451-30.635 62.888-0.98119 6.0742-1.3623 20.357-0.7254 27.169 0.82101 8.7813 2.5587 16.911 5.5882 26.15 4.1898 12.777 11.214 25.591 19.707 35.945 3.3551 4.0905 7.6789 8.8098 8.0622 8.801 0.12687-3e-3 3.8575-3.6337 8.2906-8.0689l8.06-8.0644-2.2299-2.2926c-11.931-12.27-20.287-29.277-23.654-48.145-1.1053-6.1935-1.3762-19.388-0.53062-25.861 2.528-19.352 10.639-37.011 23.515-51.199l2.6867-2.962-8.1585-8.1518zm198.53 0.0046-16.312 16.299 2.5792 2.7628c3.4972 3.7448 8.6014 10.589 11.309 15.164 12.522 21.162 16.214 46.157 10.283 69.625-2.2356 8.8459-6.0378 18.015-10.641 25.666-2.4417 4.0582-8.552 12.061-11.344 14.857l-2.1964 2.2008 8.1361 8.1562 8.1361 8.1585 1.7844-1.7396c0.98188-0.95571 2.983-3.139 4.4464-4.8539 13.74-16.1 22.99-36.341 26.28-57.503 1.1151-7.1714 1.3941-22.696 0.53958-30.111-1.5398-13.362-5.1345-25.636-11.029-37.656-5.336-10.882-11.974-20.521-19.774-28.718zm-27.469 27.464-7.8988 7.901-7.901 7.8988 1.4418 1.7083c7.0395 8.345 11.038 16.2 13.167 25.861 0.95643 4.3412 1.1562 13.985 0.39181 18.885-1.0494 6.7274-3.7684 14.244-7.1666 19.814-1.6702 2.7376-5.6469 7.9857-6.9092 9.1167-0.76428 0.68476-0.75166 0.69957 7.0122 8.7137 4.2772 4.415 7.8791 7.9835 8.0062 7.9324 0.12712-0.0511 1.0503-0.99942 2.0508-2.109 8.5485-9.4812 14.496-20.51 17.696-32.815 6.2332-23.966-0.20283-50.693-16.686-69.291zm-143.31 0.39626c-0.48021-0.0956-1.0844 0.59004-3.3829 3.2464-3.8269 4.4226-5.4503 6.6336-8.1473 11.107-4.8768 8.089-8.1295 16.906-9.9518 26.963-0.79432 4.3837-1.1139 15.563-0.57763 20.21 1.8539 16.065 8.3621 30.93 18.605 42.487l3.2262 3.6382 7.8204-7.9816 7.8226-7.9816-1.7956-2.0777c-6.321-7.3109-10.47-15.63-12.616-25.302-1.0706-4.8237-1.1533-15.48-0.15672-20.414 2.0106-9.9543 6.5801-19.285 12.721-25.978l2.2837-2.4874-7.2898-7.2316c-4.0099-3.9778-7.6388-7.5277-8.0644-7.8876-0.19096-0.16143-0.33696-0.27934-0.49703-0.3112zm25.996 25.543-0.91794 1.0993c-2.9882 3.5866-6.3925 10.838-7.8808 16.783-1.0724 4.2836-1.3515 12.862-0.5642 17.38 0.67883 3.8961 2.0714 8.5039 3.5755 11.832 1.1167 2.4714 4.9507 8.4764 5.4114 8.4764 0.14883 0 2.3009-2.0552 4.7845-4.5673l4.5158-4.5673-0.74779-1.209c-6.7624-10.942-6.6884-23.626 0.19926-34.537l0.90899-1.4418-4.6412-4.6255zm91.14 0.18135c-0.50862 0-8.9331 8.6357-8.9331 9.157 0 0.31722 0.43043 1.2136 0.95825 1.9904 6.0286 8.8719 6.3537 22.399 0.77241 32.166l-1.5874 2.7807 4.4218 4.6255c2.432 2.5446 4.5317 4.6382 4.6658 4.6502s0.82196-0.76724 1.5292-1.7306c1.8468-2.5158 4.1389-6.8936 5.3532-10.225 4.4204-12.127 3.4009-25.9-2.7494-37.109-1.3228-2.411-4.0591-6.3047-4.4307-6.3047zm-44.757 2.4605c-2.2527 6e-3 -4.5164 0.22186-6.1771 0.64703-7.2066 1.8452-13.463 6.9061-16.812 13.601-6.2784 12.551-1.0669 27.755 11.741 34.25 3.9133 1.9848 7.0107 2.618 12.041 2.4628 3.226-0.0995 5.0878-0.35213 6.9696-0.94704 7.6837-2.429 13.831-8.5156 16.689-16.525 1.1558-3.2399 1.4622-10.474 0.59107-13.955-2.3118-9.2371-9.5839-16.504-18.93-18.916-1.617-0.41737-3.8595-0.62332-6.1121-0.61793zm-14.649 61.368-1.0164 7.7935c-1.5425 11.825-4.8305 36.765-6.6629 50.529-2.0755 15.59-5.3163 40.189-6.7659 51.355-0.61544 4.7411-1.2035 8.9919-1.3053 9.4458l-0.18359 0.82391h28.226l0.19925-1.1911c0.10947-0.6557 0.44254-3.0913 0.74107-5.4114 0.29854-2.3201 1.2842-9.8314 2.1896-16.691 0.90539-6.8595 2.5647-19.485 3.6874-28.06 2.7875-21.289 5.3907-41.074 7.348-55.815 0.90158-6.7903 1.6411-12.443 1.6411-12.562 0-0.11963-6.3225-0.21717-14.049-0.21717z" fill="#fff" stroke-width=".36682"/>
</svg>
