<svg xmlns="http://www.w3.org/2000/svg" xmlns:xlink="http://www.w3.org/1999/xlink" viewBox="0 0 300 300">
  <defs>
    <linearGradient id="linear-gradient" x1="98.65" y1="77.34" x2="182.61" y2="222.76" gradientUnits="userSpaceOnUse">
      <stop offset="0" stop-color="#fbdb67"/>
      <stop offset="0.5" stop-color="#906a01"/>
      <stop offset="1" stop-color="#ab8009"/>
    </linearGradient>
  </defs>
  <g id="podtail">
    <rect y="0.14" width="300" height="300" rx="67"/>
    <path d="M150.08,235.14c-1.27-.24-2.55-.45-3.82-.72-8.82-1.82-14.78-6.95-17.8-15.46-1.86-5.25-2.27-10.71-2.36-16.22,0-2.47-.17-2.6-2.63-2.61-3.6,0-7.2,0-10.8,0-2.75,0-4.33-1.68-4.32-4.46s1.61-4.43,4.36-4.45c3.72,0,7.43-.06,11.15,0,1.61,0,2.21-.59,2.18-2.19-.08-3.37-.06-6.73,0-10.09,0-1.41-.58-2-1.93-2.18-15.44-2.55-25-13.85-25-29.49,0-4.53.42-4.1-4.06-4.12-.83,0-1.66,0-2.48,0a5,5,0,0,1-4.37-4.59,4.86,4.86,0,0,1,4.38-4.37c1.3-.1,2.6-.05,3.9-.06,2.53,0,2.62-.08,2.62-2.56q0-18.59,0-37.17c0-14.65,9.25-26,23.65-28.93a8.16,8.16,0,0,0,.84-.26h15.23c5.11,1.19,9.93,3,14,6.5,6.36,5.49,10.11,12.38,10.17,20.81.13,19.18.16,38.37-.1,57.55-.19,13.39-11.09,25-24.42,26.72-3.48.45-3.45,0-3.44,4,0,2.84,0,5.67,0,8.5,0,1.43.58,2,2,2,4.13,0,8.27,0,12.4,0,2.81,0,4.32,1.58,4.34,4.41s-1.51,4.51-4.41,4.52c-4.08,0-8.15,0-12.22,0-1.62,0-2.19.61-2.17,2.2.07,4.56.32,9.08,1.83,13.44a14.53,14.53,0,0,0,12,10.22c8.27,1.47,15.17-.78,20-7.75,3-4.29,5.43-9,8.17-13.45,2.18-3.57,4.13-7.34,6.72-10.58a18.15,18.15,0,0,1,24.66-3.29,12.06,12.06,0,0,1,2.79,2.91,3.66,3.66,0,0,1-.49,5,4.28,4.28,0,0,1-5,.87,8.34,8.34,0,0,1-1.46-1c-4.8-3.75-10.54-3.2-14.16,1.67-2.06,2.78-3.64,5.92-5.47,8.88-3.25,5.25-6.24,10.71-9.88,15.69a24.61,24.61,0,0,1-16.57,10,6.27,6.27,0,0,0-.84.26ZM131,134.07v.06h20.36c2.48,0,2.58-.12,2.6-2.61,0-.3,0-.59,0-.89,0-3.18,0-3.18-3.27-3.18-3.72,0-7.44.07-11.16,0a4.43,4.43,0,0,1-4.45-4.38,4.52,4.52,0,0,1,4.19-4.65,18.77,18.77,0,0,1,2.12-.07c3.49,0,7,0,10.45,0,2,0,2-.23,2.11-2.93,0-1.56-.37-2.25-2.08-2.2q-5.92.13-11.86,0c-3-.06-5-2-4.94-4.63s2-4.46,5.09-4.48c3.77,0,7.55,0,11.33,0,2.34,0,2.42-.1,2.42-2.57s-.07-2.64-2.35-2.65c-4.31,0-8.62,0-12.93,0a4.54,4.54,0,0,1-.48-9,14.59,14.59,0,0,1,2.29-.13c3.66,0,7.32,0,11,0,1.93,0,2.13-.25,1.49-2.06-2.58-7.31-7.67-11.87-15.32-13.07a53.3,53.3,0,0,0-10.94-.3,19.24,19.24,0,0,0-17.4,13.18c-.62,1.91-.44,2.2,1.53,2.22,3.72,0,7.44,0,11.16.07,3,.08,5,2,4.89,4.71s-2.1,4.44-5.12,4.47c-3.6,0-7.2,0-10.8,0-2.53,0-2.63.11-2.64,2.55s.1,2.62,2.56,2.63h12a4.57,4.57,0,0,1,4.36,2.5c1.59,3-.51,6.46-4.15,6.61-4.19.17-8.38.06-12.57.1-2.06,0-2.26.3-2.25,2.63,0,2.16.21,2.39,2.28,2.41,3.89,0,7.79,0,11.68,0,3.34,0,5.47,1.79,5.53,4.48s-2.12,4.66-5.48,4.69-6.62,0-9.92,0c-4.29,0-4.12-.53-4.11,4.12,0,2.31.16,2.46,2.58,2.46Q120.9,134.09,131,134.07Zm.15,9v.06c-6.9,0-13.81,0-20.71,0-1.57,0-2.32.49-2.24,2.13.08,1.47,0,3,.06,4.43a19.21,19.21,0,0,0,18.61,18.27c2.71.08,5.43.11,8.14,0,7.7-.31,13.29-4,16.9-10.76,2-3.67,2.19-7.66,2.07-11.71-.06-2.24-.18-2.4-2.46-2.4Z" fill="url(#linear-gradient)"/>
  </g>
</svg>
