<svg xmlns="http://www.w3.org/2000/svg" viewBox="0 0 300 300">
  <g id="podcastrepublic">
    <rect width="300" height="300" rx="67" fill="#ce262f"/>
    <path d="M229.23,230.93c-30.4-14.09-60.8,14.09-91.2,0V90c30.4,14.09,60.8-14.09,91.2,0Zm-49.32-75.56V129.44l3.15-.73c3.92-.9,4.3,1.12,4.3,4.45v15.31c0,2.84-.38,5.27-4.3,6.18Zm0,14.94c2.65-.6,5.3-1.23,8-1.83,11.75-2.68,16.42-9.94,16.42-21.35v-18.4c0-11.22-3-18.35-17.3-15.12-8,1.81-15.91,3.84-23.87,4.56v91.88a128,128,0,0,0,16.8-2.94Z" fill="#fff" fill-rule="evenodd"/>
    <path d="M163.2,210.13S161.79,218,138,230.93V154.81Z" fill="#c1c1c1" fill-rule="evenodd"/>
    <path d="M163.12,210c-30.79-14.09-61.57,14.09-92.35,0V69.07c30.78,14.09,61.56-14.09,92.35,0ZM113,131.73V108.52l3.79-.86c3.41-.78,4.17.29,4.16,4.24v12.47c0,4.32-1.26,5.83-4.66,6.62Zm0,54.46V146.92l3.54-.8c3.41-.78,4.41.11,4.41,4.43v26.8c0,4.07.64,5.9,1.52,6.7a115.06,115.06,0,0,1,16.8-2.67v-.62c-.64-1.07-1.39-2.73-1.39-6.68V142.83c0-6.82-4.55-9.42-7.2-9.92a14.67,14.67,0,0,0,7.45-13.31V104.9c0-9.85-5.17-15.05-15.4-12.78-8.84,1.93-17.68,4.29-26.52,5.09v91.87A131,131,0,0,0,113,186.19Z" fill="#fff" fill-rule="evenodd"/>
  </g>
</svg>
