<svg xmlns="http://www.w3.org/2000/svg" viewBox="0 0 300 300">
  <g id="spotify">
    <rect width="300" height="300" rx="67"/>
    <path d="M199.52,140.5c-27-16-71.5-17.5-97.26-9.68a7.83,7.83,0,0,1-4.54-15c29.57-9,78.73-7.24,109.79,11.2a7.83,7.83,0,0,1-8,13.47Zm-.88,23.74a6.54,6.54,0,0,1-9,2.15c-22.5-13.83-56.8-17.84-83.42-9.76a6.53,6.53,0,1,1-3.8-12.49c30.41-9.23,68.21-4.76,94.05,11.12a6.54,6.54,0,0,1,2.15,9ZM188.39,187a5.21,5.21,0,0,1-7.17,1.74c-19.66-12-44.4-14.73-73.55-8.07a5.22,5.22,0,0,1-2.32-10.17c31.89-7.29,59.25-4.16,81.31,9.33a5.21,5.21,0,0,1,1.73,7.17ZM150,66.28A83.72,83.72,0,1,0,233.72,150,83.72,83.72,0,0,0,150,66.28Z" fill="#1ed760"/>
  </g>
</svg>
