<svg xmlns="http://www.w3.org/2000/svg" viewBox="0 0 300 300">
  <g id="tunein">
    <rect width="300" height="300" rx="67" fill="#1c203b"/>
    <path d="M230.77,92.47h-80.3a4.21,4.21,0,0,0-4.23,4.23V177a4.21,4.21,0,0,0,4.23,4.23h80.3A4.21,4.21,0,0,0,235,177V96.23A4.14,4.14,0,0,0,230.77,92.47ZM200.25,154a1,1,0,0,1-.94.94H181.93A1,1,0,0,1,181,154v-5.16a1,1,0,0,1,.94-.94h4.23c.47,0,.47,0,.47-.47V126.28c0-.47,0-.47-.47-.47H182.4a1,1,0,0,1-.94-.93v-5.17a1,1,0,0,1,.94-.94h16a1,1,0,0,1,.94.94v5.17a1,1,0,0,1-.94.93h-3.76c-.47,0-.47,0-.47.47v21.14c0,.47,0,.47.47.47h4.23a1,1,0,0,1,.94.94l.47,5.16Z" fill="#14d8cc" fill-rule="evenodd"/>
    <path d="M145.77,126.75v72.79H73V126.75h72.79m3.76-8H69.23A4.21,4.21,0,0,0,65,123v80.3a4.21,4.21,0,0,0,4.23,4.23h80.3a4.21,4.21,0,0,0,4.23-4.23V122.53a4.52,4.52,0,0,0-4.23-3.76Z" fill="#14d8cc"/>
    <path d="M120.88,151.17V146a1,1,0,0,0-.94-.94H98.81a1,1,0,0,0-.94.94v5.16a1,1,0,0,0,.94.94h6.58c.47,0,.47,0,.47.47v27.71a1,1,0,0,0,.94.94H112a1,1,0,0,0,.94-.94V152.58c0-.47,0-.47.47-.47h6.57a1,1,0,0,0,.94-.94Z" fill="#14d8cc" fill-rule="evenodd"/>
  </g>
</svg>
