<svg xmlns="http://www.w3.org/2000/svg" viewBox="0 0 59 40">
  <path d="M52.801 38.23h-8.853s-.93-1.975-1.306-2.671c-.378-.697-1.278-.668-1.278-.668H17.33s-.871-.116-1.307.668c-.464.784-1.335 2.67-1.335 2.67H5.98c-2.003 0-3.658-1.625-3.658-3.628V5.893c0-2.003 1.626-3.658 3.629-3.658h46.821c2.003 0 3.658 1.626 3.658 3.629v28.708c.029 2.003-1.626 3.657-3.629 3.657Z" fill="#009486"/>
  <path d="M17.01 10.014h24.703c4.267-.028 7.721 3.426 7.692 7.722 0 4.238-3.454 7.692-7.692 7.692H17.01c-4.238 0-7.692-3.454-7.692-7.692 0-4.238 3.454-7.722 7.692-7.722Z" fill="#E7F9E4"/>
  <path d="M39.768 14.804a3.773 3.773 0 0 0-3.774 3.777c0 .861.298 1.656.795 2.319 0 0 1.29-.96 3.111-.96 1.357 0 2.946.827 2.946.827.43-.63.695-1.358.695-2.186a3.773 3.773 0 0 0-3.773-3.777Zm-20.9 0a3.773 3.773 0 0 0-3.774 3.777c0 .828.265 1.557.695 2.186 0 0 1.59-.828 2.946-.828 1.821 0 3.112.96 3.112.96a3.707 3.707 0 0 0 .794-2.318 3.773 3.773 0 0 0-3.773-3.777Z" fill="#009486"/>
</svg>
