<svg version="1.1" id="Calque_1" xmlns="http://www.w3.org/2000/svg" x="0" y="0" viewBox="0 0 155.9 184.3" xml:space="preserve">
  <style>
    .st0{fill:#006d60}.st1{fill:#00564a}.st2{fill:#009486}.st3{fill:#2b6b5f}.st4{fill:#e7f9e4}.st5{fill:#71afa3}
  </style>
  <g id="FOOTS_1_">
    <path class="st0" d="m55.8 134.7 37.2-.3c1.4 0 2.5-1.2 2.5-2.6 0-1.4-1.2-2.5-2.6-2.5l-37.2.3c-1.4 0-2.5 1.2-2.5 2.6.1 1.3 1.2 2.5 2.6 2.5z"/>
    <path class="st1" d="m89.2 129.3-29.5.2s7.5 1.3 15.2 1.2c7.9 0 14.3-1.4 14.3-1.4z"/>
  </g>
  <g id="LEGS_5_">
    <path transform="matrix(-1 .00772 -.00772 -1 149.368 218.272)" class="st1" d="M40.6 102.5h67.3v13.8H40.6z"/>
    <path class="st2" d="M38.4 116.2c.1 6.5 5.4 11.8 11.9 11.8l48.2-.4c6.5 0 11.7-5.5 11.7-12v-1.9c0-1.6-1.3-2.9-2.9-2.9l-66 .5c-1.6 0-2.9 1.3-2.9 2.9v2z"/>
    <path transform="matrix(-1 .00772 -.00772 -1 149.335 215.458)" class="st3" d="M41.4 107.9h65.8v.2H41.4z"/>
    <path transform="matrix(-1 .00772 -.00772 -1 149.354 217.11)" class="st3" d="M41.4 108.7h65.8v.2H41.4z"/>
    <path transform="matrix(-1 .00772 -.00772 -1 149.374 218.761)" class="st3" d="M41.4 109.6h65.8v.2H41.4z"/>
    <path class="st0" d="m75.1 127.8 23.3-.2c6.5-.1 11.8-5.5 11.7-12 0 0-1 5.3-8.2 8-5.3 2-12.8 1.6-26.9 1.7-14.1.1-23 .6-28.4-1.3-7.2-2.6-8.3-7.8-8.3-7.8.1 6.5 5.4 11.8 11.9 11.8l24.9-.2z"/>
  </g>
  <g id="NECK_5_">
    <path class="st1" d="m51.3 82.6.1-1.3 2.9-5s.3-.7 2-.6c.8 0 38.5 2.1 39.3 2.1 1.8.1 2 .8 2 .8l1.6 3.8-.1 1.3-47.8-1.1z"/>
    <path transform="rotate(-86.884 75.824 78.055) scale(.99998)" class="st3" d="M75.7 57.7h.2v40.7h-.2z"/>
    <path transform="rotate(-86.884 75.779 78.88) scale(.99998)" class="st3" d="M75.7 57.8h.2V100h-.2z"/>
  </g>
  <g id="HEAD_18_">
    <path id="dark_greeen_9_" class="st2" d="m35.2 76.5 16.4.9L53 75c.7-1.2 2.3-1 2.3-1L97 76.3s1.5-.1 2.2 1.3c.7 1.4 1.2 2.5 1.2 2.5l16.1.9c3.5.2 6.5-2.5 6.7-6l2.7-49.8c.2-3.5-2.5-6.5-6-6.7l-81.1-4.4c-3.5-.2-6.5 2.5-6.7 6l-2.7 49.8c-.4 3.4 2.3 6.4 5.8 6.6z"/>
    <path class="st0" d="m98.1 57.7-43.4-2.4s10.9 2.5 22.2 3.1c11.7.7 21.2-.7 21.2-.7z"/>
    <g id="light_green_4_">
      <path class="st4" d="M43.3 41.3c-.4 7.4 5.3 13.7 12.6 14.1l42.8 2.3c7.4.4 13.7-5.2 14.1-12.6.4-7.4-5.3-13.7-12.6-14.1l-42.8-2.3c-7.4-.5-13.7 5.2-14.1 12.6zM109.4 28.1c3.2.8 4.7 3.7 4.8 6.7 0 .7-.4 1.1-.9 1-.5-.1-.8-.3-.9-1.3 0-2.3-1.2-4.1-3.2-4.8 0 0-1.5-.3-1.2-1.2.2-.5.8-.5 1.4-.4zM50.2 25.8c.1 1-1.4 1-1.4 1-2.1.3-3.3 1.3-3.7 3.6-.3 1-.5 1.2-1.1 1.2-.4 0-.8-.4-.7-1.1.5-3 2.3-5.1 5.6-5.3.5-.1 1.2 0 1.3.6z"/>
    </g>
    <path id="dark_greeen_3_" class="st0" d="m50.8 77.4-15.6-.8c-3.5-.2-6.2-3.3-5.9-6.8l1.9-33.9 1.7 33.9s-.6 3.7 5 4.9l12.9 2.7z"/>
    <path class="st0" d="M82.8 46.5s-2.8-.3-5.9 0c-3.1.3-4.7 1-4.7 1-.6 0-1.1-.4-1.1-.9 0-.6.3-.9.9-1.1 0 0 3-.8 4.8-1 1.8-.1 5.9 0 5.9 0 .6 0 1.1.4 1.1.9-.1.5-.5 1-1 1.1z"/>
    <path class="st0" d="M62.9 44.4s-2.1-1.2-4.8-.9c-2 .2-4.3 1.8-4.3 1.8-.8-.8-1.3-1.9-1.5-3.1-.4-3.1 1.8-6 5-6.4s6 1.9 6.3 5c.2 1.3-.1 2.6-.7 3.6zm38.9 3.5s-2.1-1.7-4.1-2.2c-2.7-.6-4.9.5-4.9.5-.5-1.1-.7-2.4-.4-3.7.7-3.1 3.7-5.1 6.8-4.4 3.1.7 5 3.7 4.4 6.8-.3 1.2-.9 2.2-1.8 3z" id="light_green_5_"/>
  </g>
  <g id="ARMS_5_">
    <g id="BRAS_10_">
      <path class="st0" d="M115.4 97.6c1-.1 1.8-1.6 1.7-3.4l-.2-6.2c-.1-2.3-1.5-3.3-7.1-3-1.6.1-6 .4-6 .4-1 .1-1.8 1.6-1.7 3.4l.6 9.6c.4 0 12.7-.8 12.7-.8z" id="ARM_20_"/>
    </g>
    <g id="ARM_19_">
      <path class="st2" d="m144.5 67.9.5.5c2.5 2.6 2 7.3-.6 9.8l-8.4 8.3c-3 3-11.7 7.8-16 3.5l-1-1c-2.5-2.6-.5-4.7 2.1-7.2l14.1-13.9c2.6-2.6 6.8-2.5 9.3 0z"/>
      <path class="st0" d="M144.5 67.9s-2.8-2.7-8.1 1.6c-2.2 1.8-14.5 14-15.8 15.6-1.8 2.3-1.6 3.9-1.6 3.9-2.5-2.6-.5-4.7 2.1-7.2l14.1-13.9c2.6-2.6 6.8-2.5 9.3 0z"/>
      <path transform="rotate(-134.628 138.09 77.75)" class="st5" d="M134 77.6h8.2v.2H134z"/>
      <path transform="rotate(-134.628 139.195 76.66)" class="st5" d="M135.1 76.6h8.2v.2h-8.2z"/>
      <path transform="rotate(-134.628 140.298 75.571)" class="st5" d="M136.2 75.5h8.2v.2h-8.2z"/>
    </g>
    <g id="BRAS_8_">
      <path class="st0" d="M33.5 96c-1-.1-1.7-1.7-1.4-3.5l.6-6.1c.3-2.3 1.7-3.2 7.3-2.5 1.6.2 5.9.8 5.9.8 1 .1 1.7 1.7 1.4 3.5L46 97.7c-.2 0-12.5-1.7-12.5-1.7z" id="ARM_18_"/>
    </g>
    <g id="ARM_16_">
      <path class="st2" d="m13.4 58.2-.6.3c-3.3 1.5-4.4 6.1-2.9 9.4l5 10.8c1.8 3.8 8.2 11.4 13.7 8.9l1.3-.6c3.3-1.5 2.1-4.2.6-7.5l-8.3-18c-1.6-3.4-5.5-4.8-8.8-3.3z"/>
      <path class="st0" d="M13.4 58.2s3.5-1.6 7 4.4c1.4 2.5 8.7 18.2 9.3 20.2.9 2.8.2 4.2.2 4.2 3.3-1.5 2.1-4.2.6-7.5l-8.3-18c-1.6-3.4-5.5-4.8-8.8-3.3z"/>
      <path transform="rotate(-24.72 16.01 69.65)" class="st5" d="M11.9 69.5h8.2v.2h-8.2z"/>
      <path transform="rotate(-24.72 15.362 68.242)" class="st5" d="M11.2 68.1h8.2v.2h-8.2z"/>
      <path transform="rotate(-24.72 14.713 66.833)" class="st5" d="M10.6 66.7h8.2v.2h-8.2z"/>
    </g>
  </g>
  <path id="BELLY_5_" class="st2" d="M43.3 105.4c-6.7-.1-8-2.6-8-9.1 0 0-.2-10.9-.2-12.2 0-2.2 4.5-3.9 8.9-3.8l61.8 1.3c4.4.1 8.8 1.9 8.7 4.2 0 1.3-.7 12.1-.7 12.1-.3 6.5-1.7 8.9-8.4 8.8l-62.1-1.3z"/>
  <ellipse id="SHADOW_5_" cx="74.3" cy="163.5" rx="53.1" ry="6.7" fill="#dcf4d7"/>
  <g id="TXT_4_">
    <path class="st1" d="M64.3 91.8v-.7h.7c0 .1 0 .1-.1.4v.2h1l.3.3c0 .1 0 .1-.1.3 0 .8-.1 1.4-.2 1.6-.1.3-.3.4-.7.4h-.5c0-.3 0-.4-.1-.6.2.1.4.1.5.1.2 0 .2-.1.3-.4 0-.2.1-.7.1-1h-.7c0 .2 0 .2-.1.4-.2.7-.5 1.2-1.3 1.7-.2-.3-.3-.4-.5-.6.5-.2.8-.5 1-.9.1-.2.1-.3.2-.6h-1v-.6h1.2zM69.3 94.5c-.3-.4-.6-.7-1-1.1-.4.4-.8.7-1.4 1-.1-.3-.2-.4-.4-.6.5-.2.9-.4 1.2-.7.3-.3.6-.6.8-1H67v-.6h2.1l.3.3c-.1.1-.1.1-.1.2-.2.4-.3.7-.6 1 .4.3.6.5 1.1 1l-.5.5zM70.5 94.5v-.6l.1-2.1v-.5h.7v1c.6.2 1.1.4 1.6.8l-.4.6c-.3-.3-.8-.5-1.1-.7-.1-.1-.1-.1-.2-.1v1.5l-.7.1zM73.3 92.7c.2 0 .4 0 .7.1h2.4v.7H73.3v-.8zM77.9 93v.1c-.1.6-.3 1-.6 1.4l-.6-.3c.3-.4.5-.9.6-1.4l.6.2zm2.2-.3H78.8v2.1h-.7v-2.2h-1.2V92H78.2v-.5h.7v.5h.8c-.1-.1-.1-.2-.1-.3 0-.2.2-.4.4-.4s.4.2.4.4c0 .1-.1.3-.2.4l-.1.6zm-.5.1c.1.5.3 1.1.6 1.4l-.6.3c-.3-.5-.4-.8-.5-1.4 0-.1 0-.1-.1-.2l.6-.1zm.1-1c0 .1.1.2.2.2s.2-.1.2-.2-.1-.2-.2-.2-.2.1-.2.2zM81.1 92.4l.3.9-.6.2c-.1-.4-.2-.6-.3-.9l.6-.2zm2.1.1c0 .1 0 .1-.1.2-.1.5-.3.9-.5 1.2-.2.3-.5.5-.8.7-.1.1-.2.1-.4.2-.1-.2-.2-.3-.4-.5.7-.3 1.1-.6 1.4-1.2.1-.3.2-.5.2-.8l.6.2zm-1.3-.2c.2.4.2.5.3.9l-.6.2-.3-.9.6-.2zM84 94.9v-.6l.1-2.1v-.5h.7v1c.6.2 1.1.5 1.6.8l-.4.6c-.3-.2-.7-.5-1.1-.7-.1 0-.1 0-.1-.1v1.5l-.8.1zm1.7-3c.1.2.2.3.3.5l-.3.2c-.1-.2-.2-.4-.3-.5l.3-.2zm.5-.2c.1.1.2.3.4.5l-.3.2c-.1-.2-.2-.4-.3-.5l.2-.2z"/>
    <g>
      <path class="st1" d="M70.6 97.8c-.1 0-.1 0-.2.1h-.2c-.2 0-.4-.1-.5-.2-.1-.1-.2-.3-.2-.6s.1-.5.2-.6c.1-.1.3-.2.5-.2h.2c.1 0 .1 0 .2.1v.3c-.1-.1-.1-.1-.2-.1h-.2c-.1 0-.2 0-.3.1.1 0 .1.2.1.3 0 .2 0 .3.1.4.1.1.1.1.3.1h.2c.1 0 .1-.1.2-.1l-.2.4zM71.5 96.3h.3v1h.2v.3h-.2v.3h-.3v-.3h-.6v-.3l.6-1zm0 .3-.4.6h.4v-.6zM72.3 96.3h.9v.3h-.6v.3h.2c.2 0 .3.1.4.2s.1.2.1.4-.1.3-.2.4c-.1.1-.3.1-.4.1h-.2c-.1 0-.1 0-.2-.1v-.3c.1 0 .1.1.2.1h.2c.1 0 .2 0 .3-.1.1 0 .1-.1.1-.2s0-.2-.1-.2c-.1-.1-.1-.1-.2-.1h-.2c-.1 0-.1 0-.2.1l-.1-.9zM73.6 96.3h1v.2l-.6 1.4h-.3l.5-1.3h-.7l.1-.3zM74.8 97.2c0-.3.1-.5.1-.6.1-.1.2-.2.4-.2s.3.1.4.2c.1.1.1.3.1.6s-.1.5-.1.6c-.1.1-.2.2-.4.2s-.3-.1-.4-.2-.1-.4-.1-.6zm.6-.6c-.1 0-.1 0-.2.1 0 .1-.1.2-.1.4v.2l.4-.6s0-.1-.1-.1zm-.2 1c0 .1.1.1.2.1s.1 0 .2-.1c0-.1.1-.2.1-.4V97l-.5.6zM76.2 96.4h.4c.2 0 .4 0 .5.1.1.1.1.2.1.4s-.1.3-.2.4c-.1.1-.3.1-.5.1h-.1v.6h-.3l.1-1.6zm.3.3v.5H76.8s.1-.1.1-.2 0-.1-.1-.2c0 0-.1-.1-.2-.1h-.1zM77.5 97.2c0-.3.1-.5.1-.6.1-.1.2-.2.4-.2s.3.1.4.2c.1.1.1.3.1.6s-.1.5-.1.6c-.1.1-.2.2-.4.2s-.3-.1-.4-.2-.1-.3-.1-.6zm.5-.5c-.1 0-.1 0-.2.1 0 .1-.1.2-.1.4v.2l.4-.6c0-.1 0-.1-.1-.1zm-.2 1c0 .1.1.1.2.1s.1 0 .2-.1c0-.1.1-.2.1-.4v-.2l-.5.6c0-.1 0-.1 0 0zM78.8 96.5h.3c.3 0 .4.1.6.2.1.1.2.3.2.6s-.1.5-.2.6c-.1.1-.3.2-.6.2h-.3v-1.6zm.3.2v1h.1c.1 0 .2 0 .3-.1.1-.1.1-.2.1-.4s0-.3-.1-.4c-.1 0-.2 0-.4-.1z"/>
    </g>
    <g>
      <path class="st4" d="M64.3 91.6v-.7h.7c0 .1 0 .1-.1.4v.2h1l.3.3c0 .1 0 .1-.1.3 0 .8-.1 1.4-.2 1.6-.1.3-.3.4-.7.4h-.5c0-.3 0-.4-.1-.6.2.1.4.1.5.1.2 0 .2-.1.3-.4 0-.2.1-.7.1-1h-.7c0 .2 0 .2-.1.4-.2.7-.5 1.2-1.3 1.7-.2-.3-.3-.4-.5-.6.5-.2.8-.5 1-.9.1-.2.1-.3.2-.6h-1v-.6h1.2zM69.3 94.3c-.3-.4-.6-.7-1-1.1-.4.4-.8.7-1.4 1-.1-.3-.2-.4-.4-.6.5-.2.9-.4 1.2-.7.3-.3.6-.6.8-1H67v-.6h2.1l.3.3c-.1.1-.1.1-.1.2-.2.4-.3.7-.6 1 .4.3.6.5 1.1 1l-.5.5zM70.5 94.3v-.6l.1-2.1v-.5h.7v1c.6.2 1.1.4 1.6.8l-.4.6c-.3-.3-.8-.5-1.1-.7-.1-.1-.1-.1-.2-.1v1.5l-.7.1zM73.3 92.4c.2 0 .4 0 .7.1h2.4v.7H73.3v-.8zM77.9 92.7v.1c-.1.6-.3 1-.6 1.4l-.6-.3c.3-.4.5-.9.6-1.4l.6.2zm2.2-.2H78.8v2.1h-.7v-2.2h-1.2v-.6H78.2v-.5h.7v.5h.8c-.1-.1-.1-.2-.1-.3 0-.2.2-.4.4-.4s.4.2.4.4c0 .1-.1.3-.2.4l-.1.6zm-.5.1c.1.5.3 1.1.6 1.4l-.6.3c-.3-.5-.4-.8-.5-1.4 0-.1 0-.1-.1-.2l.6-.1zm.1-1c0 .1.1.2.2.2s.2-.1.2-.2-.1-.2-.2-.2-.2.1-.2.2zM81.1 92.2l.3.9-.6.2c-.1-.4-.2-.6-.3-.9l.6-.2zm2.1.1c0 .1 0 .1-.1.2-.1.5-.3.9-.5 1.2-.2.3-.5.5-.8.7-.1.1-.2.1-.4.2-.1-.2-.2-.3-.4-.5.7-.3 1.1-.6 1.4-1.2.1-.3.2-.5.2-.8l.6.2zm-1.3-.2c.2.4.2.5.3.9l-.6.2-.3-.9.6-.2zM84 94.7v-.6l.1-2.1v-.5h.7v1c.6.2 1.1.5 1.6.8l-.4.6c-.3-.2-.7-.5-1.1-.7-.1 0-.1 0-.1-.1v1.5l-.8.1zm1.7-3c.1.2.2.3.3.5l-.3.2c-.1-.2-.2-.4-.3-.5l.3-.2zm.5-.2c.1.1.2.3.4.5l-.3.2c-.1-.2-.2-.4-.3-.5l.2-.2z"/>
    </g>
    <g>
      <path class="st4" d="M70.6 97.6c-.1 0-.1 0-.2.1h-.2c-.2 0-.4-.1-.5-.2s-.2-.3-.2-.6.1-.5.2-.6c.1-.1.3-.2.5-.2h.2c.1 0 .1 0 .2.1v.3c-.1-.1-.1-.1-.2-.1h-.2c-.1 0-.2 0-.3.1.1 0 .1.1.1.3 0 .2 0 .3.1.4.1.1.1.1.3.1h.2c.1 0 .1-.1.2-.1l-.2.4zM71.5 96.1h.3v1h.2v.3h-.2v.3h-.3v-.3h-.6v-.3l.6-1zm0 .3-.4.6h.4v-.6zM72.3 96.1h.9v.3h-.6v.3h.2c.2 0 .3.1.4.2.1.1.1.2.1.4s-.1.3-.2.4c-.1.1-.3.1-.4.1h-.2c-.1 0-.1 0-.2-.1v-.3c.1 0 .1.1.2.1h.2c.1 0 .2 0 .3-.1.1 0 .1-.1.1-.2s0-.2-.1-.2c-.1-.1-.1-.1-.2-.1h-.2c-.1 0-.1 0-.2.1l-.1-.9zM73.6 96.1h1v.2l-.6 1.4h-.3l.5-1.3h-.7l.1-.3zM74.8 96.9c0-.3.1-.5.1-.6.1-.1.2-.2.4-.2s.3.1.4.2c.1.1.1.3.1.6s-.1.5-.1.6c-.1.1-.2.2-.4.2s-.3-.1-.4-.2-.1-.3-.1-.6zm.6-.5c-.1 0-.1 0-.2.1 0 .1-.1.2-.1.4v.2l.4-.6c0-.1 0-.1-.1-.1zm-.2 1c0 .1.1.1.2.1s.1 0 .2-.1c0-.1.1-.2.1-.4v-.2l-.5.6zM76.2 96.2h.4c.2 0 .4 0 .5.1.1.1.1.2.1.4s-.1.3-.2.4c-.1.1-.3.1-.5.1h-.1v.6h-.3l.1-1.6zm.3.3v.5H76.8s.1-.1.1-.2 0-.1-.1-.2c0 0-.1-.1-.2-.1h-.1zM77.5 97c0-.3.1-.5.1-.6.1-.1.2-.2.4-.2s.3.1.4.2c.1.1.1.3.1.6s-.1.5-.1.6c-.1.1-.2.2-.4.2s-.3-.1-.4-.2-.1-.3-.1-.6zm.5-.5c-.1 0-.1 0-.2.1 0 .1-.1.2-.1.4v.2l.4-.6c0-.1 0-.1-.1-.1zm-.2.9c0 .1.1.1.2.1s.1 0 .2-.1c0-.1.1-.2.1-.4v-.2l-.5.6zM78.8 96.2h.3c.3 0 .4.1.6.2.1.1.2.3.2.6s-.1.5-.2.6c-.1.1-.3.2-.6.2h-.3v-1.6zm.3.3v1h.1c.1 0 .2 0 .3-.1.1-.1.1-.2.1-.4s0-.3-.1-.4c-.1 0-.2-.1-.4-.1z"/>
    </g>
  </g>
</svg>
