<svg width="232" height="260" viewBox="0 0 232 260" fill="none" xmlns="http://www.w3.org/2000/svg">
<path d="M79.5436 200.875L141.5 200.376C143.831 200.376 145.664 198.377 145.664 196.045C145.664 193.714 143.665 191.882 141.333 191.882L79.3771 192.381C77.0454 192.381 75.2134 194.38 75.2134 196.712C75.3799 198.877 77.212 200.875 79.5436 200.875Z" fill="#006D60"/>
<path d="M135.171 191.882L86.0393 192.215C86.0393 192.215 98.5305 194.38 111.355 194.213C124.512 194.213 135.171 191.882 135.171 191.882Z" fill="#00564A"/>
<path d="M166.443 169.873L54.356 170.738L54.1786 147.754L166.266 146.889L166.443 169.873Z" fill="#00564A"/>
<path d="M50.5645 170.064C50.731 180.889 59.5581 189.716 70.3838 189.716L150.66 189.05C161.486 189.05 170.146 179.89 170.146 169.064V165.9C170.146 163.235 167.981 161.07 165.317 161.07L55.3944 161.903C52.7296 161.903 50.5645 164.068 50.5645 166.733V170.064Z" fill="#009486"/>
<path d="M164.987 156.203L55.3978 157.049L55.3952 156.716L164.984 155.87L164.987 156.203Z" fill="#2B6B5F"/>
<path d="M165.008 157.622L55.419 158.468L55.4164 158.135L165.005 157.289L165.008 157.622Z" fill="#2B6B5F"/>
<path d="M165.03 158.873L55.4407 159.719L55.4382 159.386L165.027 158.54L165.03 158.873Z" fill="#2B6B5F"/>
<path d="M111.688 189.383L150.494 189.05C161.319 188.884 170.146 179.89 169.98 169.064C169.98 169.064 168.314 177.891 156.323 182.388C147.496 185.719 135.004 185.053 111.521 185.22C88.0377 185.386 73.2149 186.219 64.2213 183.054C52.2297 178.724 50.3977 170.064 50.3977 170.064C50.5643 180.889 59.3913 189.716 70.217 189.716L111.688 189.383Z" fill="#006D60"/>
<path d="M72.0488 114.103L72.2154 111.938L77.0453 103.611C77.0453 103.611 77.5449 102.445 80.3763 102.611C81.7087 102.611 144.498 106.109 145.83 106.109C148.828 106.276 149.161 107.441 149.161 107.441L151.826 113.77L151.659 115.935L72.0488 114.103Z" fill="#00564A"/>
<path d="M79.0291 104.9L79.0472 104.567L146.731 108.252L146.713 108.584L79.0291 104.9Z" fill="#2B6B5F"/>
<path d="M77.7524 106.133L77.7705 105.8L147.949 109.621L147.931 109.953L77.7524 106.133Z" fill="#2B6B5F"/>
<path d="M45.2346 103.944L72.5486 105.443L74.8803 101.446C76.0462 99.447 78.711 99.7801 78.711 99.7801L148.162 103.611C148.162 103.611 150.66 103.444 151.826 105.776C152.992 108.108 153.824 109.94 153.824 109.94L180.639 111.439C186.468 111.772 191.464 107.275 191.798 101.446L196.294 18.5043C196.628 12.6751 192.131 7.67862 186.301 7.34552L51.2304 0.0173753C45.4012 -0.315722 40.4047 4.1811 40.0716 10.0103L35.5748 92.9516C34.9086 98.6143 39.4054 103.611 45.2346 103.944Z" fill="#009486"/>
<path d="M149.994 72.6327L77.7117 68.6355C77.7117 68.6355 95.8655 72.7992 114.685 73.7985C134.172 74.9644 149.994 72.6327 149.994 72.6327Z" fill="#006D60"/>
<path d="M58.7252 45.3186C58.059 57.6432 67.5523 68.1358 79.7103 68.802L150.993 72.6326C163.318 73.2988 173.81 63.9721 174.477 51.6475C175.143 39.3229 165.649 28.8303 153.491 28.1641L82.2085 24.3335C69.8839 23.5007 59.3914 32.994 58.7252 45.3186Z" fill="#E7F9E4"/>
<path d="M171.334 27.0569C169.538 22.3913 165.594 18.6476 160.122 19.1365C159.124 19.3068 158.18 19.6345 158.138 20.5304C158.158 22.1103 160.681 21.7632 160.681 21.7632C164.211 21.7723 167.082 23.949 168.338 27.5679C169.041 29.0867 169.622 29.2375 170.464 29.1218C171.305 29.0061 171.716 28.1582 171.334 27.0569Z" fill="#E7F9E4"/>
<path d="M71.2163 105.443L45.2347 104.11C39.4055 103.777 34.9087 98.6143 35.4083 92.785L38.5727 36.325L41.4041 92.785C41.4041 92.785 40.4048 98.9473 49.7315 100.946L71.2163 105.443Z" fill="#006D60"/>
<path d="M125.486 54.405C125.486 54.405 120.823 53.9054 115.66 54.405C110.497 54.9046 107.832 56.0705 107.832 56.0705C106.833 56.0705 106 55.4043 106 54.5715C106 53.5723 106.5 53.0726 107.499 52.7395C107.499 52.7395 112.495 51.4071 115.493 51.074C118.491 50.9075 125.32 51.074 125.32 51.074C126.319 51.074 127.152 51.7402 127.152 52.573C126.985 53.4057 126.319 54.2384 125.486 54.405Z" fill="#006D60"/>
<ellipse cx="148" cy="48" rx="7" ry="9" fill="#006D60"/>
<ellipse cx="86" cy="44" rx="7" ry="9" fill="#006D60"/>
<path d="M74.5763 17.4708C74.5763 17.4708 77.0259 17.961 77.1895 16.2952C77.2222 15.2827 76.1117 14.8906 75.2625 14.8905C69.8079 14.1386 66.182 16.9798 64.3849 21.7157C63.9928 22.8262 64.5154 23.6102 65.1686 23.7409C66.1485 23.937 66.5404 23.6757 67.3572 22.1407C68.7621 18.5153 71.0487 17.2744 74.5763 17.4708Z" fill="#E7F9E4"/>
<path d="M178.807 139.086C180.472 138.919 181.805 136.421 181.638 133.423L181.305 123.097C181.138 119.266 178.807 117.601 169.48 118.1C166.815 118.267 159.487 118.767 159.487 118.767C157.822 118.933 156.489 121.431 156.656 124.429L157.655 140.418C158.321 140.418 178.807 139.086 178.807 139.086Z" fill="#006D60"/>
<path d="M213.194 166.667L214.283 166.218C219.791 163.82 222.03 156.274 219.633 150.766L212.03 132.627C209.337 126.094 199.032 113.145 189.668 117.005L187.491 117.902C181.983 120.3 183.714 124.809 186.111 130.317L198.894 160.714C201.228 166.376 207.75 168.911 213.194 166.667Z" fill="#009486"/>
<path d="M213.194 166.667C213.194 166.667 207.161 169.026 201.764 159.022C199.533 154.846 188.429 128.215 187.455 124.923C186.159 120.234 187.491 117.902 187.491 117.902C181.983 120.3 183.714 124.809 186.111 130.317L198.894 160.714C201.228 166.376 207.75 168.911 213.194 166.667Z" fill="#006D60"/>
<path d="M215.827 144.552L203.234 149.838L203.363 150.145L215.956 144.859L215.827 144.552Z" fill="#71AFA3"/>
<path d="M216.894 147.07L204.301 152.356L204.43 152.663L217.023 147.377L216.894 147.07Z" fill="#71AFA3"/>
<path d="M217.89 149.432L205.298 154.718L205.427 155.025L218.019 149.739L217.89 149.432Z" fill="#71AFA3"/>
<path d="M42.403 136.421C40.7375 136.254 39.5716 133.589 40.0713 130.592L41.0706 120.432C41.5702 116.601 43.9019 115.103 53.2286 116.268C55.8934 116.601 63.055 117.601 63.055 117.601C64.7205 117.767 65.8864 120.432 65.3867 123.43L63.2216 139.252C62.8885 139.252 42.403 136.421 42.403 136.421Z" fill="#006D60"/>
<path d="M12.5417 160.989L11.4921 160.606C5.74762 158.749 3.05655 151.346 4.9138 145.601L11.1425 126.784C13.4015 120.155 22.5527 106.368 32.1268 109.463L34.3915 110.21C40.1359 112.067 38.6615 116.762 36.8042 122.507L26.4782 153.862C24.4744 159.791 18.2862 162.846 12.5417 160.989Z" fill="#009486"/>
<path d="M12.5417 160.989C12.5417 160.989 18.6361 162.974 23.2915 152.383C25.1348 147.981 34.2416 120.621 34.8557 117.198C35.8148 112.394 34.3915 110.21 34.3915 110.21C40.136 112.067 38.6615 116.762 36.8043 122.507L26.4782 153.863C24.4744 159.791 18.2862 162.846 12.5417 160.989Z" fill="#006D60"/>
<path d="M8.11157 139.649L21.0859 143.913L21.1899 143.596L8.21557 139.332L8.11157 139.649Z" fill="#71AFA3"/>
<path d="M7.22778 142.062L20.2021 146.326L20.3061 146.009L7.33178 141.745L7.22778 142.062Z" fill="#71AFA3"/>
<path d="M6.50293 144.527L19.4772 148.791L19.5812 148.475L6.60693 144.211L6.50293 144.527Z" fill="#71AFA3"/>
<path d="M58.7251 152.076C47.5663 151.91 45.4012 147.746 45.4012 136.92C45.4012 136.92 45.0681 118.767 45.0681 116.601C45.0681 112.937 52.5628 110.106 59.891 110.273L162.818 112.438C170.146 112.604 177.474 115.602 177.308 119.433C177.308 121.598 176.142 139.585 176.142 139.585C175.642 150.411 173.311 154.408 162.152 154.241L58.7251 152.076Z" fill="#009486"/>
<path d="M110.355 260C159.198 260 198.793 255.004 198.793 248.841C198.793 242.678 159.198 237.682 110.355 237.682C61.5125 237.682 21.9177 242.678 21.9177 248.841C21.9177 255.004 61.5125 260 110.355 260Z" fill="#000000" opacity=".05"/>
<path d="M93.7003 129.426V128.26H94.8662C94.8662 128.427 94.8662 128.427 94.6996 128.926V129.259H96.3651L96.8648 129.759C96.8648 129.926 96.8648 129.926 96.6982 130.259C96.6982 131.591 96.5317 132.59 96.3651 132.923C96.1986 133.423 95.8655 133.59 95.1993 133.59H94.3665C94.3665 133.09 94.3665 132.923 94.2 132.59C94.5331 132.757 94.8662 132.757 95.0327 132.757C95.3658 132.757 95.3658 132.59 95.5324 132.091C95.5324 131.758 95.6989 130.925 95.6989 130.425H94.5331C94.5331 130.758 94.5331 130.758 94.3665 131.091C94.0334 132.257 93.5338 133.09 92.2014 133.923C91.8683 133.423 91.7017 133.256 91.3687 132.923C92.2014 132.59 92.701 132.091 93.0341 131.424C93.2007 131.091 93.2007 130.925 93.3672 130.425H91.7017V129.426H93.7003ZM102.028 133.923C101.528 133.256 101.028 132.757 100.362 132.091C99.6961 132.757 99.0299 133.256 98.0306 133.756C97.8641 133.256 97.6975 133.09 97.3644 132.757C98.1971 132.424 98.8633 132.091 99.363 131.591C99.8626 131.091 100.362 130.592 100.695 129.925H98.1971V128.926H101.695L102.194 129.426C102.028 129.592 102.028 129.592 102.028 129.759C101.695 130.425 101.528 130.925 101.028 131.424C101.695 131.924 102.028 132.257 102.861 133.09L102.028 133.923ZM104.026 133.923V132.923L104.193 129.426V128.593H105.359V130.259C106.358 130.592 107.191 130.925 108.024 131.591L107.357 132.59C106.858 132.091 106.025 131.758 105.525 131.424C105.359 131.258 105.359 131.258 105.192 131.258V133.756L104.026 133.923ZM108.69 130.925C109.023 130.925 109.356 130.925 109.856 131.091H113.853V132.257H108.69V130.925ZM116.351 131.424V131.591C116.184 132.59 115.851 133.256 115.352 133.923L114.352 133.423C114.852 132.757 115.185 131.924 115.352 131.091L116.351 131.424ZM120.015 130.925H117.85V134.422H116.684V130.758H114.685V129.759H116.851V128.926H118.016V129.759H119.349C119.182 129.592 119.182 129.426 119.182 129.259C119.182 128.926 119.515 128.593 119.848 128.593C120.182 128.593 120.515 128.926 120.515 129.259C120.515 129.426 120.348 129.759 120.182 129.925L120.015 130.925ZM119.182 131.091C119.349 131.924 119.682 132.923 120.182 133.423L119.182 133.923C118.683 133.09 118.516 132.59 118.35 131.591C118.35 131.424 118.35 131.424 118.183 131.258L119.182 131.091ZM119.349 129.426C119.349 129.592 119.515 129.759 119.682 129.759C119.848 129.759 120.015 129.592 120.015 129.426C120.015 129.259 119.848 129.093 119.682 129.093C119.515 129.093 119.349 129.259 119.349 129.426ZM121.681 130.425L122.18 131.924L121.181 132.257C121.014 131.591 120.848 131.258 120.681 130.758L121.681 130.425ZM125.178 130.592C125.178 130.758 125.178 130.758 125.011 130.925C124.845 131.758 124.512 132.424 124.179 132.923C123.846 133.423 123.346 133.756 122.846 134.089C122.68 134.256 122.513 134.256 122.18 134.422C122.014 134.089 121.847 133.923 121.514 133.59C122.68 133.09 123.346 132.59 123.846 131.591C124.012 131.091 124.179 130.758 124.179 130.259L125.178 130.592ZM123.013 130.259C123.346 130.925 123.346 131.091 123.513 131.758L122.513 132.091L122.014 130.592L123.013 130.259ZM126.51 134.589V133.59L126.677 130.092V129.259H127.843V130.925C128.842 131.258 129.675 131.758 130.508 132.257L129.841 133.256C129.342 132.923 128.676 132.424 128.009 132.091C127.843 132.091 127.843 132.091 127.843 131.924V134.422L126.51 134.589ZM129.342 129.592C129.508 129.926 129.675 130.092 129.841 130.425L129.342 130.758C129.175 130.425 129.009 130.092 128.842 129.925L129.342 129.592ZM130.175 129.259C130.341 129.426 130.508 129.759 130.841 130.092L130.341 130.425C130.175 130.092 130.008 129.759 129.841 129.592L130.175 129.259Z" fill="#00564A"/>
<path d="M104.193 139.419C104.026 139.419 104.026 139.419 103.86 139.585H103.526C103.193 139.585 102.86 139.419 102.694 139.252C102.527 139.086 102.361 138.753 102.361 138.253C102.361 137.753 102.527 137.42 102.694 137.254C102.86 137.087 103.193 136.921 103.526 136.921H103.86C104.026 136.921 104.026 136.921 104.193 137.087V137.587C104.026 137.42 104.026 137.42 103.86 137.42H103.526C103.36 137.42 103.193 137.42 103.027 137.587C103.193 137.587 103.193 137.92 103.193 138.086C103.193 138.42 103.193 138.586 103.36 138.753C103.526 138.919 103.526 138.919 103.86 138.919H104.193C104.359 138.919 104.359 138.753 104.526 138.753L104.193 139.419ZM105.692 136.921H106.191V138.586H106.524V139.086H106.191V139.585H105.692V139.086H104.692V138.586L105.692 136.921ZM105.692 137.42L105.025 138.42H105.692V137.42ZM107.024 136.921H108.523V137.42H107.524V137.92H107.857C108.19 137.92 108.356 138.086 108.523 138.253C108.689 138.42 108.689 138.586 108.689 138.919C108.689 139.252 108.523 139.419 108.356 139.585C108.19 139.752 107.857 139.752 107.69 139.752H107.357C107.191 139.752 107.191 139.752 107.024 139.585V139.086C107.191 139.086 107.191 139.252 107.357 139.252H107.69C107.857 139.252 108.023 139.252 108.19 139.086C108.356 139.086 108.356 138.919 108.356 138.753C108.356 138.586 108.356 138.42 108.19 138.42C108.023 138.253 108.023 138.253 107.857 138.253H107.524C107.357 138.253 107.357 138.253 107.191 138.42L107.024 136.921ZM109.189 136.921H110.855V137.254L109.855 139.585H109.356L110.188 137.42H109.023L109.189 136.921ZM111.188 138.42C111.188 137.92 111.354 137.587 111.354 137.42C111.521 137.254 111.687 137.087 112.02 137.087C112.354 137.087 112.52 137.254 112.687 137.42C112.853 137.587 112.853 137.92 112.853 138.42C112.853 138.919 112.687 139.252 112.687 139.419C112.52 139.585 112.354 139.752 112.02 139.752C111.687 139.752 111.521 139.585 111.354 139.419C111.188 139.252 111.188 138.753 111.188 138.42ZM112.187 137.42C112.02 137.42 112.02 137.42 111.854 137.587C111.854 137.753 111.687 137.92 111.687 138.253V138.586L112.354 137.587C112.354 137.587 112.354 137.42 112.187 137.42ZM111.854 139.086C111.854 139.252 112.02 139.252 112.187 139.252C112.354 139.252 112.354 139.252 112.52 139.086C112.52 138.919 112.687 138.753 112.687 138.42V138.086L111.854 139.086ZM113.519 137.087H114.186C114.519 137.087 114.852 137.087 115.018 137.254C115.185 137.42 115.185 137.587 115.185 137.92C115.185 138.253 115.018 138.42 114.852 138.586C114.685 138.753 114.352 138.753 114.019 138.753H113.852V139.752H113.353L113.519 137.087ZM114.019 137.587V138.42H114.519C114.519 138.42 114.685 138.253 114.685 138.086C114.685 137.92 114.685 137.92 114.519 137.753C114.519 137.753 114.352 137.587 114.186 137.587H114.019ZM115.684 138.42C115.684 137.92 115.851 137.587 115.851 137.42C116.018 137.254 116.184 137.087 116.517 137.087C116.85 137.087 117.017 137.254 117.183 137.42C117.35 137.587 117.35 137.92 117.35 138.42C117.35 138.919 117.183 139.252 117.183 139.419C117.017 139.585 116.85 139.752 116.517 139.752C116.184 139.752 116.018 139.585 115.851 139.419C115.684 139.252 115.684 138.919 115.684 138.42ZM116.517 137.587C116.351 137.587 116.351 137.587 116.184 137.753C116.184 137.92 116.018 138.086 116.018 138.42V138.753L116.684 137.753C116.684 137.587 116.684 137.587 116.517 137.587ZM116.184 139.252C116.184 139.419 116.351 139.419 116.517 139.419C116.684 139.419 116.684 139.419 116.85 139.252C116.85 139.086 117.017 138.919 117.017 138.586V138.253L116.184 139.252C116.184 139.086 116.184 139.086 116.184 139.252ZM117.85 137.254H118.349C118.849 137.254 119.015 137.42 119.349 137.587C119.515 137.753 119.682 138.086 119.682 138.586C119.682 139.086 119.515 139.419 119.349 139.585C119.182 139.752 118.849 139.918 118.349 139.918H117.85V137.254ZM118.349 137.587V139.252H118.516C118.682 139.252 118.849 139.252 119.015 139.086C119.182 138.919 119.182 138.753 119.182 138.42C119.182 138.086 119.182 137.92 119.015 137.753C118.849 137.753 118.682 137.753 118.349 137.587Z" fill="#00564A"/>
<path d="M93.7003 129.093V127.927H94.8662C94.8662 128.093 94.8662 128.093 94.6996 128.593V128.926H96.3651L96.8648 129.426C96.8648 129.592 96.8648 129.592 96.6982 129.925C96.6982 131.258 96.5317 132.257 96.3651 132.59C96.1986 133.09 95.8655 133.256 95.1993 133.256H94.3665C94.3665 132.757 94.3665 132.59 94.2 132.257C94.5331 132.424 94.8662 132.424 95.0327 132.424C95.3658 132.424 95.3658 132.257 95.5324 131.757C95.5324 131.424 95.6989 130.592 95.6989 130.092H94.5331C94.5331 130.425 94.5331 130.425 94.3665 130.758C94.0334 131.924 93.5338 132.757 92.2014 133.59C91.8683 133.09 91.7017 132.923 91.3687 132.59C92.2014 132.257 92.701 131.758 93.0341 131.091C93.2007 130.758 93.2007 130.592 93.3672 130.092H91.7017V129.093H93.7003ZM102.028 133.59C101.528 132.923 101.028 132.424 100.362 131.757C99.6961 132.424 99.0299 132.923 98.0306 133.423C97.8641 132.923 97.6975 132.757 97.3644 132.424C98.1971 132.091 98.8633 131.758 99.363 131.258C99.8626 130.758 100.362 130.259 100.695 129.592H98.1971V128.593H101.695L102.194 129.093C102.028 129.259 102.028 129.259 102.028 129.426C101.695 130.092 101.528 130.592 101.028 131.091C101.695 131.591 102.028 131.924 102.861 132.757L102.028 133.59ZM104.026 133.59V132.59L104.193 129.093V128.26H105.359V129.925C106.358 130.259 107.191 130.592 108.024 131.258L107.357 132.257C106.858 131.757 106.025 131.424 105.525 131.091C105.359 130.925 105.359 130.925 105.192 130.925V133.423L104.026 133.59ZM108.69 130.425C109.023 130.425 109.356 130.425 109.856 130.592H113.853V131.757H108.69V130.425ZM116.351 130.925V131.091C116.184 132.091 115.851 132.757 115.352 133.423L114.352 132.923C114.852 132.257 115.185 131.424 115.352 130.592L116.351 130.925ZM120.015 130.592H117.85V134.089H116.684V130.425H114.685V129.426H116.851V128.593H118.016V129.426H119.349C119.182 129.259 119.182 129.093 119.182 128.926C119.182 128.593 119.515 128.26 119.848 128.26C120.182 128.26 120.515 128.593 120.515 128.926C120.515 129.093 120.348 129.426 120.182 129.592L120.015 130.592ZM119.182 130.758C119.349 131.591 119.682 132.59 120.182 133.09L119.182 133.59C118.683 132.757 118.516 132.257 118.35 131.258C118.35 131.091 118.35 131.091 118.183 130.925L119.182 130.758ZM119.349 129.093C119.349 129.259 119.515 129.426 119.682 129.426C119.848 129.426 120.015 129.259 120.015 129.093C120.015 128.926 119.848 128.76 119.682 128.76C119.515 128.76 119.349 128.926 119.349 129.093ZM121.681 130.092L122.18 131.591L121.181 131.924C121.014 131.258 120.848 130.925 120.681 130.425L121.681 130.092ZM125.178 130.259C125.178 130.425 125.178 130.425 125.011 130.592C124.845 131.424 124.512 132.091 124.179 132.59C123.846 133.09 123.346 133.423 122.846 133.756C122.68 133.923 122.513 133.923 122.18 134.089C122.014 133.756 121.847 133.59 121.514 133.256C122.68 132.757 123.346 132.257 123.846 131.258C124.012 130.758 124.179 130.425 124.179 129.925L125.178 130.259ZM123.013 129.925C123.346 130.592 123.346 130.758 123.513 131.424L122.513 131.757L122.014 130.259L123.013 129.925ZM126.51 134.256V133.256L126.677 129.759V128.926H127.843V130.592C128.842 130.925 129.675 131.424 130.508 131.924L129.841 132.923C129.342 132.59 128.676 132.091 128.009 131.757C127.843 131.757 127.843 131.757 127.843 131.591V134.089L126.51 134.256ZM129.342 129.259C129.508 129.592 129.675 129.759 129.841 130.092L129.342 130.425C129.175 130.092 129.009 129.759 128.842 129.592L129.342 129.259ZM130.175 128.926C130.341 129.093 130.508 129.426 130.841 129.759L130.341 130.092C130.175 129.759 130.008 129.426 129.841 129.259L130.175 128.926Z" fill="#E7F9E4"/>
<path d="M104.193 139.086C104.026 139.086 104.026 139.086 103.86 139.252H103.526C103.193 139.252 102.86 139.086 102.694 138.919C102.527 138.753 102.361 138.42 102.361 137.92C102.361 137.42 102.527 137.087 102.694 136.921C102.86 136.754 103.193 136.587 103.526 136.587H103.86C104.026 136.587 104.026 136.587 104.193 136.754V137.254C104.026 137.087 104.026 137.087 103.86 137.087H103.526C103.36 137.087 103.193 137.087 103.027 137.254C103.193 137.254 103.193 137.42 103.193 137.753C103.193 138.086 103.193 138.253 103.36 138.419C103.526 138.586 103.526 138.586 103.86 138.586H104.193C104.359 138.586 104.359 138.419 104.526 138.419L104.193 139.086ZM105.692 136.587H106.191V138.253H106.524V138.753H106.191V139.252H105.692V138.753H104.692V138.253L105.692 136.587ZM105.692 137.087L105.025 138.086H105.692V137.087ZM107.024 136.587H108.523V137.087H107.524V137.587H107.857C108.19 137.587 108.356 137.753 108.523 137.92C108.689 138.086 108.689 138.253 108.689 138.586C108.689 138.919 108.523 139.086 108.356 139.252C108.19 139.419 107.857 139.419 107.69 139.419H107.357C107.191 139.419 107.191 139.419 107.024 139.252V138.753C107.191 138.753 107.191 138.919 107.357 138.919H107.69C107.857 138.919 108.023 138.919 108.19 138.753C108.356 138.753 108.356 138.586 108.356 138.419C108.356 138.253 108.356 138.086 108.19 138.086C108.023 137.92 108.023 137.92 107.857 137.92H107.524C107.357 137.92 107.357 137.92 107.191 138.086L107.024 136.587ZM109.189 136.587H110.855V136.921L109.855 139.252H109.356L110.188 137.087H109.023L109.189 136.587ZM111.188 137.92C111.188 137.42 111.354 137.087 111.354 136.921C111.521 136.754 111.687 136.587 112.02 136.587C112.354 136.587 112.52 136.754 112.687 136.921C112.853 137.087 112.853 137.42 112.853 137.92C112.853 138.42 112.687 138.753 112.687 138.919C112.52 139.086 112.354 139.252 112.02 139.252C111.687 139.252 111.521 139.086 111.354 138.919C111.188 138.753 111.188 138.42 111.188 137.92ZM112.187 137.087C112.02 137.087 112.02 137.087 111.854 137.254C111.854 137.42 111.687 137.587 111.687 137.92V138.253L112.354 137.254C112.354 137.087 112.354 137.087 112.187 137.087ZM111.854 138.753C111.854 138.919 112.02 138.919 112.187 138.919C112.354 138.919 112.354 138.919 112.52 138.753C112.52 138.586 112.687 138.42 112.687 138.086V137.753L111.854 138.753ZM113.519 136.754H114.186C114.519 136.754 114.852 136.754 115.018 136.921C115.185 137.087 115.185 137.254 115.185 137.587C115.185 137.92 115.018 138.086 114.852 138.253C114.685 138.419 114.352 138.419 114.019 138.419H113.852V139.419H113.353L113.519 136.754ZM114.019 137.254V138.086H114.519C114.519 138.086 114.685 137.92 114.685 137.753C114.685 137.587 114.685 137.587 114.519 137.42C114.519 137.42 114.352 137.254 114.186 137.254H114.019ZM115.684 138.086C115.684 137.587 115.851 137.254 115.851 137.087C116.018 136.921 116.184 136.754 116.517 136.754C116.85 136.754 117.017 136.921 117.183 137.087C117.35 137.254 117.35 137.587 117.35 138.086C117.35 138.586 117.183 138.919 117.183 139.086C117.017 139.252 116.85 139.419 116.517 139.419C116.184 139.419 116.018 139.252 115.851 139.086C115.684 138.919 115.684 138.586 115.684 138.086ZM116.517 137.254C116.351 137.254 116.351 137.254 116.184 137.42C116.184 137.587 116.018 137.753 116.018 138.086V138.419L116.684 137.42C116.684 137.254 116.684 137.254 116.517 137.254ZM116.184 138.753C116.184 138.919 116.351 138.919 116.517 138.919C116.684 138.919 116.684 138.919 116.85 138.753C116.85 138.586 117.017 138.42 117.017 138.086V137.753L116.184 138.753ZM117.85 136.754H118.349C118.849 136.754 119.015 136.921 119.349 137.087C119.515 137.254 119.682 137.587 119.682 138.086C119.682 138.586 119.515 138.919 119.349 139.086C119.182 139.252 118.849 139.419 118.349 139.419H117.85V136.754ZM118.349 137.254V138.919H118.516C118.682 138.919 118.849 138.919 119.015 138.753C119.182 138.586 119.182 138.42 119.182 138.086C119.182 137.753 119.182 137.587 119.015 137.42C118.849 137.42 118.682 137.254 118.349 137.254Z" fill="#E7F9E4"/>
</svg>
