<svg xmlns="http://www.w3.org/2000/svg" viewBox="0 0 24 24">
    <path fill="none" d="M0 0h24v24H0z" />
    <path d="m18.755 7.346-.11-.555c-.099-.498-.323-.97-.834-1.15-.164-.057-.35-.081-.475-.2-.127-.12-.163-.305-.192-.477-.054-.315-.104-.63-.16-.944-.048-.27-.085-.575-.209-.823-.162-.333-.497-.528-.83-.656a4.775 4.775 0 0 0-.521-.162c-.834-.219-1.709-.3-2.565-.347a21.528 21.528 0 0 0-3.083.052c-.763.07-1.567.153-2.292.417-.265.096-.538.213-.74.417-.247.252-.327.642-.147.955.128.223.346.38.576.484.3.135.615.236.936.305.896.198 1.825.276 2.74.308 1.014.042 2.03.008 3.041-.098.25-.028.499-.061.747-.1.293-.044.482-.427.395-.694-.103-.32-.38-.443-.695-.395-.388.062-.8.09-1.152.122-.98.067-1.965.068-2.947.005a18.518 18.518 0 0 1-.964-.09 10.513 10.513 0 0 1-.818-.138c-.093-.022-.093-.154 0-.176h.004c.231-.05.464-.09.698-.123h.002c.11-.007.22-.026.328-.04a20.898 20.898 0 0 1 2.856-.1c.561.016 1.122.056 1.68.12l.19.026c.223.033.445.073.665.121.327.07.746.094.892.452.046.114.067.24.093.359l.265 1.237a.198.198 0 0 1-.165.236h-.003l-.093.013c-1.311.167-2.631.25-3.953.246A30.882 30.882 0 0 1 8 5.699c-.116-.014-.244-.035-.347-.05-.272-.04-.541-.09-.811-.134-.328-.054-.64-.027-.936.134-.242.134-.44.337-.562.584-.129.264-.166.55-.223.834-.057.283-.147.589-.112.88.072.627.51 1.137 1.141 1.251 3.12.557 6.303.663 9.453.314a.403.403 0 0 1 .446.441l-.06.581-.848 8.256c-.034.342-.039.694-.104 1.031-.102.531-.46.857-.985.976-.48.11-.97.167-1.463.17-.547.004-1.092-.02-1.639-.017-.582.003-1.296-.05-1.746-.484-.395-.382-.45-.978-.504-1.494l-.609-5.844-.268-2.579c-.031-.292-.239-.579-.565-.565-.28.013-.599.25-.565.566l.19 1.821.79 7.594c.123 1.12.979 1.723 2.039 1.893.618.1 1.252.12 1.88.13.806.013 1.62.044 2.41-.102 1.174-.215 2.055-.998 2.181-2.214.283-2.777.57-5.553.853-8.33l.18-1.739a.403.403 0 0 1 .325-.355c.335-.065.655-.176.895-.431.379-.407.455-.936.32-1.471Zm-1.231.643c-.121.114-.303.168-.482.194-2.013.3-4.055.45-6.09.384-1.457-.05-2.898-.212-4.34-.415-.141-.02-.294-.046-.391-.15-.183-.197-.093-.592-.045-.83.043-.216.127-.507.386-.538.403-.047.871.124 1.271.184.481.073.964.132 1.448.176 2.067.189 4.168.159 6.227-.116.375-.05.749-.109 1.12-.175.333-.06.7-.172.9.171.139.234.157.548.136.812a.453.453 0 0 1-.141.303Zm-5.133 3.25c-.718.309-1.533.657-2.59.657a4.906 4.906 0 0 1-1.308-.18l.73 7.503c.055.65.598 1.15 1.25 1.15 0 0 1.036.054 1.382.054.373 0 1.489-.054 1.489-.054.652 0 1.195-.5 1.249-1.15l.783-8.292a3.328 3.328 0 0 0-1.102-.198c-.688 0-1.242.236-1.883.51Z" />
</svg>