<svg xmlns="http://www.w3.org/2000/svg" viewBox="0 0 24 24">
    <path d="M0,0H24V24H0Z" fill="none" />
    <path d="M6.07,14.76a4.78,4.78,0,0,1,.48-.37A2.58,2.58,0,0,1,8.13,14a2.5,2.5,0,0,1,.76.19A2,2,0,0,1,9.7,15c0,.05.06.06.09,0A2,2,0,0,1,11.3,14a2,2,0,0,1,1.69.48,1.44,1.44,0,0,1,.44.83,4.6,4.6,0,0,1,.05.64V19.3c0,.1,0,.12-.12.12q-.87,0-1.74,0c-.08,0-.1,0-.1-.11v-2.6a2.56,2.56,0,0,0-.07-.62.8.8,0,0,0-1.33-.38,1.15,1.15,0,0,0-.33.76,5.88,5.88,0,0,0,0,.73v2.12c0,.07,0,.1-.09.1H7.91c-.08,0-.1,0-.1-.1V16.68a3.27,3.27,0,0,0,0-.54.73.73,0,0,0-.58-.61.86.86,0,0,0-1,.36,1.12,1.12,0,0,0-.15.62q0,1.39,0,2.79c0,.1,0,.12-.13.12q-.87,0-1.74,0c-.08,0-.1,0-.1-.1V14.21c0-.08,0-.1.11-.1H6c.08,0,.1,0,.1.1s0,.36,0,.55Zm14.62,2.29a3.65,3.65,0,0,0-.11-1,2.5,2.5,0,0,0-1.81-1.9,3.93,3.93,0,0,0-2.35,0,2.5,2.5,0,0,0-1.36,1,3,3,0,0,0-.38,2.17,2.56,2.56,0,0,0,1.72,2,4,4,0,0,0,1.5.22,4.14,4.14,0,0,0,.87-.1,2.36,2.36,0,0,0,1.81-1.61c0-.08,0-.1-.07-.1H18.82c-.07,0-.1,0-.14.07a.93.93,0,0,1-.52.37,1.47,1.47,0,0,1-.88,0,.88.88,0,0,1-.62-.67,1.64,1.64,0,0,1-.05-.32c0-.11,0-.12.1-.12h3.88C20.64,17.12,20.69,17.12,20.69,17.05Zm-1.91-1h-2c-.06,0-.08,0-.07-.08a1,1,0,0,1,1-.83,1.18,1.18,0,0,1,.77.18,1.12,1.12,0,0,1,.42.66C18.87,16.07,18.82,16.05,18.78,16.05Zm3-10.15a1.67,1.67,0,0,0-1.81-.3,2.7,2.7,0,0,0-.34.17L16.32,8.16a1.15,1.15,0,0,0-.48.73.82.82,0,0,0,.24.75,1.74,1.74,0,0,0,2,.28c.42-.25,3.2-2.31,3.66-2.64l.11-.12a1,1,0,0,0-.06-1.26ZM7.92,9.58a.82.82,0,0,0,.24-.75,1.19,1.19,0,0,0-.48-.74L4.39,5.71a1.83,1.83,0,0,0-.34-.18,1.68,1.68,0,0,0-1.8.31,1,1,0,0,0-.06,1.25l.11.12C2.76,7.55,5.54,9.6,6,9.86a1.76,1.76,0,0,0,2-.28ZM12,8.94A1.4,1.4,0,0,0,13.48,8a1.07,1.07,0,0,0,0-.25l0-2.14V5.58c0-.82-.66-1.2-1.49-1.2s-1.5.44-1.51,1.26V7.79a1,1,0,0,0,0,.25,1.35,1.35,0,0,0,1.47.9Zm4.34,1.62a10.11,10.11,0,0,0-4.51-.9c-3.23,0-5.39,1-6.49,2.5h13a5.75,5.75,0,0,0-2-1.6Z" />
</svg>