<svg xmlns="http://www.w3.org/2000/svg" viewBox="0 0 24 24">
    <path d="M0,0H24V24H0Z" fill="none" />
    <path d="M9.74,3c7.35.4,6.31,7.57,6.31,7.57A7.62,7.62,0,0,0,9.56,7.08c-3.39.08-7,2.61-7.06,7.71A8,8,0,0,1,2,12.14C2.14,5.71,7,2.83,9.74,3Zm7.11.07a8,8,0,0,0-2.56-.81c4.48,2.43,5,6.84,3.43,9.87a7.61,7.61,0,0,1-6.13,4.07s5.83,4.32,9.66-2C22.7,11.83,22.45,6.23,16.85,3.05ZM17,20.32a8,8,0,0,0,2-1.77c-4.4,2.58-8.43.73-10.23-2.15a7.64,7.64,0,0,1-.32-7.35s-6.7,2.76-3.3,9.28C6.44,20.8,11.37,23.48,17,20.32Z" />
</svg>