<svg fill="currentColor" viewBox="0 0 24 24" width="1em" height="1em"><path fill="none" d="M0,0H24V24H0Z"/><path d="M17.08,15.11c-1.66,0-1.88-1.14-1.88-3s.22-3,1.88-3,1.87,1.14,1.87,3S18.72,15.11,17.08,15.11Zm0-8.87C12.89,6.24,12.14,9,12.14,12s.75,5.75,4.94,5.75S22,15,22,12s-.73-5.77-4.92-5.77m-10.7,7H8.32v.2c0,1.24,0,1.79-1.44,1.79S5,14.63,5,12.1s.79-3,2-3a4,4,0,0,1,2,.51l1.61-2.5a6.61,6.61,0,0,0-3.5-.91C3.25,6.24,2,8.1,2,12c0,3.4.91,5.75,4.6,5.75a9.41,9.41,0,0,0,1.7-.13h2.77V10.84H6.71l-.33,2.44"/></svg>