<svg fill="currentColor" viewBox="0 0 24 24" width="1em" height="1em"><path fill="none" d="M0,0H24V24H0Z"/><path d="M8.12,18.36A5.69,5.69,0,0,1,5.79,18a2.41,2.41,0,0,1-1.2-1,3,3,0,0,1-.36-1.53,8.94,8.94,0,0,1,.24-1.84l2.65-11L10.34,2,7.45,14a3,3,0,0,0-.09.68,1.12,1.12,0,0,0,.11.56.86.86,0,0,0,.43.38,2.37,2.37,0,0,0,.84.19Zm11.65-6.89a7.55,7.55,0,0,1-.5,2.78,6.68,6.68,0,0,1-1.39,2.17,6.15,6.15,0,0,1-2.12,1.43,7,7,0,0,1-2.69.51,7.5,7.5,0,0,1-1.42-.13L10.71,22H7.63L11.09,7.6A16.73,16.73,0,0,1,13,7.15,13,13,0,0,1,15.31,7a5.08,5.08,0,0,1,2,.36,3.8,3.8,0,0,1,1.39,1,4.06,4.06,0,0,1,.8,1.44,5.9,5.9,0,0,1,.26,1.76Zm-7.56,4.27a4.33,4.33,0,0,0,.88.08,3.51,3.51,0,0,0,1.47-.3,3.22,3.22,0,0,0,1.14-.85,4,4,0,0,0,.73-1.3,5.18,5.18,0,0,0,.26-1.67,2.79,2.79,0,0,0-.4-1.52,1.48,1.48,0,0,0-1.37-.63,6.15,6.15,0,0,0-1.25.13Z"/></svg>