<svg xmlns="http://www.w3.org/2000/svg" viewBox="0 0 24 24">
    <path d="M0,0H24V24H0Z" fill="none" />
    <path d="M20.07,8.48a4.89,4.89,0,0,1,.3,3.32c-.74,3.81-3.28,5.12-6.52,5.12h-.5a.81.81,0,0,0-.79.68l0,.22-.63,4,0,.17a.81.81,0,0,1-.8.68H7.72a.48.48,0,0,1-.48-.49v-.07L7.42,21H8.94l1-6h1.38C16,15,19,12.78,20.07,8.48Zm-3-5.09a3.62,3.62,0,0,1,.75,3.28L17.8,7c-.74,3.78-3.09,5.45-7,5.45H9a1.42,1.42,0,0,0-1.36,1h0l-.93,5.89H3.12a0,0,0,0,1-.05-.05h0L5.67,2.8A1,1,0,0,1,6.61,2h6c2.19,0,3.72.47,4.53,1.39Z" />
</svg>