<svg xmlns="http://www.w3.org/2000/svg" viewBox="0 0 24 24">
    <path d="M0,0H24V24H0Z" fill="none" />
    <path d="M12.7,14h-.62V7.58a.2.2,0,0,0-.19-.2l-3.3,1a.27.27,0,0,0-.19.29v1.89a.19.19,0,0,0,.19.19l.59-.17V14H8.56a.19.19,0,0,0-.19.19v2a.19.19,0,0,0,.19.2h4.15a.2.2,0,0,0,.19-.2v-2a.2.2,0,0,0-.2-.19ZM10.63,7.09A1.45,1.45,0,1,0,9.18,5.64a1.45,1.45,0,0,0,1.45,1.45Zm-3.42.29H5.69V5.26s0-.55-.53-.35-1.94.6-1.94.6A.42.42,0,0,0,2.9,6c0,.34,0,.54,0,1.41H2.19a.2.2,0,0,0-.19.2v2a.2.2,0,0,0,.19.19h.73v4.32s-.17,3.49,4.24,1.77c0,0,.23-.12.24-.31V13.61s0-.29-.27-.16c0,0-1.44.65-1.44-.29V9.75H7.21a.2.2,0,0,0,.2-.2v-2a.2.2,0,0,0-.2-.19Zm10.88,0a3.56,3.56,0,0,0-1.34.27V7.57a.2.2,0,0,0-.2-.2H13.21a.2.2,0,0,0-.2.2v2a.2.2,0,0,0,.2.2h.63v7.69h-.63a.19.19,0,0,0-.2.19v2a.2.2,0,0,0,.2.2h4.16a.19.19,0,0,0,.19-.2v-2a.19.19,0,0,0-.19-.19h-.62V16.05a3.56,3.56,0,0,0,1.34.27A4.22,4.22,0,0,0,22,11.85,4.22,4.22,0,0,0,18.09,7.38ZM18.14,14c-.78,0-1.4-1-1.39-2.16s.63-2.15,1.41-2.14,1.39,1,1.39,2.16S18.91,14,18.14,14Z" />
</svg>