<svg xmlns="http://www.w3.org/2000/svg" viewBox="0 0 24 24"><path d="M0,0H24V24H0Z" fill="none"/><path d="M21.88,6.22a.42.42,0,0,0-.59,0h0l-.69.68a10,10,0,0,0-17.2,0l-.69-.68a.42.42,0,0,0-.59,0,.45.45,0,0,0-.12.3V12a10,10,0,0,0,20,0V6.52A.42.42,0,0,0,21.88,6.22ZM16.32,17.57a4.6,4.6,0,0,1-4.09-2.49.26.26,0,0,0-.35-.1.24.24,0,0,0-.1.1,4.62,4.62,0,1,1,0-4.15,2.28,2.28,0,0,0,.11,3.13.1.1,0,0,0,.14,0,2.28,2.28,0,0,0,.11-3.13,4.61,4.61,0,1,1,4.13,6.64Zm.16-8.2Zm-6.25,2.91a2.91,2.91,0,1,1-3.1-2.9c0,.13-.1.21-.21.32l0,0a.79.79,0,0,0-.28.58.73.73,0,0,0,1.45,0,.76.76,0,0,0-.29-.6.78.78,0,0,1-.26-.34A2.9,2.9,0,0,1,10.23,12.28Zm9.34,0a2.91,2.91,0,1,1-3.11-2.9c0,.13-.1.21-.21.32l0,0a.82.82,0,0,0-.28.58.74.74,0,0,0,.7.7.73.73,0,0,0,.75-.7.76.76,0,0,0-.29-.6c-.12-.11-.24-.23-.25-.34A2.9,2.9,0,0,1,19.57,12.28Z"/></svg>