<svg fill="currentColor" viewBox="0 0 24 24" width="1em" height="1em"><path fill="none" d="M0 0h24v24H0z"/><path d="M21.9 9.827C21.257 6.423 17.852 6 17.852 6H2.602c-.503 0-.565.665-.565.665s-.069 6.103-.019 9.852c.137 2.02 2.155 2.226 2.155 2.226s6.89-.019 9.972-.04c2.031-.356 2.236-2.139 2.215-3.112 3.626.2 6.185-2.36 5.54-5.764Zm-9.218 2.926c-1.038 1.211-3.342 3.314-3.342 3.314s-.101.099-.258.019c-.064-.048-.09-.075-.09-.075-.37-.368-2.807-2.541-3.362-3.295-.59-.804-.868-2.25-.076-3.092.793-.842 2.504-.905 3.636.34 0 0 1.304-1.486 2.89-.803 1.586.683 1.527 2.509.602 3.592Zm5.144.399c-.773.096-1.401.023-1.401.023V8.44H17.9s1.642.459 1.642 2.198c0 1.594-.82 2.223-1.716 2.513Z"/></svg>