<svg width="24" height="24" version="1.1" viewBox="0 0 24 24" xmlns="http://www.w3.org/2000/svg"><path d="m3.3417 5.3477c-0.74036 1e-7 -1.3418 0.6112-1.3418 1.3516v10.611c0 0.74036 0.6112 1.3418 1.3516 1.3418h3.4336s0.10762-0.23568 0.2793-0.52539c0.16095-0.28971 0.48242-0.24609 0.48242-0.24609h8.8848s0.33317-0.01142 0.47266 0.24609c0.13949 0.25752 0.26758 0.52539 0.26758 0.52539h3.4863c0.74036 0 1.3525-0.6112 1.3418-1.3516v-10.611c0-0.74036-0.6112-1.3418-1.3516-1.3418zm2.6055 1.6328c0.08117 0.00522 0.16355 0.018215 0.24805 0.041016 0.12876 0.032189 0.24703 0.095851 0.21484 0.22461-0.04292 0.20387-0.35547 0.10742-0.35547 0.10742-0.45065-0.085839-0.84597 0.1499-1.082 0.56836-0.11803 0.17168-0.19348 0.1943-0.30078 0.16211-0.075109-0.042919-0.1298-0.15054-0.054688-0.2793 0.28166-0.48821 0.76192-0.86075 1.3301-0.82422zm12.619 0.30859c0.70817 0.01073 1.1056 0.44017 1.2559 1.0625 0.04292 0.15022-0.04307 0.24708-0.12891 0.25781-0.11803 0-0.18171-0.03246-0.24609-0.23633-0.1073-0.47211-0.38724-0.67583-0.83789-0.71875 0 0-0.32128 7.42e-4 -0.31055-0.20313 0.01073-0.13949 0.13882-0.17284 0.26758-0.16211zm-11.137 0.93359h9.1309c1.5773-0.01073 2.8545 1.2675 2.8438 2.8555 0 1.5666-1.2772 2.8418-2.8438 2.8418h-9.1309c-1.5666 0-2.8437-1.2752-2.8437-2.8418 0-1.5666 1.2772-2.8555 2.8437-2.8555zm0.07422 1.6953c-0.67598 0-1.2227 0.54863-1.2227 1.2246 0 0.26825 0.08512 0.50316 0.22461 0.70703 0 0 0.51516-0.26758 0.95508-0.26758 0.59014 0 1.0098 0.31055 1.0098 0.31055 0.16095-0.20387 0.25586-0.46029 0.25586-0.75 0-0.67598-0.54668-1.2246-1.2227-1.2246zm8.9805 0.01172c-0.67598 0-1.2227 0.54668-1.2227 1.2227 0 0.2897 0.09686 0.54809 0.25781 0.75195 0 0 0.41767-0.3125 1.0078-0.3125 0.43992 0 0.95508 0.26953 0.95508 0.26953 0.15022-0.20387 0.23729-0.45147 0.22656-0.70898 0-0.67598-0.54863-1.2227-1.2246-1.2227zm-5.5488 1.4473c-0.10462-0.02263-0.23875 0.04851-0.22266 0.19336 0 0-0.05412 1.0312 1.2871 1.0312 1.3412 0 1.2871-1.0312 1.2871-1.0312 0.02146-0.19314-0.22471-0.24597-0.31055-0.13867-0.04292 0.06438-0.04398 0.07434-0.07617 0.18164-0.18241 0.64379-0.90039 0.60156-0.90039 0.60156s-0.71994 0.0315-0.90234-0.60156c-0.03219-0.11803-0.0313-0.11726-0.07422-0.18164-0.02146-0.02951-0.05302-0.04714-0.08789-0.05469z"  fill="currentColor"/></svg>