<svg width="24" height="24" version="1.1" viewBox="0 0 24 24" xmlns="http://www.w3.org/2000/svg"><path d="m6.2734 2.9688c-0.33408-0.014496-0.66419-0.012275-0.98242 0.0039062-0.24811 0.72276-0.034084 1.5325 0.4082 2.1582 0.47465 0.62567 1.1339 1.0679 1.8027 1.4023 0.66882 0.3452 1.3918 0.40955 2.0391 0.78711 0.42071 0.24811 0.69032 0.51781 0.94922 0.92773 0.40992 0.61489 0.38867 1.3906 0.38867 1.3906l0.052735 0.85352s0.32411 0.85156 1.0469 0.85156c0.76591 0 1.0469-0.85156 1.0469-0.85156l0.052734-0.85352s-0.021257-0.76495 0.38867-1.3906c0.2589-0.40992 0.51772-0.7012 0.94922-0.92773 0.64725-0.37756 1.3702-0.44191 2.0391-0.78711s1.3155-0.78746 1.7578-1.4023c0.44229-0.61489 0.64748-1.4354 0.41016-2.1582-1.2729-0.064725-2.7394 0.085354-3.8613 0.68945-1.5642 0.83064-2.5144 0.54069-2.7949 1.7812h-0.021485c-0.28048-1.2513-1.218-0.95061-2.793-1.7812-0.84142-0.45307-1.8767-0.64987-2.8789-0.69336zm2.4473 7.8789c-0.097087 0-0.18359 0.086507-0.18359 0.18359 0 1.9202 1.5535 3.4629 3.4629 3.4629s3.4629-1.5535 3.4629-3.4629c0-0.09709-0.086507-0.18359-0.18359-0.18359h-1.3047c-0.09709 0-0.18359 0.086507-0.18359 0.18359 0 0.98166-0.79857 1.791-1.791 1.791-0.98166 0-1.791-0.79857-1.791-1.791 0-0.09709-0.086506-0.18359-0.18359-0.18359h-1.3047zm-6.5371 0.009766c-0.097087 0-0.18359 0.086506-0.18359 0.18359 0 5.5124 4.4876 10 10 10 5.5124 0 10-4.4876 10-10 0-0.09709-0.086507-0.18359-0.18359-0.18359h-1.3047c-0.09709 0-0.18359 0.086506-0.18359 0.18359 0 4.5955-3.7552 8.3398-8.3398 8.3398-4.5955 0-8.3379-3.7336-8.3379-8.3398 0-0.09709-0.086506-0.18359-0.18359-0.18359h-1.2832zm3.2793 0c-0.097087 0-0.18359 0.086506-0.18359 0.18359-0.021575 3.7001 2.999 6.7207 6.7207 6.7207 3.7001 0 6.7207-3.0206 6.7207-6.7207 0-0.09709-0.086507-0.18359-0.18359-0.18359h-1.3047c-0.09709 0-0.18359 0.086506-0.18359 0.18359 0 2.794-2.2666 5.0605-5.0605 5.0605-2.794 0-5.0586-2.2666-5.0586-5.0605 0-0.09709-0.086506-0.18359-0.18359-0.18359h-1.2832z"  fill="currentColor"/></svg>