<svg width="24" height="24" version="1.1" viewBox="0 0 24 24" xmlns="http://www.w3.org/2000/svg"><path d="m10.772 21.903c-2.0216-0.34968-3.6292-1.7403-4.4289-3.8311-0.42576-1.1132-0.61601-4.2232-0.33773-5.5208 0.49543-2.3101 1.643-3.8884 3.4277-4.7141 0.79895-0.36966 1.1046-0.42127 2.48-0.4188 1.9586 0.00358 2.9793 0.36215 4.1063 1.4428 1.8627 1.786 2.591 5.2413 1.7762 8.4272-0.39058 1.5272-0.86524 2.3495-1.8859 3.2671-1.2927 1.1622-3.2467 1.6748-5.1377 1.3477zm2.3192-2.8506c0.77962-0.53061 1.0739-1.0254 1.3296-2.2354 0.29185-1.3811 0.29551-2.838 0.01049-4.1828-0.43453-2.0502-1.0912-2.6996-2.63-2.601-0.99932 0.06407-1.3958 0.32483-1.8472 1.2148-0.48672 0.95961-0.67676 2.2172-0.59606 3.9446 0.10081 2.1579 0.54705 3.3379 1.457 3.8526 0.80649 0.4562 1.6127 0.45873 2.2762 0.0072zm-2.3134-13.627c-0.56056-0.16192-0.73514-0.54879-0.73514-1.629 0-1.1135 0.15651-1.4206 0.82627-1.6213 0.77205-0.23131 1.8695-0.2342 2.5222-0.00666 0.58207 0.20291 0.79656 0.64126 0.79656 1.6279 0 0.98663-0.21449 1.425-0.79656 1.6279-0.5958 0.2077-1.8963 0.20826-2.6134 0.00109z" fill="currentColor"/></svg>