<svg width="24" height="24" version="1.1" viewBox="0 0 24 24" xmlns="http://www.w3.org/2000/svg"><path d="m2.0894 21.866c-0.12089-0.14567-0.11924-0.45058 5e-3 -0.91177 0.11891-0.44159 0.2393-0.67414 1.2572-2.4283 0.46438-0.80031 0.9393-1.7206 1.0554-2.045 1.5446-4.3177 3.2356-7.2127 5.5846-9.5612 0.99215-0.99192 2.2588-2.001 2.5117-2.001 0.14557 0 0.13922 0.43526 0.09112 0.60181-0.01874 0.06489 0.27549-0.27178 0.48394-0.49328 1.3006-1.382 3.1774-2.119 7.1806-2.8195 1.3547-0.23707 1.6192-0.24701 1.7212-0.064676 0.05953 0.10637-0.0065 0.22409-0.31533 0.56197-0.44966 0.492-0.78864 0.7466-1.2482 2.2622-0.3822 1.2605-0.91684 2.0825-1.133 2.3122l-0.72637 0.77204 0.83494-0.18725c0.17638 0.16433-0.04666 0.39769-0.31951 1.0587-0.93186 2.2575-4.5828 5.7549-8.4727 7.6983-1.1955 0.59729-2.7378 1.1696-3.6397 1.3507l-0.44051 0.08845-1.4802 1.6069c-1.7996 1.9535-2.2074 2.3109-2.6433 2.3168-0.11367 0.0015-0.25175-0.05153-0.30685-0.11792z" fill="currentColor"/></svg>