<svg xmlns="http://www.w3.org/2000/svg" fill="none" viewBox="0 0 261 50">
<style>
    @media (prefers-color-scheme: dark) {
        svg { background-color: white; }
    }
</style>
<g clip-path="url(#a)"><path fill="#2A2D7C" d="M96.9 15.975v22.95h-6.1l-.675-1.625a10.875 10.875 0 0 1-6.925 2.5 11.699 11.699 0 0 1-12.05-12.3A11.65 11.65 0 0 1 83.2 15.35c2.554-.01 5.03.874 7 2.5l.825-1.775 5.875-.1Zm-7.5 11.5a5.15 5.15 0 1 0-10.275 0 5.15 5.15 0 1 0 10.275 0Zm36.725-19.75V38.95h-5.85l-.75-1.7a10.549 10.549 0 0 1-6.925 2.5 11.702 11.702 0 0 1-12.1-12.25 11.699 11.699 0 0 1 12.1-12.25c2.013-.018 3.99.537 5.7 1.6V7.725h7.825ZM118.8 27.5a5.152 5.152 0 0 0-5.137-5.509 5.151 5.151 0 0 0-5.138 5.509 5.152 5.152 0 0 0 5.138 5.509A5.15 5.15 0 0 0 118.8 27.5Zm45.925-11.525v22.95h-6.1L158 37.3a10.823 10.823 0 0 1-6.925 2.5A11.677 11.677 0 0 1 139 27.5a11.61 11.61 0 0 1 .763-4.706 11.612 11.612 0 0 1 6.564-6.633 11.626 11.626 0 0 1 4.698-.811 10.87 10.87 0 0 1 7 2.5l.825-1.775 5.875-.1Zm-7.5 11.5a5.152 5.152 0 0 0-5.137-5.509 5.151 5.151 0 0 0-5.138 5.509 5.152 5.152 0 0 0 5.138 5.509 5.15 5.15 0 0 0 5.137-5.509Zm12.2 1.625V16h7.9v12.75c0 2.5 1.3 3.85 3.425 3.85s3.375-1.45 3.375-3.85V16h7.9v13.1c0 6.425-4.5 10.6-11.275 10.6s-11.325-4.175-11.325-10.6Zm42.225-13.2v7.225h-3.075c-2.8 0-3.975 1.225-3.975 4.15V38.95h-7.9V16h5.3l1.225 2.5a7.675 7.675 0 0 1 6.325-2.65l2.1.05ZM238 27.275a14.703 14.703 0 0 1-.15 2.075H220.7a4.476 4.476 0 0 0 4.8 4 4.628 4.628 0 0 0 4.15-2.15h7.85a12.497 12.497 0 0 1-13.868 8.866A12.5 12.5 0 0 1 213 27.5a12.5 12.5 0 1 1 25-.2v-.025ZM220.85 25h9.275a4.6 4.6 0 0 0-4.625-3.55 4.425 4.425 0 0 0-4.65 3.55Zm29.5 14.7c-6.25 0-10-3.3-10-8.275h7.5a2.347 2.347 0 0 0 1.638 2.415 2.35 2.35 0 0 0 1.037.085c1.15 0 2.25-.575 2.25-1.775s-1.725-1.7-3.925-2.05c-3.6-.625-8.35-1.7-8.35-7.275 0-4.6 3.925-7.5 9.8-7.5 5.875 0 9.65 3.125 9.725 7.775h-7.5c0-1.475-.975-2.15-2.5-2.15s-2.125.625-2.125 1.675 1.75 1.625 3.925 2c3.625.65 8.45 1.4 8.45 7.225 0 4.8-4.05 7.925-10.15 7.925l.225-.075ZM.5 0v50h50V0H.5Zm33.35 31.65a9.6 9.6 0 0 1-6.275 9 9.75 9.75 0 0 1-3.325.6 9.6 9.6 0 0 1-3.325-18.6 2.5 2.5 0 0 1 3.3 1.525A2.5 2.5 0 0 1 22.7 27.5a4.454 4.454 0 0 0 3.1 8.35 4.4 4.4 0 0 0 2.9-4.175v-13.7a4.1 4.1 0 0 0-8.2 0 2.5 2.5 0 0 1-5 0 9.225 9.225 0 0 1 18.45 0l-.1 13.675Z"/></g><defs><clipPath id="a"><path fill="#fff" d="M0 0h260v50H0z" transform="translate(.5)"/></clipPath></defs></svg>