<svg xmlns="http://www.w3.org/2000/svg" fill="none" viewBox="0 0 134 50">
<style>
    @media (prefers-color-scheme: dark) {
        svg { background-color: white; }
    }
</style>
<g clip-path="url(#a)"><path fill="#98BF00" d="m132.92 21.99.74-4.06h-3.84l1.12-5.98-4.6 1.8-.74 4.18h-2.8l-.74 4.06h2.75l-.94 5.15c-.04.28-.12.7-.19 1.23s-.12 1.01-.12 1.41c.02 1.86.46 3.4 1.34 4.6.88 1.23 2.3 1.96 4.3 2.19l1.92-3.96a3.42 3.42 0 0 1-2.35-1.22 4.13 4.13 0 0 1-.82-2.65 16.1 16.1 0 0 1 .2-1.89l.9-4.86h3.87Zm-40.45-.46a5.76 5.76 0 0 1 1.86-.39c.57 0 1.05.16 1.43.5.37.3.55.76.55 1.4 0 .18-.03.45-.09.82l-.15.93L95 29.8l-.22 1.2c-.08.44-.1.81-.1 1.12 0 1.2.32 2.22.99 3.02.64.8 1.79 1.28 3.44 1.42l1.89-3.83c-.65-.1-1.1-.34-1.39-.71a2.3 2.3 0 0 1-.44-1.5c0-.15.01-.33.04-.52l.06-.48 1.08-5.12a14.13 14.13 0 0 0 .32-2.53c0-1.47-.43-2.66-1.3-3.54a4.96 4.96 0 0 0-3.66-1.32c-.9 0-1.76.15-2.61.45-.84.28-1.85.75-3.02 1.46a5.16 5.16 0 0 0-.84-2.01l-3.98 1.7c.33.51.6 1.06.77 1.64.22.82.28 1.67.17 2.5-.03.34-.08.61-.12.8l-2.37 12.6H88l2.5-13.6c.6-.44 1.27-.8 1.97-1.03Z"/><path fill="#98BF00" fill-rule="evenodd" d="M104.39 23.83a13.59 13.59 0 0 0-.17 7.93 7.33 7.33 0 0 0 1.46 2.62c.61.7 1.38 1.26 2.25 1.62.93.38 1.92.58 2.93.57 1.3 0 2.57-.24 3.85-.72a9.01 9.01 0 0 0 3.4-2.21l-1.61-3.72a7.77 7.77 0 0 1-2.47 1.89c-.85.41-1.77.63-2.71.64a3.14 3.14 0 0 1-2.45-.99c-.6-.69-.9-1.57-.88-2.48v-.28c0-.12.01-.24.04-.36 1.92-.26 3.83-.6 5.71-1.04 1.03-.25 2.03-.54 3.01-.84.96-.3 1.83-.6 2.56-.92v-1.7a6.92 6.92 0 0 0-1.86-5 5.62 5.62 0 0 0-2.07-1.35 6.73 6.73 0 0 0-2.53-.47c-1.32 0-2.56.3-3.67.88a8.47 8.47 0 0 0-2.89 2.4 11.46 11.46 0 0 0-1.9 3.53Zm6.44-3a3.2 3.2 0 0 1 1.56-.37c.79 0 1.44.25 1.96.77.53.5.8 1.26.8 2.3-.44.12-.95.29-1.54.45-.61.15-1.22.3-1.84.43l-1.86.39-1.58.27c.07-.63.2-1.22.42-1.77a4.68 4.68 0 0 1 2.08-2.47Z" clip-rule="evenodd"/><path fill="#000" fill-rule="evenodd" d="M120.29 41.8a2.69 2.69 0 0 0-.66-1.79 2.1 2.1 0 0 0-.72-.47 2.96 2.96 0 0 0-3.1.8 3.4 3.4 0 0 0-.94 2.34c0 .37.06.7.18 1.01.1.3.27.55.48.76.2.22.45.39.73.5.28.1.6.17.93.17a2.94 2.94 0 0 0 2.18-.95 3.5 3.5 0 0 0 .92-2.37Zm-4.14-.01c.1-.27.21-.51.36-.72.16-.2.36-.37.58-.5.23-.14.48-.2.75-.2.42 0 .74.14.96.4.22.26.34.63.34 1.09a2.81 2.81 0 0 1-.48 1.55c-.16.21-.36.39-.59.52-.22.12-.47.18-.74.18-.43 0-.75-.14-.97-.39-.24-.3-.36-.7-.34-1.09 0-.28.05-.56.14-.84Z" clip-rule="evenodd"/><path fill="#000" d="M129.33 39.45h-1.06l-.56 3.29a.73.73 0 0 0-.03.22v.25h-.05l-1.9-3.76h-1l-1 5.58h1.08l.6-3.36v-.45h.05l1.95 3.85.95-.09.97-5.53Zm-17.9 0h-1.1l-.99 5.58h1.1l.99-5.58Z"/><path fill="#000" fill-rule="evenodd" d="M97.9 39.45h-1.26l-.78 1.36c-.28.48-.55.99-.82 1.5a30.55 30.55 0 0 0-1.26 2.72h1.15c.04-.1.08-.24.14-.37.06-.14.12-.29.2-.42l.18-.4.16-.36h1.93l.03.42.05.43.04.4c.02.14.02.24.02.34l1.1-.09c0-.2-.02-.44-.04-.72-.02-.29-.06-.58-.1-.9l-.16-1c-.04-.34-.1-.68-.18-1.02l-.19-1-.2-.89Zm-.7 1.65.1.54.07.52.06.38h-1.39a13.97 13.97 0 0 0 .5-.97l.28-.5.23-.42h.06l.1.45Z" clip-rule="evenodd"/><path fill="#000" d="m106.44 40.46.16-1h-3.8l-.17 1H104l-.8 4.57h1.1l.8-4.57h1.35Z"/><path fill="#000" fill-rule="evenodd" d="M88.53 39.38a8.2 8.2 0 0 0-1.83.21l-.94 5.3a7.6 7.6 0 0 0 1.95.23c.86.02 1.7-.3 2.34-.88a3.18 3.18 0 0 0 .96-2.4c0-.4-.05-.74-.17-1.05a2.2 2.2 0 0 0-1.31-1.25c-.32-.1-.66-.16-1-.16Zm-.24 1c.22 0 .43.04.63.08.19.05.35.14.49.25.15.12.27.27.34.47.07.18.12.4.12.68 0 .36-.05.67-.15.96a1.72 1.72 0 0 1-1.04 1.14c-.27.1-.55.16-.83.15-.14 0-.27 0-.44-.02a9.12 9.12 0 0 1-.41-.04l.64-3.6.34-.05.31-.01Z" clip-rule="evenodd"/><path fill="#000" d="M55.3 18.63a5.8 5.8 0 0 1 .94 4.13c-.03.34-.08.61-.12.8l-2.37 12.6h4.29l2.5-13.6c.6-.44 1.27-.8 1.97-1.03a5.76 5.76 0 0 1 1.86-.39c.57 0 1.04.16 1.43.5.37.3.55.76.55 1.4 0 .18-.03.45-.1.82l-.14.93-1.07 5.02-.22 1.2c-.08.44-.1.81-.1 1.12 0 1.2.32 2.22.99 3.02.64.8 1.78 1.28 3.44 1.42l1.89-3.83c-.64-.1-1.1-.34-1.39-.71a2.3 2.3 0 0 1-.44-1.5c0-.15.01-.33.04-.52.01-.2.04-.36.06-.48l1.09-5.12c.09-.43.16-.86.22-1.3.06-.4.09-.82.09-1.23 0-1.47-.43-2.66-1.3-3.54a4.96 4.96 0 0 0-3.66-1.32c-.9 0-1.76.15-2.62.45-.83.28-1.84.75-3.01 1.46a5.16 5.16 0 0 0-.84-2.01l-3.99 1.7Zm27.09-9.24h-4.21l-3.22 17.4a16.74 16.74 0 0 0-.43 3.57c0 1.73.33 3.14 1 4.24.67 1.1 1.8 1.76 3.4 1.97l1.93-3.96c-.3-.14-.57-.3-.84-.5a2.14 2.14 0 0 1-.62-.63 2.41 2.41 0 0 1-.39-.9 6.6 6.6 0 0 1-.07-2.17l.13-.95L82.4 9.4Zm-9.05 30.06h-1.08l-.72 4.08a1.7 1.7 0 0 1-1.28.58.98.98 0 0 1-.62-.18c-.16-.14-.24-.34-.24-.66l.03-.26.03-.3.6-3.26h-1.1l-.58 3.25-.05.4-.01.34c0 .3.04.55.13.77a1.35 1.35 0 0 0 .9.82 2.36 2.36 0 0 0 2.12-.42c0 .08 0 .17.02.26v.22l1.1-.08c-.02-.07-.02-.14-.02-.23-.02-.08-.02-.17-.02-.27l.03-.57c.02-.2.03-.4.08-.58l.68-3.9Zm8.99 0h-1.06l-.56 3.29a.72.72 0 0 0-.03.22v.25h-.05l-1.9-3.76h-1l-1 5.58h1.08l.6-3.36v-.45h.05l1.95 3.85.95-.09.97-5.53Z"/><path fill="#000" fill-rule="evenodd" d="M63.93 40.02a2 2 0 0 0-.73-.48 2.97 2.97 0 0 0-3.11.79 3.38 3.38 0 0 0-.74 3.36c.1.3.26.55.47.76.2.22.45.39.73.5a2.94 2.94 0 0 0 3.11-.79 3 3 0 0 0 .67-1.03c.16-.4.25-.85.25-1.33 0-.37-.06-.71-.18-1.01a2.7 2.7 0 0 0-.47-.78Zm-3.13 1.05c.17-.2.36-.37.58-.5.23-.14.49-.2.75-.2.43 0 .74.14.97.4.22.26.34.63.34 1.09 0 .28-.05.57-.14.85a2 2 0 0 1-.93 1.22 1.6 1.6 0 0 1-.75.18c-.43 0-.74-.14-.97-.39-.24-.3-.36-.7-.34-1.09 0-.56.17-1.1.5-1.56Z" clip-rule="evenodd"/><path fill="#000" d="M56.03 39.45h-3.07l-1 5.58h1.1l.38-2.13h2l.19-1.01h-2.01l.25-1.43h1.98l.18-1.01Z"/><path fill="#98BF00" d="M37.82 13.36a11.5 11.5 0 0 0-2.44-8.78 11.5 11.5 0 0 0-7.92-4.5 11.5 11.5 0 0 0-8.78 2.45 11.35 11.35 0 0 0-4.38 7.19c-.04.25-.09.49-.12.74l-.06.73a11.7 11.7 0 0 0 2.5 8.05 11.28 11.28 0 0 0 7.2 4.38l.73.1.4.05c.32-1.3.84-2.54 1.54-3.67-.46.01-.94 0-1.42-.05l-.06-.01a7.89 7.89 0 0 1-5.46-3.1 7.89 7.89 0 0 1-1.66-6.02v-.06a7.88 7.88 0 0 1 3.08-5.4A7.9 7.9 0 0 1 27 3.8a7.8 7.8 0 0 1 5.44 3.08 7.96 7.96 0 0 1 1.68 6.05c-.07.5-.16.98-.3 1.44a12.3 12.3 0 0 1 3.93-.6l.06-.4Z"/><path fill="#98BF00" d="M39.38 15.32c-.25-.03-.49-.06-.74-.07-1.37-.09-2.68.04-3.93.39-1.5.43-2.9 1.15-4.12 2.12a11.43 11.43 0 0 0-4.37 7.19c1.3.22 2.49.6 3.58 1.15a7.9 7.9 0 0 1 3.08-5.4 7.91 7.91 0 0 1 6.05-1.7h.04a7.9 7.9 0 0 1 5.4 3.1 7.8 7.8 0 0 1 1.68 6.02 7.97 7.97 0 0 1-3.08 5.46 7.86 7.86 0 0 1-6 1.67c.26 1.2.33 2.47.24 3.78a11.5 11.5 0 0 0 8.03-2.52 11.5 11.5 0 0 0 4.5-7.93c.4-3.25-.42-6.19-2.44-8.77a11.41 11.41 0 0 0-7.19-4.38l-.73-.12Z"/><path fill="#000" d="M38.37 23.43a3.61 3.61 0 0 0-2.75.78 3.54 3.54 0 0 0-1.4 2.47 3.54 3.54 0 0 0 .76 2.75 3.54 3.54 0 0 0 2.48 1.4 3.52 3.52 0 0 0 2.74-.76 3.6 3.6 0 0 0 1.41-2.49 3.59 3.59 0 0 0-.77-2.74 3.62 3.62 0 0 0-2.47-1.4Z"/><path fill="#98BF00" d="M3.82 21.91a7.9 7.9 0 0 1 3.1-5.45 7.77 7.77 0 0 1 5.97-1.67 13.2 13.2 0 0 1-.24-3.78 11.4 11.4 0 0 0-8.03 2.51 11.46 11.46 0 0 0-4.49 7.93c-.4 3.26.4 6.17 2.44 8.78a11.33 11.33 0 0 0 7.19 4.37c.23.05.47.08.73.12.25.03.49.06.74.07 1.37.1 2.68-.04 3.92-.38a12.43 12.43 0 0 0 7.17-5.61c.65-1.15 1.1-2.4 1.33-3.7a13.3 13.3 0 0 1-3.58-1.15 7.9 7.9 0 0 1-3.08 5.4 7.91 7.91 0 0 1-6.05 1.68l-.04-.01a7.87 7.87 0 0 1-5.4-3.08 7.83 7.83 0 0 1-1.68-6.03Z"/><path fill="#000" d="M9.66 19.98a3.58 3.58 0 0 0-1.41 2.48 3.57 3.57 0 0 0 .77 2.72 3.57 3.57 0 0 0 2.47 1.43 3.73 3.73 0 0 0 2.3-6.95c-.43-.24-.9-.4-1.4-.44a3.5 3.5 0 0 0-2.73.76Zm19.3-10.35a3.57 3.57 0 0 0-2.49-1.4 3.5 3.5 0 0 0-2.73.76 3.52 3.52 0 0 0-1.42 2.48 3.53 3.53 0 0 0 .78 2.74 3.6 3.6 0 0 0 2.47 1.41 3.72 3.72 0 0 0 3.69-1.86c.24-.43.4-.9.45-1.38a3.64 3.64 0 0 0-.75-2.75Z"/><path fill="#98BF00" d="m25.31 26.32-.4-.05c-.31 1.3-.83 2.54-1.53 3.68.46-.03.94-.02 1.43.04a7.8 7.8 0 0 1 5.5 3.11 7.8 7.8 0 0 1 1.67 6.03v.05a7.88 7.88 0 0 1-3.08 5.4 7.9 7.9 0 0 1-6.04 1.67 7.9 7.9 0 0 1-5.45-3.08 7.84 7.84 0 0 1-1.68-6.04c.06-.5.17-.98.31-1.44-1.27.4-2.6.6-3.94.6l-.06.4c-.4 3.25.4 6.17 2.44 8.77a11.5 11.5 0 0 0 7.93 4.5c3.26.4 6.17-.42 8.78-2.45a11.42 11.42 0 0 0 4.37-7.2l.12-.72c.01-.26.04-.5.06-.73a11.8 11.8 0 0 0-.39-3.93 12 12 0 0 0-2.1-4.12 11.88 11.88 0 0 0-3.5-3.07 11.53 11.53 0 0 0-3.71-1.3c-.24-.05-.48-.1-.73-.12Z"/><path fill="#000" d="M26.79 35.84a3.61 3.61 0 0 0-2.49-1.42 3.56 3.56 0 0 0-2.74.78 3.61 3.61 0 0 0-1.41 2.47 3.56 3.56 0 0 0 .77 2.75 3.48 3.48 0 0 0 2.47 1.4 3.54 3.54 0 0 0 2.76-.76 3.66 3.66 0 0 0 1.4-2.49 3.66 3.66 0 0 0-.76-2.73Z"/></g><defs><clipPath id="a"><path fill="#fff" d="M0 0h133.63v50H0z"/></clipPath></defs></svg>