<?xml version="1.0" encoding="utf-8"?>
<svg version="1.1" id="Calque_1" xmlns="http://www.w3.org/2000/svg" xmlns:xlink="http://www.w3.org/1999/xlink" x="0px" y="0px"
	 viewBox="0 0 155.9 184.3" style="enable-background:new 0 0 155.9 184.3;" xml:space="preserve">
<style type="text/css">
	.st0{fill:#006D60;}
	.st1{fill:#00564A;}
	.st2{fill:#009486;}
	.st3{fill:#2B6B5F;}
	.st4{fill:#E7F9E4;}
	.st5{fill:#71AFA3;}
	.st6{fill:#DCF4D7;}
</style>
<g>
	<g id="FOOTS_1_">
		<path class="st0" d="M55.8,134.7l37.2-0.3c1.4,0,2.5-1.2,2.5-2.6l0,0c0-1.4-1.2-2.5-2.6-2.5l-37.2,0.3c-1.4,0-2.5,1.2-2.5,2.6v0
			C53.3,133.5,54.4,134.7,55.8,134.7z"/>
		<path class="st1" d="M89.2,129.3l-29.5,0.2c0,0,7.5,1.3,15.2,1.2C82.8,130.7,89.2,129.3,89.2,129.3z"/>
	</g>
	<g id="LEGS_5_">
		
			<rect x="40.6" y="102.5" transform="matrix(-1 7.722594e-03 -7.722594e-03 -1 149.3678 218.2719)" class="st1" width="67.3" height="13.8"/>
		<path class="st2" d="M38.4,116.2L38.4,116.2c0.1,6.5,5.4,11.8,11.9,11.8l48.2-0.4c6.5,0,11.7-5.5,11.7-12l0,0l0-1.9
			c0-1.6-1.3-2.9-2.9-2.9l-66,0.5c-1.6,0-2.9,1.3-2.9,2.9L38.4,116.2z"/>
		<g>
			
				<rect x="41.4" y="107.9" transform="matrix(-1 7.722594e-03 -7.722594e-03 -1 149.3352 215.4585)" class="st3" width="65.8" height="0.2"/>
			
				<rect x="41.4" y="108.7" transform="matrix(-1 7.722594e-03 -7.722594e-03 -1 149.3543 217.1097)" class="st3" width="65.8" height="0.2"/>
			
				<rect x="41.4" y="109.6" transform="matrix(-1 7.722594e-03 -7.722594e-03 -1 149.3735 218.761)" class="st3" width="65.8" height="0.2"/>
		</g>
		<path class="st0" d="M75.1,127.8l23.3-0.2c6.5-0.1,11.8-5.5,11.7-12l0,0c0,0-1,5.3-8.2,8c-5.3,2-12.8,1.6-26.9,1.7
			c-14.1,0.1-23,0.6-28.4-1.3c-7.2-2.6-8.3-7.8-8.3-7.8l0,0c0.1,6.5,5.4,11.8,11.9,11.8L75.1,127.8z"/>
	</g>
	<g id="NECK_5_">
		<path class="st1" d="M51.3,82.6l0.1-1.3l2.9-5c0,0,0.3-0.7,2-0.6c0.8,0,38.5,2.1,39.3,2.1c1.8,0.1,2,0.8,2,0.8l1.6,3.8l-0.1,1.3
			L51.3,82.6z"/>
		<g>
			
				<rect x="75.7" y="57.7" transform="matrix(5.436085e-02 -0.9985 0.9985 5.436085e-02 -6.2381 149.5234)" class="st3" width="0.2" height="40.7"/>
			
				<rect x="75.7" y="57.8" transform="matrix(5.436085e-02 -0.9985 0.9985 5.436085e-02 -7.1037 150.2582)" class="st3" width="0.2" height="42.2"/>
		</g>
	</g>
	<g id="HEAD_18_">
		<path id="dark_greeen_9_" class="st2" d="M35.2,76.5l16.4,0.9c0,0,0.7-1.2,1.4-2.4c0.7-1.2,2.3-1,2.3-1l41.7,2.3
			c0,0,1.5-0.1,2.2,1.3c0.7,1.4,1.2,2.5,1.2,2.5l16.1,0.9c3.5,0.2,6.5-2.5,6.7-6l2.7-49.8c0.2-3.5-2.5-6.5-6-6.7l-81.1-4.4
			c-3.5-0.2-6.5,2.5-6.7,6l-2.7,49.8C29,73.3,31.7,76.3,35.2,76.5z"/>
		<path class="st0" d="M98.1,57.7l-43.4-2.4c0,0,10.9,2.5,22.2,3.1C88.6,59.1,98.1,57.7,98.1,57.7z"/>
		<g id="light_green_4_">
			<path class="st4" d="M43.3,41.3c-0.4,7.4,5.3,13.7,12.6,14.1l42.8,2.3c7.4,0.4,13.7-5.2,14.1-12.6c0.4-7.4-5.3-13.7-12.6-14.1
				l-42.8-2.3C50,28.2,43.7,33.9,43.3,41.3z"/>
			<g>
				<g>
					<path class="st4" d="M109.4,28.1c3.2,0.8,4.7,3.7,4.8,6.7c0,0.7-0.4,1.1-0.9,1c-0.5-0.1-0.8-0.3-0.9-1.3c0-2.3-1.2-4.1-3.2-4.8
						c0,0-1.5-0.3-1.2-1.2C108.2,28,108.8,28,109.4,28.1z"/>
				</g>
			</g>
			<g>
				<g>
					<path class="st4" d="M50.2,25.8c0.1,1-1.4,1-1.4,1c-2.1,0.3-3.3,1.3-3.7,3.6c-0.3,1-0.5,1.2-1.1,1.2c-0.4,0-0.8-0.4-0.7-1.1
						c0.5-3,2.3-5.1,5.6-5.3C49.4,25.1,50.1,25.2,50.2,25.8z"/>
				</g>
			</g>
		</g>
		<path id="dark_greeen_3_" class="st0" d="M50.8,77.4l-15.6-0.8c-3.5-0.2-6.2-3.3-5.9-6.8l1.9-33.9l1.7,33.9c0,0-0.6,3.7,5,4.9
			L50.8,77.4z"/>
		<path class="st0" d="M82.8,46.5c0,0-2.8-0.3-5.9,0c-3.1,0.3-4.7,1-4.7,1c-0.6,0-1.1-0.4-1.1-0.9v0c0-0.6,0.3-0.9,0.9-1.1
			c0,0,3-0.8,4.8-1c1.8-0.1,5.9,0,5.9,0c0.6,0,1.1,0.4,1.1,0.9l0,0C83.7,45.9,83.3,46.4,82.8,46.5z"/>
		<g id="light_green_5_">
			<path class="st0" d="M62.9,44.4c0,0-2.1-1.2-4.8-0.9c-2,0.2-4.3,1.8-4.3,1.8c-0.8-0.8-1.3-1.9-1.5-3.1c-0.4-3.1,1.8-6,5-6.4
				s6,1.9,6.3,5C63.8,42.1,63.5,43.4,62.9,44.4z M101.8,47.9c0,0-2.1-1.7-4.1-2.2c-2.7-0.6-4.9,0.5-4.9,0.5
				c-0.5-1.1-0.7-2.4-0.4-3.7c0.7-3.1,3.7-5.1,6.8-4.4c3.1,0.7,5,3.7,4.4,6.8C103.3,46.1,102.7,47.1,101.8,47.9z"/>
		</g>
	</g>
	<g id="ARMS_5_">
		<g id="BRAS_10_">
			<g id="ARM_20_">
				<path class="st0" d="M115.4,97.6c1-0.1,1.8-1.6,1.7-3.4l-0.2-6.2c-0.1-2.3-1.5-3.3-7.1-3c-1.6,0.1-6,0.4-6,0.4
					c-1,0.1-1.8,1.6-1.7,3.4l0.6,9.6C103.1,98.4,115.4,97.6,115.4,97.6z"/>
			</g>
		</g>
		<g id="ARM_19_">
			<path class="st2" d="M144.5,67.9l0.5,0.5c2.5,2.6,2,7.3-0.6,9.8l-8.4,8.3c-3,3-11.7,7.8-16,3.5l-1-1c-2.5-2.6-0.5-4.7,2.1-7.2
				l14.1-13.9C137.8,65.3,142,65.4,144.5,67.9z"/>
			<path class="st0" d="M144.5,67.9c0,0-2.8-2.7-8.1,1.6c-2.2,1.8-14.5,14-15.8,15.6c-1.8,2.3-1.6,3.9-1.6,3.9
				c-2.5-2.6-0.5-4.7,2.1-7.2l14.1-13.9C137.8,65.3,142,65.4,144.5,67.9z"/>
			<g>
				
					<rect x="134" y="77.6" transform="matrix(-0.7025 -0.7117 0.7117 -0.7025 179.7647 230.6487)" class="st5" width="8.2" height="0.2"/>
				
					<rect x="135.1" y="76.6" transform="matrix(-0.7025 -0.7117 0.7117 -0.7025 182.4193 229.5794)" class="st5" width="8.2" height="0.2"/>
				
					<rect x="136.2" y="75.5" transform="matrix(-0.7025 -0.7117 0.7117 -0.7025 185.074 228.5101)" class="st5" width="8.2" height="0.2"/>
			</g>
		</g>
		<g id="BRAS_8_">
			<g id="ARM_18_">
				<path class="st0" d="M33.5,96c-1-0.1-1.7-1.7-1.4-3.5l0.6-6.1c0.3-2.3,1.7-3.2,7.3-2.5c1.6,0.2,5.9,0.8,5.9,0.8
					c1,0.1,1.7,1.7,1.4,3.5l-1.3,9.5C45.8,97.7,33.5,96,33.5,96z"/>
			</g>
		</g>
		<g id="ARM_16_">
			<path class="st2" d="M13.4,58.2l-0.6,0.3c-3.3,1.5-4.4,6.1-2.9,9.4l5,10.8c1.8,3.8,8.2,11.4,13.7,8.9l1.3-0.6
				c3.3-1.5,2.1-4.2,0.6-7.5l-8.3-18C20.6,58.1,16.7,56.7,13.4,58.2z"/>
			<path class="st0" d="M13.4,58.2c0,0,3.5-1.6,7,4.4c1.4,2.5,8.7,18.2,9.3,20.2c0.9,2.8,0.2,4.2,0.2,4.2c3.3-1.5,2.1-4.2,0.6-7.5
				l-8.3-18C20.6,58.1,16.7,56.7,13.4,58.2z"/>
			<g>
				
					<rect x="11.9" y="69.5" transform="matrix(0.9084 -0.4182 0.4182 0.9084 -27.6607 13.0783)" class="st5" width="8.2" height="0.2"/>
				
					<rect x="11.2" y="68.1" transform="matrix(0.9084 -0.4182 0.4182 0.9084 -27.131 12.678)" class="st5" width="8.2" height="0.2"/>
				
					<rect x="10.6" y="66.7" transform="matrix(0.9084 -0.4182 0.4182 0.9084 -26.6013 12.2776)" class="st5" width="8.2" height="0.2"/>
			</g>
		</g>
	</g>
	<path id="BELLY_5_" class="st2" d="M43.3,105.4c-6.7-0.1-8-2.6-8-9.1c0,0-0.2-10.9-0.2-12.2c0-2.2,4.5-3.9,8.9-3.8l61.8,1.3
		c4.4,0.1,8.8,1.9,8.7,4.2c0,1.3-0.7,12.1-0.7,12.1c-0.3,6.5-1.7,8.9-8.4,8.8L43.3,105.4z"/>
	<ellipse id="SHADOW_5_" class="st6" cx="74.3" cy="163.5" rx="53.1" ry="6.7"/>
	<g id="TXT_4_">
		<g>
			<path class="st1" d="M64.3,91.8c0-0.1,0-0.4,0-0.5c0-0.1,0-0.1,0-0.2l0.7,0c0,0.1,0,0.1-0.1,0.4c0,0.1,0,0.1,0,0.2l0.8,0
				c0.1,0,0.2,0,0.2,0l0.3,0.3c0,0.1,0,0.1-0.1,0.3c0,0.8-0.1,1.4-0.2,1.6c-0.1,0.3-0.3,0.4-0.7,0.4c-0.1,0-0.2,0-0.5,0
				c0-0.3,0-0.4-0.1-0.6c0.2,0.1,0.4,0.1,0.5,0.1c0.2,0,0.2-0.1,0.3-0.4c0-0.2,0.1-0.7,0.1-1l-0.7,0c0,0.2,0,0.2-0.1,0.4
				c-0.2,0.7-0.5,1.2-1.3,1.7c-0.2-0.3-0.3-0.4-0.5-0.6c0.5-0.2,0.8-0.5,1-0.9c0.1-0.2,0.1-0.3,0.2-0.6l-0.5,0c-0.2,0-0.3,0-0.5,0
				l0-0.6c0.2,0,0.2,0,0.5,0L64.3,91.8z"/>
			<path class="st1" d="M69.3,94.5c-0.3-0.4-0.6-0.7-1-1.1c-0.4,0.4-0.8,0.7-1.4,1c-0.1-0.3-0.2-0.4-0.4-0.6
				c0.5-0.2,0.9-0.4,1.2-0.7c0.3-0.3,0.6-0.6,0.8-1l-0.9,0c-0.3,0-0.4,0-0.6,0l0-0.6c0.1,0,0.2,0,0.4,0c0,0,0.1,0,0.2,0l1.2,0
				c0.2,0,0.2,0,0.3,0l0.3,0.3c-0.1,0.1-0.1,0.1-0.1,0.2c-0.2,0.4-0.3,0.7-0.6,1c0.4,0.3,0.6,0.5,1.1,1L69.3,94.5z"/>
			<path class="st1" d="M70.5,94.5c0-0.2,0-0.3,0-0.6l0.1-2.1c0-0.3,0-0.3,0-0.5l0.7,0c0,0.1,0,0.3,0,0.5l0,0.5
				c0.6,0.2,1.1,0.4,1.6,0.8l-0.4,0.6c-0.3-0.3-0.8-0.5-1.1-0.7c-0.1-0.1-0.1-0.1-0.2-0.1l0,0.9c0,0.2,0,0.4,0,0.6L70.5,94.5z"/>
			<path class="st1" d="M73.3,92.7c0.2,0,0.4,0,0.7,0.1l1.7,0c0.4,0,0.5,0,0.7,0l0,0.7c-0.2,0-0.3,0-0.7,0l-1.7,0
				c-0.4,0-0.5,0-0.7,0L73.3,92.7z"/>
			<path class="st1" d="M77.9,93c0,0.1,0,0.1,0,0.1c-0.1,0.6-0.3,1-0.6,1.4c-0.2-0.1-0.4-0.2-0.6-0.3c0.3-0.4,0.5-0.9,0.6-1.4
				L77.9,93z M80.1,92.7c-0.1,0-0.2,0-0.6,0l-0.7,0l0,1.6c0,0.2,0,0.4,0,0.5l-0.7,0c0-0.1,0-0.3,0-0.6l0-1.6l-0.7,0
				c-0.3,0-0.4,0-0.5,0l0-0.6c0.1,0,0.2,0,0.6,0l0.7,0l0-0.1c0-0.2,0-0.3,0-0.4l0.7,0c0,0.1,0,0.2,0,0.4l0,0.1l0.8,0
				c-0.1-0.1-0.1-0.2-0.1-0.3c0-0.2,0.2-0.4,0.4-0.4c0.2,0,0.4,0.2,0.4,0.4c0,0.1-0.1,0.3-0.2,0.4L80.1,92.7z M79.6,92.8
				c0.1,0.5,0.3,1.1,0.6,1.4c-0.2,0.1-0.4,0.2-0.6,0.3c-0.3-0.5-0.4-0.8-0.5-1.4c0-0.1,0-0.1-0.1-0.2L79.6,92.8z M79.7,91.8
				c0,0.1,0.1,0.2,0.2,0.2c0.1,0,0.2-0.1,0.2-0.2c0-0.1-0.1-0.2-0.2-0.2C79.8,91.6,79.7,91.7,79.7,91.8z"/>
			<path class="st1" d="M81.1,92.4c0.1,0.3,0.2,0.6,0.3,0.9l-0.6,0.2c-0.1-0.4-0.2-0.6-0.3-0.9L81.1,92.4z M83.2,92.5
				c0,0.1,0,0.1-0.1,0.2c-0.1,0.5-0.3,0.9-0.5,1.2c-0.2,0.3-0.5,0.5-0.8,0.7c-0.1,0.1-0.2,0.1-0.4,0.2c-0.1-0.2-0.2-0.3-0.4-0.5
				c0.7-0.3,1.1-0.6,1.4-1.2c0.1-0.3,0.2-0.5,0.2-0.8L83.2,92.5z M81.9,92.3c0.2,0.4,0.2,0.5,0.3,0.9l-0.6,0.2
				c-0.1-0.3-0.2-0.6-0.3-0.9L81.9,92.3z"/>
			<path class="st1" d="M84,94.9c0-0.2,0-0.3,0-0.6l0.1-2.1c0-0.3,0-0.3,0-0.5l0.7,0c0,0.1,0,0.2,0,0.5l0,0.5
				c0.6,0.2,1.1,0.5,1.6,0.8L86,94.1c-0.3-0.2-0.7-0.5-1.1-0.7c-0.1,0-0.1,0-0.1-0.1c0,0,0,0,0,0l0,0.9c0,0.3,0,0.5,0,0.6L84,94.9z
				 M85.7,91.9c0.1,0.2,0.2,0.3,0.3,0.5l-0.3,0.2c-0.1-0.2-0.2-0.4-0.3-0.5L85.7,91.9z M86.2,91.7c0.1,0.1,0.2,0.3,0.4,0.5l-0.3,0.2
				c-0.1-0.2-0.2-0.4-0.3-0.5L86.2,91.7z"/>
		</g>
		<g>
			<path class="st1" d="M70.6,97.8c-0.1,0-0.1,0-0.2,0.1c-0.1,0-0.1,0-0.2,0c-0.2,0-0.4-0.1-0.5-0.2c-0.1-0.1-0.2-0.3-0.2-0.6
				c0-0.3,0.1-0.5,0.2-0.6c0.1-0.1,0.3-0.2,0.5-0.2c0.1,0,0.1,0,0.2,0c0.1,0,0.1,0,0.2,0.1l0,0.3c-0.1-0.1-0.1-0.1-0.2-0.1
				c0,0-0.1,0-0.2,0c-0.1,0-0.2,0-0.3,0.1C70,96.7,70,96.9,70,97c0,0.2,0,0.3,0.1,0.4c0.1,0.1,0.1,0.1,0.3,0.1c0.1,0,0.1,0,0.2,0
				c0.1,0,0.1-0.1,0.2-0.1L70.6,97.8z"/>
			<path class="st1" d="M71.5,96.3l0.3,0l0,1l0.2,0l0,0.3l-0.2,0l0,0.3l-0.3,0l0-0.3l-0.6,0l0-0.3L71.5,96.3z M71.5,96.6l-0.4,0.6
				l0.4,0L71.5,96.6z"/>
			<path class="st1" d="M72.3,96.3l0.9,0l0,0.3l-0.6,0l0,0.3c0,0,0.1,0,0.1,0c0,0,0.1,0,0.1,0c0.2,0,0.3,0.1,0.4,0.2
				s0.1,0.2,0.1,0.4c0,0.2-0.1,0.3-0.2,0.4c-0.1,0.1-0.3,0.1-0.4,0.1c-0.1,0-0.1,0-0.2,0c-0.1,0-0.1,0-0.2-0.1l0-0.3
				c0.1,0,0.1,0.1,0.2,0.1c0.1,0,0.1,0,0.2,0c0.1,0,0.2,0,0.3-0.1c0.1,0,0.1-0.1,0.1-0.2c0-0.1,0-0.2-0.1-0.2
				c-0.1-0.1-0.1-0.1-0.2-0.1c-0.1,0-0.1,0-0.2,0c-0.1,0-0.1,0-0.2,0.1L72.3,96.3z"/>
			<path class="st1" d="M73.6,96.3l1,0l0,0.2L74,97.9l-0.3,0l0.5-1.3l-0.7,0L73.6,96.3z"/>
			<path class="st1" d="M74.8,97.2c0-0.3,0.1-0.5,0.1-0.6c0.1-0.1,0.2-0.2,0.4-0.2c0.2,0,0.3,0.1,0.4,0.2c0.1,0.1,0.1,0.3,0.1,0.6
				c0,0.3-0.1,0.5-0.1,0.6c-0.1,0.1-0.2,0.2-0.4,0.2c-0.2,0-0.3-0.1-0.4-0.2S74.8,97.4,74.8,97.2z M75.4,96.6c-0.1,0-0.1,0-0.2,0.1
				c0,0.1-0.1,0.2-0.1,0.4c0,0.1,0,0.1,0,0.2l0.4-0.6c0,0,0,0,0,0C75.5,96.7,75.5,96.6,75.4,96.6z M75.2,97.6c0,0.1,0.1,0.1,0.2,0.1
				c0.1,0,0.1,0,0.2-0.1c0-0.1,0.1-0.2,0.1-0.4c0-0.1,0-0.1,0-0.2L75.2,97.6C75.2,97.6,75.2,97.6,75.2,97.6z"/>
			<path class="st1" d="M76.2,96.4l0.4,0c0.2,0,0.4,0,0.5,0.1c0.1,0.1,0.1,0.2,0.1,0.4c0,0.2-0.1,0.3-0.2,0.4
				c-0.1,0.1-0.3,0.1-0.5,0.1l-0.1,0l0,0.6l-0.3,0L76.2,96.4z M76.5,96.7l0,0.5l0.1,0c0.1,0,0.2,0,0.2,0c0,0,0.1-0.1,0.1-0.2
				c0-0.1,0-0.1-0.1-0.2c0,0-0.1-0.1-0.2-0.1L76.5,96.7z"/>
			<path class="st1" d="M77.5,97.2c0-0.3,0.1-0.5,0.1-0.6c0.1-0.1,0.2-0.2,0.4-0.2c0.2,0,0.3,0.1,0.4,0.2c0.1,0.1,0.1,0.3,0.1,0.6
				c0,0.3-0.1,0.5-0.1,0.6c-0.1,0.1-0.2,0.2-0.4,0.2c-0.2,0-0.3-0.1-0.4-0.2S77.5,97.5,77.5,97.2z M78,96.7c-0.1,0-0.1,0-0.2,0.1
				c0,0.1-0.1,0.2-0.1,0.4c0,0.1,0,0.1,0,0.2l0.4-0.6c0,0,0,0,0,0C78.1,96.7,78.1,96.7,78,96.7z M77.8,97.7c0,0.1,0.1,0.1,0.2,0.1
				c0.1,0,0.1,0,0.2-0.1c0-0.1,0.1-0.2,0.1-0.4c0-0.1,0-0.1,0-0.2L77.8,97.7C77.8,97.6,77.8,97.6,77.8,97.7z"/>
			<path class="st1" d="M78.8,96.5l0.3,0c0.3,0,0.4,0.1,0.6,0.2c0.1,0.1,0.2,0.3,0.2,0.6c0,0.3-0.1,0.5-0.2,0.6
				c-0.1,0.1-0.3,0.2-0.6,0.2l-0.3,0L78.8,96.5z M79.1,96.7l0,1l0.1,0c0.1,0,0.2,0,0.3-0.1c0.1-0.1,0.1-0.2,0.1-0.4
				c0-0.2,0-0.3-0.1-0.4C79.4,96.8,79.3,96.8,79.1,96.7L79.1,96.7z"/>
		</g>
		<g>
			<path class="st4" d="M64.3,91.6c0-0.1,0-0.4,0-0.5c0-0.1,0-0.1,0-0.2l0.7,0c0,0.1,0,0.1-0.1,0.4c0,0.1,0,0.1,0,0.2l0.8,0
				c0.1,0,0.2,0,0.2,0l0.3,0.3c0,0.1,0,0.1-0.1,0.3c0,0.8-0.1,1.4-0.2,1.6c-0.1,0.3-0.3,0.4-0.7,0.4c-0.1,0-0.2,0-0.5,0
				c0-0.3,0-0.4-0.1-0.6c0.2,0.1,0.4,0.1,0.5,0.1c0.2,0,0.2-0.1,0.3-0.4c0-0.2,0.1-0.7,0.1-1l-0.7,0c0,0.2,0,0.2-0.1,0.4
				c-0.2,0.7-0.5,1.2-1.3,1.7c-0.2-0.3-0.3-0.4-0.5-0.6c0.5-0.2,0.8-0.5,1-0.9c0.1-0.2,0.1-0.3,0.2-0.6l-0.5,0c-0.2,0-0.3,0-0.5,0
				l0-0.6c0.2,0,0.2,0,0.5,0L64.3,91.6z"/>
			<path class="st4" d="M69.3,94.3c-0.3-0.4-0.6-0.7-1-1.1c-0.4,0.4-0.8,0.7-1.4,1c-0.1-0.3-0.2-0.4-0.4-0.6
				c0.5-0.2,0.9-0.4,1.2-0.7c0.3-0.3,0.6-0.6,0.8-1l-0.9,0c-0.3,0-0.4,0-0.6,0l0-0.6c0.1,0,0.2,0,0.4,0c0,0,0.1,0,0.2,0l1.2,0
				c0.2,0,0.2,0,0.3,0l0.3,0.3c-0.1,0.1-0.1,0.1-0.1,0.2c-0.2,0.4-0.3,0.7-0.6,1c0.4,0.3,0.6,0.5,1.1,1L69.3,94.3z"/>
			<path class="st4" d="M70.5,94.3c0-0.2,0-0.3,0-0.6l0.1-2.1c0-0.3,0-0.3,0-0.5l0.7,0c0,0.1,0,0.3,0,0.5l0,0.5
				c0.6,0.2,1.1,0.4,1.6,0.8l-0.4,0.6c-0.3-0.3-0.8-0.5-1.1-0.7c-0.1-0.1-0.1-0.1-0.2-0.1l0,0.9c0,0.2,0,0.4,0,0.6L70.5,94.3z"/>
			<path class="st4" d="M73.3,92.4c0.2,0,0.4,0,0.7,0.1l1.7,0c0.4,0,0.5,0,0.7,0l0,0.7c-0.2,0-0.3,0-0.7,0l-1.7,0
				c-0.4,0-0.5,0-0.7,0L73.3,92.4z"/>
			<path class="st4" d="M77.9,92.7c0,0.1,0,0.1,0,0.1c-0.1,0.6-0.3,1-0.6,1.4c-0.2-0.1-0.4-0.2-0.6-0.3c0.3-0.4,0.5-0.9,0.6-1.4
				L77.9,92.7z M80.1,92.5c-0.1,0-0.2,0-0.6,0l-0.7,0l0,1.6c0,0.2,0,0.4,0,0.5l-0.7,0c0-0.1,0-0.3,0-0.6l0-1.6l-0.7,0
				c-0.3,0-0.4,0-0.5,0l0-0.6c0.1,0,0.2,0,0.6,0l0.7,0l0-0.1c0-0.2,0-0.3,0-0.4l0.7,0c0,0.1,0,0.2,0,0.4l0,0.1l0.8,0
				c-0.1-0.1-0.1-0.2-0.1-0.3c0-0.2,0.2-0.4,0.4-0.4c0.2,0,0.4,0.2,0.4,0.4c0,0.1-0.1,0.3-0.2,0.4L80.1,92.5z M79.6,92.6
				c0.1,0.5,0.3,1.1,0.6,1.4c-0.2,0.1-0.4,0.2-0.6,0.3c-0.3-0.5-0.4-0.8-0.5-1.4c0-0.1,0-0.1-0.1-0.2L79.6,92.6z M79.7,91.6
				c0,0.1,0.1,0.2,0.2,0.2c0.1,0,0.2-0.1,0.2-0.2c0-0.1-0.1-0.2-0.2-0.2C79.8,91.4,79.7,91.5,79.7,91.6z"/>
			<path class="st4" d="M81.1,92.2c0.1,0.3,0.2,0.6,0.3,0.9l-0.6,0.2c-0.1-0.4-0.2-0.6-0.3-0.9L81.1,92.2z M83.2,92.3
				c0,0.1,0,0.1-0.1,0.2c-0.1,0.5-0.3,0.9-0.5,1.2c-0.2,0.3-0.5,0.5-0.8,0.7c-0.1,0.1-0.2,0.1-0.4,0.2c-0.1-0.2-0.2-0.3-0.4-0.5
				c0.7-0.3,1.1-0.6,1.4-1.2c0.1-0.3,0.2-0.5,0.2-0.8L83.2,92.3z M81.9,92.1c0.2,0.4,0.2,0.5,0.3,0.9l-0.6,0.2
				c-0.1-0.3-0.2-0.6-0.3-0.9L81.9,92.1z"/>
			<path class="st4" d="M84,94.7c0-0.2,0-0.3,0-0.6l0.1-2.1c0-0.3,0-0.3,0-0.5l0.7,0c0,0.1,0,0.2,0,0.5l0,0.5
				c0.6,0.2,1.1,0.5,1.6,0.8L86,93.9c-0.3-0.2-0.7-0.5-1.1-0.7c-0.1,0-0.1,0-0.1-0.1c0,0,0,0,0,0l0,0.9c0,0.3,0,0.5,0,0.6L84,94.7z
				 M85.7,91.7c0.1,0.2,0.2,0.3,0.3,0.5l-0.3,0.2c-0.1-0.2-0.2-0.4-0.3-0.5L85.7,91.7z M86.2,91.5c0.1,0.1,0.2,0.3,0.4,0.5l-0.3,0.2
				c-0.1-0.2-0.2-0.4-0.3-0.5L86.2,91.5z"/>
		</g>
		<g>
			<path class="st4" d="M70.6,97.6c-0.1,0-0.1,0-0.2,0.1c-0.1,0-0.1,0-0.2,0c-0.2,0-0.4-0.1-0.5-0.2s-0.2-0.3-0.2-0.6
				c0-0.3,0.1-0.5,0.2-0.6c0.1-0.1,0.3-0.2,0.5-0.2c0.1,0,0.1,0,0.2,0s0.1,0,0.2,0.1l0,0.3c-0.1-0.1-0.1-0.1-0.2-0.1
				c0,0-0.1,0-0.2,0c-0.1,0-0.2,0-0.3,0.1C70,96.5,70,96.6,70,96.8c0,0.2,0,0.3,0.1,0.4c0.1,0.1,0.1,0.1,0.3,0.1c0.1,0,0.1,0,0.2,0
				c0.1,0,0.1-0.1,0.2-0.1L70.6,97.6z"/>
			<path class="st4" d="M71.5,96.1l0.3,0l0,1l0.2,0l0,0.3l-0.2,0l0,0.3l-0.3,0l0-0.3l-0.6,0l0-0.3L71.5,96.1z M71.5,96.4L71.1,97
				l0.4,0L71.5,96.4z"/>
			<path class="st4" d="M72.3,96.1l0.9,0l0,0.3l-0.6,0l0,0.3c0,0,0.1,0,0.1,0c0,0,0.1,0,0.1,0c0.2,0,0.3,0.1,0.4,0.2
				c0.1,0.1,0.1,0.2,0.1,0.4c0,0.2-0.1,0.3-0.2,0.4c-0.1,0.1-0.3,0.1-0.4,0.1c-0.1,0-0.1,0-0.2,0c-0.1,0-0.1,0-0.2-0.1l0-0.3
				c0.1,0,0.1,0.1,0.2,0.1c0.1,0,0.1,0,0.2,0c0.1,0,0.2,0,0.3-0.1c0.1,0,0.1-0.1,0.1-0.2c0-0.1,0-0.2-0.1-0.2
				c-0.1-0.1-0.1-0.1-0.2-0.1c-0.1,0-0.1,0-0.2,0c-0.1,0-0.1,0-0.2,0.1L72.3,96.1z"/>
			<path class="st4" d="M73.6,96.1l1,0l0,0.2L74,97.7l-0.3,0l0.5-1.3l-0.7,0L73.6,96.1z"/>
			<path class="st4" d="M74.8,96.9c0-0.3,0.1-0.5,0.1-0.6c0.1-0.1,0.2-0.2,0.4-0.2c0.2,0,0.3,0.1,0.4,0.2c0.1,0.1,0.1,0.3,0.1,0.6
				c0,0.3-0.1,0.5-0.1,0.6c-0.1,0.1-0.2,0.2-0.4,0.2c-0.2,0-0.3-0.1-0.4-0.2S74.8,97.2,74.8,96.9z M75.4,96.4c-0.1,0-0.1,0-0.2,0.1
				c0,0.1-0.1,0.2-0.1,0.4c0,0.1,0,0.1,0,0.2l0.4-0.6c0,0,0,0,0,0C75.5,96.4,75.5,96.4,75.4,96.4z M75.2,97.4c0,0.1,0.1,0.1,0.2,0.1
				c0.1,0,0.1,0,0.2-0.1c0-0.1,0.1-0.2,0.1-0.4c0-0.1,0-0.1,0-0.2L75.2,97.4C75.2,97.4,75.2,97.4,75.2,97.4z"/>
			<path class="st4" d="M76.2,96.2l0.4,0c0.2,0,0.4,0,0.5,0.1c0.1,0.1,0.1,0.2,0.1,0.4c0,0.2-0.1,0.3-0.2,0.4
				c-0.1,0.1-0.3,0.1-0.5,0.1l-0.1,0l0,0.6l-0.3,0L76.2,96.2z M76.5,96.5l0,0.5l0.1,0c0.1,0,0.2,0,0.2,0c0,0,0.1-0.1,0.1-0.2
				c0-0.1,0-0.1-0.1-0.2c0,0-0.1-0.1-0.2-0.1L76.5,96.5z"/>
			<path class="st4" d="M77.5,97c0-0.3,0.1-0.5,0.1-0.6c0.1-0.1,0.2-0.2,0.4-0.2c0.2,0,0.3,0.1,0.4,0.2c0.1,0.1,0.1,0.3,0.1,0.6
				c0,0.3-0.1,0.5-0.1,0.6c-0.1,0.1-0.2,0.2-0.4,0.2c-0.2,0-0.3-0.1-0.4-0.2S77.5,97.3,77.5,97z M78,96.5c-0.1,0-0.1,0-0.2,0.1
				c0,0.1-0.1,0.2-0.1,0.4c0,0.1,0,0.1,0,0.2l0.4-0.6c0,0,0,0,0,0C78.1,96.5,78.1,96.5,78,96.5z M77.8,97.4c0,0.1,0.1,0.1,0.2,0.1
				c0.1,0,0.1,0,0.2-0.1c0-0.1,0.1-0.2,0.1-0.4c0-0.1,0-0.1,0-0.2L77.8,97.4C77.8,97.4,77.8,97.4,77.8,97.4z"/>
			<path class="st4" d="M78.8,96.2l0.3,0c0.3,0,0.4,0.1,0.6,0.2c0.1,0.1,0.2,0.3,0.2,0.6c0,0.3-0.1,0.5-0.2,0.6
				c-0.1,0.1-0.3,0.2-0.6,0.2l-0.3,0L78.8,96.2z M79.1,96.5l0,1l0.1,0c0.1,0,0.2,0,0.3-0.1c0.1-0.1,0.1-0.2,0.1-0.4
				c0-0.2,0-0.3-0.1-0.4C79.4,96.6,79.3,96.5,79.1,96.5L79.1,96.5z"/>
		</g>
	</g>
</g>
</svg>
