<?xml version="1.0" encoding="UTF-8" standalone="no"?>
<svg
   xmlns:dc="http://purl.org/dc/elements/1.1/"
   xmlns:cc="http://creativecommons.org/ns#"
   xmlns:rdf="http://www.w3.org/1999/02/22-rdf-syntax-ns#"
   xmlns:svg="http://www.w3.org/2000/svg"
   xmlns="http://www.w3.org/2000/svg"
   xmlns:sodipodi="http://sodipodi.sourceforge.net/DTD/sodipodi-0.dtd"
   xmlns:inkscape="http://www.inkscape.org/namespaces/inkscape"
   inkscape:version="1.0beta1 (ee59332, 2019-11-28)"
   sodipodi:docname="castopod.svg"
   id="svg839"
   version="1.1"
   viewBox="0 0 64 63.999998"
   height="64"
   width="64">
  <metadata
     id="metadata845">
    <rdf:RDF>
      <cc:Work
         rdf:about="">
        <dc:format>image/svg+xml</dc:format>
        <dc:type
           rdf:resource="http://purl.org/dc/dcmitype/StillImage" />
        <dc:title></dc:title>
      </cc:Work>
    </rdf:RDF>
  </metadata>
  <defs
     id="defs843" />
  <sodipodi:namedview
     inkscape:current-layer="svg839"
     inkscape:window-maximized="0"
     inkscape:window-y="23"
     inkscape:window-x="0"
     inkscape:cy="33.560512"
     inkscape:cx="32"
     inkscape:zoom="8.9714173"
     showgrid="false"
     id="namedview841"
     inkscape:window-height="1035"
     inkscape:window-width="1920"
     inkscape:pageshadow="2"
     inkscape:pageopacity="0"
     guidetolerance="10"
     gridtolerance="10"
     objecttolerance="10"
     borderopacity="1"
     inkscape:document-rotation="0"
     bordercolor="#666666"
     pagecolor="#ffffff" />
  <circle
     id="greencircle"
     fill="#37c837"
     cx="32"
     cy="32"
     r="31.684" />
  <g
     id="speak">
    <path
       d="M45.21 20.22H18.79c-6.473 0-11.74 5.266-11.74 11.74S12.317 43.7 18.79 43.7h10.756c1.08 0 1.957-.875 1.957-1.956 0-1.08-.877-1.957-1.957-1.957H18.79c-4.315 0-7.826-3.51-7.826-7.827 0-4.316 3.51-7.828 7.827-7.828h26.42c4.315 0 7.826 3.512 7.826 7.828 0 4.316-3.51 7.827-7.827 7.827H43.34v.002c-5.41.096-9.783 4.527-9.783 9.96 0 1.08.875 1.957 1.956 1.957 1.08 0 1.956-.876 1.956-1.957 0-3.336 2.714-6.05 6.05-6.05h1.687c6.473 0 11.74-5.266 11.74-11.74s-5.267-11.74-11.74-11.74"
       fill="#fff"
       id="phylactery" />
    <g
       id="threedots">
      <circle
         r="2"
         cy="32"
         cx="24.256159"
         id="leftdot"
         style="fill:#ffffff;fill-opacity:1;stroke:none;" />
      <circle
         style="fill:#ffffff;fill-opacity:1;stroke:none;"
         id="middledot"
         cx="32"
         cy="32"
         r="2" />
      <circle
         r="2"
         cy="32"
         cx="39.743839"
         id="rightdot"
         style="fill:#ffffff;fill-opacity:1;stroke:none;" />
    </g>
  </g>
</svg>
