<svg xmlns="http://www.w3.org/2000/svg" viewBox="0 0 449 168" height="4rem">
  <path
    fill="#98bf00"
    d="m446.6 73.88 2.5-13.65h-12.9l3.76-20.08-15.45 6.04-2.5 14.04h-9.4l-2.5 13.65h9.25l-3.15 17.3c-.14.94-.4 2.34-.64 4.14-.25 1.8-.4 3.4-.4 4.75.04 6.25 1.54 11.4 4.5 15.45 2.94 4.14 7.74 6.59 14.44 7.34l6.44-13.3c-3.44-.44-6.04-1.8-7.89-4.1-1.85-2.34-2.75-5.3-2.75-8.89 0-.7.1-1.7.25-3.05.15-1.35.3-2.45.45-3.3l3-16.34h13ZM310.7 72.33c2.4-.85 4.5-1.3 6.26-1.3 1.9 0 3.5.55 4.8 1.65 1.24 1.05 1.84 2.6 1.84 4.75 0 .6-.1 1.5-.3 2.75-.2 1.15-.35 2.2-.5 3.1l-3.6 16.89-.75 4.05c-.25 1.45-.34 2.7-.34 3.75 0 4.05 1.1 7.44 3.34 10.14 2.15 2.7 6 4.3 11.55 4.75l6.35-12.84c-2.16-.35-3.7-1.15-4.65-2.4-1-1.2-1.5-2.9-1.5-5.05 0-.5.05-1.1.15-1.75.05-.65.15-1.2.2-1.6l3.64-17.2c.3-1.44.56-2.9.75-4.34.2-1.4.3-2.8.3-4.15 0-4.95-1.44-8.94-4.34-11.9-2.95-2.94-7.05-4.44-12.3-4.44-3.05 0-5.94.5-8.8 1.5-2.8.95-6.2 2.54-10.14 4.9a17.35 17.35 0 0 0-2.8-6.75l-13.4 5.75a20.5 20.5 0 0 1 2.6 5.5 21.16 21.16 0 0 1 .56 8.4c-.1 1.14-.25 2.04-.4 2.69l-7.95 42.33h14.4l8.44-45.68a23.33 23.33 0 0 1 6.6-3.5Z"
  ></path>
  <path
    fill="#98bf00"
    fill-rule="evenodd"
    d="M350.74 80.08c-1.55 4.6-2.3 9.5-2.3 14.64 0 4.5.6 8.5 1.75 12s2.8 6.44 4.9 8.8a20.1 20.1 0 0 0 7.55 5.44 25.05 25.05 0 0 0 9.84 1.9c4.35 0 8.65-.8 12.95-2.4a30.3 30.3 0 0 0 11.4-7.44l-5.4-12.5c-2.5 2.8-5.25 4.9-8.3 6.35a21.07 21.07 0 0 1-9.1 2.15c-3.5 0-6.24-1.1-8.24-3.3a12.35 12.35 0 0 1-2.95-8.35v-.95c0-.4.05-.8.15-1.2a203.42 203.42 0 0 0 19.19-3.5c3.45-.84 6.8-1.8 10.1-2.8 3.24-1 6.14-2.05 8.6-3.1v-5.74c0-3.55-.56-6.75-1.66-9.6a23.32 23.32 0 0 0-4.6-7.2c-1.94-2-4.3-3.5-6.94-4.5a22.59 22.59 0 0 0-8.5-1.6c-4.45 0-8.6 1-12.34 2.96a28.48 28.48 0 0 0-9.7 8.1 38.55 38.55 0 0 0-6.4 11.84Zm21.64-10.1c1.55-.85 3.3-1.25 5.25-1.25 2.65 0 4.85.85 6.6 2.6 1.75 1.7 2.65 4.25 2.65 7.7-1.45.45-3.15 1-5.15 1.55-2.05.5-4.1 1-6.2 1.45-2.15.45-4.2.9-6.24 1.3l-5.3.9c.24-2.1.7-4.1 1.4-5.95.75-1.85 1.7-3.5 2.84-4.9 1.25-1.4 2.6-2.55 4.15-3.4Z"
  ></path>
  <path
    fill-rule="evenodd"
    d="M404.17 140.45c0-1.25-.2-2.4-.6-3.4-.4-1-.95-1.84-1.6-2.6-.7-.7-1.5-1.24-2.45-1.6-.95-.34-2-.54-3.1-.54a9.95 9.95 0 0 0-7.34 3.2 11.49 11.49 0 0 0-3.1 7.9c0 1.24.2 2.34.6 3.4.35 1 .9 1.84 1.6 2.54.65.75 1.5 1.3 2.44 1.7.95.35 2 .55 3.15.55a9.87 9.87 0 0 0 7.3-3.2c.95-.95 1.7-2.15 2.25-3.5s.85-2.84.85-4.45Zm-13.9-.05c.3-.9.7-1.7 1.2-2.4.55-.7 1.2-1.25 1.96-1.7a4.66 4.66 0 0 1 2.5-.64c1.44 0 2.5.45 3.24 1.34.75.86 1.15 2.1 1.15 3.65 0 .95-.15 1.9-.45 2.85a6.75 6.75 0 0 1-3.15 4.1c-.75.4-1.6.6-2.5.6-1.45 0-2.5-.45-3.24-1.3a5.5 5.5 0 0 1-1.16-3.65c0-.94.16-1.9.46-2.85Z"
  ></path>
  <path
    d="M434.56 132.56H431l-1.9 11.04c-.05.15-.1.4-.1.75v.85h-.15l-6.4-12.64h-3.35l-3.34 18.74h3.6l2-11.3c.04-.14.04-.4.04-.64v-.86h.15l6.55 12.95 3.2-.3 3.25-18.6ZM374.38 132.56h-3.65l-3.34 18.74h3.7l3.3-18.74Z"
  ></path>
  <path
    fill-rule="evenodd"
    d="M328.95 132.56h-4.25c-.8 1.35-1.65 2.9-2.6 4.55-.95 1.64-1.85 3.34-2.75 5.04-.9 1.7-1.7 3.35-2.44 4.95-.75 1.6-1.36 3-1.8 4.2h3.84c.16-.35.3-.8.5-1.25.2-.45.4-.95.66-1.4l.6-1.35c.2-.45.4-.85.54-1.2h6.5c.05.45.05.9.1 1.4l.15 1.45.15 1.35c.05.45.05.8.05 1.15l3.7-.3c0-.7-.05-1.5-.15-2.45-.05-.95-.2-1.95-.35-3-.15-1.05-.3-2.2-.5-3.35-.15-1.15-.35-2.3-.6-3.44-.2-1.16-.4-2.25-.65-3.35-.25-1.05-.45-2.05-.7-3Zm-2.35 5.55.3 1.8c.1.6.2 1.2.25 1.74.1.55.15.95.2 1.3h-4.65c.25-.45.5-.95.75-1.5.3-.55.6-1.14.9-1.75.35-.6.65-1.14.95-1.7.3-.55.55-1.04.8-1.4h.2c.1.4.2.9.3 1.5Z"
  ></path>
  <path
    d="m357.64 135.96.55-3.4h-12.8l-.55 3.4h4.55l-2.65 15.34h3.65l2.7-15.34h4.55Z"
  ></path>
  <path
    fill-rule="evenodd"
    d="M297.46 132.3c-1.05 0-2.1.06-3.15.16-1.04.15-2.04.3-3 .55l-3.14 17.84c.95.25 2.04.4 3.24.55 1.16.15 2.25.2 3.3.2a11.19 11.19 0 0 0 7.85-2.95c1-.95 1.8-2.1 2.4-3.45.55-1.35.85-2.9.85-4.6 0-1.35-.2-2.5-.6-3.54a7.4 7.4 0 0 0-1.75-2.6 7.56 7.56 0 0 0-2.65-1.6 10.5 10.5 0 0 0-3.35-.55Zm-.8 3.4c.75 0 1.45.1 2.1.26.65.15 1.2.45 1.65.84.5.4.9.9 1.15 1.56.25.6.4 1.34.4 2.3 0 1.2-.15 2.24-.5 3.2a5.79 5.79 0 0 1-3.5 3.85 7.1 7.1 0 0 1-2.8.49c-.45 0-.9 0-1.45-.05-.55-.05-1.05-.1-1.4-.15l2.15-12.1 1.15-.15c.45-.04.8-.04 1.05-.04Z"
  ></path>
  <path
    d="M185.8 62.59a20.53 20.53 0 0 1 2.6 5.5 21.16 21.16 0 0 1 .56 8.4c-.1 1.14-.25 2.04-.4 2.69l-7.95 42.33H195l8.44-45.68a23.33 23.33 0 0 1 6.6-3.5c2.4-.85 4.5-1.3 6.25-1.3 1.9 0 3.5.55 4.8 1.65 1.24 1.05 1.84 2.6 1.84 4.75 0 .6-.1 1.5-.3 2.75-.2 1.15-.35 2.2-.5 3.1l-3.6 16.89-.75 4.05c-.24 1.45-.34 2.7-.34 3.75 0 4.05 1.1 7.44 3.34 10.14 2.15 2.7 6 4.3 11.55 4.75l6.35-12.84c-2.15-.35-3.7-1.15-4.65-2.4-1-1.2-1.5-2.9-1.5-5.05 0-.5.05-1.1.15-1.75.05-.65.15-1.2.2-1.6l3.65-17.2c.3-1.44.55-2.9.75-4.34.2-1.4.3-2.8.3-4.15 0-4.95-1.45-8.94-4.35-11.9-2.95-2.94-7.05-4.44-12.3-4.44-3.04 0-5.94.5-8.8 1.5-2.8.95-6.2 2.54-10.14 4.9a17.35 17.35 0 0 0-2.8-6.75l-13.4 5.75ZM276.82 31.55h-14.14l-10.8 58.47c-.45 1.95-.8 4-1.05 6.15-.25 2.1-.4 4.05-.4 5.85 0 5.8 1.1 10.55 3.35 14.24 2.25 3.7 6.05 5.9 11.4 6.6l6.5-13.3a18.96 18.96 0 0 1-2.8-1.64 7.2 7.2 0 0 1-2.1-2.15 8.1 8.1 0 0 1-1.3-3.05c-.25-1.2-.4-2.7-.4-4.45 0-.85.05-1.8.15-2.8l.45-3.2 11.14-60.72ZM246.43 132.56h-3.65l-2.4 13.69a5.7 5.7 0 0 1-4.3 1.95c-.9 0-1.6-.2-2.1-.6-.54-.45-.8-1.15-.8-2.2 0-.2.06-.5.1-.9.06-.35.06-.7.1-1l2-10.94h-3.7l-1.94 10.9-.15 1.34c-.05.45-.05.8-.05 1.15 0 1 .15 1.85.45 2.6a4.55 4.55 0 0 0 3 2.75 7.94 7.94 0 0 0 7.15-1.4c0 .25 0 .55.05.85 0 .25 0 .5.04.75l3.65-.25c-.04-.25-.04-.5-.04-.8-.06-.25-.06-.55-.06-.9 0-.6.06-1.25.1-1.9.05-.7.1-1.35.25-1.95l2.3-13.14ZM276.62 132.56h-3.55l-1.9 11.04c-.05.15-.1.4-.1.75v.85h-.15l-6.4-12.64h-3.34l-3.35 18.74h3.6l2-11.3c.05-.14.05-.4.05-.64v-.86h.14l6.56 12.95 3.2-.3 3.24-18.6Z"
  ></path>
  <path
    fill-rule="evenodd"
    d="M214.8 134.46c-.7-.7-1.5-1.25-2.45-1.6-.95-.35-2-.55-3.1-.55a9.97 9.97 0 0 0-7.35 3.2 11.5 11.5 0 0 0-3.1 7.9c0 1.24.2 2.34.6 3.4.35 1 .9 1.84 1.6 2.54.65.75 1.5 1.3 2.45 1.7.95.35 2 .55 3.15.55a9.87 9.87 0 0 0 7.3-3.2 10.5 10.5 0 0 0 2.25-3.5c.54-1.35.85-2.84.85-4.45 0-1.25-.2-2.4-.6-3.4a9.1 9.1 0 0 0-1.6-2.6ZM204.3 138c.55-.7 1.2-1.25 1.95-1.7a4.68 4.68 0 0 1 2.5-.64c1.45 0 2.5.45 3.25 1.34.75.86 1.15 2.1 1.15 3.65 0 .95-.15 1.9-.46 2.85a6.75 6.75 0 0 1-3.14 4.1c-.75.4-1.6.6-2.5.6-1.45 0-2.5-.45-3.25-1.3a5.5 5.5 0 0 1-1.15-3.65 8.99 8.99 0 0 1 1.65-5.25Z"
  ></path>
  <path
    d="M188.26 132.56h-10.3l-3.35 18.74h3.7l1.25-7.15h6.75l.6-3.4h-6.75l.85-4.8h6.65l.6-3.4Z"
  ></path>
  <path
    fill="#98bf00"
    d="M127.08 44.9c1.35-10.95-1.4-20.8-8.2-29.5C112.08 6.7 103.2 1.66 92.25.3c-10.95-1.34-20.8 1.41-29.5 8.2-8.04 6.25-12.94 14.3-14.69 24.15-.15.85-.3 1.65-.4 2.5-.1.85-.15 1.65-.2 2.44-.35 4.6.1 9 1.3 13.2a39.3 39.3 0 0 0 7.1 13.84 40.1 40.1 0 0 0 11.75 10.3c3.74 2.15 7.89 3.6 12.44 4.4.8.15 1.6.25 2.45.4l1.35.15A42.3 42.3 0 0 1 89 67.53c-1.55.05-3.15 0-4.75-.15-.1-.05-.15-.05-.2-.05-1.85-.25-3.65-.6-5.3-1.15a26.51 26.51 0 0 1-13.04-9.24 26.5 26.5 0 0 1-5.6-20.24v-.2c.95-7.45 4.4-13.5 10.34-18.15 6-4.65 12.75-6.55 20.3-5.6a26.2 26.2 0 0 1 18.29 10.35c4.65 6 6.55 12.74 5.65 20.3-.25 1.7-.55 3.3-1 4.84a41.3 41.3 0 0 1 13.2-2c.04-.45.14-.9.2-1.35Z"
  ></path>
  <path
    fill="#98bf00"
    d="M132.33 51.49c-.85-.1-1.65-.2-2.5-.25-4.6-.3-9 .15-13.2 1.3a39.42 39.42 0 0 0-13.84 7.15 38.4 38.4 0 0 0-14.7 24.14c4.36.74 8.36 2 12.05 3.85a26.53 26.53 0 0 1 10.35-18.14 26.59 26.59 0 0 1 20.3-5.66h.14c7.44.96 13.5 4.45 18.14 10.4 4.7 5.95 6.6 12.7 5.65 20.24a26.77 26.77 0 0 1-10.34 18.34 26.42 26.42 0 0 1-20.15 5.6c.85 4.05 1.1 8.3.8 12.7 9.95.65 18.94-2.2 26.99-8.45 8.7-6.8 13.75-15.7 15.1-26.64 1.34-10.94-1.4-20.79-8.2-29.49-6.3-8.05-14.35-12.94-24.14-14.69-.85-.15-1.65-.3-2.45-.4Z"
  ></path>
  <path
    d="M128.93 78.73c-3.45-.4-6.5.45-9.25 2.6a11.9 11.9 0 0 0-4.7 8.3c-.45 3.44.4 6.5 2.55 9.24a11.9 11.9 0 0 0 8.35 4.7c3.4.45 6.45-.4 9.2-2.55 2.75-2.15 4.3-4.9 4.74-8.35.4-3.4-.44-6.44-2.6-9.2a12.15 12.15 0 0 0-8.29-4.74Z"
  ></path>
  <path
    fill="#98bf00"
    d="M12.83 73.63c.95-7.55 4.4-13.7 10.4-18.34a26.12 26.12 0 0 1 20.09-5.6 44.33 44.33 0 0 1-.8-12.7c-9.95-.65-18.95 2.16-27 8.45C6.79 52.24 1.79 61.14.44 72.08c-1.35 10.95 1.35 20.74 8.2 29.49 6.24 8.05 14.3 12.95 24.14 14.7.8.14 1.6.24 2.45.4.85.1 1.65.2 2.5.24 4.6.3 9-.15 13.19-1.3 4.85-1.4 9.5-3.8 13.85-7.14 4.3-3.4 7.7-7.3 10.24-11.7a39.2 39.2 0 0 0 4.45-12.44 44.68 44.68 0 0 1-12.04-3.85c-.25 1.75-.6 3.45-1.1 5.1a26.53 26.53 0 0 1-9.25 13.04 26.59 26.59 0 0 1-20.3 5.65c-.04 0-.1 0-.14-.05a26.46 26.46 0 0 1-18.15-10.35 26.3 26.3 0 0 1-5.64-20.24Z"
  ></path>
  <path
    d="M32.47 67.13c-2.75 2.1-4.3 4.9-4.75 8.35a12 12 0 0 0 2.6 9.14 12 12 0 0 0 8.3 4.8 12.55 12.55 0 0 0 13.94-10.9c.45-3.44-.4-6.54-2.55-9.24a11.9 11.9 0 0 0-8.35-4.7c-3.45-.45-6.5.4-9.2 2.55ZM97.3 32.35a12 12 0 0 0-8.35-4.7c-3.45-.45-6.5.4-9.2 2.55A11.84 11.84 0 0 0 75 38.54c-.45 3.4.45 6.45 2.6 9.2a12.1 12.1 0 0 0 8.3 4.75c3.4.35 6.44-.5 9.2-2.6a12.26 12.26 0 0 0 4.74-8.3c.4-3.45-.45-6.54-2.55-9.24Z"
  ></path>
  <path
    fill="#98bf00"
    d="m85.05 88.43-1.35-.16a42.3 42.3 0 0 1-5.15 12.35c1.55-.1 3.15-.05 4.8.15.05 0 .1 0 .15.05 1.85.2 3.6.55 5.3 1.1a26.63 26.63 0 0 1 13.04 9.3 26.23 26.23 0 0 1 5.6 20.24v.2a26.47 26.47 0 0 1-10.35 18.14 26.52 26.52 0 0 1-20.29 5.6 26.56 26.56 0 0 1-18.3-10.35c-4.7-6-6.59-12.74-5.64-20.29.2-1.7.55-3.3 1.05-4.85a43.3 43.3 0 0 1-13.25 2c-.04.45-.14.9-.2 1.35-1.34 10.95 1.36 20.74 8.2 29.49 6.8 8.7 15.7 13.74 26.64 15.1 10.95 1.34 20.74-1.4 29.49-8.2 8.05-6.3 12.94-14.35 14.7-24.2.14-.8.24-1.6.4-2.44.04-.85.14-1.65.2-2.45.3-4.65-.16-9.05-1.3-13.2a40.16 40.16 0 0 0-7.1-13.84 39.9 39.9 0 0 0-11.7-10.3 38.72 38.72 0 0 0-12.5-4.4c-.8-.14-1.6-.3-2.44-.4Z"
  ></path>
  <path
    d="M90 120.41a12.14 12.14 0 0 0-8.35-4.75c-3.45-.4-6.5.45-9.2 2.6a12.14 12.14 0 0 0-4.75 8.3c-.45 3.45.46 6.5 2.6 9.25 2.1 2.75 4.85 4.3 8.3 4.7 3.45.44 6.5-.4 9.25-2.56 2.7-2.14 4.24-4.9 4.7-8.34.4-3.4-.46-6.45-2.55-9.2Z"
  ></path>
</svg>
