<svg fill="currentColor" viewBox="0 0 24 24" width="1em" height="1em"><path d="M12.0846 2C6.61 2 2 6.39692 2 11.8254L2.00462 22L12.0838 21.9908C17.5615 21.9908 22 17.4238 22 11.9954C22 6.56692 17.5615 2 12.0846 2ZM12 5.84615C13.6321 5.84615 15.1974 6.4945 16.3514 7.64857C17.5055 8.80264 18.1538 10.3679 18.1538 12C18.1538 13.6321 17.5055 15.1974 16.3514 16.3514C15.1974 17.5055 13.6321 18.1538 12 18.1538C10.947 18.1544 9.91156 17.8834 8.99385 17.3669L5.84615 18.1538L6.70846 15.1308C6.14413 14.184 5.84619 13.1022 5.84615 12C5.84615 10.3679 6.4945 8.80264 7.64857 7.64857C8.80264 6.4945 10.3679 5.84615 12 5.84615Z"/></svg>