<svg fill="currentColor" viewBox="0 0 24 24" width="1em" height="1em"><path fill="none" d="M0,0H24V24H0Z"/><path d="M6.35,18.83a2.69,2.69,0,0,1-1.47-1.49,4.7,4.7,0,0,1-.23-1.92A26.66,26.66,0,0,1,5,11c.18-1.65.34-3.2.34-3.45,0-1.12-.65-1.51-1.43-.86a4.71,4.71,0,0,0-1,1.82L2.69,9l-.3,0A.91.91,0,0,1,2,8.78,4.69,4.69,0,0,1,2.61,7,4.32,4.32,0,0,1,4.26,5.26a2.39,2.39,0,0,1,2.57.32c.52.52.66,1,.65,2.36,0,.62-.1,2-.22,3.09C6.83,15,6.8,15.32,6.8,15.87c0,.76.12,1.12.46,1.42a.84.84,0,0,0,.65.26c2,0,3.66-2.31,4.41-6a13.11,13.11,0,0,0,.2-3.29c0-1.29,0-2.46-.06-2.61l-.06-.27h2.32l.06.56a31.23,31.23,0,0,1-.56,6.49,13.12,13.12,0,0,0-.17,4.15,1.76,1.76,0,0,0,.4.67c.29.27.3.28,1.06.28a2.26,2.26,0,0,0,1.43-.33C19.29,16,21,12.55,20.79,9.45A3.09,3.09,0,0,0,20,7.12c-.35-.31-.42-.32-.54-.09a1.33,1.33,0,0,1-1.56.29,1.14,1.14,0,0,1-.51-1.07,1.22,1.22,0,0,1,.66-1,1.69,1.69,0,0,1,1-.16,1.91,1.91,0,0,1,1.13.22,3.78,3.78,0,0,1,1.75,2.46,16.69,16.69,0,0,1,0,4.12c-.73,3.46-3.21,6.37-6,7a3.41,3.41,0,0,1-3.12-.61,4.19,4.19,0,0,1-.8-2.78c0-.28,0-.5,0-.5s-.15.29-.32.64c-1,2-2.7,3.38-4.38,3.36a3.91,3.91,0,0,1-1-.13Z"/></svg>