<svg version="1.1" viewBox="0 0 24 24" xmlns="http://www.w3.org/2000/svg">
 <path d="M0,0H24V24H0Z" fill="none"/>
 <path d="m12.337 21.992c.42642-.01097.99628-.05612 1.2663-.10039.27007-.04426.712-.13869.98207-.20991.27007-.07117.68874-.20166.93038-.28989.24164-.08822.68357-.28266.98207-.43208.2985-.14942.75206-.40976 1.0079-.57854.25586-.16877.64135-.44892.85667-.62258.21531-.17366.60072-.53461.85642-.8021.25572-.26749.61932-.69339.80798-.94641.18868-.25304.46958-.6814.62424-.95193.15464-.27052.38855-.74327.51982-1.0506.13124-.30728.30922-.79538.39551-1.0846.08633-.28927.2038-.7934.26114-1.1203.05732-.32692.11734-.95493.13336-1.3956.01744-.47949.004-1.0295-.0323-1.3697-.03379-.31272-.10867-.78954-.16645-1.0596-.057813-.27007-.1867-.74688-.2865-1.0596-.099802-.31271-.31667-.85274-.48192-1.2001-.16526-.34732-.43355-.83579-.59622-1.0854-.16266-.24968-.4025-.59348-.53295-.76405-.13048-.17058-.44711-.52888-.70363-.7962-.2565-.26734-.6906-.66558-.96465-.88494-.27405-.21939-.70585-.52732-.95958-.68425-.25373-.15695-.60382-.35728-.7779-.44517-.17412-.08792-.5496-.25265-.83445-.36611-.28481-.11348-.78048-.27604-1.1015-.36125-.32098-.085229-.8162-.19423-1.1005-.24225-.35751-.060408-.81967-.087621-1.4989-.088319-.69443-.0006978-1.1335.024921-1.4989.087422-.28428.048645-.73785.14667-1.0079.21794-.27007.071273-.68875.20173-.93039.28994-.24164.088219-.67194.27623-.95623.41782-.28428.14159-.71458.38579-.95623.54272-.24164.1569-.57891.39233-.74947.52318-.17057.13084-.49405.41259-.71887.6261-.2248.21348-.57891.59183-.78689.84075-.208.24893-.49386.62402-.63525.83357-.14137.20951-.37322.59896-.51521.86541-.142.26646-.35274.72781-.4683 1.0252-.11556.29742-.25791.71107-.3163.91921-.058414.20815-.15254.60445-.2092.88067-.071871.35068-.11204.8088-.13299 1.5184-.019338.6554-.00797 1.1968.031699 1.5248.033892.27973.11895.75283.18899 1.0513.069977.2985.18767.7288.26142.95622.073765.22743.28075.72109.45998 1.0971.17924.37597.45885.88768.62134 1.1371.16249.24944.40225.59312.53275.76369.13047.17057.4471.52887.70362.7962.25653.26733.6906.66559.96465.88495.27405.21939.70585.52732.95958.68424.25374.15696.60382.35729.7779.44518.17412.08792.55637.25536.8495.37214.2931.11679.83527.2893 1.2048.38336.36956.0941.88127.19686 1.1371.22845.25586.0316.5466.06679.6461.07815.09948.01136.52979.01166.95622.000707zm-.10338-1.284c-.59699.008-1.2295-.008-1.4057-.03509-.17614-.02681-.58675-.1161-.91244-.19835-.3257-.082237-.83284-.24588-1.127-.36359-.29415-.11772-.75577-.33899-1.0258-.49172-.27007-.15273-.68875-.42359-.93039-.6019-.24164-.17832-.6952-.58149-1.0079-.89596-.3127-.31445-.72528-.79259-.91678-1.0625-.19154-.26997-.49705-.78272-.67893-1.1395-.18187-.35676-.41321-.90397-.51411-1.2161-.10089-.3121-.23258-.7994-.29264-1.0829-.072469-.34214-.11956-.80432-.13999-1.3744-.024024-.67148-.011065-.99861.05961-1.4989.049742-.352.16773-.90955.26222-1.239.094499-.32945.27391-.83103.39871-1.1146.12481-.2836.35177-.72229.50435-.97494.15259-.25262.46048-.68688.68419-.96502.22373-.27813.59731-.68124.83022-.8958.23288-.21456.63276-.53973.88861-.7226.25586-.18289.70942-.45887 1.0079-.61328.29849-.15443.76369-.36244 1.0338-.46224.27006-.099802.77015-.24531 1.1113-.32334.51947-.11884.77625-.14579 1.5806-.16587.58237-.014554 1.1385-.0002591 1.4129.036285.24895.033095.71587.12672 1.0376.20797.32173.081241.82561.24405 1.1198.36176.29415.11772.75578.33899 1.0259.49172s.68874.42359.93038.6019c.24164.17832.69521.58149 1.0079.89596.31271.31445.72466.79259.9154 1.0625.19077.26997.4733.73506.62785 1.0335.15456.2985.36266.76369.46247 1.0338.0998.27007.24192.76203.31581 1.0933.07386.33126.16164.90893.19497 1.2838.04645.52288.04635.84588-.000588 1.3877-.03369.38842-.11726.95043-.18579 1.2489-.06848.2985-.19906.75206-.29008 1.0079-.09101.25586-.28196.69727-.42433.98099-.14236.28372-.37584.6907-.51884.90454-.14299.21383-.41887.5788-.61297.81108-.19412.23228-.52448.57772-.73417.76757-.20966.1899-.588.4933-.8408.67422-.25278.18092-.70379.4553-1.0023.60976-.2985.15443-.76369.36244-1.0338.46224-.27007.0998-.77015.24562-1.1113.32404-.55492.12755-.73453.14401-1.7057.15625zm-3.9283-1.1038c.056819-.01236.32434-.14794.59441-.30132.27007-.15338 1.34-.78581 2.3776-1.4054 1.7636-1.053 1.8849-1.1348 1.8608-1.2538-.01426-.06998-.02582-1.2321-.02582-2.5825 0-1.9002.01595-2.5194.07048-2.7395.03878-.15636.14268-.43547.23088-.62026.10503-.22004.2769-.45215.49806-.67262.18573-.18516.45572-.39955.59999-.47641.14427-.076855.3992-.1754.5665-.21898.16731-.043561.50299-.079248.74596-.079248.24297 0 .52147.022827.61891.050838.09739.027911.18502.042863.19466.033294.01-.00997-1.838-1.1278-4.1058-2.4848-2.907-1.7395-4.1702-2.4689-4.2823-2.4726-.087422-.0029905-.23169.024821-.32053.061604-.088817.036783-.20336.12852-.2545.20382-.086126.12679-.094001.33572-.10674 2.8247l-.013756 2.6878.24637-.26465c.1355-.14557.37693-.34776.53652-.44935.15959-.10158.43869-.23559.62026-.2978.25338-.086824.45024-.1131.847-.11307.38482 1.99e-5.60367.028011.85657.10941.18684.060208.47777.19864.64651.30771.16875.10906.4017.30609.51765.43782.11595.13172.28381.37644.37302.54381.08922.16737.19732.45333.24026.63545.05901.2506.07825.66026.07885 1.684l.000767 1.3528-.13381.15902c-.11142.13242-.17122.15902-.35722.15902-.18601 0-.2458-.02661-.35722-.15902-.10504-.12483-.13381-.21479-.13381-.4183v-.25926l-.27136.24528c-.14926.1349-.41672.31368-.59442.3973-.17766.08363-.48584.17724-.68486.20805-.25983.04017-.46384.04017-.72369 0-.19901-.030801-.51476-.12757-.70166-.21504-.22629-.10589-.45079-.26999-.67195-.49111l-.33207-.33208v2.7799c0 1.5289.014853 2.854.032895 2.9446.018142.09051.099792.23149.1815.31321.08174.08174.21228.15794.29013.16938.077852.01146.18806.01067.24492-.002zm5.8588-3.4324c.02412-.01.62832-.36475 1.3426-.78948.71433-.42476 1.2928-.77816 1.2856-.7854-.007-.007-.1055.008-.21842.03449-.11291.02622-.36971.04815-.57063.04884-.20094.000678-.49168-.03618-.64609-.08204-.15441-.04575-.3671-.12722-.47264-.18097-.10554-.05373-.32069-.20264-.47811-.33087l-.28622-.23311v1.1679c0 .64232.01974 1.1601.04386 1.1507zm3.5743-2.1153c.07107-.04486.69964-.42025 1.3968-.83408.87176-.5175 1.2906-.79548 1.3413-.89017.04057-.07576.07366-.21643.07366-.31263 0-.09619-.0327-.23594-.07257-.31052-.04875-.09101-.47283-.37544-1.2896-.86489-.66936-.4011-1.2732-.76524-1.3417-.80923-.10198-.065392-.08961-.03389.06798.17249.10598.13883.2495.36456.31895.5016.06948.13705.16097.38239.20337.5452.04237.16281.07675.48301.07636.71158-.000408.22856-.03589.56459-.07885.74674-.04296.18213-.15105.4681-.24026.63545-.08922.16737-.25726.41361-.37345.54722-.15643.17988-.17772.22172-.08204.16127zm-1.86-.26868c.33029-.01176.50141-.04536.6859-.13467.13519-.06549.34771-.2209.47226-.34545.12455-.12454.27628-.32936.33717-.45513.06091-.12577.13739-.3722.17001-.54759.04376-.23542.04446-.40585.002-.65096-.0313-.18262-.1102-.44255-.17537-.57766-.06519-.13508-.22982-.35431-.36587-.48718-.15634-.15267-.35696-.2829-.54515-.35385-.2435-.09181-.37793-.10856-.73717-.09191-.36306.01685-.48694.04635-.7135.16974-.15078.08214-.35696.24105-.4582.35312-.10125.11206-.24537.33446-.32028.49424-.11876.25328-.13621.35681-.13621.80845 0 .48111.01206.54251.16988.86303.10496.2132.26016.42455.4061.55301.12991.11436.35584.25529.50205.31318.21015.08324.35807.10198.70595.08962zm-5.9617-.21008c.27265-.01276.44637-.05433.65659-.15716.1629-.07975.38571-.25094.51807-.39818.12774-.14208.28355-.39094.34624-.55306.08543-.22096.11398-.40464.11398-.73406 0-.32496-.02871-.51337-.11015-.72364-.06061-.15635-.18219-.37162-.27023-.47836-.08802-.10674-.26149-.26384-.38543-.34912-.12395-.085229-.37136-.19246-.5498-.23817-.21812-.055922-.41824-.07237-.6106-.05024-.15739.018042-.40536.090711-.55105.16151-.14568.070774-.3741.24543-.5076.38816-.1335.14272-.29172.36922-.35158.50332-.070675.15826-.11684.39061-.13162.66207-.015849.29091.00299.50539.060507.70456.045754.15749.16035.39823.25459.53498.0942.13674.2831.32565.41969.41977.1366.0941.3562.20574.48802.24803.15011.04815.37821.07038.61044.05961z" stroke-width=".051688"/>
</svg>
