<svg version="1.1" viewBox="0 0 24 24" xmlns="http://www.w3.org/2000/svg">
 <path d="M0,0H24V24H0Z" fill="none"/>
 <g transform="matrix(.59809 0 0 .59809 6.0381 7.6932)" aria-label="B">
  <path d="m21.108 4.921q2.36 1.04 3.76 3.12 1.4 2.08 1.4 4.72 0 2.32-1.16 4.28-1.12 1.92-3.08 3.08-1.96 1.12-4.28 1.12h-3.6v.92q0 .72-.6 1.24-.56.52-1.4.52-.72 0-1.28-.52t-.56-1.24v-.92h-6.4q-.84 0-1.4-.6-.56-.64-.52-1.52.16-.68.76-1.2t1.28-.52h13.56q1.28 0 2.36-.64t1.72-1.72q.68-1.08.68-2.32 0-1.64-1.04-2.88-1.04-1.24-2.6-1.6-.32-.16-1.12-.16h-3.68q-.8 0-1.4-.52-.56-.52-.68-1.24-.08-.84.44-1.4.56-.56 1.4-.6h1.64q1.44-.12 2.4-1.2 1-1.12 1-2.64 0-1.6-1.04-2.64-1.04-1.08-2.6-1.08h-7.8q-.72 0-1.24-.52-.52-.56-.52-1.28 0-.76.52-1.28.52-.56 1.24-.56h3.04v-.84q0-.76.56-1.28t1.28-.52q.84 0 1.4.52.6.52.6 1.28v.84h.92q2.04 0 3.76 1t2.72 2.72q1.04 1.72 1.04 3.76 0 2.32-1.48 4.32zm-8.12-4.16q0-.8-.6-1.4-.6-.64-1.36-.64h-8.56q-.8 0-1.36.64-.52.6-.52 1.4 0 .72.52 1.32.56.6 1.36.6h8.56q.76 0 1.36-.6t.6-1.32zm-6.88 5.56q0-.8-.56-1.28-.52-.52-1.4-.52h-8.52q-.84 0-1.4.52t-.56 1.28q0 .8.56 1.4.56.56 1.4.56h8.52q.88 0 1.4-.56.56-.56.56-1.4zm7.28 6.44q0-.8-.56-1.32-.52-.52-1.28-.52h-12.16q-.8 0-1.32.52t-.52 1.32.52 1.4q.56.6 1.32.6h12.16q.76 0 1.28-.6.56-.6.56-1.4z" color="#000000" style="-inkscape-stroke:none"/>
 </g>
</svg>
