<svg xmlns="http://www.w3.org/2000/svg" viewBox="0 0 24 24">
    <path d="M0 0h24v24H0Z" fill="none" />
    <path d="M18.66 10.64a5.13 5.13 0 0 1 2.25 1.86 4.93 4.93 0 0 1 .84 2.83 5 5 0 0 1-.69 2.56 5.26 5.26 0 0 1-1.85 1.84 5.12 5.12 0 0 1-2.56.67H14.5v.6a1 1 0 0 1-.36.74 1.16 1.16 0 0 1-.84.31 1.07 1.07 0 0 1-.76-.31 1 1 0 0 1-.34-.74v-.6H8.38a1.09 1.09 0 0 1-.84-.4 1.21 1.21 0 0 1-.31-.91 1.34 1.34 0 0 1 .45-.72 1.15 1.15 0 0 1 .77-.31h8.11a2.76 2.76 0 0 0 1.44-.34 3 3 0 0 0 1-1 2.66 2.66 0 0 0-.22-3.11 2.79 2.79 0 0 0-1.55-1 1.74 1.74 0 0 0-.67-.09h-2.2a1.28 1.28 0 0 1-.84-.31 1.33 1.33 0 0 1-.41-.75 1 1 0 0 1 .27-.83 1.16 1.16 0 0 1 .83-.36h1a2.09 2.09 0 0 0 1.44-.72A2.29 2.29 0 0 0 17.23 8a2.16 2.16 0 0 0-.62-1.58 2.09 2.09 0 0 0-1.56-.64h-4.66a1 1 0 0 1-.75-.32 1.1 1.1 0 0 1-.31-.76 1.09 1.09 0 0 1 .31-.77 1 1 0 0 1 .75-.33h1.81v-.5a1 1 0 0 1 .34-.77A1.07 1.07 0 0 1 13.3 2a1.16 1.16 0 0 1 .84.31 1 1 0 0 1 .36.77v.5h.55a4.41 4.41 0 0 1 2.25.6 4.52 4.52 0 0 1 1.63 1.62 4.33 4.33 0 0 1 .62 2.25 4.28 4.28 0 0 1-.89 2.59Zm-4.85-2.49a1.15 1.15 0 0 0-.36-.84 1.11 1.11 0 0 0-.82-.38H7.51a1.06 1.06 0 0 0-.81.38 1.23 1.23 0 0 0-.31.84 1.16 1.16 0 0 0 .31.79 1.07 1.07 0 0 0 .81.36h5.12a1.12 1.12 0 0 0 .82-.36 1.09 1.09 0 0 0 .36-.79Zm-4.12 3.32a1 1 0 0 0-.33-.76 1.13 1.13 0 0 0-.84-.31h-5.1a1.16 1.16 0 0 0-.83.31 1 1 0 0 0-.34.76 1.17 1.17 0 0 0 .34.84 1.14 1.14 0 0 0 .83.34h5.1a1.11 1.11 0 0 0 .84-.34 1.14 1.14 0 0 0 .33-.84Zm4.36 3.86a1.13 1.13 0 0 0-1.11-1.11H5.67a1.07 1.07 0 0 0-.79.32 1.09 1.09 0 0 0-.31.79 1.27 1.27 0 0 0 .31.83 1.06 1.06 0 0 0 .79.36h7.27a1 1 0 0 0 .77-.36 1.21 1.21 0 0 0 .34-.83Z" />
</svg>