<svg version="1.1" viewBox="0 0 24 24" xmlns="http://www.w3.org/2000/svg">
 <path d="M0,0H24V24H0Z" fill="none"/>
 <path d="m8.1088 22c.17844.0032.54344-.01907.81111-.04955.26767-.03048.7665-.1174 1.1085-.19314.34202-.07574 1.0484-.2794 1.5697-.45257.5213-.17317 1.3772-.49866 1.902-.7233.52483-.22464 1.3271-.59482 1.7829-.82263.45578-.2278 1.0964-.56133 1.4235-.74118.32715-.17985.92331-.5219 1.3248-.76012.4015-.23822 1.0443-.6376 1.4285-.88752l.69853-.45439-1.6715-1.6722c-.91935-.91971-1.6916-1.6722-1.7161-1.6722-.02448 0-.38963.21582-.81144.47961-.42181.26378-1.0468.63765-1.3888.83082-.34202.19317-.954.52156-1.36.72976-.40596.2082-.91905.45387-1.1402.54593-.22115.09207-.63991.22918-.93059.30471-.37181.0966-.66702.13696-.99573.13613-.33573-.000855-.52869-.0291-.68562-.10038-.12012-.05457-.32424-.21828-.45361-.36382-.12937-.14554-.31662-.43494-.41612-.64313-.0995-.20818-.22776-.56242-.28504-.78719-.05728-.22477-.13564-.6506-.17414-.9463-.04009-.30786-.06998-1.0807-.06992-1.8084 4.9e-5-.7202.02936-1.4816.06766-1.7574.03717-.26767.11543-.6907.17392-.94007.05849-.24937.18316-.61437.27705-.81111.1043-.21853.28838-.47539.47316-.66017.24564-.24565.35698-.31555.59273-.3721.18298-.043896.42646-.056982.65866-.035401.2026.01883.56192.080463.79847.13696.23655.056499.66828.20449.95939.32887.29111.12438.73768.33098.99236.45911.25469.12814.85241.45031 1.3283.71593.47585.26563 1.1932.68801 1.594.93862.40087.25061.75061.46477.77721.4759.02659.01119.79624-.73889 1.7103-1.6667l1.662-1.687-.54976-.36885c-.30237-.20287-.97416-.6237-1.4929-.9352-.51872-.31149-1.3434-.77858-1.8326-1.038-.48923-.25939-1.275-.65178-1.7462-.87198-.47117-.2202-1.2024-.53746-1.6249-.70502-.42254-.16756-1.0603-.40081-1.4171-.51834s-.94089-.28311-1.2978-.36797c-.35689-.084855-.83923-.18026-1.0719-.21202-.23264-.031756-.63414-.057314-.89222-.056798-.25808.0005191-.63059.03514-.8278.076941s-.47705.1364-.62185.21023c-.15146.077217-.46018.33736-.72689.6125-.25498.26305-.53769.58778-.62824.72161-.09056.13383-.25442.42194-.36415.64023-.10973.21829-.28346.64776-.38606.95438-.1026.30662-.24868.83273-.32462 1.1691-.07594.33642-.18389.94111-.23988 1.3438-.05599.40266-.13297 1.0849-.17104 1.5162-.04166.47182-.06848 1.5916-.06733 2.8118.0014 1.5223.02547 2.2637.09647 2.9741.05201.52046.15522 1.3057.22933 1.7449.07411.43923.2167 1.0962.31687 1.46.10016.36377.27396.87978.38621 1.1467.11224.26691.34343.69362.51375.94825.17032.25463.51451.65962.76487.89998.34606.33224.52985.46494.76655.5535.17124.06407.43674.13744.59.16304.15326.02561.42466.0492.6031.05243z" stroke-width=".054074"/>
</svg>
