<svg version="1.1" viewBox="0 0 24 24" xmlns="http://www.w3.org/2000/svg">
 <path d="M0,0H24V24H0Z" fill="none"/>
 <path d="m3.5723 17.208-1.4217-.000487v-.18834c0-.11634-.04271-.22699-.11172-.28945-.1097-.09929-.08415-.12915 1.4165-1.6556.8405-.85498 2.6318-2.6417 3.9808-3.9705 1.3489-1.3288 2.7955-2.7309 3.2146-3.1158.41909-.38487.91014-.81154 1.0912-.94814l.32924-.24836.17189.098471c.09454.054158.4586.37289.80902.70828.35042.3354 1.0524 1.0575 1.56 1.6047.50758.54717 1.4241 1.5523 2.0366 2.2336.61256.68128 1.4182 1.5636 1.7903 1.9607.40212.42917 1.0208 1.0001 1.5252 1.4076.46677.37705 1.0806.91358 1.364 1.1923.28344.27871.55855.59199.61134.6962.06343.12518.07706.20839.04019.24527-.03364.03364-1.0366.07512-2.5244.10441-1.3577.02673-5.167.07494-8.465.10712-3.298.03218-6.6362.0583-7.4181.05803zm17.149-.51781.75076.01058-.18144-.22909c-.09979-.126-1.1217-1.1737-2.271-2.3283-1.1492-1.1545-3.1917-3.1532-4.5388-4.4415l-2.4492-2.3423-.95994.96855c-.52797.5327-2.5383 2.5774-4.4675 4.5439l-3.5076 3.5753.66695.03513c.36682.01932 2.9346.04956 5.7062.06719 3.7009.02355 5.0053.01552 4.9113-.03021-.07035-.03424-.14286-.12182-.16112-.19461-.01826-.07279-.0027-.16914.03465-.21412.04403-.05305.05439-.16157.02949-.30894-.02583-.15291-.01778-.22716.02464-.22716.03466 0 .07761.038.09542.08446.01783.04645.09304.08446.16715.08446.0972 0 .13474-.03137.13474-.11261 0-.08826-.03753-.11261-.1736-.11261-.1139 0-.16551-.0242-.15007-.07038.01468-.0439.13409-.07121.31731-.0726.16837-.0012.31862.02772.35198.06791.03202.03857.04079.09831.01951.13274-.02128.03444-.07414.04901-.11746.03239-.04995-.01917-.07876.0078-.07876.07372 0 .05717-.03167.12966-.07038.16109-.0387.03143-.12106.06959-.18299.08482-.09957.02447-.09751.02843.01778.03421.07171.0036.17939.03276.23929.06482.0599.03206.1089.10974.1089.17262 0 .06288-.02623.16334-.05829.22324-.03206.0599-.09962.1089-.15014.1089-.05053 0-.07286.01901-.04963.04223.02322.02322 1.2119.05647 2.6416.07387 1.4297.01741 2.9372.03641 3.3501.04223zm-15.88-.27538c-.04011-.0025-.14267-.02991-.22789-.06103-.09442-.03448-.1712-.11523-.19653-.2067-.02287-.08255-.03752-.29312-.03255-.46791.005-.17479.04952-.39612.09903-.49185.0495-.09573.15144-.18946.22654-.20831.0751-.01885.16331-.01771.19604.0025.03272.02022.0595.07329.0595.11791 0 .04463-.04886.08113-.10859.08113-.05973 0-.15107.04249-.20299.0944-.07415.07415-.08954.17093-.07169.45114.01558.24473.05414.38745.1228.45456.09527.09312.10754.08901.25502-.08548.08522-.10082.17198-.16628.1928-.14545.02082.02082.03786.07279.03786.11549s-.06219.13982-.1382.21583c-.07601.07601-.17102.1362-.21114.13376zm1.0123-.01409c-.22797.0095-.34747-.01182-.40821-.07255-.04723-.04723-.08588-.12057-.08588-.16298s.02703-.09381.06005-.11423c.03303-.02042.09243.0072.132.06128.05279.07219.11277.08815.22521.05993.1051-.02637.14702-.0688.13341-.13499-.01426-.0693-.07089-.09417-.20081-.08822-.11454.0053-.18095-.01836-.18095-.06435 0-.03997.04008-.08804.08906-.10683.04898-.01881.13766-.03418.19706-.03418.05945 0 .108-.03876.108-.08622 0-.04742-.03895-.10117-.08655-.11944-.0476-.01826-.13194.0079-.18742.05807-.05548.0502-.1324.09128-.17095.09128-.03855 0-.06157-.04414-.05118-.0981.01036-.05396.08702-.13076.1703-.17067.08397-.04025.21598-.05636.29639-.03618.07974.02001.16687.07781.19362.12844.02674.05063.05776.26858.06889.48434l.02026.39228zm.87386.01681c-.08657-.000932-.20173-.02753-.25593-.05909-.0542-.03156-.09853-.10531-.09853-.16388 0-.05857.02552-.12226.0567-.14153.03118-.01928.0719.0046.09048.05298.01964.05118.10057.08803.19334.08803.08777 0 .1776-.02918.19964-.06484.02204-.03566-.0066-.09901-.06375-.14076-.0571-.04176-.16143-.07592-.23184-.07592-.07041 0-.15416-.04884-.1861-.10853-.03195-.05969-.04102-.1547-.02017-.21114.02086-.05644.0651-.12123.09833-.14398s.16538-.04176.29368-.04223c.16636-.000614.2436.02606.26929.093.01981.05163.01047.11944-.0208.15069-.03822.03822-.09342.02369-.16866-.04439-.06277-.0568-.15165-.08594-.20256-.0664-.0499.01914-.08218.07923-.07175.13351.01254.06532.07436.10067.18276.10451.09689.0035.20584.05773.26672.13292.05661.06992.10292.1508.10292.17974 0 .02894-.06219.11482-.1382.19083-.08233.08234-.20183.13751-.2956.13649zm1.0739.0017c-.07644 0-.16809-.05702-.22068-.13727-.05718-.08728-.0833-.22534-.07167-.37908.01392-.18429-.0016-.24204-.06542-.24278-.04602-.000563-.09181-.04315-.10173-.09469-.0107-.05525.02949-.10881.09775-.13048.07507-.02383.11581-.08494.11581-.17372 0-.08698.03229-.13697.08849-.13697.06324 0 .08332.0438.07038.15351-.01543.13077.0027.15371.12266.15484.08504 8e-4.14076.03375.14076.08324 0 .04505-.06334.09747-.14076.11648-.127.03118-.13916.05872-.12434.28171.009.13593.02881.25954.04396.27469.01515.01515.10034-.01546.18934-.06803.08898-.05257.17609-.09557.19356-.09557.01748 0 .01605.04433-.0032.09853-.01922.05419-.07303.14287-.11957.19706-.04654.05419-.14345.09853-.21535.09853zm.98124-.0023c-.040111-.0012-.15258-.03686-.24992-.07921-.15372-.06689-.18176-.11286-.21329-.3497-.01997-.14998-.01223-.3986.01718-.55249.03369-.17624.10054-.3179.18059-.38272.06991-.05661.17956-.09539.24368-.08618.06412.0092.12503.06108.13536.11528.0139.07289-.01841.09853-.12413.09853-.0884 0-.1675.04596-.20739.12049-.03686.06887-.05421.26256-.04049.45214.01572.21735.05814.36502.12307.42848.09392.09179.10715.08728.25402-.08648.08522-.10082.17198-.16628.1928-.14545.02082.02082.03786.07279.03786.11549s-.06219.13982-.1382.21583c-.07601.07601-.17102.13721-.21114.136zm.8937-.0013c-.03618-.0019-.12203-.0262-.19078-.05387-.06875-.02767-.14053-.11216-.1595-.18777-.01897-.0756-.02607-.19507-.01576-.26547.01036-.0704.04869-.13786.0853-.1499.03981-.01311.07375.05072.08446.15882.0098.0994.06224.20849.11643.24242.07143.04472.12564.04472.19706-1e-6.05419-.03393.10643-.12756.11608-.20807.0097-.0805-.01153-.20071-.04708-.26712-.05373-.10039-.09703-.11467-.25684-.08469-.10572.01988-.19221.01469-.19221-.01149s.0304-.078.06756-.11516c.03716-.03716.14826-.06757.24689-.06757.13046 0 .20517.03944.27414.1447.05215.07958.09675.21306.09913.29662.0024.08356-.03644.23074-.08625.32707-.04982.09633-.13159.19088-.18172.21012-.05013.01923-.12074.03337-.15692.03141zm1.9885.0036c-.16145 0-.24074-.03247-.30565-.12514-.04821-.06883-.08765-.19632-.08765-.28333 0-.087.03634-.24516.08074-.35144.04954-.11856.132-.20612.21334-.22653.07293-.0183.20193-.0069.28668.0253.08475.03222.16943.09858.18819.14747.01876.04889.006.15062-.02839.22606-.03623.0795-.11034.13717-.17631.13717-.06364 0-.11382-.03724-.11382-.08446 0-.04645.02534-.08446.0563-.08446.03097 0 .0563-.03651.0563-.08113 0-.04463-.02343-.09562-.05208-.11332-.02865-.0177-.11732-.0025-.19706.03387-.07974.03633-.14498.08438-.14498.10675 0 .02239.05701.05674.12668.07635.1222.03438.12295.0385.02109.11647-.06085.04659-.09143.11775-.07215.16799.01877.04893.1002.08716.18562.08716.08369 0 .19851-.04193.25514-.09318.09662-.08744.10297-.08595.10297.02413 0 .06453-.03982.15713-.08848.20579-.04996.04996-.18337.08847-.30648.08847zm.80832-.01622c-.03588.01218-.08248-.0057-.10356-.03986-.02108-.03412-.03015-.19381-.02015-.35487.01002-.16106-.0019-.32452-.02645-.36323-.02455-.0387-.02898-.09572-.0098-.12668.01914-.03097.0713-.0563.11593-.0563.04463 0 .08113.02927.08113.06503 0 .03781.04519.02413.10797-.03268.05938-.05374.16706-.08933.23929-.07911.08488.01203.13755.06232.14892.14222.01595.11207-.0048.12259-.22221.11261l-.2398-.01104-.003.36087c-.0018.2207-.02834.36947-.06823.38302zm1.2433-.0024c-.20713.0095-.36818-.01036-.4082-.05044-.03636-.03636-.06611-.12439-.06611-.19561 0-.07315.03413-.1295.07843-.1295.04314 0 .09301.038.11084.08446.01783.04645.08077.08446.13989.08446.05912 0 .1381-.03689.17553-.08199.03742-.04509.05012-.11099.02822-.14643-.0233-.03771-.10707-.05099-.20191-.03203-.11539.02308-.16208.01023-.16208-.04461 0-.04236.04008-.09241.08906-.1112.04899-.01879.14037-.03418.20309-.03418.08084 0 .10408-.02591.07985-.08906-.01879-.04899-.03418-.09966-.03418-.11261 0-.01295-.04154-.02355-.09233-.02355-.05078 0-.12312.04213-.16077.0936-.04016.05492-.10632.07906-.16009.05843-.05257-.02017-.07793-.07094-.05947-.11903.0177-.04612.11738-.11198.22151-.14635.13651-.04505.22116-.04545.3034-.0015.06274.03358.14099.11135.17389.17282.0329.06147.05654.21925.05254.35061-.0041.13136.0014.28814.01185.34839.01698.09728-.01918.11131-.32297.12523zm1.8751.01858c-.14648 0-.22808-.03507-.29116-.12514-.04821-.06883-.08765-.20944-.08765-.31247 0-.10304.03847-.26172.08548-.35263.04701-.09092.14302-.17974.21334-.19739.07032-.01765.19438-.0068.27568.02411.0813.03091.16406.10737.18391.16991.01985.06254.007.16804-.02852.23444-.04955.09259-.10012.11363-.21691.09028-.08376-.01676-.18646-.0094-.22823.01647-.04177.02581-.06037.0875-.04135.13707.01991.05188.09917.09014.18676.09014.08369 0 .1985-.04194.25514-.09318.09649-.08732.10297-.0861.10297.01942 0 .06194-.04634.15454-.10297.20579-.05663.05125-.19455.09318-.30648.09318zm1.7571-.0044c-.04446-.0025-.11883-.01847-.16528-.03555-.04645-.01708-.1288-.06968-.18299-.11689-.07572-.06596-.09853-.17425-.09853-.46757 0-.20996.02633-.451.05852-.53565.03218-.08465.10186-.18684.15484-.22709.05297-.04025.13432-.07307.18078-.07295.04645.000113.15664.05929.24487.13146.09502.07773.1524.17282.14076.23326-.01081.05612-.04499.10385-.07595.10604-.03097.0023-.06396-.06191-.07331-.14246-.01429-.1231-.03955-.14216-.15827-.11947-.07769.01485-.18118.08793-.22997.16239-.06653.10155-.08044.21554-.05562.45604.02221.21516.06642.34516.13437.39514.08861.06517.12055.053.25532-.09728.08473-.09448.16707-.17177.18299-.17177s.02895.05893.02895.13095c0 .07202-.05865.18604-.13031.25337-.07167.06733-.16669.12042-.21114.11798zm.94928.000879c-.04011-.0019-.12449-.02447-.1875-.05001-.063-.02554-.14708-.08563-.18683-.13352-.03975-.04789-.06421-.17108-.05435-.27374.01104-.1148.04854-.18667.09745-.18667.04746 0 .08225.06204.08627.15384.0037.08461.03573.18284.07118.21828.03732.03732.12674.0488.21247.02728.13381-.03358.14638-.0594.13081-.26885-.01081-.14523-.05392-.2547-.11556-.29332-.07217-.04522-.12703-.04371-.20613.0057-.08606.05374-.11381.05165-.13761-.01036-.0164-.04274.0051-.10661.04762-.14195.04259-.03535.16143-.0562.2641-.04635.14774.01418.20904.05972.29399.21836.07363.13752.09501.24951.06809.35675-.02158.08597-.10039.21747-.17514.29222-.07475.07475-.16874.13431-.20885.13234zm.69502-.02944c-.02665.01646-.06465.01374-.08446-.0061s-.036-.2313-.036-.46995v-.43391l.3519.0043c.19354.0024.37052.0308.39327.06323.02275.03243.04176.23.04223.43903.00067.29514-.01741.38005-.08091.38005-.06098 0-.08603-.08947-.09853-.3519-.0092-.19355-.0421-.3519-.07307-.3519s-.06385.15836-.07307.3519c-.0125.26243-.03755.3519-.09853.3519-.06241 0-.08176-.08001-.08176-.33782 0-.18768-.02502-.33783-.0563-.33783-.03121 0-.0563.14904-.0563.3345 0 .18398-.0218.34798-.04846.36445zm-8.3515-.02336c-.06379 0-.11667-.07187-.15535-.21114-.03225-.11613-.05878-.24462-.05895-.28554-.000169-.04092-.03958-.11367-.08759-.16167-.04799-.04799-.07967-.12354-.07038-.16786.0092-.04432.03947-.08559.06706-.0917.02759-.0061.06914.0269.09234.07335.02319.04645.08789.17792.14377.29215.05589.11423.12008.19628.14265.18233.02258-.01395.08303-.15176.13434-.30623.0513-.15447.11738-.28086.14683-.28086s.06721.03558.08389.07909c.01669.0435-.05341.25886-.15578.47859-.12478.26783-.218.3995-.28284.3995zm5.8238-.01013c-.07614.01081-.14051-.01735-.16086-.07038-.01866-.04862-.01866-.12819 0-.17681.02035-.05303.08472-.08119.16086-.07038.09306.01321.12694.0556.12694.15879 0 .1032-.03388.14557-.12694.15879zm-4.3205-1.4637c-.01583.01583-.03179-.05778-.03545-.16358l-.0066-.19237-.03712.16891c-.03079.14014-.04404.15134-.07779.06578-.02238-.05672-.04068-.3276-.04068-.60195 0-.27435.02534-.51447.0563-.53361.03097-.01914.05183-.20433.04636-.41153l-.0099-.37673-.03229.37838c-.02717.31845-.04566.36986-.11674.32461-.05614-.03573-.06085-.05405-.01408-.05463.0485-.000592.07038-.10736.07038-.34338 0-.18838-.02066-.33407-.04591-.32375-.02525.01036-.22161.10745-.43636.21583-.21475.10839-.40312.21025-.4186.22636-.01548.01612-.09411.05822-.17473.09357-.12303.05394-.16079.04767-.235-.039-.07075-.08263-.07348-.10899-.01368-.13194.0411-.01578.12185-.01635.17943-.0014.06.01569.32985-.09154.632-.25114.45606-.24089.50986-.28405.39829-.31946-.11413-.03623-.11807-.04706-.03419-.09401.05215-.02919.08029-.07655.06255-.10526-.01798-.0291.01263-.03636.0692-.01641.06885.02429.08336.01721.04516-.02204-.03097-.03181-.33501-.13925-.67565-.23877-.34064-.09951-.89805-.26964-1.2387-.37804-.3407-.10835-.66707-.24302-.72533-.29922-.07549-.07282-.0954-.1441-.06931-.24806.02435-.09702.07489-.14588.15087-.14588.06283 0 .6261.17906 1.2517.39791.6256.21885 1.3637.4775 1.6402.57476l.50276.17685.76408-.4014c.42024-.22077.77229-.44148.78232-.49048.01002-.049-.02797-.1043-.08446-.12288-.05648-.01859-.31806-.1178-.58128-.22046-.26322-.10266-.78001-.30388-1.1484-.44715-.36841-.14327-.7358-.29634-.81641-.34016-.08062-.04382-.12123-.08038-.09027-.08126.03097-.000872.37302.12208.76011.27323s.95717.37981 1.2668.50812c.30967.12832.64986.24446.75598.2581.10611.01364.20899.05076.2286.08251.01962.03174.26217.14921.53902.26105.27684.11184.56388.22652.63785.25484.07397.02832.1217.0643.10606.07994-.01564.01564-.29636-.07737-.62383-.20669l-.59539-.23513-.87771.44385c-.48274.24412-.85796.45189-.83382.46172.02414.0098.48538.17535 1.025.36783s.99104.37989 1.0032.41647c.01336.04005-.06334.02423-.1928-.03979-.11824-.05846-.58272-.23466-1.0322-.39155-.44946-.15689-.8614-.28526-.91542-.28526-.08132 0-.08707.01785-.03343.10372.03563.05705.21954.15604.40868.21996.18915.06393.66519.23157 1.0579.37253.5043.18103.72207.23631.74158.18824.02092-.05154.0287-.05178.03207-.000996.0025.03688-.01824.08108-.04598.09822-.02773.01714-.22169-.0333-.43101-.11209s-.66933-.24281-1.0222-.3645c-.35291-.12169-.78282-.23496-.95536-.25172-.1922-.01866-.34294-.0062-.38917.03216-.05815.04826-.07579.30886-.0769 1.136-.000794.59035-.01439 1.0863-.03022 1.1021zm.22789-2.4718c.03279.0025.1063-.0297.16337-.07142.06809-.0498.08251-.08898.04196-.11405-.03399-.021-.56356-.21743-1.1768-.4365s-1.3122-.4634-1.5532-.54295c-.3107-.10258-.4556-.12715-.49826-.0845-.03307.03307-.04334.11307-.0228.17776.03052.09614.24997.18557 1.2021.48983.6406.20472 1.3041.41838 1.4744.4748.17032.05642.3365.10458.36929.10704zm-2.9874.55797c-.06193-.000337-.59401-.10992-1.1824-.24348-.58838-.13356-1.0318-.24528-.98532-.24825.04645-.0029.55319.09662 1.1261.22131.5729.12469 1.067.23669 1.0979.24889.03097.0122.0056.02188-.05631.02153zm5.2021 3.3878c.09464 0 .17681-.03628.19612-.08659.01828-.04762.002-.09618-.0362-.1079-.03819-.01172-.13685-.03602-.21926-.05398-.12144-.02647-.14626-.01403-.13099.06567.01036.0541.02078.11735.02314.14058.0024.02323.07761.04223.1672.04223z" stroke-width=".056304"/>
</svg>
