<svg xmlns="http://www.w3.org/2000/svg" viewBox="0 0 24 24">
    <path d="M0,0H24V24H0Z" fill="none" />
    <path d="M7.64,19.53a7.62,7.62,0,0,1-1.95-.36,5.47,5.47,0,0,1-2.47-1.63A5.89,5.89,0,0,1,2,13.2,8.75,8.75,0,0,1,3,9.59,7,7,0,0,1,4.38,7.65,6.18,6.18,0,0,1,7.82,6,7.11,7.11,0,0,1,9.8,6a2.89,2.89,0,0,1,2.07,1.6A3.44,3.44,0,0,1,11.62,11a1,1,0,0,1-.71.31.92.92,0,0,1-.9-.36,1.36,1.36,0,0,1-.06-1,3.21,3.21,0,0,0,.07-1C9.9,8.1,9.35,7.72,8.38,7.77c-2,.09-3.51,1.85-3.91,4.41a7,7,0,0,0,.11,3,3.16,3.16,0,0,0,.9,1.45,4.21,4.21,0,0,0,3.1,1,9.81,9.81,0,0,0,3.78-.79l.42-.16,0-.33c0-.18,0-.57,0-.87a27.41,27.41,0,0,1,.52-4.86c.54-2.76,1.55-5,2.57-5.71a2,2,0,0,1,1.57-.39A1.78,1.78,0,0,1,18.7,5.85a2.67,2.67,0,0,1,.09.77c.06,2.08-1,4.14-3.64,7.11l-.35.39,0,.35c0,.19,0,.54,0,.78v.44l.14-.33a6,6,0,0,1,2.48-3.09c.77-.38,1.51-.33,1.82.12s.23.93-.19,3c-.29,1.44-.33,1.79-.23,2.12s.4.34.74.17A6,6,0,0,0,21,16.29c.27-.31.38-.39.57-.39s.44.2.46.68a1.57,1.57,0,0,1-.17.86,7.38,7.38,0,0,1-1.49,1.46,3.08,3.08,0,0,1-1.52.62,1.57,1.57,0,0,1-2-1.13,2.76,2.76,0,0,1-.05-.69,9.31,9.31,0,0,1,.28-2c.18-.94.17-1.18,0-1.2s-.13,0-.28.16a8.75,8.75,0,0,0-1.65,3.46,2.14,2.14,0,0,1-.43,1,1.39,1.39,0,0,1-1.08.45c-.27,0-.31,0-.44-.09a.71.71,0,0,1-.32-.58l0-.22-.38.13a11.51,11.51,0,0,1-2.94.69,14.78,14.78,0,0,1-1.84.06Zm7.7-7.89c1.28-1.68,2-3.62,1.88-4.86,0-.36-.08-.49-.19-.61s-.46-.09-.73.46a15.26,15.26,0,0,0-1,3.44c-.09.47-.31,1.86-.31,2s0,.05.35-.39Z" />
</svg>