<svg version="1.1" viewBox="0 0 24 24" xmlns="http://www.w3.org/2000/svg">
 <path d="M0,0H24V24H0Z" fill="none"/>
 <path d="m17.784 22.978c-.0373-.0056-.20276-.04213-.36769-.08113-.16492-.03899-.60036-.05976-.96764-.04616-.48241.01787-.70084-.0151-.78689-.11878-.06551-.07893-.20622-.14352-.31268-.14352-.10646 0-.16577.04498-.13179.09995.03397.05497-.02184.09995-.12404.09995-.1022 0-.235-.04918-.29511-.10929-.06011-.06011-.28276-.11432-.49478-.12047-.21202-.0061-.4642.02536-.5604.07001-.13643.06332-.17492.03561-.17492-.1259 0-.1139-.087-.25365-.19334-.31056-.10634-.0569-.28111-.10347-.38839-.10347s-.32389-.06719-.48136-.14932c-.15746-.08212-.49096-.14959-.74109-.14993-.25014-3e-4-.51064-.05646-.5789-.12472-.07924-.07924-.1497-.08827-.19491-.02499-.03894.05452-.13827.11798-.22074.14103-.08246.02305-.31587.06125-.51869.08489-.23654.02756-.45058-.01434-.59698-.11688-.12552-.08792-.33066-.15985-.45587-.15985-.1252 0-.22764.05248-.22764.11661 0 .06414-.03374.08288-.07497.04165s-.07497-.12612-.07497-.18863c0-.06251-.09271-.15997-.20601-.21657-.11331-.05659-.47088-.33905-.7946-.62767-.32372-.28862-.52564-.52476-.44869-.52476.08782 0 .10455-.03476.04494-.09336-.05223-.05135-.27629-.10989-.49792-.1301-.23627-.02155-.58774-.16263-.84961-.34106-.24566-.16737-.58812-.33166-.76104-.36508-.25509-.04931-.32383-.02468-.36443.13056-.0424.16216-.09684.1779-.35704.10328-.16885-.04842-.34999-.11461-.40253-.14708-.05254-.03247-.12516-.2047-.16139-.38274-.03623-.17804-.11268-.48113-.16989-.67355-.05721-.19241-.13935-.42134-.18253-.50872-.04318-.08738-.03835-.22232.01074-.29986.04909-.07755.08994-.24219.09078-.36589.000912-.13395-.05909-.2249-.1484-.2249-.08246 0-.14993-.03517-.14993-.07815s.10571-.0869.23492-.0976c.16643-.01377.26939.05621.35315.24005.09922.21775.09485.25052-.02714.20371-.11514-.04418-.14181.03647-.12825.38785.01018.26385.06479.44364.13474.44364.06469 1e-6.18766.1404.27327.31201.08561.1716.13103.35184.10094.40052-.03009.04869.02357.11856.11924.15527.16004.06141.15854.07249-.01865.1385-.18535.06905-.18564.07459-.0076.14702.11476.04669.21498.02679.26393-.05243.05521-.08932.19325-.10625.45938-.05632.20925.03925.48693.15512.61705.25748.13464.1059.30776.15879.40174.12273.13123-.05036.10426-.08961-.13132-.19113-.28955-.12478-.29113-.12929-.06748-.19365.12594-.03624.21258-.1164.19253-.17811-.02005-.06172-.15971-.17228-.31036-.24569-.15065-.07341-.29832-.1971-.32816-.27488-.02985-.07777-.13573-.1414-.2353-.1414-.09958 0-.25193.02721-.33857.06045-.08664.03325-.13265.10072-.10223.14993.03042.04921.0077.08948-.05055.08948-.05822 0-.10585-.06426-.10585-.14279 0-.07853-.06621-.20901-.14714-.28994-.12956-.12956-.12956-.16174 0-.26927.08093-.06717.14637-.21782.14542-.33478-.00094-.11695-.10927-.31461-.24072-.43923-.17311-.16411-.25283-.3708-.28915-.74966-.027578-.28769-.073337-.65243-.10169-.81052-.028347-.15809-.10012-.33602-.1595-.3954-.07731-.07731-.10403-.03827-.09413.13751.0076.13501-.05783.4029-.14544.59531-.14375.31575-.15942.32549-.1608.09996-.00084-.13744.04232-.4298.09592-.6497s.12242-.54387.15296-.71993c.03655-.21076-.0019-.40773-.11254-.5766-.1592-.24297-.15679-.2874.04579-.84299.12365-.33912.18433-.66507.14385-.77279-.0385-.10246-.13532-.23528-.21516-.29516-.12523-.09392-.12265-.11751.01879-.17178.09018-.0346.16396-.15205.16396-.261s.06158-.23405.13684-.27801c.07527-.04396.17171-.19203.21433-.32904.06939-.22306.06031-.23484-.08686-.1127-.13892.11529-.16484.11517-.16753-8e-4-.0021-.09181-.05172-.07301-.14993.05684-.08071.10673-.14675.3021-.14675.43418 0 .15651-.07.25844-.201.2927-.11055.02891-.23038.17088-.26628.3155-.0359.14461-.18145.38662-.32343.53781-.14199.15118-.33702.27488-.43341.27488-.09639 0-.17524-.06426-.17524-.14279 0-.07853-.07266-.21545-.16146-.30425-.14864-.14864-.14864-.17562 0-.33986.0888-.09812.16501-.3098.16935-.4704.0043-.1606.03068-.23549.05851-.16643.02785.06906.08362.10517.12396.08024.04033-.02493.05388.08724.0301.24926-.02378.16202.0013.29458.05582.29458.05449 0 .14928-.06051.21066-.13447.061387-.07396.13908-.27184.17266-.43973.049217-.24609.023209-.31727-.13417-.36722-.10737-.03407-.24703-.17566-.31034-.31463-.063321-.13897-.11512-.27146-.11512-.29442 0-.02297.08199-.08564.18222-.13928.14988-.08021.18092-.06046.17492.11131-.004.11486.04394.22672.10656.24857.06669.02327.16831-.17961.24526-.48966.07227-.29117.12224-.56313.11104-.60436-.01121-.041231.04711-.074966.12957-.074966.08246 0 .14993.080963.14993.17992 0 .098955-.05398.23389-.11994.29986-.06597.06597-.09103.11995-.0557.11995.03534 0 .2355-.1012.4448-.2249.2093-.12369.51298-.2249.67486-.2249.27036 0 .29639-.031295.31979-.38449.01401-.21147.11772-.56145.23045-.77773.11273-.21628.20497-.4786.20497-.58293 0-.10433-.07068-.26037-.15707-.34676-.11817-.11817-.12436-.15786-.02499-.16025.09569-.0023.08835-.03673-.02662-.12494-.08729-.066971-.14161-.17245-.12072-.23439.02089-.061946-.03139-.13925-.11617-.17178-.08478-.032535-.15416-.015588-.15416.037662s-.04498.096817-.09996.096817c-.05497 0-.09995-.064257-.09995-.14279 0-.078536-.06562-.20842-.14583-.28862-.11898-.11898-.12358-.19308-.02499-.40248.09508-.20193.17103-.24408.35624-.19768.17839.044688.2953-.010859.4828-.22938.14617-.17036.22496-.21677.19255-.11342-.03017.096206-.01128.17492.04196.17492.05325 0 .09682-.041949.09682-.093219 0-.051271.07911-.11833.17582-.14902.0967-.030691.22039-.15463.27488-.27541.05448-.12079.30318-.34404.55266-.49612.24948-.15208.65429-.29956.89959-.32774.2453-.028179.36728-.026938.27107.00276-.09621.029698-.17492.095677-.17492.14662 0 .050944.03947.092626.08772.092626s.13781-.060363.19904-.13414c.06123-.073776.08711-.15835.05752-.18795-.0296-.029595.1732-.22045.45066-.42412.27746-.20367.50447-.44745.50447-.54172s-.05623-.232-.12494-.30606c-.10112-.10899-.09636-.12496.02499-.0838.08246.027971.23989.018806.34984-.020364.15325-.054598.20016-.16218.201-.46095.000638-.22757.04916-.38973.11661-.38973.06354 0 .15301-.040946.19882-.090992.04791-.052339.03316-.062262-.03474-.023358-.06492.037198-.14343.026539-.17448-.023686-.03105-.050225-.02839-.23159.0059-.40303.05641-.28205.07453-.29505.19044-.13654.12165.16636.13775.16644.31991.00158.1055-.095477.23326-.17216.2839-.17041.05065.00175.18182.070994.29151.15388.16132.12191.17306.16699.06146.23596-.10992.067937-.09583.10781.06939.19623.11404.061033.23113.072494.26019.025469.02907-.047025-.008-.16877-.08246-.27054-.0965-.13196-.10738-.24631-.03796-.39867.07846-.17218.18776-.21483.56331-.21979.43601-.00577.4483.0008896.1911.10338-.15118.060245-.27488.14318-.27488.1843 0 .041118.03988.099409.08863.12954.04875.030126.14421-.012199.21215-.094055.06794-.081857.19673-.1474.2862-.14565.08948.00175.24989.06914.35647.14976.18923.14313.18747.15317-.07497.4271-.14782.15429-.26876.37927-.26876.49995 0 .12069-.04498.21943-.09995.21943s-.09996.064814-.09996.14403c0 .079218.04782.17358.10625.2097.05844.036118.18567-.00621.28274-.094055.09707-.087848.22918-.15972.29357-.15972s.11707-.042745.11707-.094988-.07871-.14083-.17492-.19687c-.09621-.056034-.1433-.10325-.10466-.10492.03864-.00167.18502.049247.32527.11315.14026.063905.28096.090247.31267.058538.03171-.03171.01216-.14264-.04343-.24652-.06327-.11822-.0663-.24293-.0081-.33341.0807-.12546.10718-.12475.20054.00539.08099.11289.12009.11907.15826.024989.02789-.068719.09052-.12494.13918-.12494.04867 0 .06486.061558.03599.1368-.02904.075664.02821.16503.12808.19997.09931.034747.24306.091473.31943.12606.08117.036759.11255.020322.07553-.039568-.03482-.056346-.0055-.12465.06524-.15178.07071-.027133.21398.013134.31839.089481.17305.12653.17437.13881.01491.13881-.09622 0-.14927.041525-.1179.092277.03137.050752.25892.084487.50567.074966.29254-.011288.44864-.062512.44864-.14722 1e-6-.090491.04921-.10237.16218-.03915.1014.056748.31255.046361.56343-.027716.22069-.065162.4547-.19157.52003-.28091.07005-.095802.19998-.1412.31673-.11067.10887.028471.24607.17925.30488.33506.09082.24061.16252.28329.47589.28329.20293 0 .39297.024009.42231.053353.02935.029344.31303-.078607.63042-.23989.31739-.16128.70909-.29324.87045-.29324.16136 0 .38024.063515.48641.14114.18617.13613.1832.14562-.08368.26722-.19861.090495-.24065.14896-.14893.20717.10267.06515.10193.081388-.0037.082617-.07234.0008396-.22976-.048955-.34984-.11066-.17996-.092477-.19637-.088964-.09339.019991.06872.072699.12494.21375.12494.31346s.05623.27166.12494.38212c.10294.16548.09571.25195-.04111.49106-.12381.21639-.1454.3818-.08485.65024.04466.19801.13614.42622.20328.50712.06711.080904.08854.1471.04759.1471s-.02282.062217.04029.13826c.08904.10729.07736.15261-.0522.20232-.09182.035233-.23915.00155-.3274-.074857-.08826-.076404-.29339-.17062-.45586-.20937-.16247-.038751-.35518-.15581-.42824-.26013-.0998-.14249-.20653-.17493-.42903-.13043-.17136.034274-.35762.00825-.44198-.061768-.08019-.066553-.19275-.091988-.25014-.056523-.05738.035465-.10433.019515-.10433-.035445 0-.05666-.11704-.039206-.27031.040313-.14867.077131-.29083.11972-.31591.09464-.02508-.02508.03606-.13583.13587-.24612.0998-.11029.16325-.20311.14099-.20628-.02226-.00317-.35534-.098266-.74016-.21133-.47317-.13902-1.0718-.21685-1.8492-.24041-.63221-.019165-1.2987-.039502-1.4811-.045194-.18238-.00569-.39315.040732-.46838.10316-.07522.062431-.28722.12749-.47111.14458-.18388.01709-.61705.2138-.96259.43713-.34554.22333-.82678.48188-1.0694.57454-.24725.094426-.4133.21358-.37776.27107.03763.060884.01393.072014-.05829.027377-.06888-.042568-.20964.00438-.32432.10815-.11144.10085-.27581.18397-.36526.18471-.08945.0007397-.21408.10423-.27695.22999-.06287.12575-.21052.33106-.32812.45624-.1176.12518-.21381.32324-.21381.44015 0 .11691-.04957.24319-.11015.28064-.06058.037443-.17637.22655-.25729.42023-.11075.26507-.11804.37014-.02946.42488.08736.05399.08927.12582.0074.27878-.06065.11333-.11171.3327-.11345.4875-.0029.25536-.01549.26523-.13596.10653-.07303-.096206-.20654-.17492-.29668-.17492-.09561 0-.1639.080844-.1639.19401 0 .10671-.04498.22181-.09995.25579-.05498.033976-.09996.10891-.09996.16652 0 .057612.06747.078859.14993.047215.08246-.031644.14993-.020938.14993.023791s-.07871.14893-.17492.23156c-.09621.082627-.25364.17815-.34984.21226-.09621.034118-.17916.16465-.18435.29007-.0052.12542-.01.40795-.01061.62785-.00065.2199.03221.61347.073.8746.04963.31768.03866.47478-.03316.47478-.05903 0-.10079.08684-.09279.19298.008.10614.05018.17096.09374.14403.04356-.02692.0792.03991.0792.14853 0 .10861-.04733.21325-.10517.23253-.05784.01928-.12469.25917-.14856.53309-.02387.27392-.04787.5655-.05335.64797-.0055.08246.0023.26238.01722.39982.01494.13744.08628.33861.15851.44705.07224.10844.13134.26232.13134.34197 0 .07964.0717.22403.15932.32086.08763.09683.21706.1539.28762.12682.08761-.03361.14986.09456.19629.40423.0374.2494.11038.47965.16218.51167.0518.03201.09418.14.09418.23998 0 .09998.06747.23777.14993.3062.11777.09774.14993.09808.14993.0015 0-.06817.06676-.09727.14993-.06535.08246.03165.14993.01396.14993-.03928 0-.05326.06589-.09683.14642-.09683.08053 0 .18984.08114.24291.18031.05896.11018.06093.23652.005.32485-.0503.0795-.09214.1942-.09298.25489-.00084.06069.10066.22062.22557.35539.1249.13478.30406.27458.39813.31068.10282.03945.14751.12694.11205.21935-.03724.09705-.0026.15372.09397.15372.08412 0 .29701.12121.47307.26936s.41566.27692.53243.28616c.11677.0092.23872-.02406.271-.07399.03228-.04993.18016.09278.32863.31714.14847.22436.3152.37996.3705.34577.05531-.03418.1639-.0096.24131.05467.07741.06425.22563.08988.32936.05696.10373-.03293.35818.01099.56545.0976.20726.0866.4.24602.42831.35427.03714.14202.10572.1796.24633.13497.12272-.03895.23967-6e-4.31589.10368.09004.12313.31652.1739.8844.19822.41985.01798.81137.06236.87003.09863.06108.03775.08528.01022.05665-.06442-.02751-.07169.03881-.18581.14738-.25361.16543-.10332.18817-.09924.14042.02519-.03134.08165-.01617.14847.03369.14847s.14507-.05441.21157-.12091c.09458-.09458.07172-.14823-.10495-.24634-.21151-.11746-.20046-.12556.17396-.12745.2199-.0011.46102.03676.53583.08416.07481.0474.22048.06408.32373.03708s.16308-.08896.13297-.13768c-.03012-.04873.01169-.08859.09291-.08859.08121 0 .2188-.0273.30576-.06067.10375-.03981.15811-.0054.15811.09995 0 .08834.04498.16063.09995.16063s.09996-.08936.09996-.19857c0-.13396.12195-.25138.37483-.36089.20616-.08928.53226-.20546.72467-.25818.19241-.05272.46229-.11673.59973-.14224.13744-.02551.49062-.09814.78485-.16139.29423-.06325.55758-.17393.58521-.24595.02764-.07202.09747-.10176.15517-.0661.05916.03656.07548.0172.0374-.04441-.03714-.06009.01214-.15563.1095-.21231.09737-.05668.12345-.10443.05798-.1061-.06547-.0017-.14684.04194-.18082.09692-.03398.05498-.12178.09996-.19512.09996-.07334 0-.16115-.07248-.19514-.16106-.04322-.11264-.01858-.14448.08195-.1059.07906.03034.19753-.0096.26326-.08883.06573-.07919.19896-.14399.29607-.14399.10681 0 .17108.06911.16268.17492-.01112.14014.06153.17257.36546.16312.24597-.0077.46517-.09244.62347-.24115.18875-.17732.21853-.26019.13128-.36532-.08784-.10584-.07987-.12332.03593-.07887.08183.03141.19566.20984.25295.39652.05729.18668.07916.36443.04861.39499-.03056.03056-.18524.05557-.34373.05557-.15849 0-.41517.06567-.5704.14594-.15522.08027-.30902.11916-.34176.08641-.03274-.03275-.17338.01506-.31254.10624-.13916.09123-.25301.24524-.25301.3423 0 .09706-.08422.34166-.18715.54355-.10293.20189-.21906.33517-.25806.29617-.039-.039-.12995.0098-.2021.1085-.07215.09868-.10821.26728-.08012.37467.02809.10739.12729.19526.22047.19526.09317 0 .26784-.09171.38816-.2038.12032-.11209.21876-.24703.21876-.29986 0-.05284.04077-.09606.0906-.09606s.06852.08444.04153.18764c-.03736.14287.04744.2323.3554.37483.22246.10295.42725.24341.45511.31213.02786.06872.02475.19241-.0069.27488-.03165.08246-.1234.14993-.20391.14993-.0805 0-.20983-.06345-.28738-.14101-.07756-.07755-.19804-.1602-.26774-.18365-.10016-.0337-.09796-.0775.01046-.20883.12225-.1481.10647-.16619-.14493-.16619-.20851 0-.25286.02926-.16998.11214.06167.06167.08986.17019.06263.24114-.02723.07096.01002.14888.08277.17316.07276.02428.04195.03009-.06846.0129-.11041-.01718-.26314.0073-.33942.05447-.07628.04714-.11288.15293-.08135.23509.03227.08409-.04076.24153-.16709.3602-.12342.11595-.50229.31972-.84192.45282-.33963.1331-.68841.3129-.77506.39954-.08665.08665-.18807.15294-.22537.14731zm-1.5225-.28963c.04027 0 .12851-.12135.19608-.26966.0895-.19643.14475-.23425.20346-.13926.06247.10107.09753.10301.15587.0086.04196-.06789.01431-.16158-.06247-.21167-.07577-.04943-.31767-.07813-.53757-.06379-.27717.01808-.39982.07208-.39982.17601 0 .08246-.04498.18661-.09995.23145-.05497.04483.0015.05298.12544.01809.15518-.04366.24414-.01456.28557.09341.03309.08625.09313.15682.1334.15682zm3.1564-2.6748c.13606-.02601.24737-.08372.24737-.12826 0-.04454-.07871-.09668-.17492-.11586-.15546-.03101-.14989-.05653.04998-.22945.12369-.10701.2249-.25063.2249-.31915 0-.07687-.06699-.0996-.17492-.05933-.09621.03588-.2369.1515-.31266.25693-.0796.11078-.16398.14942-.19991.09154-.03419-.05508-.12964-.10997-.2121-.12198-.08246-.01201-.2174-.01202-.29986-2.7e-5-.08656.01258-.05238.04928.08086.08681.12694.03575.2169.09402.19991.12947-.01699.03546.04896.1527.14654.26053.11737.1297.26117.18006.42481.14877zm-.48413-16.379c.07183-.095705.08719-.24169.03919-.37252-.04943-.13475-.18215-.22739-.35519-.24794-.15195-.018042-.32701.020749-.38904.086201-.08636.091137-.05424.10204.13712.046557.19984-.057937.22576-.047067.1294.054275-.09476.099658-.07341.17628.09996.35876.19618.2065.23344.21472.33855.074661zm2.4038 2.9509c-.06767-.00539-.23549-.071875-.37292-.14774-.13744-.07587-.3286-.11341-.42481-.083418-.12038.037523-.17861-.00212-.18676-.12713-.0065-.099911-.0048-.22062.0039-.26825.0086-.047627-.05709-.19771-.14608-.33352-.08899-.13581-.13767-.27105-.10819-.30054.02949-.029485.26628.087261.52622.25944.29003.19211.5429.29074.65455.2553.11342-.035997.20464.0014.24221.099302.03315.086376.03207.2694-.0024.40671-.03446.13731-.11803.24525-.1857.23986zm-.81186-1.5895c-.028 0-.08688-.061104-.13084-.13579-.04396-.074683-.21487-.21212-.3798-.30541l-.29986-.16962.31319.050689c.19974.032326.4518-.019979.69583-.14439.21045-.10729.48399-.19508.60787-.19508.12388 0 .27338.089959.33222.19991.09325.17423.07601.19991-.13418.19991-.13264 0-.29757.067968-.36652.15104-.111.13375-.14101.13089-.26213-.024989-.13005-.16738-.14398-.16671-.2835.013617-.0807.10431-.12303.228-.09406.27488.02897.046876.02977.085229.0018.085229z" stroke-width=".099955"/>
</svg>
