<svg xmlns="http://www.w3.org/2000/svg" viewBox="0 0 24 24" fill="currentColor" width="1em" height="1em"><path d="m0 0h24v24h-24z" fill="none"/><path d="m6.291 1.2265c0.1724 0.29294 0.0746 0.67011-0.2184 0.84243-1.026 0.60355-1.9514 1.2448-2.6918 2.0422-0.23126 0.24905-0.62064 0.26347-0.86969 0.03221s-0.26347-0.62064-0.03221-0.86969c0.85961-0.92574 1.9034-1.6383 2.9697-2.2655 0.293-0.17232 0.6701-0.07453 0.8424 0.21841zm2.6343 2.3859c0.3297-0.08243 0.5302-0.41654 0.4477-0.74626-0.0824-0.32972-0.4165-0.53019-0.7462-0.44776-2.9085 0.72713-5.2109 2.839-6.3269 5.5306-0.13018 0.3139 0.0188 0.6739 0.33275 0.8041s0.67399-0.0188 0.80416-0.3327c0.97629-2.3546 2.9816-4.1812 5.4885-4.808zm1.943 2.2338c-3.0588 0-5.5384 2.4796-5.5384 5.5384 0 2.8508 2.1539 5.1986 4.9231 5.5047v1.237c-3.4502-0.3109-6.1539-3.2105-6.1539-6.7417 0-3.7385 3.0307-6.7692 6.7692-6.7692 3.7386 0 6.7693 3.0307 6.7693 6.7692 0 3.0986-2.0819 5.7109-4.9231 6.5145v4.5625c0 0.3399-0.2755 0.6154-0.6154 0.6154-0.3387 0-0.6134-0.2736-0.6154-0.6118v-8.0652c1.4045-0.2851 2.4616-1.5268 2.4616-3.0154 0-1.6993-1.3776-3.0769-3.077-3.0769-1.6993 0-3.0769 1.3776-3.0769 3.0769 0 1.4886 1.0571 2.7303 2.4616 3.0154v1.2487c-2.0876-0.2986-3.6924-2.0939-3.6924-4.2641 0-2.379 1.9287-4.3076 4.3077-4.3076 2.3791 0 4.3077 1.9286 4.3077 4.3076 0 1.7184-1.0062 3.2018-2.4615 3.8932v1.3302c2.1511-0.7604 3.6923-2.8119 3.6923-5.2234 0-3.0588-2.4797-5.5384-5.5385-5.5384zm-8.2357 8.17c0.31395-0.1301 0.67399 0.0188 0.80416 0.3328 0.97629 2.3546 2.9816 4.1812 5.4885 4.8079 0.3297 0.0824 0.5302 0.4166 0.4477 0.7463-0.0824 0.3297-0.4165 0.5302-0.7462 0.4477-2.9085-0.7271-5.2109-2.8389-6.3269-5.5305-0.13018-0.3139 0.0188-0.674 0.33275-0.8042zm16.869-5.8755c-0.1262-0.3155-0.4843-0.469-0.7999-0.3428-0.3155 0.1262-0.469 0.4843-0.3428 0.7999 0.337 0.8425 0.5098 1.8101 0.5098 2.7868 0 0.9768-0.1728 1.9443-0.5098 2.7869-0.1262 0.3155 0.0273 0.6737 0.3428 0.7999 0.3156 0.1262 0.6737-0.0273 0.7999-0.3428 0.4015-1.0036 0.5979-2.1284 0.5979-3.244 0-1.1155-0.1964-2.2403-0.5979-3.2439zm-16.12 10.456c-0.23126-0.2491-0.62064-0.2635-0.86969-0.0322-0.24905 0.2312-0.26347 0.6206-0.03221 0.8697 0.85029 0.9157 1.8912 1.6952 2.9938 2.2789 0.3004 0.1591 0.6728 0.0445 0.8318-0.2559s0.0444-0.6728-0.2559-0.8318c-0.9897-0.5239-1.9181-1.2213-2.6678-2.0287zm18.427-9.2996c0.3373-0.0421 0.6448 0.1971 0.687 0.5343 0.0663 0.5305 0.0663 1.0551 0.0663 1.5366v0.0448c0 0.4748 1e-4 1.0318-0.1415 1.5981-0.0824 0.3297-0.4165 0.5302-0.7462 0.4477-0.3298-0.0824-0.5302-0.4165-0.4478-0.7462 0.1018-0.4071 0.1047-0.824 0.1047-1.3277 0-0.4985-8e-4 -0.9526-0.0568-1.4006-0.0421-0.3372 0.1971-0.6448 0.5343-0.687zm-9.0929 2.0875c0 1.0196-0.8266 1.8462-1.8462 1.8462-1.0196 0-1.8461-0.8266-1.8461-1.8462s0.8265-1.8461 1.8461-1.8461c1.0196 0 1.8462 0.8265 1.8462 1.8461z" /></svg>
