<svg version="1.1" viewBox="0 0 24 24" xmlns="http://www.w3.org/2000/svg">
 <path d="M0,0H24V24H0Z" fill="none"/>
 <path d="m11.939 21.996c-.33048-.0032-.78114-.02452-1.0015-.0474s-.63718-.08969-.92636-.14845c-.28917-.05876-.79617-.19538-1.1267-.3036-.33048-.10822-.87926-.33121-1.2195-.49553-.34024-.16432-.83597-.44152-1.1016-.616-.26564-.17447-.65198-.4538-.85854-.62072-.20655-.16692-.60156-.53694-.87779-.82226s-.6055-.65396-.7317-.81921c-.12621-.16524-.35737-.49677-.5137-.73673-.15633-.23996-.41794-.71316-.58137-1.0515-.16342-.33839-.38557-.88565-.49367-1.2161-.10809-.33048-.24274-.82621-.29922-1.1016-.056475-.2754-.12638-.73408-.15534-1.0193-.02896-.28521-.05226-.74714-.05178-1.0265.000477-.27937.02308-.72201.05022-.98364.02715-.26163.09667-.7123.1545-1.0015.05783-.28917.19357-.79617.30165-1.1267s.33021-.87774.49364-1.2161c.16342-.33839.42504-.81158.58137-1.0515.15633-.23996.38757-.57149.51387-.73673.1263-.16524.4443-.52279.70667-.79456s.69264-.66784.95617-.88016c.26353-.21232.68257-.51188.93119-.66567.24862-.15379.63013-.36874.8478-.47767.21766-.10893.6017-.28006.85342-.38029s.71364-.24958 1.0265-.33188c.31286-.082298.8167-.18815 1.1196-.23522.36454-.056641.8556-.085973 1.4521-.086737.49573-.0006349 1.1154.028669 1.377.065121s.77057.14136 1.131.23314c.3604.091775.88993.25985 1.1767.37351s.73256.31775.99058.45356c.25802.1358.65235.36959.87628.51952.22393.14993.58742.41794.80774.59556.22032.17762.60409.53407.85281.79211.24873.25804.59388.65572.767.88375.17313.22803.42354.58996.55647.80429.13294.21434.33116.56856.44049.78717.10933.21861.28245.61016.38472.87012.10226.25996.26087.76695.35246 1.1267.09159.3597.19636.86806.23281 1.1297.03645.26163.06576.88129.06512 1.377-.000766.59652-.03009 1.0876-.08674 1.4521-.04707.30294-.15292.80679-.23522 1.1196-.0823.31286-.23164.77479-.33188 1.0265-.10023.25172-.27137.63575-.38029.85342-.10893.21766-.32388.59917-.47767.8478-.15379.24862-.45334.66766-.66567.93119-.21232.26353-.6084.69381-.88016.95618-.27176.26236-.62931.58036-.79456.70666-.16524.1263-.49677.35754-.73673.51387-.23996.15633-.71316.41794-1.0515.58136-.33839.16342-.88565.38556-1.2161.49364-.33048.10808-.83748.24382-1.1267.30165-.28917.05784-.73983.12736-1.0015.1545-.26163.02715-.74609.04675-1.0766.04356zm-2.1268-3.8989c.01452.000401.38432-.74848.82179-1.6642.43746-.91572.8129-1.7003.83432-1.7436.03066-.06194-.06407-.13626-.44624-.35006-.3166-.17712-.59906-.38467-.81297-.59735-.18122-.18018-.43238-.50506-.56166-.72652-.12862-.22032-.25242-.43194-.27511-.47026-.032556-.054989-.41279.10232-1.8043.7465-.96968.44889-1.7631.83319-1.7631.85398 0 .0208.89569.91822 1.9904 1.9943 1.0947 1.0761 2.0023 1.9568 2.0168 1.9572zm4.9493-4.6172.68262-.01389-.01522-.36726c-.0084-.20199-.06914-.57983-.13505-.83964-.06591-.25981-.21143-.65539-.32338-.87907-.11195-.22368-.30279-.54576-.42408-.71574-.12129-.16998-.41043-.48793-.64252-.70654-.23209-.21862-.57761-.48861-.76781-.59998-.1902-.11137-.48488-.26394-.65485-.33904-.16996-.075097-.48543-.18233-.70103-.2383-.2156-.055965-.58917-.11516-.83014-.13155l-.43814-.029798v1.3607l.23785.028894c.13082.01589.40354.06481.60605.1087.20251.0439.54051.16655.7511.27256.2106.10602.51876.30334.68481.4385.16605.13516.40171.37794.52369.5395.12198.16156.2956.44358.38581.6267.09021.18312.19785.47643.23919.65179.04134.17536.07549.4015.0759.50253.000401.10102.01465.21994.03166.26426.0267.06958.12411.07868.71355.06669zm2.8107.01114h.70103v-.30653c0-.16859-.03478-.54075-.07729-.82702-.0425-.28627-.14535-.75109-.22854-1.0329-.0832-.28184-.26348-.74841-.40065-1.0368-.13716-.2884-.39758-.74697-.57871-1.0191-.18113-.27208-.54356-.71789-.80541-.9907s-.6816-.65116-.93279-.8408c-.25119-.18964-.63698-.44833-.8573-.57488-.22032-.12655-.59212-.30791-.82621-.40302-.23409-.095114-.62815-.23142-.87569-.30289-.24754-.071478-.65313-.16135-.90132-.19972-.24819-.038369-.63715-.084956-.86436-.10353l-.41311-.033765v1.3981l.46318.034748c.25475.019111.65471.076493.8888.12751.23409.051021.5704.14159.74736.20126.17696.059669.48698.18691.68895.28275.20197.095843.57545.31325.82995.48314.2545.16988.668.51541.91888.76785.25088.25243.58307.64973.7382.88287.15513.23315.38218.63572.50455.8946s.26979.6397.32759.84625c.0578.20655.13799.58961.17819.85125.0402.26163.07321.57146.07338.68851l.000295.21281zm-5.9243-.06293c.30637-.01176.39163-.03613.57344-.16391.11746-.08255.25664-.22385.30929-.314.05264-.09014.11456-.24742.13758-.3495.02454-.1088.02113-.27898-.0083-.41125-.02751-.12411-.10779-.3094-.17836-.41176-.07524-.10915-.23357-.23857-.38284-.31296-.14955-.07454-.34028-.12684-.46253-.12684-.11442 0-.28462.02565-.37824.05699-.09362.03135-.24587.11321-.33834.18192-.09247.06871-.22181.24023-.28743.38115-.06562.14092-.1194.32383-.11952.40645-1e-4.08262.02343.23534.05232.33936s.12228.26859.20754.3657c.08526.0971.23613.22064.33526.27452.14081.07653.25898.09494.54012.08415z" stroke-width=".050073"/>
</svg>
