<svg version="1.1" viewBox="0 0 24 24" xmlns="http://www.w3.org/2000/svg">
 <path d="M0,0H24V24H0Z" fill="none"/>
 <path d="m8.8202 21.874c.13599-.17289.12767-.23854-.09694-.76422-.36187-.84702-.48252-1.8662-.3809-3.2177.10886-1.4476.33934-2.2607.89236-3.1479.11843-.19002.30406-.42143.4125-.51426.41425-.35457 1.0275-.45641 1.5571-.25861.82915.30961 1.6323.41938 2.4227.3311 1.1876-.13263 2.0386-.50077 2.7295-1.1807.79959-.78689.94495-1.6452.4532-2.6756-.36106-.75655-1.1158-1.3037-2.181-1.5812-.58972-.15363-1.861-.21046-2.5663-.11472-2.624.35622-4.6261 2.4179-5.2238 5.3792-.44486 2.2042-.11961 4.9367.81609 6.8562.32808.67301.6289 1.0146.8935 1.0146.12963 0 .19746-.0314.27185-.12603zm-.85749-11.627c.23381-.34772 1.0316-1.0851 1.5146-1.3999.46907-.30571.48052-.31762.68568-.71421.3641-.70383.71701-.96188 1.3641-.99739.32958-.0181.43421-.003.74134.10802.69355.25038.91151.31 1.3177.36048 1.0554.13115 2.1703-.29013 3.0441-1.1504.56507-.55627.80189-1.1585.70769-1.7999-.18617-1.2677-1.2263-2.2514-2.703-2.5562-1.728-.35667-3.5851.27791-4.9281 1.6839-1.1689 1.2239-1.8361 2.901-1.9629 4.9344-.03327.53359.01346 1.7098.06791 1.7092.01708-.00021.08487-.0803.15063-.17816z" stroke-width=".04783"/>
</svg>
