<svg xmlns="http://www.w3.org/2000/svg" viewBox="0 0 24 24"><path d="M0,0H24V24H0Z" fill="none"/><path d="M3.22,10.08A1.24,1.24,0,0,0,2,11.31V12.7a1.22,1.22,0,0,0,2.44,0h0V11.31A1.17,1.17,0,0,0,3.22,10.08Zm17.56,0a1.23,1.23,0,0,0-1.22,1.23V12.7a1.21,1.21,0,0,0,1.22,1.22A1.22,1.22,0,0,0,22,12.7h0V11.31A1.24,1.24,0,0,0,20.78,10.08ZM7.56,14.2a1.24,1.24,0,0,0-1.23,1.23v1.4a1.23,1.23,0,0,0,2.45,0h0v-1.4A1.17,1.17,0,0,0,7.56,14.2ZM7.56,6A1.24,1.24,0,0,0,6.33,7.24V11.7h0a1.23,1.23,0,0,0,2.45,0h0V7.24A1.17,1.17,0,0,0,7.56,6Zm8.88,0a1.24,1.24,0,0,0-1.22,1.23V8.63a1.23,1.23,0,0,0,2.45,0h0V7.24A1.24,1.24,0,0,0,16.44,6ZM12,2a1.23,1.23,0,0,0-1.22,1.23V4.62a1.22,1.22,0,1,0,2.44,0h0V3.23A1.23,1.23,0,0,0,12,2Zm0,16.16a1.22,1.22,0,0,0-1.22,1.22v1.4a1.22,1.22,0,1,0,2.44,0h0v-1.4A1.26,1.26,0,0,0,12,18.16Zm4.44-7a1.23,1.23,0,0,0-1.22,1.22v4.47a1.23,1.23,0,0,0,2.45,0h0V12.36A1.23,1.23,0,0,0,16.44,11.14ZM13.22,8.41a1.22,1.22,0,0,0-2.44,0h0v7.36h0a1.22,1.22,0,1,0,2.44,0h0V8.41Z"/></svg>