<svg version="1.1" viewBox="0 0 24 24" xmlns="http://www.w3.org/2000/svg">
 <path d="m9.938 20.799c-1.3577-.0078-2.8977-.0546-3.4222-.104-.52456-.0494-1.2567-.1456-1.627-.21376-.37027-.06817-.9985-.23546-1.3961-.37176-.40704-.13955-.89102-.40635-1.1078-.6107l-.38498-.36289.047687-.99739c.03331-.69665.10691-1.0878.24409-1.2971.10802-.16486.32454-.34846.48115-.40801.20131-.07653.75032-.03947 1.8736.12649.87384.12912 2.119.23548 2.767.23637.70046.001 1.3558-.05967 1.6162-.14954.24096-.08313.53672-.28408.65726-.44656.17516-.2361.20315-.39017.13941-.76744-.07085-.41936-.10663-.46323-.32065-.39313-.13249.0434-.43186.10387-.66525.13439-.23339.03052-.57624-.0074-.76188-.08432-.18564-.0769-.51096-.34242-.72291-.59004-.21196-.24763-.47013-.67214-.57371-.94336l-.18833-.49313-.76824.0757c-.42253.04164-.76903.05655-.76999.03315-.000935-.02339-.09803-.87566-.2157-1.8939-.11768-1.0183-.18-1.8854-.13851-1.9269.0415-.041535.22692-.092027.41206-.1122.33525-.036536.3369-.040263.40816-.91784.05841-.71946.1559-1.0514.53122-1.8088.34791-.70211.63723-1.0938 1.1899-1.6108.45263-.42342 1.0398-.83003 1.5446-1.0696.44787-.21255 1.0819-.44184 1.4089-.50954.32703-.0677.96019-.12308 1.407-.12308.44684 0 1.1134.07665 1.4812.17032.36781.09367.99684.33351 1.3978.53297.43544.21659 1.0065.6391 1.4177 1.049.43945.43798.81089.94551 1.0265 1.4026.1858.39392.37232.88032.41449 1.0809.06794.32313.11927.36466.45061.36466.3461 0 .37863.031327.43697.42077.03466.23142.1151.92569.17874 1.5428.06364.61712.1413 1.3114.17257 1.5428.05418.40095.04182.42077-.26238.42077-.17558 0-.34878.02954-.38488.06564-.0361.0361-.01212.22545.05329.42077.06542.19532.19362.44159.28492.54726.0913.10567.32398.24036.51708.2993.1931.05894.74024.19003 1.2159.29132.74389.15841.94386.25526 1.4306.69289.31121.2798.56584.57439.56584.65464 0 .08024-.06964.17263-.15475.20529-.08592.03297-.32297-.11566-.53297-.33418-.20802-.21646-.50445-.45858-.65873-.53804-.15428-.07946-.62878-.20416-1.0545-.27711-.42566-.07295-.96337-.22927-1.1949-.34738-.23152-.11811-.52054-.38042-.64225-.5829-.12172-.20248-.25484-.51036-.29583-.68417-.05095-.21605-.13444-.30448-.26394-.27954-.1273.02452-.2176.20159-.27536.53998-.04727.27693-.16642.70567-.26477.95277-.09835.2471-.30668.61766-.46296.82348-.15628.20582-.44239.47071-.63581.58865-.19342.11794-.51577.21462-.71633.21486-.31184.000337-.36466.04015-.36466.27468 0 .15084.11861.41215.26358.58069.22186.25794.37411.31443.96191.35695.38408.02778 1.0638-.0084 1.5105-.08051.44671-.07206 1.3096-.28036 1.9176-.46289.60796-.18253 1.2445-.33188 1.4145-.33188.17004 0 .3909.03136.4908.0697s.2555.21255.34579.38714c.10256.19833.16416.64307.16416 1.1852 0 .64941-.05869.98903-.23324 1.3496-.12828.265-.42705.63531-.66392.82292-.23688.18761-.69995.45896-1.0291.60301-.32911.14405-.95182.34413-1.3838.44463-.43199.1005-1.1894.23326-1.6831.29502-.4937.06177-1.6298.16321-2.5246.22543-.89483.06222-2.7378.10675-4.0955.09895zm.89763-.60117c1.9748-.02266 4.1207-.09564 4.7687-.16218.64798-.06655 1.5821-.2017 2.0758-.30036.4937-.09866 1.1574-.27632 1.4749-.39481.3175-.11849.78274-.36428 1.0339-.5462s.54386-.49585.65053-.69763c.13086-.24755.19502-.63117.19727-1.1795.0023-.57214-.04591-.86183-.16307-.97899-.14706-.14706-.32572-.12183-1.5373.21703-.75402.21089-1.7806.44332-2.2812.51653-.50065.0732-1.1616.10334-1.4688.06696-.30716-.03638-.72662-.17006-.93214-.29708-.22524-.1392-.44501-.40926-.55329-.67987-.0988-.24691-.17963-.56632-.17963-.70978 0-.14347-.10098-.35224-.22441-.46394-.22077-.1998-.2244-.19599-.22378.23507.000337.24099.05638.63899.12452.88444.06815.24546.308.63039.53302.85541.30645.30645.57252.44569 1.0602.55483.51848.11603.85356.11875 1.6453.01334.5468-.0728 1.4906-.26571 2.0972-.42869.60669-.16298 1.2293-.30146 1.3836-.30773.24136-.0098.28572.04341.31784.38131.02053.21599-.01796.57738-.08554.80308-.06757.2257-.29482.56134-.505.74588s-.67489.44505-1.0327.57892c-.35781.13387-1.0057.31472-1.4398.40189-.43408.08716-1.2942.21335-1.9113.28042-.61712.06706-2.6631.15052-4.5466.18547-2.323.0431-3.8028.02045-4.6004-.07042-.6467-.07367-1.504-.2085-1.9052-.29963-.40113-.09112-.94888-.27164-1.2172-.40114l-.48788-.23547.07668-.62984c.04218-.34641.11413-.66907.1599-.71702.04577-.04795.6095-.0073 1.2527.09027.64323.0976 1.6744.20508 2.2916.23885.79922.04373 1.3596.0107 1.9478-.11484.45415-.09693 1.0409-.30231 1.3038-.4564.2808-.16456.55354-.43922.66097-.66561.1006-.212.18291-.58342.18291-.82537s-.08151-.67913-.18112-.9715c-.17046-.50028-.1903-.51847-.33705-.30896-.1159.16548-.12701.29866-.04328.51889.06196.16295.11264.49746.11264.74336s-.07351.58924-.16336.763c-.08985.17375-.33525.39748-.54533.49717-.21008.09969-.65395.23958-.98636.31087-.37584.0806-1.0925.10533-1.8951.06539-.7099-.03533-1.8366-.15086-2.5038-.25675-1.1158-.17708-1.2276-.17802-1.394-.01164-.10521.10521-.21897.4972-.27191.93698-.07305.60678-.05669.8085.08284 1.0215.09563.14595.38983.35793.65378.47107.26395.11314.85398.28843 1.3112.38953.45719.1011 1.2352.2291 1.7289.28445.4937.05534 2.5134.08209 4.4882.05943zm-2.155-5.4415c.29735 0 .5168-.09549.80895-.352.2205-.1936.52516-.56402.67702-.82315.15186-.25913.37714-.86619.50063-1.349.13502-.52794.22386-1.2397.22286-1.7856-.000909-.49926-.07643-1.2249-.16783-1.6125-.09139-.38765-.26246-.89257-.38014-1.122-.11768-.22948-.33249-.52748-.47735-.66222-.14486-.13474-.40223-.29759-.57194-.36189-.21358-.080917-.40354-.081021-.61712-.0003366-.16971.064111-.45212.25221-.62759.41799-.17546.16578-.44179.54204-.59184.83612-.15005.29408-.35571.84949-.45703 1.2342-.1095.41582-.18607 1.1546-.18878 1.8216-.0036.88442.05217 1.2984.26331 1.9547.19746.61375.39023.96031.73334 1.3184.38186.39853.53876.48578.87351.48578zm.27005-1.7953c-.20439 0-.43896-.11868-.64826-.32798-.24192-.24192-.32798-.43475-.32798-.7349 0-.22381.07659-.55503.17021-.73606.09361-.18103.32392-.40863.51179-.50578.27829-.14391.41344-.15292.72938-.04866.23561.07776.45308.25423.55415.44968.091491.17694.16636.45294.16636.61335s-.07545.43756-.16767.61588c-.09221.17833-.28017.40303-.41768.49935-.13751.09631-.39414.17512-.57029.17512zm6.0325 1.5127c.18291-.03194.46957-.18935.63703-.34979.16746-.16044.40569-.52698.52939-.81453.1237-.28755.2852-.869.35888-1.2921.08093-.4647.10386-1.1016.05792-1.6085-.04182-.46158-.20129-1.2357-.35436-1.7203-.15307-.48456-.44078-1.0927-.63935-1.3514-.19857-.25872-.50021-.57356-.67031-.69963s-.47913-.22922-.68672-.22922c-.2076 0-.51484.090022-.68276.20005-.17567.1151-.45361.51695-.65454.94633-.31341.66975-.35397.87935-.39549 2.0438-.03838 1.0765-.0055 1.4462.19308 2.1699.13164.47982.33705 1.0639.45648 1.298.11942.23409.3559.59053.5255.79209.1696.20156.46234.4355.65054.51988.1882.08438.49183.12728.67473.09534zm-.41106-1.5661c-.23612.05835-.36601.01175-.58907-.21131-.22884-.22884-.28616-.39624-.28616-.83569 0-.38629.07603-.66234.25593-.92931.14076-.20888.39322-.42806.56102-.48707.19479-.0685.41665-.06811.61365.0011.21151.07431.35016.23504.44083.51104.09514.28963.09993.53005.01705.85654-.06337.24964-.24912.58123-.41278.73686-.16366.15563-.43388.31665-.60048.35782zm-8.1775-3.7616c.05676 0 .18868-.26508.29316-.58907.10449-.32399.30772-.79526.45163-1.0473.14391-.25201.4634-.64047.70998-.86324.24658-.22277.62368-.43794.83799-.47814.21431-.04021.4895-.04141.61153-.0027.18672.05926.27602-.04529.56362-.65986.2356-.50347.45722-.80069.71357-.95698.2045-.12468.50321-.22688.6638-.22712.16058-.000236.46.11319.66538.25204.21685.14661.54164.56366.77467.99473l.40127.74227.39201-.21611c.27695-.15268.53444-.20142.87726-.16604.31403.03241.63076.16633.89764.37956.22681.18121.57188.5645.76682.85174.19494.28724.37737.58656.4054.66514.02803.078588.07946.1171.11428.085587.03482-.031515-.02639-.32226-.13602-.6461-.10963-.32384-.37104-.84419-.58092-1.1563-.20988-.31214-.67227-.7879-1.0276-1.0572-.35528-.26934-.93593-.60185-1.2904-.73889-.43056-.16649-.98342-.26636-1.6661-.30095-.75576-.03831-1.1926-.0021-1.6783.1391-.36113.10498-.90704.31779-1.2131.4729-.3061.15511-.81948.5307-1.1409.83464-.32138.30394-.73662.8416-.92276 1.1948-.18615.35319-.39443.90974-.46285 1.2368-.06842.32703-.1244.74359-.1244.92569 0 .1821.04643.33109.10319.33109zm6.1369-2.1557c.08497-.15877.09722-.33954.03423-.50521-.05394-.14189-.1807-.42173-.28169-.62188-.10098-.20015-.31352-.50276-.4723-.67246-.18471-.19742-.4043-.30856-.60967-.30856-.2006 0-.42123.10817-.58828.28842-.14702.15863-.34219.50822-.43373.77685-.15338.45014-.15077.50259.0333.66917.18765.16982.20393.15441.2694-.25505.03833-.23969.17495-.56962.30361-.73318.12866-.16356.33092-.29739.44948-.29739.12246 0 .35584.19365.54036.44838.17864.24661.39189.67558.47388.95326.14078.47679.15644.49113.28139.25766z" stroke-width=".1122"/>
</svg>
