<svg version="1.1" viewBox="0 0 24 24" xmlns="http://www.w3.org/2000/svg">
 <path d="m14.209 20.92 2.4002.01151.23054-.12022.23054-.12022.24717-.34731.05077-.22544.05077-.22544-.29604-2.541-.11564-.9274-.11564-.9274.0585-.19124.05136-.2321.05136-.2321 1.2988-1.3458.56012-.78694.62389-1.2591.20633-.5902.20633-.5902.09676-.35412.09676-.35412-.04454-.62955-.15055-.56908c-.13704-.37374-.10807-.2971-.31078-.76871l-.44953-.70824c-.05496-.031703-.06231-.052455-.09345-.078683l-.0025-.098367-.0025-.098368-.02374-.11804-.2517-.2084.08879.043905.08879.043906.08984-.44915.28345-.092447.94432-.52595.86563-.5454.82017-.39119.003-.053526.003-.053527-.51149.16206-1.3378.38081-.96834.23296-.9203.52256-.17348.10959-.17348.10959-.02512-.036367-.02512-.036368.0278-.56565.02781-.56565c-.10989-.8465-.022982-.36444-.39892-1.1115l-.28991-.19673-.2899-.19673-.80432.0005823-.53564.32655-.28344.34176-.088409.41571-.08841.41571-.17282-.25645-.17282-.25645-.53104-.35786h-.81908l-.53104.35787-.17893.26552-.17893.26552v.92105l-.11804-.0009443-.13311-.23394-.13311-.23394-.52072-.32674-.87278.055739-.42338.30706-.31706.63989-.0013.34895-.0013.34895-.15922-.24845-.15917-.24845-.63431-.2538-.58949.15873-.33339.35589-.16787.44306v2.4343l.2158.50645.41677.38439h.76873l.27974-.21337.27974-.21337.052723-.2936.05272-.2936.13242-.23608.0048.19575.65316.47315h.94142l.66376-.6689.11244-.70824.22565.31477.1736.18509.1736.18508.38686.14708.56484.01924.35103.22716.88181.27284-.99676.35359-3.1395 1.2444-.06105-.09748-.06105-.09749.23386-.05126-.10644-.17222.25703.09862.43768-.2283.31478-.0034-.11804-.08492-.11804-.08492.27099.0869.51594-.17304.23608-.20154.47216-.1032.34875-.16886-.08336-.13486-.23729.23729h-.22484v-.16668l.13954.08624.09137-.1101.09137-.1101-.4831-.1061-.62403.10542-.5923.40286-.51471.14278-.47691-.12216-.47692-.12218h-.05641l-.71952.62274-.55795.10468-.58141-.09248-.29804-.31754-.29803-.31755-1.0565.33619-.15739.11798-.5097.10898-.083396.13494 1.5374.93598.98367.60651v.12926l-.37379.15941-.37379.15941-.47216.20972-1.4165.57213-.31477.1494-1.7313.71692-1.4165.5645-.09629.14868-.061098-.03654-.36598.11616.065318.06532 2.8976-.71576 1.2591-.30587 1.6526-.4047 1.023-.2411.86563-.20752 1.4165-.32269 1.3795-.40024h.3124v-.16292l.3537.1893-.62913.19526-1.8886.43341-1.4726.35856-.085736.08574.28145.42389.28145.42389.68071.54736.25335.14545.25335.14545-.06546.32303-.12737 1.1411-.12737 1.1411-.22584 1.8367v.57125l.11285.21823.11285.21823.13515.11231.13515.11231.95983.09404 2.4002.01151z" stroke-width=".078694"/>
 <path d="M0,0H24V24H0Z" fill="none"/>
</svg>
