<svg xmlns="http://www.w3.org/2000/svg" viewBox="0 0 24 24">
    <path d="M0 0h24v24H0Z" fill="none" />
    <path d="M9.94 20.23c-1.36 0-2.9-.06-3.42-.11s-1.26-.12-1.63-.21a11.65 11.65 0 0 1-1.4-.37 3.84 3.84 0 0 1-1.11-.61L2 18.57v-1a2.79 2.79 0 0 1 .24-1.3 1.32 1.32 0 0 1 .48-.41 5.84 5.84 0 0 1 1.93.14 25.59 25.59 0 0 0 2.76.24A6.54 6.54 0 0 0 9 16.08a1.71 1.71 0 0 0 .66-.45.85.85 0 0 0 .14-.77c-.07-.42-.11-.46-.32-.39a5.71 5.71 0 0 1-.67.13 1.72 1.72 0 0 1-.76-.08 2.43 2.43 0 0 1-.72-.59 3.92 3.92 0 0 1-.55-.93l-.19-.5-.76.08a3.78 3.78 0 0 1-.77 0s-.1-.87-.22-1.89a12 12 0 0 1-.14-1.91 1 1 0 0 1 .41-.11c.34 0 .34 0 .41-.92a4.19 4.19 0 0 1 .53-1.81 5 5 0 0 1 1.19-1.61 6.73 6.73 0 0 1 1.55-1.07 7.92 7.92 0 0 1 1.41-.51 8.21 8.21 0 0 1 1.4-.12 7.43 7.43 0 0 1 1.48.17 8.11 8.11 0 0 1 1.4.53 6.12 6.12 0 0 1 1.42 1 5.52 5.52 0 0 1 1 1.4 7.26 7.26 0 0 1 .41 1.08c.07.33.12.37.45.37s.38 0 .44.42c0 .23.11.93.18 1.54l.17 1.55c.05.4 0 .42-.26.42a1 1 0 0 0-.39.06.72.72 0 0 0 .06.42 1.88 1.88 0 0 0 .28.55 1.23 1.23 0 0 0 .52.3c.19.06.74.19 1.21.29a2.39 2.39 0 0 1 1.43.69 2.08 2.08 0 0 1 .57.66.24.24 0 0 1-.15.2c-.09 0-.33-.11-.54-.33a3.14 3.14 0 0 0-.66-.54 5.49 5.49 0 0 0-1-.28 5.7 5.7 0 0 1-1.2-.34 1.82 1.82 0 0 1-.64-.59 3 3 0 0 1-.29-.68c0-.22-.14-.3-.27-.28s-.22.2-.27.54a5.52 5.52 0 0 1-.27.95 4.19 4.19 0 0 1-.46.83 2.67 2.67 0 0 1-.64.58 1.59 1.59 0 0 1-.71.22c-.32 0-.37 0-.37.27a1.08 1.08 0 0 0 .27.59c.22.25.37.31 1 .35a7.93 7.93 0 0 0 1.51-.08 19.2 19.2 0 0 0 1.92-.46 8.55 8.55 0 0 1 1.41-.33 1.64 1.64 0 0 1 .49.07.87.87 0 0 1 .35.38 3.22 3.22 0 0 1 .16 1.19 2.88 2.88 0 0 1-.23 1.35 2.91 2.91 0 0 1-.67.82 5.07 5.07 0 0 1-1 .6 8.6 8.6 0 0 1-1.38.45c-.43.1-1.19.23-1.68.29s-1.63.17-2.53.23-2.73.11-4.09.1Zm-1.26-6a1.12 1.12 0 0 0 .81-.36 4.18 4.18 0 0 0 .68-.82 7.2 7.2 0 0 0 .5-1.35 8.26 8.26 0 0 0 .22-1.78 8.76 8.76 0 0 0-.17-1.62 6.06 6.06 0 0 0-.38-1.12 2.68 2.68 0 0 0-.48-.66 1.83 1.83 0 0 0-.57-.36.81.81 0 0 0-.61 0 2.26 2.26 0 0 0-.63.41 3.76 3.76 0 0 0-.59.84A7.46 7.46 0 0 0 7 8.61a8.13 8.13 0 0 0-.19 1.82 5.42 5.42 0 0 0 .26 2 3 3 0 0 0 .74 1.32c.38.4.54.49.87.49ZM9 12.39a1 1 0 0 1-.65-.33.92.92 0 0 1-.35-.73 2 2 0 0 1 .17-.74 1.39 1.39 0 0 1 .52-.5.73.73 0 0 1 .7-.09 1 1 0 0 1 .55.45 1.6 1.6 0 0 1 .17.61 1.7 1.7 0 0 1-.17.62 1.72 1.72 0 0 1-.42.5 1.23 1.23 0 0 1-.52.21Zm6 1.51a1.45 1.45 0 0 0 .64-.35 2.77 2.77 0 0 0 .53-.81 8.12 8.12 0 0 0 .36-1.29 7.17 7.17 0 0 0 .06-1.61 10 10 0 0 0-.36-1.72 5.16 5.16 0 0 0-.64-1.35 4.14 4.14 0 0 0-.67-.7 1.32 1.32 0 0 0-.68-.23 1.49 1.49 0 0 0-.69.2 2.71 2.71 0 0 0-.65.94 3.9 3.9 0 0 0-.4 2 5.84 5.84 0 0 0 .2 2.17 9 9 0 0 0 .45 1.3 5.19 5.19 0 0 0 .53.79 2.36 2.36 0 0 0 .65.52 1.43 1.43 0 0 0 .67.09Zm-.41-1.56c-.23.06-.36 0-.59-.21a1 1 0 0 1-.28-.84 1.54 1.54 0 0 1 .25-.93 1.48 1.48 0 0 1 .56-.49 1.09 1.09 0 0 1 .62 0 .74.74 0 0 1 .44.52 1.44 1.44 0 0 1 0 .85 1.86 1.86 0 0 1-.42.74 1.66 1.66 0 0 1-.6.36Zm-8.2-3.76c.06 0 .19-.27.3-.59a6.37 6.37 0 0 1 .45-1 4 4 0 0 1 .71-.86 2.09 2.09 0 0 1 .84-.48 1.8 1.8 0 0 1 .61 0c.19.06.27 0 .56-.66a2.07 2.07 0 0 1 .72-.99 1.5 1.5 0 0 1 .66-.23 1.51 1.51 0 0 1 .67.25 3.39 3.39 0 0 1 .77 1l.4.74.39-.22a1.39 1.39 0 0 1 .88-.16 1.7 1.7 0 0 1 .9.38 4.54 4.54 0 0 1 .76.85 6.61 6.61 0 0 1 .41.66c0 .08.08.12.11.09a1.46 1.46 0 0 0-.13-.65 5.91 5.91 0 0 0-.58-1.15 5.39 5.39 0 0 0-1-1.06 6.85 6.85 0 0 0-1.29-.74 5.2 5.2 0 0 0-1.67-.3 4.62 4.62 0 0 0-1.67.14 8.36 8.36 0 0 0-1.22.47 6.14 6.14 0 0 0-1.14.84 5.36 5.36 0 0 0-.92 1.19 5.09 5.09 0 0 0-.46 1.24 5.87 5.87 0 0 0-.13.92c0 .19 0 .34.1.34Z" />
</svg>