<svg version="1.1" viewBox="0 0 24 24" xmlns="http://www.w3.org/2000/svg">
 <path d="M0,0H24V24H0Z" fill="none"/>
 <path d="m13.855 22c-.04384-.0012-.16738-.03356-.27453-.0718-.10715-.03824-.22375-.09248-.25911-.12055-.03535-.02807-.31359-.06314-.61829-.07793-.39265-.01906-.61053-.05498-.74808-.12332-.10674-.05303-.26256-.18237-.34626-.2874-.0837-.10504-.17207-.29159-.19639-.41457-.02431-.12298-.04383-.64336-.04336-1.1564.000466-.51303-.000104-.96194-.0012-.99757-.0012-.03786-.07209-.06524-.17053-.0659-.09263-.000616-.37335-.04643-.62382-.10181-.25047-.05538-.67022-.18582-.93279-.28986-.2626-.10404-.55905-.23651-.6588-.29438-.099805-.057863-.34453-.21259-.54389-.34383-.19936-.13124-.56081-.43712-.80324-.67974-.24242-.24262-.5572-.61573-.69949-.82915-.1423-.21341-.35554-.58624-.47387-.82851-.11833-.24227-.26496-.60265-.32585-.80084-.060884-.1982-.14497-.55688-.18686-.79707-.053588-.30728-.076157-.82836-.076157-1.7582v-1.3214l1.4121.02716c1.22.02347 1.4685.04218 1.8267.13752.22802.06069.55863.17777.73471.26016.17607.08239.46757.24956.64777.37148.1802.12193.4566.35131.61423.50974.15763.15843.39225.4513.52138.65081s.28495.4714.34627.6042c.06132.1328.16158.42429.2228.64777.08617.31455.11738.60947.13816 1.3058l.02686.89948.21057-.03367c.11582-.01852.3686-.10006.56173-.18121.19314-.08115.50379-.25646.69035-.38958.18656-.13313.45628-.38273.59937-.55468.1431-.17195.33917-.46949.43571-.6612.09654-.19171.21583-.48687.26507-.6559.07407-.25424.09342-.59603.11204-1.9786l.0225-1.6712h-.93483c-.91169 0-.93955.00321-1.1257.12955-.1289.08748-.26181.12955-.40921.12955-.14069 0-.2809-.04182-.39439-.11763-.09685-.0647-.21816-.19879-.2696-.29797-.06268-.12089-.08617-.25271-.07123-.39984.01226-.12072.06214-.28031.11084-.35464.0487-.074332.19391-.18175.32269-.23872.15923-.070434.28879-.093313.40499-.071515.09397.017629.25666.090278.36152.16144.18738.12716.20601.12915 1.0805.11523l.88984-.014162.0153-.34862.0153-.34862-1.8962-.028268v-.93279l1.9055-.028303-.02931-.76317c-.01768-.46025-.0633-.88659-.11496-1.0741-.04711-.17101-.15221-.45085-.23357-.62186-.08136-.17101-.28862-.47787-.4606-.6819-.1891-.22434-.46762-.4746-.70466-.63314-.24236-.1621-.55446-.31369-.81766-.39715-.25136-.079699-.60608-.14616-.86617-.16228-.30077-.018647-.56318-.00117-.82732.055103-.21276.045326-.55928.1643-.77005.26439s-.47815.25718-.59418.34908c-.11604.091903-.31969.28048-.45257.41905-.13288.13858-.31687.37616-.40888.52797-.092.15181-.22909.44706-.30464.65611-.12285.33994-.13935.46905-.15626 1.2222l-.0189.8421h.94203c.85938 0 .95344-.00897 1.0721-.10228.07151-.056254.20776-.11686.30277-.13469.09501-.017823.25203-.00624.34895.025747.09691.031984.24167.12648.32168.21.10697.11166.15194.21913.16991.40608.01657.17249-.0031.31217-.06107.43442-.05086.10717-.17078.22811-.29596.29846-.16002.089936-.26082.11152-.42065.090084-.11562-.015507-.27564-.076573-.35562-.1357-.13451-.099449-.21549-.10751-1.0803-.10751h-.93489v.7255h1.8656v.93279h-1.8596l-.03188.44048h-.93278v-2.332c0-2.256.0038-2.3463.11691-2.7706.0643-.24125.18556-.58533.26946-.76461.0839-.17928.24041-.45835.3478-.62015s.35547-.4528.55128-.64668c.1958-.19387.52592-.4584.73359-.58783.20767-.12944.52471-.29299.70452-.36346.17981-.070468.49659-.16317.70395-.206.20736-.042831.61702-.07747.91037-.076975.29335.0004949.6966.034997.89611.07667.19951.041674.51433.13813.69959.21435s.52539.26218.75585.41326c.23045.15107.57359.43854.76253.63883.18894.20028.44997.54532.58007.76675.1301.22143.31099.62413.40197.8949l.16543.49231.01667 3.8081c.01467 3.3517.0066 3.8579-.06742 4.2235-.04624.22844-.1487.58187-.22768.7854-.07898.20353-.25675.54166-.39504.75141-.13829.20975-.40412.53377-.59073.72005-.18661.18628-.47855.42998-.64876.54156-.1702.11158-.48469.27905-.69886.37215-.21417.0931-.57046.2084-.79175.25621l-.40236.08693v3.7162h.44258c.36907 0 .46716-.01817.59056-.1094.08139-.06017.24951-.11974.37361-.13238.15417-.0157.28192.0066.40333.07053.09773.05143.22272.15498.27776.2301.05504.07512.11044.23836.12311.36275.0157.15409-.0068.28396-.07048.40754-.05986.1161-.17673.22334-.32474.29797-.12717.06413-.26709.11558-.31093.11432zm-2.5801-4.2512c.07801.0036.09069-.04589.09069-.35343v-.35755l-.3918-.08717c-.21549-.04794-.55548-.15466-.75554-.23716-.20006-.0825-.51929-.25403-.70941-.38118-.19012-.12715-.51377-.40172-.71922-.61014-.20545-.20842-.48963-.57259-.63151-.80926-.14189-.23667-.30945-.58647-.37236-.77732-.065635-.1991-.18728-.42853-.28539-.53825-.094049-.10518-.18586-.27048-.20403-.36733-.02109-.11243-.0033-.24729.04925-.37303.04526-.10832.13116-.23933.19089-.29113.05973-.0518.18935-.12084.28804-.15341.09869-.03257.25717-.04463.35217-.02682.09501.01783.23623.08235.31383.14339.0776.06104.17324.18794.21254.28199.0393.09406.07146.24093.07146.32638 0 .08545-.03707.2331-.08237.32811-.0783.16419-.07598.18847.04683.49072.07107.17489.21412.44591.3179.60227s.35116.43754.54972.62485c.20543.1938.51155.41637.7103.51646.1921.09674.4759.2135.63066.25946.15476.04596.31213.08356.34971.08356.05357 0 .06833-.17106.06833-.79235 0-.53571-.02535-.89238-.07825-1.1012-.043046-.16987-.16976-.49541-.2816-.72343-.1493-.3044-.30038-.51098-.56846-.77732-.20082-.19951-.51099-.45095-.68927-.55876-.17828-.1078-.47609-.24548-.66178-.30595-.27998-.091168-.50354-.11396-1.3093-.13347l-.97166-.02353v.64176c0 .35297.02428.83536.05394 1.072.02967.23662.11401.62078.18742.8537.07341.23292.21287.58446.30992.78121.09704.19675.27836.49991.40293.67368.12457.17378.37476.45988.55597.63577.18122.1759.40599.38262.4995.45939.09351.07676.34729.2406.56396.36407.21667.12347.55991.28465.76277.35818.20286.07353.52041.16619.70567.20592.18526.03972.37765.07408.42753.07636zm2.0642.78144c-.10066 0-.10784-.02868-.1071-.42753.000414-.23514.01793-.45215.03886-.48224.02094-.03009.21632-.119.43418-.19758.21786-.07858.59097-.26163.82915-.40678.27304-.1664.60614-.43806.90151-.73521.25765-.25921.57905-.64936.71422-.86699.13517-.21763.32871-.60142.4301-.85287s.21829-.6214.25978-.82211.08918-.81016.10597-1.3543c.0305-.98799.03036-.98971-.09986-1.2178-.07172-.12563-.1443-.28869-.16128-.36236-.01698-.07367-.0085-.21183.01876-.30703.0273-.0952.11312-.23934.1907-.32032.07758-.08098.23311-.17202.34561-.20231.16413-.044197.24896-.038117.42934.030773.12865.04913.27495.15616.34205.25024.08545.11979.11725.23701.11725.43211 0 .19636-.03108.30976-.1166.42543-.1109.15-.11661.20405-.11681 1.1056-.000155.60432-.02911 1.1263-.07995 1.4401-.04386.27077-.15154.70218-.23931.9587-.08776.25652-.2297.60631-.31542.77732-.08572.17101-.29377.51274-.46233.75939-.16856.24665-.49935.63362-.73508.85994-.23573.22631-.602.52846-.81394.67143-.21194.14298-.52525.33013-.69626.4159-.17101.08577-.48974.21728-.7083.29225-.21856.07496-.44592.1363-.50526.1363zm.25486-6.7886h-.82915v-.93279h1.6583v.93279z" stroke-width=".051822"/>
</svg>
