<svg version="1.1" viewBox="0 0 24 24" xmlns="http://www.w3.org/2000/svg">
 <path d="M0,0H24V24H0Z" fill="none"/>
 <path d="m3.8131 13.281c.22911-.1199.36534-.2639.45684-.48289.0567-.1356.071-.37015.071-1.1584v-.98837h-1.1476l-7e-4.92952c-.00037.51126-.0202.96032-.044.99801-.0508.0803-.12145.02511-.14648-.11437-.0151-.08409-.0579-.0929-.50938-.10483l-.4929-.01303.001.19664c.001.248.13898.55611.29393.65764.24824.16266.4524.20604.89853.19094.33271-.01126.47959-.03753.61969-.11084zm11.443-.34601.0133-.40165h-.97694l.0334-.91341c.04-1.0963.084-1.0279-.64607-1.006l-.4795.01442-2e-5 2.7329 2.0427-.02471zm-8.6774.19761c.324-.18475.36479-.32882.39424-1.3925l.0251-.90799-1.0735.02582-.0126.82505c-.007.45378-.0319.84433-.0554.86792-.0265.02654-.0698.02049-.11366-.0159-.0588-.04882-.0708-.19364-.0708-.85645v-.79769h-1.0098v.88789c0 .83832.006.89904.1057 1.0877.0725.13716.16976.23414.30984.30904.1884.10074.24661.10797.75496.09373.48197-.0135.5752-.02933.74591-.12666zm3.8295.03177c.0428-.06735.0498-1.8602.008-2.1114l-.0284-.17213h-1.3011l-.10511.436c-.0578.2398-.12081.4457-.13999.45756-.0192.01186-.0705-.18137-.11409-.42938l-.0792-.45094-.41657-.02957c-.22911-.01626-.53733-.02957-.68495-.02957h-.26837v2.3869h.87215l.005-.60821.005-.60821.0648.27542c.0357.15148.0976.42594.13761.6099l.0728.33451.78525-.02638.10904-.43397c.06-.23868.11859-.44352.13027-.4552.0117-.01168.0215.15262.0219.36512.001.6312-.0156.61096.47426.57621.25211-.0179.42921-.05192.4513-.0867zm6.005-1.0916v-1.195l-1.0328.02596-.0245 2.364h1.0573zm4.0853.7981.023-.37393.41312.72471.54427 9.1e-5c.47017 9.2e-5.54059-.0095.51727-.07028-.0148-.0387-.17198-.31622-.34918-.6167-.1772-.30049-.32218-.55478-.32218-.5651 0-.01033.13416-.24404.29813-.51938s.29823-.51608.29837-.53504c.00013-.01894-.23317-.03443-.51847-.03443h-.5187l-.36264.74564-.0459-.76859-.9869-.02606v1.1874c0 .65305.0145 1.2018.0321 1.2195.0177.01766.23971.02627.49345.01913l.46136-.01298zm-8.7214-.01122v-.3622l.33279-.01822c.40725-.0223.56424-.09549.73903-.34451.23166-.33009.16836-.82675-.13587-1.0661-.19948-.1569-.43246-.19079-1.2205-.17749l-.74821.01262-.0134 1.0099c-.007.55542-.001 1.077.0136 1.159l.0269.14918h1.0057zm-.0918-1.1706c0-.25136.003-.25744.12852-.25744.16151 0 .2387.07537.2387.23307 0 .1408-.0621.20523-.24125.25019l-.12597.03162zm5.9214 1.2867c0-.13533.0135-.34436.0299-.46453l.0299-.21846.33908.90607 1.1633.02571-.0123-1.1604-.0123-1.1604-.39585-.01318c-.46935-.01563-.45023-.04218-.45549.63286l-.003.43607-.38062-1.0787h-1.1607l-.0326 1.1245c-.0179.61849-.0198 1.1452-.004 1.1705.0157.02545.22191.04598.46178.04598h.43337v-.24606z" stroke-width=".045902"/>
</svg>
