<svg version="1.1" viewBox="0 0 24 24" xmlns="http://www.w3.org/2000/svg">
 <path d="m2.748 2.6641c-.1754.72267-.27734 1.4736-.27734 2.25 0 4.2074 2.7314 7.7781 6.5156 9.041l-.50195 1.5059c-2.8543-.95072-5.1867-3.0301-6.4844-5.7051v1.0684c1.414 2.3849 3.6508 4.225 6.3242 5.1172l-1.7988 5.3945h1.0586l1.707-5.1172c.65791.1574 1.3373.25871 2.0332.29883l4.8184 4.8184h1.334l-.03711-.11328-.41992-1.2637-1.3379-4.0176c2.6693-.89133 4.9044-2.7272 6.3184-5.1074v-1.0703c-1.2981 2.6711-3.6276 4.7471-6.4785 5.6973l-.50195-1.5059c3.7833-1.2635 6.5137-4.8343 6.5137-9.041 0-.7764-.10194-1.5273-.27734-2.25h-.42969c.18318.72089.29102 1.4719.29102 2.25 0 4.0278-2.6098 7.4399-6.2305 8.6465l-.45508-1.3672c3.0462-1.0176 5.2441-3.8918 5.2441-7.2793 0-.78318-.11968-1.5381-.33789-2.25h-.34961c.22803.70924.35352 1.4646.35352 2.25 0 3.2439-2.1013 5.9918-5.0176 6.9629l-.53125-1.5957c2.2455-.75008 3.8652-2.8702 3.8652-5.3672 0-.80003-.16894-1.5601-.46875-2.25h-.27148c.31395.68552.49414 1.4462.49414 2.25 0 2.3907-1.5483 4.4167-3.6973 5.1328l-.53125-1.5937c1.4807-.495 2.5488-1.8923 2.5488-3.5391 0-.84607-.28486-1.6241-.75977-2.25h-.20312c.49982.61402.80078 1.3959.80078 2.25 0 1.5761-1.0212 2.9118-2.4375 3.3848l-.57617-1.7285a1.75 1.75 0 001.1953-1.6562 1.75 1.75 0 00-1.75-1.75 1.75 1.75 0 00-1.75 1.75 1.75 1.75 0 001.1992 1.6582l-.57617 1.7266c-1.4182-.47189-2.4414-1.8074-2.4414-3.3848 0-.85407.30096-1.636.80078-2.25h-.20312c-.47529.62594-.76172 1.4039-.76172 2.25 0 1.6476 1.0703 3.0467 2.5527 3.541l-.53125 1.5918c-2.1498-.71562-3.6992-2.7415-3.6992-5.1328 0-.80376.18019-1.5645.49414-2.25h-.27344c-.3.68995-.46875 1.45-.46875 2.25 0 2.4977 1.6222 4.6176 3.8691 5.3672l-.5332 1.5957c-2.9163-.97108-5.0176-3.7189-5.0176-6.9629 0-.78536.12549-1.5408.35352-2.25h-.35156c-.21832.71185-.33789 1.4668-.33789 2.25 0 3.3883 2.2001 6.2644 5.248 7.2813l-.45508 1.3652c-3.6216-1.206-6.2324-4.618-6.2324-8.6465 0-.77814.10783-1.5291.29102-2.25zm9.2559 5.4141.13281.40234c-.04481.00167-.08954.00195-.13477.00195-.04457 0-.08864-.0003358-.13281-.00195zm-.1875.56445c.06165.00303.12315.00391.18555.00391.06371 0 .12652-.0007439.18945-.00391l.54297 1.6309c-.23975.03243-.48373.05078-.73242.05078-.24803 0-.49133-.01852-.73047-.05078zm-.625 1.8711c.26484.03807.53524.05859.81055.05859.27597 0 .54709-.02035.8125-.05859l.10547.31445-1.8359 1.3672c-.14434-.018-.28809-.04016-.42969-.06641zm2.0625 1.3145.09961.30078c-.20511.03813-.41426.06914-.625.08984zm-2.707.62109c.05178.0099.10411.02039.15625.0293l-.2207.16406zm2.9141 0 .45898 1.377c-.61841.13229-1.2599.20312-1.918.20312-.52281 0-1.0345-.04646-1.5332-.13086l1.7676-1.3145c.41723-.01257.82666-.05807 1.2246-.13477zm.5918 1.7715.50391 1.5117c-.74533.17515-1.5195.27608-2.3145.29297l-1.6895-1.6895c.47254.07216.9566.10938 1.4492.10938.70444 0 1.3898-.07941 2.0508-.22461zm-4.3281.69726 1.0449 1.0449c-.44734-.049308-.8867-.12779-1.3164-.22852zm4.9941 1.2988 1.1406 3.4258-3.1289-3.1289c.68024-.04218 1.3446-.14251 1.9883-.29688z" stroke-width="1.8897" style="font-feature-settings:normal;font-variant-alternates:normal;font-variant-caps:normal;font-variant-east-asian:normal;font-variant-ligatures:normal;font-variant-numeric:normal;font-variant-position:normal;font-variation-settings:normal;inline-size:0;isolation:auto;mix-blend-mode:normal;shape-margin:0;shape-padding:0;text-decoration-color:#000000;text-decoration-line:none;text-decoration-style:solid;text-indent:0;text-orientation:mixed;text-transform:none;white-space:normal"/>
</svg>
