<svg xmlns="http://www.w3.org/2000/svg" viewBox="0 0 24 24">
    <path d="M0,0H24V24H0Z" fill="none" />
    <path d="M22.48,21.2a3.61,3.61,0,0,0-.34-.84,7.94,7.94,0,0,0-.84-1.29A13.12,13.12,0,0,0,19,16.81a9.68,9.68,0,0,0-1.46-1l0,0a8.34,8.34,0,0,0,.4-9.31,8.65,8.65,0,0,0-.67-.92A8.32,8.32,0,1,0,4.44,16.21a8.13,8.13,0,0,0,5.32,2.92,8.24,8.24,0,0,0,6.11-1.61.05.05,0,0,0,0,0,9.88,9.88,0,0,0,.91,1.31,13.73,13.73,0,0,0,2,2,10.41,10.41,0,0,0,1.42,1,5.15,5.15,0,0,0,1,.44,1.79,1.79,0,0,0,.69.08.71.71,0,0,0,.37-.12.64.64,0,0,0,.26-.5A1.67,1.67,0,0,0,22.48,21.2ZM10.84,17.46a6.58,6.58,0,0,1,0-13.16h0a6.58,6.58,0,0,1,0,13.16ZM7.62,6.31a7.29,7.29,0,0,1,3,.62,7.77,7.77,0,0,1,4.7,7.17H14.12V14a6.54,6.54,0,0,0-2.86-5.36,6.12,6.12,0,0,0-2.08-.94,5.36,5.36,0,0,0-.89-.16l-.57,0h-.1Zm5.57,8H12a4.39,4.39,0,0,0-1.36-3.18,4.49,4.49,0,0,0-3.2-1.31V8.59a5.8,5.8,0,0,1,5,2.86A5.5,5.5,0,0,1,13.19,14.3ZM7.42,11.71V10.59a3.67,3.67,0,0,1,3.23,1.94,3.42,3.42,0,0,1,.4,1.66H9.94a2.43,2.43,0,0,0-.75-1.76A2.45,2.45,0,0,0,7.42,11.71Zm1.69,2A1.06,1.06,0,1,1,8,12.68a1,1,0,0,1,1.07,1.05Z" />
</svg>