<svg xmlns="http://www.w3.org/2000/svg" viewBox="0 0 24 24">
    <path d="M0,0H24V24H0Z" fill="none" />
    <path d="M12,22a10,10,0,1,1,.08,0Zm0-3.94.72-.73L12,14.44l-.72,2.89ZM11.06,18l-.39,1.44.89-.88Zm1.88,0-.5.5.89.89Zm.72,2.56L12,18.89l-1.67,1.67a8.51,8.51,0,0,0,1.67.16,5.92,5.92,0,0,0,1.67-.16ZM12,3.22A8.8,8.8,0,0,0,3.22,12a8.65,8.65,0,0,0,5.89,8.22L11,13.28A1.53,1.53,0,0,1,10.33,12,1.67,1.67,0,0,1,12,10.28a1.64,1.64,0,0,1,1.67,1.61v0A1.76,1.76,0,0,1,13,13.28l1.89,6.94A8.71,8.71,0,0,0,20.78,12,8.8,8.8,0,0,0,12,3.22Zm5.72,13.11a.61.61,0,0,1-.89.11.57.57,0,0,1-.11-.83,6.43,6.43,0,0,0,0-7.22.57.57,0,0,1,.11-.83.66.66,0,0,1,.89.11A7,7,0,0,1,19.11,12,7.28,7.28,0,0,1,17.72,16.33Zm-3.06-1.61a.68.68,0,0,1,.06-.94A2.79,2.79,0,0,0,15.33,12a3.2,3.2,0,0,0-.61-1.78.67.67,0,0,1-.05-.94.61.61,0,0,1,.87-.06h0a4.19,4.19,0,0,1,0,5.55.69.69,0,0,1-.89-.06Zm-5.33,0a.63.63,0,0,1-.88.07h0A4.07,4.07,0,0,1,7.38,12,4.19,4.19,0,0,1,8.44,9.22a.62.62,0,0,1,.89.06.68.68,0,0,1-.06.94,2.89,2.89,0,0,0,0,3.55.68.68,0,0,1,.06,1ZM7.16,16.44a.67.67,0,0,1-.89-.11A7,7,0,0,1,4.89,12,7.15,7.15,0,0,1,6.27,7.67a.62.62,0,0,1,.89-.12.55.55,0,0,1,.11.83,6.43,6.43,0,0,0,0,7.22.56.56,0,0,1,0,.79l-.06.05Z" fill-rule="evenodd" />
</svg>