<svg version="1.1" viewBox="0 0 24 24" xmlns="http://www.w3.org/2000/svg">
 <path d="M0,0H24V24H0Z" fill="none"/>
 <path d="m12.241 21.995c-.34999.0073-.74544.0062-.87877-.0025-.13333-.0086-.41969-.04489-.63635-.08056-.21666-.03565-.49757-.07752-.62424-.093-.12667-.01548-.29712-.05355-.37878-.0846-.08166-.03105-.14848-.04416-.14848-.02914s-.075-.0025-.16666-.03895c-.09167-.03644-.24848-.088-.34848-.11458-.1-.02658-.36069-.11548-.57931-.19754-.21862-.08206-.5868-.23909-.81817-.34894-.23137-.10985-.6056-.31774-.83164-.46196-.22604-.14423-.4282-.26223-.44924-.26223-.02105 0-.24519-.16802-.4981-.37337-.25291-.20535-.64595-.55307-.87342-.77271-.22748-.21964-.55409-.57661-.72581-.79327s-.3274-.40757-.34596-.42423c-.01856-.01666-.1985-.28939-.39986-.60605-.20136-.31666-.40964-.6712-.46283-.78786-.05319-.11666-.1928-.42348-.31025-.6818-.11744-.25833-.20075-.46969-.18512-.46969.01563 0-.0139-.08182-.06561-.18182-.05171-.1-.07991-.18182-.06265-.18182.01725 0-.0063-.10227-.05233-.22727-.04604-.125-.11419-.37727-.15146-.5606-.03726-.18333-.10454-.5412-.14949-.79528-.05267-.29773-.07655-.83635-.06716-1.5151.0091-.65974.05205-1.2558.11492-1.5957.05519-.2984.16946-.7828.25394-1.0764.08448-.29365.2225-.70403.30672-.91197.08422-.20794.2738-.61927.42131-.91406.14752-.2948.37521-.69357.506-.88617s.39826-.55139.59438-.79732c.19612-.24593.56081-.64679.81041-.89079s.72201-.64459 1.0498-.89018c.32778-.24559.91216-.6095 1.2986-.80868.38646-.19918.97789-.45753 1.3143-.57411s.8752-.26907 1.1974-.33887c.32216-.069798.92646-.15602 1.3429-.19161.53676-.04587.97756-.04587 1.5143 0 .41644.035588 1.0207.12181 1.3429.19161.32216.069798.86094.2227 1.1973.33978.33636.11708.87834.34622 1.2044.50919.32606.16298.79432.43228 1.0406.59845s.60676.43486.80112.59708c.19436.16222.5633.5106.81986.77417.25656.26358.55288.58832.65848.72165.1056.13333.32501.43858.48756.67834.16255.23976.41704.67823.56554.97439.14849.29616.32952.68635.40229.86709.07277.18074.1717.45134.21984.60134.04814.15.12418.40908.16898.57575.0448.16666.12778.53484.1844.81817.0675.33773.1087.88425.11964 1.5869.01115.71551-.01121 1.2292-.06724 1.5454-.04616.26051-.11433.62365-.15147.80698-.03714.18333-.09224.40151-.12245.48484-.03021.08333-.06667.20606-.08103.27272-.01436.06666-.09249.29848-.17362.51514-.08114.21666-.23764.58484-.34781.81817-.11016.23333-.36484.68332-.56596.99998-.20112.31666-.54791.79392-.77066 1.0606-.22275.26666-.56456.63723-.75958.82348-.19503.18625-.56152.5067-.81442.71211-.25291.20541-.48146.37347-.5079.37347-.02644 0-.17405.08984-.32803.19965-.15398.10981-.52542.31785-.82541.46232s-.72271.32965-.93938.41152c-.21666.08187-.47575.1706-.57575.19719-.1.02658-.25681.07814-.34848.11458-.09166.03644-.16666.05396-.16666.03895 0-.01502-.06682-.0019-.14848.02914-.08166.03104-.25211.06912-.37878.0846-.12667.01548-.40757.05843-.62424.09545-.21666.03702-.68029.07327-1.0303.08056zm-.30303-1.3561c.56506.0032 1.1567-.03031 1.4848-.08394.29999-.04904.79089-.15996 1.0909-.24649.3-.08653.8229-.28907 1.162-.4501.33911-.16103.81637-.42179 1.0606-.57948.24421-.15769.65601-.46323.91511-.67899s.64665-.59358.86123-.83962c.21458-.24604.52396-.64564.68751-.88801.16355-.24237.41383-.67227.55619-.95533.14236-.28306.32513-.69073.40616-.90592.08103-.21519.21313-.66518.29354-.99998.08042-.3348.17411-.92922.2082-1.3209.04039-.46409.04206-.93916.0048-1.3636-.03144-.35827-.10093-.86323-.15442-1.1221-.053509-.25891-.16593-.68162-.24985-.93937-.083916-.25775-.30223-.77094-.48515-1.1404-.18292-.36948-.54675-.95704-.80853-1.3057-.26178-.34864-.66192-.80786-.88922-1.0205-.2273-.21262-.64586-.55968-.93013-.77123-.28428-.21155-.84414-.54651-1.2441-.74435s-.93616-.42811-1.1915-.51169c-.25533-.083586-.74623-.21266-1.0909-.28683-.51089-.10994-.82818-.13555-1.7175-.13862-.82445-.00285-1.2167.02259-1.606.10413-.28333.059338-.73332.17739-.99998.26235s-.73029.27327-1.0303.41848c-.29999.14521-.75502.40409-1.0112.5753-.25615.1712-.67914.49601-.93999.72178-.26085.22578-.6683.63973-.90544.9199-.23715.28017-.57249.7266-.7452.99207-.17271.26547-.40971.68432-.52666.93077-.11695.24645-.29171.69006-.38835.98579s-.22394.77686-.2829 1.0692c-.07917.39257-.10745.82456-.10821 1.6527-.000779.85015.02528 1.2457.10779 1.6363.05985.28333.16632.70605.23659.93938.07027.23333.27319.73426.45093 1.1132.17774.37892.48035.9233.67246 1.2097.19211.28642.59318.77623.89127 1.0885.29808.31223.76991.73877 1.0485.94785.27859.20909.71383.49876.96719.64373.25336.14496.70879.36332 1.0121.48524.30327.12192.74231.26984.97564.32872.23333.05888.61514.14213.84847.185.23333.04287.84695.0803 1.3636.08317zm1.5151-1.244c-.11666.01962-.2445.0151-.28408-.01003-.03958-.02513-.09883-.11635-.13167-.20271-.03284-.08636-.13145-.60398-.21914-1.1503-.08769-.54628-.20227-1.2613-.25462-1.589-.06905-.43221-.0778-.63393-.03186-.73475.04958-.10882.15626-.15996.49169-.23571.2356-.05321.55799-.16574.71641-.25008.15843-.08434.3176-.15334.35372-.15334.03612 0 .12284.06136.19272.13636.06987.075.44371.8143.83073 1.6429.47358 1.0139.69138 1.5453.66604 1.6251-.02305.07264-.2084.19643-.47817.31937-.24229.11041-.71033.28304-1.0401.38361-.32976.10057-.69502.1989-.81169.21852zm-3.568-4.6298c-.02092-.000484-.07481-.02424-.11975-.05272-.04495-.02848-.07194-.10306-.05999-.16574.01195-.06267.07934-.12221.14976-.1323.07645-.01096.14376.02265.16709.08343.02148.05599.008.13924-.03001.18502-.03799.04577-.08619.08281-.1071.0823zm3.0786-.07183c-.11322.01317-.17257-.01884-.21618-.11656-.05659-.12682-.09894-.13503-.72271-.14006-.61501-.005-.69065-.01908-1.0533-.19662-.38575-.18884-.39255-.18984-.53416-.07844-.07889.06205-.18261.0978-.23048.07943-.04787-.01837-.08704-.07318-.08704-.12181 0-.04863.02881-.14223.06402-.20802.05235-.09782.02665-.17163-.14102-.4051-.11277-.15702-.25099-.38574-.30715-.50828-.05616-.12254-.12906-.36489-.162-.53857-.03293-.17367-.05988-.40483-.05988-.51369 0-.16654-.02958-.20823-.18655-.26295-.12937-.0451-.1803-.098-.16616-.17259.01437-.0758.08734-.11312.24715-.12637.12472-.01035.22703-.05125.22736-.09091.000303-.03965.06585-.21226.14562-.38358.07977-.17132.24995-.42816.37819-.57077.12824-.14261.35588-.33769.50588-.43351.24232-.1548.27272-.1991.27272-.39743 0-.164.02808-.22879.10588-.24424.06967-.013843.12696.034415.16753.14111.06153.16184.06257.16207.53047.1213.28398-.024748.58829-.013944.77184.027404.16666.037543.44729.13867.62362.22473l.32059.15647.14461-.13585c.07953-.074719.1739-.11775.2097-.095625.0358.022126.06509.10135.06509.17604 0 .074698-.03092.16673-.06872.20453-.05122.05121-.01315.1444.14944.3659.11999.16345.2757.43116.34602.59491.07033.16375.1435.48314.16262.70977.03356.39788.04173.41496.23783.4969.11169.04667.20308.11157.20308.14422 0 .03265-.04483.1042-.09962.15899-.05921.05921-.15243.08636-.22981.06695-.11208-.02813-.15354.02093-.29811.35277-.09236.212-.26744.50171-.38907.64381s-.34492.33708-.49619.43329c-.24541.15608-.27504.19914-.27504.39961 0 .19631-.01971.22698-.15606.24284zm-.87422-.85935c.28702-.0134.52142-.06596.7247-.1625.16526-.07848.39917-.24139.51981-.36203.12064-.12064.28542-.3536.36619-.5177.12078-.24541.14669-.38976.14599-.81349-.000727-.4396-.0244-.55957-.16143-.81816-.08832-.16666-.2652-.40395-.39308-.5273-.12788-.12335-.36886-.28571-.53553-.3608-.23077-.10397-.41141-.1358-.75756-.13351-.349.0023-.52489.0365-.75756.14723-.16666.07933-.41276.25396-.54689.38809s-.30877.38023-.38809.54689c-.11074.23267-.14492.40856-.14723.75756-.0022.33627.02995.52742.12369.73468.06969.15408.23018.39468.35666.53468.12648.14.34091.31122.47652.3805.1356.06928.31473.1484.39807.17582.08333.02742.34242.04094.57575.03004zm.0303-.74024c-.12044.01967-.3133-.0023-.44622-.05079-.12876-.04699-.3162-.16259-.41655-.25689-.10034-.0943-.22-.25922-.26589-.36648-.04589-.10726-.08344-.30607-.08344-.4418 0-.13573.05429-.3532.12065-.48327s.2175-.31037.33588-.40066c.14218-.10844.31482-.17373.50864-.19236.16137-.01551.39024.0037.50859.04283.11835.03906.31097.17704.42804.30662.11707.12958.24265.34624.27906.48146.04836.17961.04773.31526-.0024.50342-.03769.14166-.13266.34237-.21103.44601-.07838.10364-.23268.23092-.34289.28285-.11021.05193-.29584.11-.4125.12906zm3.2269-.39913c-.08389.01191-.15133-.0189-.17471-.07983-.02095-.05458-.01008-.12723.02414-.16145.03422-.03422.11284-.05246.17471-.04055.06456.01244.1125.07295.1125.14205 0 .07877-.04723.12709-.13663.13978zm-8.6166-.18277c-.78559-.0085-1.5985-.02423-1.8065-.03497-.30861-.01594-.39053-.04259-.44527-.14487-.04431-.08278-.05305-.31328-.02574-.67893.02274-.30448.08249-.79904.13278-1.099.05029-.3.12994-.63777.17699-.7506.0842-.20192.09009-.20454.37309-.16576.15815.021669.56026.12343.89359.22614.33333.10271.99465.30901 1.4696.45845.57505.18093.89175.31197.94796.39221.07222.1031.07193.16586-.002.43457-.04751.17274-.08771.50497-.08933.7383-.0021.30021-.03128.45576-.09988.53209-.08852.09848-.22101.10651-1.5253.09241zm8.1073-2.9578c-.06537 0-.26039-.13345-.4334-.29655-.173-.1631-.45091-.37621-.61757-.47358-.20199-.118-.30981-.22369-.32337-.31696-.01393-.09578.26222-.60736.87516-1.6213.49253-.81477.94676-1.5088 1.0094-1.5424.09025-.048299.19964-.010021.52678.18433.22708.13491.58654.38712.79879.56048.21225.17336.50182.42518.64348.55959.14166.13442.25757.30062.25757.36933 0 .077399-.21332.33496-.5606.67688-.30833.30357-.89738.85529-1.309 1.2261-.41612.37481-.80117.67411-.86725.67411zm-3.9826-.54637c-.02092-.0004849-.07481-.024233-.11975-.052716-.04494-.028483-.07193-.10306-.05999-.16574.01203-.06304.0825-.12262.15775-.13335.08178-.011665.15069.018849.17282.076529.02024.052762.0032.13649-.038.18606-.04114.049575-.09192.089718-.11284.089208z" stroke-width=".060605"/>
</svg>
