<svg xmlns="http://www.w3.org/2000/svg" viewBox="0 0 24 24">
    <path d="M0,0H24V24H0Z" fill="none" />
    <path d="M11.4,22A9.4,9.4,0,0,1,9.17,3.48,2,2,0,0,1,11.62,5a2,2,0,0,1-1.5,2.44A5.37,5.37,0,0,0,11.4,18h0a5.36,5.36,0,0,0,5.23-4.12,2,2,0,0,1,3.95.95A9.47,9.47,0,0,1,11.4,22Zm9.74-11.24a.84.84,0,0,1-.84-.61,10.1,10.1,0,0,0-6.4-6.51A.84.84,0,1,1,14.36,2h.05A11.81,11.81,0,0,1,22,9.66a.86.86,0,0,1-.56,1.06A.5.5,0,0,1,21.14,10.77Zm-2.78.56a.85.85,0,0,1-.84-.61,7.38,7.38,0,0,0-4.17-4.34.85.85,0,0,1,.51-1.62,8.61,8.61,0,0,1,5.28,5.45.86.86,0,0,1-.56,1.06C18.52,11.27,18.41,11.33,18.36,11.33Zm-2.84.33a.82.82,0,0,1-.78-.5,4.61,4.61,0,0,0-2-2.06.87.87,0,1,1,.78-1.56h0a6.77,6.77,0,0,1,2.78,2.9A.8.8,0,0,1,16,11.53l0,0A.76.76,0,0,1,15.52,11.66Z" />
</svg>