<svg version="1.1" viewBox="0 0 24 24" xmlns="http://www.w3.org/2000/svg">
 <path d="m12.294 21.992c-.34948.01026-.74386.01106-.87642.0018-.13256-.0093-.40863-.03718-.6135-.06198-.20486-.0248-.57954-.08584-.8326-.13564-.25307-.0498-.75592-.18755-1.1174-.30611-.36313-.11912-.93189-.35122-1.2708-.51863-.33742-.16667-.82055-.44081-1.0736-.60921-.25307-.16839-.61788-.43355-.81069-.58923-.19281-.15568-.5777-.5172-.8553-.80336-.2776-.28616-.62542-.67893-.77293-.87281-.14751-.19388-.37679-.51925-.50952-.72305-.13273-.2038-.35073-.58906-.48445-.85615-.13372-.26708-.30106-.63189-.37188-.81069-.070816-.1788-.19007-.51703-.26501-.75162s-.18505-.66842-.24469-.96407c-.059639-.29565-.13146-.77417-.15959-1.0634-.030473-.31318-.040979-.82714-.025985-1.2708.01385-.40973.05593-.94058.09351-1.1797.03758-.23909.12825-.67093.20148-.95963.07322-.2887.20292-.71425.2882-.94565.08529-.23141.2806-.67765.43404-.99166.15344-.31401.43551-.80699.62682-1.0955.19131-.28854.53368-.74153.76082-1.0066.22714-.26512.59921-.64988.82682-.85502.22761-.20514.53215-.46372.67676-.57461.14461-.11089.43054-.31061.63541-.44381.20486-.1332.55982-.34192.78878-.46382.22897-.1219.63997-.31137.91334-.42105.27337-.10968.69734-.25743.94216-.32834.24481-.070909.64231-.16788.88333-.2155.24102-.047614.67431-.11066.96287-.14011.3237-.033032.81886-.044205 1.2927-.029169.47704.015136.96731.059229 1.2939.11637.28922.0506.74438.15017 1.0115.22127.26708.071098.67134.19978.89834.28596.227.086182.65254.27445.94564.41838.2931.14393.74884.40595 1.0127.58227.26391.17632.59596.41511.7379.53065.14194.11554.40229.33958.57856.49787s.48391.47626.68364.7066c.19973.23034.48186.57976.62696.77648.1451.19673.39456.58285.55437.85805.15981.2752.37195.68611.47143.91313.09948.22702.25591.63323.34763.9027.09172.26947.21603.71316.27625.98598.06022.27282.13464.65379.16538.84661.0329.20635.05639.75618.05711 1.3365.000933.75249-.01766 1.1001-.07855 1.468-.04387.26512-.11847.64965-.16576.85451-.0473.20486-.16762.61811-.26739.91833-.09977.30021-.32429.83264-.49894 1.1832-.17465.35053-.4335.8148-.57523 1.0317-.14172.21691-.41665.59158-.61095.8326-.1943.24102-.578.65513-.85266.92025-.27466.26512-.68632.62201-.91479.7931-.22847.17109-.62246.43592-.87553.58851-.25307.15259-.66471.3741-.91475.49223-.25004.11813-.71346.30102-1.0298.40641-.31634.1054-.76251.23313-.99147.28386-.22897.05073-.6135.11984-.85452.15359-.24102.03375-.72414.06975-1.0736.08002zm-.02427-2.2764c.28792-.01107.65274-.03847.81069-.06088.15796-.0224.43453-.07173.6146-.10961.18008-.03788.53503-.13833.78878-.22322.25376-.08489.67829-.25988.94341-.38886.26512-.12899.64965-.34708.85451-.48465.20486-.13757.53314-.38518.7295-.55026s.50757-.46354.69157-.66325c.184-.19972.46196-.5406.61768-.75751.15572-.21692.42003-.67046.58736-1.0079s.36605-.81032.44161-1.0509c.07556-.24056.17713-.62509.22572-.85451.05097-.24069.10257-.7137.12198-1.1183.0185-.38563.02852-.74058.02225-.78878-.0063-.0482-.02401-.2454-.03944-.43821-.01542-.19281-.07819-.57579-.13947-.85107-.06127-.27527-.17064-.66966-.24302-.87642-.07238-.20676-.22722-.57524-.34407-.81884-.11685-.2436-.35018-.64785-.51851-.89834-.16833-.25048-.46176-.6329-.65207-.84981-.19031-.21692-.51224-.53488-.71541-.70659s-.53404-.42396-.7353-.56055c-.20125-.13659-.57599-.35371-.83276-.48249-.25677-.12877-.64426-.29691-.86108-.37364-.21683-.076727-.58531-.18592-.81884-.24265-.23353-.056732-.65642-.12705-.93975-.15626-.3139-.032363-.78999-.043299-1.2187-.027994-.46063.016446-.85485.057131-1.1418.11784-.24102.050996-.66694.16884-.94651.26189-.27956.09304-.71339.27192-.96407.39752-.25067.12559-.60367.32691-.78443.44737-.18076.12046-.4667.32947-.63541.46447-.16871.135-.44564.38397-.6154.55327s-.42926.4597-.57667.64532c-.14741.18562-.37515.511-.50609.72305-.13094.21205-.31929.55686-.41856.76624-.09927.20938-.24829.58405-.33116.8326-.08287.24855-.19311.6578-.24498.90944-.05188.25164-.11163.70196-.13281 1.0007-.02117.29876-.02905.70418-.0175.90093.01154.19675.05053.558.08662.80277.0361.24477.11487.629.17504.85385.06017.22485.17954.58659.26527.80387.08573.21728.24537.56267.35477.76754.1094.20486.29798.52038.41908.70114s.34353.47656.49429.65732c.15077.18076.3891.43948.52964.57493.14054.13545.37384.34108.51844.45695.14461.11587.4404.32744.65732.47015.21691.14271.59159.35543.8326.47272s.64527.28184.89834.36567.66524.19396.91593.24473c.25069.05077.63522.10963.85451.1308.21929.02117.63428.02943.92221.01835zm-.30324-.89852c-.26575-.0026-.66739-.03154-.89253-.06433-.22514-.0328-.59981-.11107-.8326-.17394-.23279-.06288-.60269-.19049-.82199-.28358-.2193-.09309-.56638-.26573-.77128-.38364-.2049-.11791-.52704-.33064-.71585-.47275-.18881-.14211-.50278-.41786-.69771-.61279-.19493-.19492-.47068-.5089-.61279-.69771-.14211-.18882-.35003-.50304-.46205-.69828-.11202-.19524-.28744-.55082-.38982-.79018-.10238-.23936-.24211-.65347-.31052-.92024-.0684-.26677-.14888-.70972-.17885-.98433-.032142-.29457-.043787-.70782-.028401-1.0079.01434-.27973.06728-.72089.11764-.98036.05036-.25947.16119-.67178.24628-.91625.08509-.24447.24027-.61484.34483-.82304.10456-.2082.3137-.56495.46475-.79277.18026-.27189.46399-.60319.82567-.96412.37047-.3697.69525-.64562.99114-.84205.24206-.16069.62659-.38039.85451-.48824.22792-.10784.59188-.25501.8088-.32704.21692-.072029.55215-.16315.74496-.20249.19281-.039338.57316-.092703.84521-.11859.36003-.034257.64623-.033497 1.0517.0028.30639.027423.70459.081139.88489.11937.1803.03823.48596.11921.67923.17996.19327.060747.55694.20712.80815.32527.25121.11815.65546.34627.89834.50692.30303.20044.61399.46496.99103.84303.333.33391.65787.71097.82467.95719.15137.22344.38124.62769.5108.89834.12957.27065.28469.63999.34471.82075.06002.18076.15148.53571.20322.78878.05174.25307.10502.71648.11839 1.0298.01436.33644.0024.75754-.02914 1.0285-.02939.25236-.10992.68245-.17894.95575-.06902.2733-.22115.71757-.33806.98726s-.32336.66783-.45879.88474c-.13543.21692-.40646.58606-.6023.82033-.19584.23427-.55663.5932-.80176.79764-.24513.20443-.65051.49371-.90086.64284-.25034.14912-.66431.35637-.91993.46055-.25562.10418-.6727.23867-.92686.29888-.25415.06021-.62919.12998-.83342.15505-.20423.02507-.58876.04346-.85451.04087zm1.6504-1.8358c.01125 0 .14707-.05145.30182-.11433.15475-.06288.37999-.16426.50054-.22529.12055-.06103.36413-.20871.54129-.32819.17716-.11948.46949-.35724.64964-.52836.18014-.17112.43968-.46005.57674-.64206.13706-.18201.33337-.49282.43624-.69069s.23757-.49366.29934-.65732.15012-.47022.19633-.68125c.04621-.21103.09606-.5857.11078-.8326.01491-.25016.0049-.62543-.02242-.84758-.02706-.21926-.08819-.55115-.13585-.73752-.047668-.18637-.15548-.50763-.23958-.71392-.084103-.20628-.25705-.54361-.38433-.74963-.14992-.24265-.40118-.54702-.71345-.86424-.26512-.26932-.60757-.57358-.761-.67613-.15343-.10255-.43412-.26412-.62377-.35904-.18964-.094919-.48224-.21933-.65022-.27646-.16798-.057133-.46901-.13903-.66896-.18199-.2574-.055307-.55546-.078113-1.0209-.078113-.47034 0-.76328.022708-1.0298.079827-.20486.043905-.51052.12935-.67923.18987-.16871.060525-.44479.17887-.6135.26298-.16871.084115-.44478.24406-.6135.35544-.16871.11138-.46275.35066-.65342.53174-.19067.18108-.46386.48653-.60709.67878s-.3484.52473-.45594.73886c-.10754.21413-.25098.55968-.31876.7679-.06777.20822-.14434.51662-.17014.68533-.0258.16871-.05927.40229-.0744.51906l-.02749.21231.47439-.25168c.26091-.13842.49265-.268.51497-.28796.02232-.01995.08716-.19943.14408-.39884.05692-.19941.17024-.50437.25182-.67769.08158-.17332.23216-.43953.33462-.59159.10246-.15206.33569-.42586.51828-.60845.1826-.18259.45031-.4116.59492-.5089.14461-.097302.38124-.23645.52586-.30922.14461-.072771.42336-.18289.61944-.24471.19608-.061821.53131-.13569.74496-.16416.22574-.030077.55544-.040046.78709-.023798.21925.015378.56434.069262.76687.11974.20253.050481.52977.16679.7272.25847.19743.091677.47312.24245.61264.33506.13952.092606.38029.28669.53504.4313.15475.14461.37879.3911.49788.54777.11909.15666.31272.48203.43031.72305.11758.24102.25364.60583.30235.81069.0487.20486.10112.54996.11647.76687.01617.22848.0062.55781-.02385.78284-.02847.21365-.10234.54888-.16416.74496-.06182.19608-.17194.47482-.24471.61943-.07278.14461-.20715.37326-.29862.50811-.09147.13485-.26829.35676-.39293.49314s-.3774.36153-.5617.50035c-.18429.13882-.46811.32116-.63071.4052l-.29563.1528-.000544.28484c-.000307.15666-.01298.38837-.02818.5149s-.01843.23006-.0072.23006z" stroke-width=".043821"/>
</svg>
