<svg xmlns="http://www.w3.org/2000/svg" viewBox="0 0 24 24">
    <path d="M0,0H24V24H0Z" fill="none" />
    <path d="M11.79,4.1a10.58,10.58,0,0,1,1.69.08,10.85,10.85,0,0,1,1.38.27,12.06,12.06,0,0,1,2,.68A11.42,11.42,0,0,1,19,6.4,10.4,10.4,0,0,1,20,7.31c.2.2.41.4.61.61a11.51,11.51,0,0,1,1.23,1.64A1.36,1.36,0,0,1,22,10a1.25,1.25,0,0,1-.43,1,1.16,1.16,0,0,1-.67.26A1.14,1.14,0,0,1,20,11a5.65,5.65,0,0,1-.56-.73A9.11,9.11,0,0,0,17.12,8a10,10,0,0,0-1.4-.77c-.18-.08-.37-.14-.55-.21a6.54,6.54,0,0,0-1.31-.37,8.88,8.88,0,0,0-1.78-.18,8.27,8.27,0,0,0-1.79.14A9.52,9.52,0,0,0,8.9,7a9.33,9.33,0,0,0-4.12,2.9c-.19.25-.38.49-.54.75a1.72,1.72,0,0,1-.36.4,1.14,1.14,0,0,1-.44.18,1.51,1.51,0,0,1-.56,0,1.14,1.14,0,0,1-.7-.52,1.21,1.21,0,0,1-.11-1,2,2,0,0,1,.17-.32A11.7,11.7,0,0,1,6.36,5.54a12.77,12.77,0,0,1,2.12-.91A12,12,0,0,1,11.79,4.1Zm.12,4.3a7.24,7.24,0,0,1,5.21,2.1,6.88,6.88,0,0,1,1.05,1.3,1.27,1.27,0,0,1,.09,1,1.24,1.24,0,0,1-.65.68,1.2,1.2,0,0,1-1.21-.16,1.34,1.34,0,0,1-.31-.36,6.31,6.31,0,0,0-.71-.84A4.85,4.85,0,0,0,13,10.89a6.09,6.09,0,0,0-1.13-.1,4.91,4.91,0,0,0-2.7.88,5.55,5.55,0,0,0-.94.87c-.19.23-.34.49-.54.71a1.2,1.2,0,0,1-1.69,0,1.13,1.13,0,0,1-.29-.51,1.06,1.06,0,0,1,0-.61,1.86,1.86,0,0,1,.23-.47,9.71,9.71,0,0,1,.86-1.06A7.92,7.92,0,0,1,8,9.57a7.16,7.16,0,0,1,1.38-.7A7.33,7.33,0,0,1,11.91,8.4Zm-.09,4.65a3.7,3.7,0,0,1,3.89,3.42,5.13,5.13,0,0,1,0,1,3.92,3.92,0,0,1-1.19,2.12,3.74,3.74,0,0,1-1.76.89,4,4,0,0,1-1.25,0A3.88,3.88,0,0,1,10.16,20a4.32,4.32,0,0,1-1.1-.94,5.11,5.11,0,0,1-.57-1,3.76,3.76,0,0,1,1.39-4.36,3.59,3.59,0,0,1,1.94-.66m0,1.77a3.21,3.21,0,0,0-.63.14,2.77,2.77,0,0,0-.6.41,2,2,0,0,0-.47,2.09,2.12,2.12,0,0,0,.61.86,2.61,2.61,0,0,0,.77.37,3.08,3.08,0,0,0,.68,0,1.7,1.7,0,0,0,.9-.33,1.93,1.93,0,0,0,.82-1.29A2.21,2.21,0,0,0,13.81,16a2.57,2.57,0,0,0-.34-.54,2,2,0,0,0-1.61-.65Z" />
</svg>