<svg version="1.1" viewBox="0 0 24 24" xmlns="http://www.w3.org/2000/svg">
 <path d="m4.4351 20.756c-.04703 0-.08551-.01072-.08551-.02381 0-.0131-.07196-.47935-.15991-1.0361-.08795-.55678-.23089-1.4609-.31765-2.0091-.08676-.54823-.20294-1.2801-.25817-1.6263-.05523-.34625-.18496-1.1725-.28827-1.8362-.10331-.66365-.26876-1.7142-.36768-2.3346-.09891-.62037-.22848-1.4466-.28792-1.8362-.05945-.38953-.14278-.90891-.18518-1.1542-.0424-.24526-.14967-.90629-.23837-1.4689-.0887-.56266-.18398-1.1971-.21174-1.4098-.02775-.21275-.04177-.39552-.03115-.40614.01062-.01062.30085-.06539.64494-.1217.34409-.05631.93252-.15058 1.3076-.20949.37511-.05891 1.2132-.18994 1.8624-.29118.64922-.10124 1.3929-.2192 1.6526-.26212.25969-.04292.69178-.11411.96021-.1582.26843-.04409.72879-.11575 1.023-.15924.29423-.04349.83006-.12633 1.1907-.18409.36068-.05776.82104-.12829 1.023-.15674.20198-.02845.72136-.11186 1.1542-.18535.43281-.07349 1.0112-.16676 1.2853-.20727.27412-.04051.72267-.10821.99678-.15045.27412-.04224.82368-.12919 1.2212-.19323.39757-.06403.73585-.10343.75173-.08755.01588.01588.06083.17849.09988.36136.03906.18287.08467.41512.10137.51611.02862.17307.06424.20104.61997.48684.32429.16677.77848.44406 1.0093.61619.23083.17213.62537.51777.87675.76808s.58991.63963.75228.86516c.16238.22552.39524.58553.51747.80002.12223.21448.30769.61024.41213.87946.10444.26921.23624.66654.2929.88295.05665.21641.13467.59414.17337.8394.03871.24526.06893.75283.06715 1.1279-.0019.40406-.04182.90651-.09793 1.2329-.0521.30297-.17396.79393-.27082 1.091-.09686.2971-.28526.75627-.41867 1.0204-.13341.26412-.32579.61124-.42752.77138-.10173.16014-.29274.42101-.42448.57971-.13174.1587-.40365.4606-.60424.67089l-.36471.38235.03225.40458c.01773.22252.0472.50073.06548.61824l.03324.21366-.91063.14719c-.50085.08096-1.1231.19383-1.3828.25084s-.77906.15944-1.1542.22764c-.37511.06819-.90629.14856-1.1804.17859-.27412.03003-.64004.06705-.81316.08224-.17313.0152-.46823.05104-.65578.07964s-.6243.09779-.97055.15375c-.34625.05596-.86563.13863-1.1542.18372-.28854.04508-.80792.12748-1.1542.18309-.34625.05562-.93645.14888-1.3116.20727-.3751.05838-1.1188.17591-1.6526.26118-.5338.08527-1.3511.21562-1.8162.28965-.46513.07404-.88418.13461-.9312.13461zm1.0539-1.155c.02255-.000419.06849-.0183.1021-.03968.04536-.02886.04193-.0651-.01332-.14065-.05528-.07561-.08965-.08654-.13365-.04254-.03258.03258-.04504.09623-.02768.14145.01736.04522.05.08186.07255.08141zm.69612-.10412c.02509 0 .08272-.0371.12806-.08245.04534-.04534.08244-.05715.08244-.02623s.02951.05031.06558.0431c.03607-.0073.08293-.03672.10412-.06558.0212-.02885.03965-.0053.04102.05246.0021.09065.01117.09422.06638.02623.03515-.04328.11113-.08465.16883-.09193.05771-.0073.18164-.01909.27541-.02623.12142-.0093.17049-.03904.1705-.10349 1.5e-5-.07378-.03147-.0845-.17048-.05804-.09378.01786-.17951.04004-.19052.04931-.01101.0093-.06176-.0055-.1128-.03281-.06584-.03524-.10065-.02915-.11988.02096-.01841.04796-.11216.06791-.29228.06219-.18377-.0059-.27375.01391-.29309.06432-.01535.04-.01464.09421.0016.12046.01622.02625.05002.04773.07512.04773zm1.3244-.23028c.09329-.01471.17768-.05092.18754-.08049.01075-.03227.06854-.02058.14462.02926.11072.07255.13046.07322.15652.0053.01881-.04902.08679-.07285.18415-.06456.11905.01012.15434-.0087.15434-.08229 0-.05247-.02361-.11-.05246-.12783-.02885-.01784-.05246-.01333-.05246.01002s-.05312.04511-.11804.04837c-.06492.0032-.22428.02189-.35412.0414s-.24351.05683-.25259.08293c-.0091.0261-.05039.03446-.09181.01856-.04687-.01799-.0753.0041-.0753.05856 0 .06911.03558.08185.16962.06073zm-1.2844-.26318c.1082-.0093.23584-.02009.28363-.02402.05975-.0049.07836-.03978.05959-.11157-.0209-.0799-.05653-.09709-.15175-.07319-.06845.01718-.18377.03466-.25629.03884-.08637.005-.13186.03852-.13188.09721-2.9e-5.07157.03956.0862.1967.07272zm.49402-.03117c.02404 0 .04372-.04013.04372-.08919 0-.06936.01399-.0752.06296-.02623.03463.03463.08184.06296.10492.06296.02308 0 .04197-.03541.04197-.07869 0-.05496-.05537-.07869-.18362-.07869-.11804 0-.18362.02498-.18362.06995 0 .03847.01574.08569.03498.10492.01924.01924.05465.03497.07869.03497zm.43409-.10492c.07043 0 .1397-.01883.15393-.04186.01423-.02302.0089-.06935-.0119-.10295-.02077-.03361-.09003-.04743-.15393-.03072-.06389.01671-.11616.06304-.11616.10296 0 .04197.054.07257.12806.07257zm-1.7837-.15739c.04158 0 .09029-.02377.10825-.05283.01796-.02905-.0041-.06694-.04906-.08419-.04494-.01724-.06866-.05249-.05269-.07833.01597-.02583.004-.04696-.02654-.04696-.03056 0-.05556.05902-.05556.13116 0 .07922.02994.13116.0756.13116zm.86066-.09368c.02354-.03709.1117-.08117.19593-.09795.08423-.01678.21216-.03721.28429-.04539.07214-.0082.19608-.01722.27543-.02008.08704-.0031.14427-.03469.14427-.07952 0-.04088.02951-.08831.06558-.1054s-.04066-.01946-.1705-.0053c-.12984.01421-.3069.03941-.39347.05599-.08656.01658-.24592.04987-.35412.07398-.11328.02524-.19673.02395-.19673-.0031 0-.02577-.02361-.04687-.05246-.04687s-.05246.06177-.05246.13727c0 .11145.01974.13211.10492.10984.06007-.01571.10527-.0015.10573.03323.000538.04056.01499.03832.0436-.0068zm1.2432-.23858c.0459 0 .06933-.03028.05411-.06995-.01477-.03847.0059-.06995.04583-.06995.03997 0 .08194.02779.09326.06175s.04767.04501.08077.02455.04747-.07035.03192-.11087c-.01791-.04666-.10363-.07262-.23379-.07083-.15808.0022-.20552.02361-.20552.09283 0 .0495.0118.1018.02623.11623.01443.01443.06266.02623.10718.02623zm5.7817-.0082c.07935-.0204.2387-.04737.35412-.05994s.23896-.03296.27454-.04531c.03558-.01235.05049-.05946.03313-.1047-.01743-.04541-.06989-.07117-.11716-.05751-.04708.0136-.18003.04063-.29544.06005s-.25116.03407-.30166.03254c-.05842-.0017-.09181.03627-.09181.10458 0 .09113.02181.10175.14427.07026zm-5.3118-.07921c.04328 0 .07869-.03541.07869-.07869s-.03541-.07869-.07869-.07869-.07869.03541-.07869.07869.03541.07869.07869.07869zm.22377-.02623c.0212-.02885.12117-.05799.22216-.06474.10099-.0067.22493-.01412.27543-.01638.05542-.0024.09181-.04562.09181-.10886 0-.05762-.01913-.09293-.04252-.07848s-.16504.03187-.31477.0387c-.25446.01161-.2722.02124-.27145.14732.000419.07419.01814.11129.03935.08244zm-2.8503-.02623c.12237 0 .12911-.01014.06984-.10506-.03609-.05779-.08941-.09714-.11848-.08746-.02908.0097-.06051.05696-.06984.10506-.0123.06344.02024.08746.11848.08746zm8.8171-.01203c.08643-.0072.13116-.04253.13116-.10375 0-.067-.03655-.08987-.13116-.08204-.08643.0072-.13116.04253-.13116.10375 0 .067.03655.08987.13116.08204zm.43076-.06365c.04192-.01609.10796-.02925.14677-.02925.0388 0 .08135-.04131.09455-.09181.01806-.06909.0255-.0626.03008.02623.0033.06492.02969.11804.05855.11804.02885 0 .05432-.05312.05661-.11804.0023-.06492.01605-.08853.0306-.05246s.0599.06558.10078.06558c.04088 0 .07432-.0099.07432-.02194 0-.01207-.01307-.056-.02905-.09762-.02315-.06034-.07841-.06646-.27247-.03021-.13388.02502-.28607.03194-.33819.0154-.05212-.01654-.09477-.0068-.09477.02162 0 .02843.01485.09041.033.13771.01853.04828.06643.07317.10922.05675zm-8.5537-.029268c.03847 0 .07031-.02951.07075-.06558.000582-.04749.01344-.04563.0466.0067.02519.03977.07218.05599.10444.03605.03226-.01994.15294-.03755.26818-.03914.16938-.0023.20953-.02188.20953-.10194 0-.08865-.02888-.09561-.27543-.06634-.15148.01799-.29313.04312-.31477.05586-.02164.01274-.0417-.0078-.04458-.04551-.0029-.03777-.02413-.0097-.04723.06248-.02801.08744-.04374.10055-.04723.03935-.0029-.0505-.02884-.09181-.05769-.09181s-.05246.03148-.05246.06995.01574.08569.03497.10492c.01924.01924.06645.03497.10492.03497zm2.9855-.02342c.07359-.0039.15558-.04159.1822-.08368.03307-.05228.04866-.05575.04921-.01095.00042.03607.05982.06558.13196.06558.09221 0 .13116-.02857.13116-.09618 0-.0529-.01554-.11172-.03452-.1307-.01898-.01898-.06607-.0083-.10462.02366-.03856.032-.12926.04687-.20156.03305-.09535-.01823-.1326-.0019-.1356.05941-.0026.0543-.01361.06108-.0306.01896-.01456-.03607-.0599-.06558-.10078-.06558-.04088 0-.07432.03148-.07432.06995s.01207.08202.02684.09679c.01476.01476.08705.02362.16064.01969zm3.4371-.13397c.02377-.08353.03923-.09782.04256-.03935.0029.05049.02884.09181.05769.09181s.05246-.02168.05246-.04817-.01298-.08202-.02886-.12338c-.01824-.04754-.07615-.06616-.15739-.05063-.07069.01351-.12853.03518-.12853.04813 0 .01296.02806.07513.06236.13816l.06237.11459zm-5.4494.01921c.03046-.01882.09967-.03674.15383-.03983.05416-.0031.09816-.02332.09779-.04496-.000367-.02164-.000672-.05983-.000672-.08486s-.09505-.04015-.21123-.03359c-.11618.0066-.22354.02423-.23858.03927-.01504.01504.01109.06579.05808.11277.04698.04698.11034.07002.14079.0512zm2.6673.03325c.02715 0 .05123-.02951.05351-.06558.0033-.05211.0096-.05205.03071.000315.01461.03625.04816.05256.07455.03625.02639-.0163.04799-.07547.04799-.13147 0-.05601-.02361-.10183-.05246-.10183s-.05246.02286-.05246.05082c0 .02795-.03303.03814-.07339.02266s-.08897-.003-.10802.02788c-.01905.03082-.02004.07965-.0022.1085.01783.02885.05464.05246.08179.05246zm5.6759 0c.05711 0 .09112-.02833.07872-.06558-.01201-.03607-.05725-.07245-.10055-.08085-.0433-.0084-.07872.02111-.07872.06558 0 .04471.04495.08085.10055.08085zm.24235-.022c.02509-.0155.17264-.04328.32789-.06172.15525-.01844.29895-.04332.31933-.05528.02038-.01196.02465-.05407.0095-.09359-.01516-.03951-.06911-.08271-.11989-.09599-.05077-.01328-.1338.0062-.1845.04326-.05687.04159-.16416.05572-.28008.03692-.16323-.02649-.1833-.0185-.15287.06079.01926.0502.03503.11435.03503.14254 0 .0282.02053.03859.04562.02307zm-5.5564-.07937c.01946-.03149.06027-.0321.10851-.0016.04252.02689.09502.04925.11666.04969.02164.00042.03935-.0375.03935-.08432 0-.06622.01599-.07184.07205-.02532.03963.03289.11045.04506.15739.02704.04694-.01801.08571-.05974.08614-.09271.000551-.04112.01291-.04246.03935-.0043.02119.03063.09166.05508.15658.05433.08759-.000961.11804-.03228.11804-.12126 0-.06595-.02244-.11991-.04986-.11991s-.07392.04131-.10333.09181c-.02941.05049-.05419.06623-.05507.03497-.000875-.03126-.037-.05683-.08029-.05683-.04328 0-.07869.03317-.07869.0737 0 .05712-.02012.05357-.08947-.01577-.05788-.05787-.09647-.06846-.1093-.02998-.0109.03271-.05131.05948-.08978.05948s-.08186.02951-.09641.06558c-.01456.03607-.02869.01836-.03141-.03935-.0041-.08757-.01349-.09191-.05661-.02623-.04592.06995-.0574.06995-.10332 0-.04259-.06488-.0518-.05951-.05246.0306-.000419.06011.01529.12539.03496.14506.01967.01966.0498.01305.066961-.01472zm-2.6034-.0036c.03847 0 .08597-.01602.10555-.0356.01958-.01958.12385-.03728.23171-.03935.16205-.0031.19902-.02425.21288-.12179.0092-.06492-.0071-.11804-.03625-.11804-.02916 0-.0645.01859-.07855.04131-.01404.02273-.13348.03727-.26541.03234-.22027-.0083-.23987.0012-.23987.11607 0 .06923.03122.12505.06995.12505zm5.6616-.0153c.03607-.01323.05793-.05585.04858-.09471-.01252-.05204.0082-.04874.07869.01256.06498.0565.15884.07524.29242.05836.1082-.01367.19673-.04844.19673-.07726 0-.02929.05618-.03831.12736-.02044.07982.02003.15658.0027.20563-.04631.0466-.0466.08563-.0562.09646-.0237.01133.03399.10196.04117.2403.01906.16046-.02566.2221-.06035.2221-.12499 0-.04921-.03541-.08948-.07869-.08948s-.07869.0144-.07869.032-.10033.0292-.22296.02579c-.13344-.0038-.28949.0331-.38866.09172-.11274.06664-.17212.07865-.18581.03759-.01316-.03949-.07844-.04753-.18888-.02327-.09508.02088-.1543.06049-.13562.0907.01823.0295-.02476.0157-.09554-.03068s-.14451-.0685-.16385-.04916c-.01934.01933-.03516.08041-.03516.13571 0 .05829.02756.09045.06558.07651zm-4.8555-.11954c.07486-.0082.1559-.04615.18009-.0843.02419-.03814.04434-.08541.04478-.10504.000442-.01962-.07002-.01537-.15658.0095-.10866.03116-.15739.02678-.15739-.01416 0-.04078-.01691-.04238-.05418-.0051-.0298.0298-.04038.09016-.0235.13413.01897.04945.08261.07425.16679.06501zm.46608-.04278c.0693-.03212.1269-.09382.12801-.1371.0016-.06136.01391-.05823.0561.01422.02975.0511.08013.07682.11196.05715.03183-.01967.13071-.04493.21974-.05613s.20319-.02068.25368-.02106c.05049-.000367.09367-.04055.09595-.08925.0025-.05461.01429-.06341.0306-.02297.01456.03607.0599.06558.10078.06558.04088 0 .07432-.025.07432-.05556s.02625-.03934.05833-.01951c.03208.01982.07894.0035.10412-.03625.03317-.05236.04602-.05421.04659-.0067.00042.03607.03449.06558.075652.06558.04116 0 .08564-.04131.09884-.09181.01806-.06908.0255-.0626.03008.02623.0033.06494.02969.11806.05855.11806.02885 0 .05246-.05902.05246-.13116 0-.1083-.02515-.13102-.14427-.13035-.07935.00042-.17889.0227-.22121.04946-.04877.03085-.10158.0282-.14427-.0073-.048-.03981-.06733-.03895-.06733.003 0 .03239-.01771.05609-.03935.05267-.02164-.0034-.07897-.0034-.12741 0-.04843.0034-.12516.04331-.1705.08865-.04766.04766-.08244.05742-.08244.02314 0-.03261-.02361-.04472-.05246-.02688s-.05246.0073-.05246-.02358c0-.03749-.03035-.03941-.09181-.0058-.05049.02762-.2005.06416-.33334.0812-.21812.02798-.23927.0428-.21822.1529.0207.10829.03739.11539.14931.06351zm-2.7555-.03217c.02715 0 .04973-.02951.05017-.06558.000498-.04061.01548-.04561.03935-.01312.0212.02885.07939.0522.12932.05189.04993-.000315.13699-.04014.19347-.0885.05648-.04836.11006-.06594.11907-.03906.0099.02959.14576.02606.34427-.0089.21765-.03836.32789-.08236.32789-.13087 0-.04019-.03541-.07309-.07869-.07309s-.07905.02951-.0795.06558c-.000624.05085-.01043.0504-.0437-.002-.03094-.04877-.07918-.05382-.1731-.01811-.07161.02723-.29393.06512-.49404.08422-.20011.0191-.38421.05469-.40911.07911-.02489.02442-.0294.07006-.01002.10144.01938.03136.05746.05703.08461.05703zm8.9448-.05246c.04158 0 .0756-.025.0756-.05556s-.02361-.04096-.05246-.02314c-.02885.01784-.05246.0074-.05246-.02314 0-.03056.025-.05556.05556-.05556s.03957-.02587.02002-.0575c-.02439-.03946-.06022-.03281-.11423.02119-.04328.04328-.0627.10457-.04316.13619.01954.03163.06956.0575.11113.0575zm-2.5716-.05246c.0095 0 .07731-.02286.15077-.05078.08927-.03394.12334-.07743.10273-.13116-.01696-.04421-.06372-.08037-.10392-.08037-.0402 0-.07474.04131-.07677.09181-.0032.08006-.0088.07882-.04341-.0096-.02476-.06323-.05307-.07984-.07518-.04409-.0195.03155-.02105.0949-.0034.14079.01761.04589.03976.08342.04922.08342zm2.8274 0c.07026 0 .18672-.02243.25882-.04984.09323-.03545.13758-.03166.15362.01311.0124.03463.03533.05115.05097.03672.01563-.01443.03658-.07345.04653-.13116.01344-.07791-.0089-.10279-.08683-.09663-.05771.0046-.16394.02051-.23608.03545-.07214.01493-.17247.02891-.22296.03105-.05049.0022-.09181.03931-.09181.08259 0 .0484.04917.07869.12774.07869zm.75144-.07842c.05025-.02026.1799-.04943.2881-.06481.14689-.02088.19673-.05272.19673-.12566 0-.08337-.02885-.0932-.19673-.06703-.1082.01687-.23758.03003-.28751.02925-.04993-.000781-.10514.02182-.12269.05022-.01755.0284-.01782.08837-.000593.13326.02046.05332.06301.06885.12269.04478zm-2.7812-.04632c.05063-.01488.1865-.04474.30192-.06637.11542-.02162.25325-.03285.30629-.02495.0687.01023.09112-.01322.07796-.08153-.01389-.07207-.06393-.09484-.20137-.09166-.10058.0024-.23238.03073-.29288.06312-.08187.04382-.12548.04341-.1705-.0016-.04506-.04506-.07567-.04534-.11993-.001-.03268.03268-.0446.09806-.02649.14527.01984.0517.06955.07508.12501.05878zm3.4339-.1178c.02804-.01733.20832-.04304.40062-.05712.1923-.01409.37915-.02718.41521-.02911.03607-.0019.06558-.01865.06558-.03719 0-.01853-.03541-.07952-.07869-.13553-.0779-.10081-.07949-.10081-.15739 0-.04328.05601-.07869.07484-.07869.04184 0-.04023-.09499-.05326-.28823-.03955-.15853.01125-.30976.03376-.33608.05002-.02632.01626-.03558.0765-.02057.13385.015.05736.05022.0901.07826.07277zm.1994-.07223c-.02885 0-.05246-.025-.05246-.05556s.02361-.04096.05246-.02314c.02885.01784.05246.04284.05246.05556s-.02361.02314-.05246.02314zm-11.535.05246c.0872 0 .09868-.01527.05292-.0704-.03213-.03873-.0429-.08594-.02391-.10492.01898-.01899-.0048-.03452-.05292-.03452-.05246 0-.08744.04197-.08744.10492 0 .07197.03498.10492.11135.10492zm8.8526-.02092c.07605-.0126.14418-.02781.15139-.03378.0072-.0059.06623-.01461.13116-.01918.06492-.0046.13575.01609.15739.0459.02552.03518.05775.02657.09174-.02447.02882-.04328.04512-.1141.03623-.15739-.0089-.04328-.05018-.07054-.09174-.06058-.04157.01-.15558.0283-.25336.04075-.09778.01244-.1961.03395-.21848.04778-.02238.01383-.05157-.0045-.06486-.04075-.01744-.04757-.04106-.0501-.08489-.0091-.03341.03124-.04547.09661-.02679.14526.02356.0614.07625.08145.17222.06555zm-8.2345-.07761c.02519-.03977.06813-.0585.09544-.04162.02731.01687.207.0046.39933-.02726.19233-.03187.34969-.07597.34969-.09801 0-.02203.03473-.03497.07717-.02874.04245.0062.09295.0271.11224.04639.01929.01929.06029.01948.09111.00042.03082-.01905.11572-.041.18866-.04877.07294-.0078.14172-.04144.15284-.0748.01408-.04224.03398-.03894.06553.01085.0361.05698.04548.054.04611-.01468.00042-.04741-.03674-.1006-.08263-.11821-.04589-.01761-.10482-.0188-.13096-.0026-.02614.01616-.10074.04159-.16577.05651-.06503.01493-.26539.04428-.44525.06524-.19264.02245-.33372.01796-.34335-.0109-.009-.02696-.0507-.01474-.09269.02714-.04695.04682-.14472.0683-.25389.05577-.14786-.01697-.17198-.0059-.14427.06633.0183.04769.03364.11428.03407.14799.000504.03861.01775.03454.04659-.01102zm6.4949-.14343c.04838-.06616.05069-.10904.0086-.15974-.03163-.03811-.07845-.05637-.10404-.04055-.02558.01581-.04652.07064-.04652.12183 0 .05119.01706.11014.0379.13099.02085.02085.06767-.0028.10404-.05253zm.72368-.05997c.07563-.01446.1315-.06135.13196-.11077.000697-.0745.0074-.07541.05166-.007.04346.06725.05098.06534.05166-.01312.000635-.07266-.04412-.09181-.21466-.09181-.17492 0-.20947.01562-.18362.08299.01751.04564.03185.10139.03185.12388 0 .02249.05902.02961.13116.01583zm-5.4704-.10868c.02773-.02773.0423-.08771.03238-.1333-.01151-.05287-.04242-.06762-.08539-.04073-.03854.02412-.05239.08115-.03238.1333.02237.05829.05315.07298.08539.04073zm.26354.01387c.09378-.0208.20592-.04217.2492-.04748.04328-.0053.20316-.02869.3553-.05195.15213-.02326.29054-.06485.30758-.09241.01703-.02757.0097-.07145-.01641-.0975-.0282-.0282-.11595-.02772-.21678.0012-.10501.03011-.15787.02992-.13906-.000525.01668-.02698.0053-.04908-.02522-.04908-.03056 0-.05556.02542-.05556.05648 0 .03242-.07701.04985-.1808.0409-.09944-.0086-.19781.0014-.21859.02221-.02078.02076-.08107.03777-.13397.03777-.06243 0-.09618.03828-.09618.10909 0 .09586.02068.1045.1705.07126zm5.6051-.02297c.03462-.04896.06455-.05739.0792-.0223.01673.04006.11805.0393.34991-.0026.24749-.04476.33087-.08238.34499-.1557.01457-.07562-.0054-.0904-.0916-.06786-.06488.01696-.11055.0038-.11102-.03185-.000571-.04318-.01191-.04406-.03935-.0031-.0212.0317-.07986.06072-.13035.06449-.05049.0038-.15083.01028-.22296.0145-.07214.0042-.13152.03421-.13196.06667-.000419.03246-.02369.02361-.05166-.01967-.03901-.06038-.05085-.04206-.05085.07869 0 .12542.01131.1414.05565.07869zm-8.2995 0c.06079 0 .11054-.02287.11054-.05082 0-.02794-.03568-.03713-.07929-.02039-.05674.02177-.07006.0064-.04685-.05411.02289-.05966.0038-.08332-.06498-.08039-.05358.0023-.06924.01561-.03479.02962.03445.01402.04963.05936.03373.10078-.01947.05075.0072.0753.08164.0753zm.61932-.12406c.01053-.01053.02884-.06954.0407-.13116.01398-.07259-.0051-.11202-.05411-.11202-.04163 0-.07568.04328-.07568.09618s.01574.11192.03497.13116c.01924.01924.04359.02636.05411.01584zm.33456-.03446c.08439-.0242.15419-.02794.15511-.0083.000875.01963.03633-.01014.07869-.06616.04236-.05601.07702-.07581.07702-.04399s.02951.0517.06558.04418c.03607-.0075.10689-.03157.15739-.05343.05049-.02187.09181-.05517.09181-.07401 0-.01883-.15345-.03401-.341-.03373-.23287.000367-.341.02078-.341.06444-1e-6.03527-.03528.0504-.07869.03373-.0475-.01823-.07869-.000262-.07869.04536 0 .04156.01358.08914.03018.10574.0166.0166.09923.01038.18362-.01382zm8.3097.05359c.04419 0 .08221-.02951.08448-.06558.0029-.04517.01179-.0469.02875-.0056.01354.03301.07069.04796.12701.03323.05633-.01473.10241-.06534.10241-.11247 2e-6-.06566-.04898-.08473-.20957-.0816-.11527.0023-.22442.01894-.24256.03708-.01814.01814-.01901.06942-.0019.11394.01708.04452.06722.08096.11141.08096zm-5.4272-.06697c.05714-.0043.10576-.04411.10803-.08847.0028-.05398.01289-.05896.0306-.01507.01456.03607.08351.06558.15324.06558.06973 2e-6.12678-.02051.12678-.04558s.06842-.03762.15204-.02787c.1267.01475.14777.0013.12638-.08043-.01691-.06466-.06429-.09295-.13893-.08293-.0623.0084-.19589.0309-.29688.05009-.10099.01918-.19238.05992-.20308.09051-.01193.03408-.03648.0281-.06339-.01545-.0332-.05373-.05871-.05629-.1045-.01051-.03331.03331-.04563.08473-.02739.11426.01826.02954.07994.05017.13708.04587zm6.1796-.05903c.13532-.0343.28145-.06051.32473-.05824.04328.0023.09604-.02027.11724-.05009.0212-.02982.03891-.07338.03935-.0968.00042-.02342-.08635-.02873-.19287-.0118-.10652.01693-.20406.04116-.21675.05385s-.06719-.000535-.1211-.02939c-.07553-.04042-.09803-.03435-.09803.02643 0 .04857-.03024.06728-.07869.04869-.0475-.01823-.07869-.000262-.07869.04536 0 .04156.01323.08879.0294.10496.01617.01617.14011.0013.27543-.03297zm-8.266-.04776c.06492-.01098.15935-.03792.20985-.05987.05049-.02195.09181-.07071.09181-.10835 0-.03764-.04131-.06053-.09181-.05086-.05049.0097-.14493.01938-.20985.02159-.08241.0028-.11804.03622-.11804.11073 0 .08161.02777.10202.11804.08676zm3.0867-.05074c.1179-.01099.23558-.0535.26151-.09447.02593-.04097.04751-.05001.04795-.02008.00042.02993.04612.05782.10149.062.05537.0042.11337-.02546.12886-.06585.01549-.04039.01105-.08402-.0099-.09696-.02093-.01294-.12024-.01401-.22067-.0024-.10044.01163-.22983.03025-.28754.04137-.05771.01113-.13444.02324-.1705.02692-.03607.0037-.06558.04331-.06558.08805 0 .06349.04708.07697.21436.06138zm2.99-.01093c.06002-.0045.13048-.0418.15658-.08304.03609-.05703.04765-.05852.04826-.0062.000608.05219.06094.05995.25.03216.13706-.02014.25662-.05568.2657-.07896.0091-.02328.05039-.02933.09181-.01343.04249.01631.07565-.0021.07611-.04229.000666-.05902.0084-.05922.04519-.0012.03417.05391.0505.04659.07101-.03181.02411-.09217.0011-.10056-.24192-.08846-.1477.0073-.32757.03529-.3997.06208-.07214.02679-.20788.04375-.30166.03769-.14438-.0093-.1705.0068-.1705.10523 0 .08534.02901.11411.10912.10821zm2.9468-.0068c.12263-.01611.30969-.04792.41568-.07068.11978-.02571.21344-.02064.24748.01339.03804.03804.06462.02905.08705-.0294.01776-.04628.06575-.07131.10664-.05562.04979.01911.07435-.0083.07435-.083 0-.09563-.02057-.10628-.14427-.07471-.07935.02025-.18558.03398-.23608.03049-.05161-.0036-.09447.03244-.0979.08222-.0055.07958-.0085.07925-.03008-.0032-.01319-.05049-.03109-.09181-.03978-.09181-.0087 0-.1089.03285-.2227.073-.13739.04847-.23655.05641-.29514.02363-.07239-.04054-.08823-.02566-.08823.08282 0 .12518.01188.13066.22296.10291zm-8.455-.09993c.04019-.10285.0406-.10284.04791.0012l.0073.10492.04509-.10492c.0248-.05771.04674-.08044.04877-.05051.002.02993.05091.05797.10861.06232.06765.0051.10492-.02444.10492-.08314 0-.07327-.0435-.08961-.22296-.08372-.12263.004-.2415.01104-.26416.01561-.02266.0045-.01304.06088.02135.12516.06075.11352.06371.1139.10308.01312zm-2.4313-.09475c.01251-.05275.0089-.10981-.0081-.12678-.01698-.01698-.04559-.01615-.06358.0018-.01799.01799-.01434.07505.0081.12678.03901.08989.04184.08981.06358-.0018zm3.0169.05987c.06492-.009.13409-.05183.1537-.09511.03085-.06808.03615-.06754.03935.004.0027.0615.04391.07682.16054.0597.09751-.01431.14422-.04561.12346-.08272-.01968-.03519-.0044-.03278.03726.0059.03886.03607.08954.06558.11262.06558.02308 0 .04197-.0422.04197-.09377 0-.06704-.04595-.09727-.16118-.10605-.09774-.0074-.14829.0086-.12843.0407.01919.03105-.0011.03999-.04907.02159-.045-.01727-.16426-.01593-.26504.003-.11373.02137-.18322.0646-.18322.11402 0 .05245.04027.07401.11804.0632zm6.1823-.10114c.03156-.04983.04627-.05258.04682-.0087.00042.03516.03031.0536.06638.04096.03607-.01263.16001-.03509.27543-.04991s.25707-.03735.31477-.05007c.05771-.01271.12339-.02493.14596-.02713s.06239-.05713.08848-.12205c.02752-.06846.04918-.08499.05158-.03935.0037.06995.0098.06995.05498 0 .02843-.04401.05121-.05196.05166-.01803.000473.03473.04566.04894.10573.03323.05771-.01509.10492-.04554.10492-.06766s-.04387-.05169-.09748-.06572c-.05362-.01403-.17605.0075-.27207.04792-.09602.04038-.25872.08732-.36156.10432-.10284.01701-.31092.0323-.4624.03399-.15148.0017-.27543.01223-.27543.02342s.02614.0692.0581.12891c.0466.08708.06721.09418.10412.0359zm-8.53.006c.04328 0 .07905-.02951.0795-.06558.000559-.04576.01245-.048.03935-.0074.0212.03198.08576.04799.14347.03557.05771-.01242.14675-.0223.19787-.02197.05112.000315.08134-.01816.06717-.0411s.0322-.03063.10306-.01708c.07086.01354.21606.0083.32267-.01173.14336-.0269.17429-.04874.11877-.08387-.06228-.03942-.06017-.04764.01237-.04831.04809-.00042.09531.02232.10492.0506.0099.02919.10251.03755.21422.01937.13039-.02123.19813-.06068.20088-.11698.0026-.05433.01367-.06131.0306-.01937.01456.03607.07344.06558.13086.06558.07141 0 .09863-.02901.08614-.09181-.01285-.06465-.05667-.08614-.14812-.07265-.07143.01054-.15347.02301-.18232.02771-.02885.0047-.08197.02698-.11804.04952-.03954.0247-.06765.0137-.07081-.02771-.0029-.03777-.02413-.0097-.04723.06248-.03115.09726-.04335.10596-.04723.03366-.0043-.07948-.03178-.09083-.14898-.06142-.07906.01984-.15787.05893-.17513.08686-.018.02912-.06101.01508-.10082-.03288-.0456-.05495-.08135-.06438-.10415-.02749-.0191.0309-.09102.06702-.15983.08027-.06881.01326-.20448.02944-.30149.03597-.097.0066-.18947.03307-.20548.05897-.01601.0259-.0494.01506-.07421-.02409-.03294-.05199-.04532-.03936-.0459.04686-.000477.07031.03102.11804.07789.11804zm3.4892-.07291c.24357-.04028.31407-.07169.30106-.13411-.0099-.04733-.06014-.0751-.1199-.06622-.05661.0084-.20325.02919-.32588.04617-.12263.01698-.22296.05928-.22296.094s.01117.07429.02482.08794.16794.0011.34287-.02779zm2.9641-.03201c.11847 0 .12506-.01047.06608-.10492-.03604-.05771-.09526-.10492-.1316-.10492-.03634 0-.06607.04722-.06607.10492 0 .07704.03497.10492.1316.10492zm.87569-.05961c.02021.0039.05562-.02237.07869-.05843.02307-.03607.11278-.07172.19934-.07922.08656-.0075.2457-.02052.35364-.02893.12443-.0097.23849-.06064.31168-.13919l.11543-.1239-.18052.03826c-.09929.02105-.26052.04914-.3583.06243-.09778.01329-.20171.03895-.23096.05703-.02925.01807-.16762.02882-.3075.02386-.14352-.0051-.25432.01428-.25432.04443 0 .02939.02951.05378.06558.05423.04631.000566.04382.01458-.0085.0477-.05732.03629-.04546.05229.05246.07075.0696.01312.14308.02706.16329.031zm1.2929-.27702c.0766-.0154.26912-.04159.42782-.05822.1587-.01661.29534-.04942.30366-.07288.0083-.02347.08401-.03465.1682-.02484.0842.0098.16437-.00042.17816-.02273.01379-.02231.0012-.07485-.02793-.11675-.04167-.0599-.05884-.0617-.08034-.0084-.01987.04927-.0459.05236-.09537.01131-.04986-.04138-.09054-.03396-.15228.02779-.04634.04634-.08425.0627-.08425.03636 0-.02674-.09932-.03282-.22488-.01376-.12369.01877-.25353.05183-.28854.07347-.03501.02164-.06366.01757-.06366-.0091 0-.02662-.05312-.04283-.11804-.03602-.06492.0068-.12683.01539-.13758.01907-.01075.0037.01286.04664.05246.09546.06132.0756.06108.08217-.0017.04436-.05132-.03093-.06175-.02509-.03435.01924.02287.037.09764.05192.17861.03564zm-1.5403-.20548c.04124 0 .08907-.03671.10629-.0816.02429-.0633.0406-.06658.07272-.01459.02985.0483.11665.05703.31095.03125.14825-.01966.25984-.05145.24799-.07063-.01186-.01918.0617-.02516.16345-.01327.15854.01851.18212.0075.16481-.07654-.01268-.06163-.05848-.0935-.12311-.08567-.05661.0068-.19332.0225-.30381.03477-.11049.01226-.21393.03533-.22986.05126-.01593.01593-.07308.0053-.127-.02349-.06546-.03504-.09803-.03498-.09803.00021 0 .02897-.03481.0393-.07735.02298s-.10936.0024-.14849.04146c-.03913.03913-.06268.09651-.05235.12751.01033.031.05253.05636.09377.05636zm2.9256-.0055c.12263-.01741.30604-.05105.40757-.07474.10153-.0237.22548-.0371.27543-.02976.05383.0079.09251-.02217.09496-.07384.0026-.05451.01406-.0626.0306-.02159.01455.03607.06163.06558.10463.06558.0467 0 .07053-.03696.05919-.09181-.01165-.05635-.05872-.08645-.12189-.07792-.0566.0076-.20915.02952-.339.04862s-.34822.03407-.48528.03327c-.22942-.0013-.2492.0087-.2492.12619 0 .12018.01306.12581.22296.09601zm-10.694-.08192c.06759 0 .15228-.03541.1882-.07869.03592-.04328.04472-.07833.01954-.07789-.02517.00042-.08039.0227-.1227.04946-.04877.03085-.10158.0282-.14427-.0073-.03704-.03071-.06733-.11494-.06733-.18715 0-.11866.01555-.12818.1616-.09897.11602.02321.15555.01395.14016-.03279-.01179-.03581-.07401-.07283-.13826-.08225-.06425-.0094-.15093.01117-.19262.04577-.04169.0346-.07581.10879-.07581.16486 0 .05607.02444.14761.05431.20342.02997.05599.10939.10148.17719.10148zm.38549-.1705c.01378-.10184.04986-.14427.12265-.14427.05792 0 .12393.05174.15058.11804.04145.10312.04786.09372.05077-.0744.0018-.10584-.01101-.22979-.02852-.27543-.01751-.04564-.05452-.08299-.08223-.08299s-.03629.04442-.01905.09871c.02023.06376.0012.11026-.05366.13132-.04674.01794-.10647.01934-.13272.0031-.02625-.01625-.04772-.06355-.04772-.10513 0-.04158-.02405-.0756-.05346-.0756s-.04121.05902-.02623.13116c.01498.07214.04362.19608.06366.27543l.03643.14427zm.47764.04372c.03275-.02024.05954-.07081.05954-.11239 0-.04158.03252-.0756.07227-.0756s.10213.03598.13863.07996c.0365.04398.07645.06987.08878.05754s-.02611-.11753-.08542-.23379-.13015-.22516-.15742-.24202c-.02727-.01686-.06073-.01256-.07433.0096-.01361.02211-.04204.1557-.06316.29687-.02787.18623-.02208.24657.02112.21987zm.4858-.08307c.02524 0 .0459-.04446.0459-.09881 0-.05593.04732-.11118.10907-.12733.07841-.0205.10422-.06279.09181-.15039-.01341-.09467-.0553-.12553-.18777-.13831-.13937-.01344-.1705.0021-.1705.08525 0 .05593.01476.17547.03279.26564.01804.09017.05345.16394.07869.16394zm.05902-.2754c-.03846.01281-.06558-.02335-.06558-.08746 0-.06444.03387-.1093.08254-.1093.04885 0 .07562.03569.06558.08746-.0093.04811-.04647.09729-.08254.1093zm5.6097.23569c.07208-.01885.08473-.03949.04081-.06663-.03499-.02162-.0474-.06557-.02757-.09765.02167-.03506-.0041-.05833-.0647-.05833-.07784 0-.09531.02841-.07686.12495.01807.09453.04931.11831.12832.09765zm-5.1074-.25629c.0094-.11056.04409-.21775.07717-.2382.03308-.02044.04481-.05251.02607-.07125-.01875-.01874-.10659-.01815-.19521.0013-.08863.01947-.16114.05713-.16114.08369s.03541.04829.07869.04829c.05143 0 .07869.05149.07869.14864 0 .08175.01771.16662.03935.18859s.04701-.05051.05637-.16108zm5.9374.15215c.07214-.01542.14665-.0366.16558-.04707.01893-.01047.02221-.06574.0073-.12282-.02147-.08213-.06152-.09928-.19181-.08218-.09057.01188-.18237.02321-.20401.02515-.02164.0019-.03935.04879-.03935.10409 0 .0553.02951.11187.06558.12571.03607.01383.1246.01254.19673-.0029zm-5.5055-.01353c.08487 0 .1543-.02509.1543-.05576 0-.03066-.05092-.04837-.11316-.03935-.06224.009-.12223-.01009-.1333-.04249-.01108-.03239.03394-.0767.10005-.09847l.12019-.03957-.11804-.02322c-.06492-.01277-.11804-.04158-.11804-.06401 0-.02244.05312-.06642.11804-.09773.11181-.05392.1092-.05711-.04937-.06048-.09207-.0019-.17669.01416-.18804.0358-.01135.02164.000472.13968.02622.26231.04228.20115.06196.22296.20116.22296zm.29833-.14427c.01136-.06492.03485-.11804.05222-.11804s.07819.04131.13517.09181c.07263.06436.1102.07299.12567.02885.01487-.04244.06029-.04841.13937-.01835.06798.02585.15475.02364.20635-.0053.04897-.02739.08905-.08528.08905-.12863 0-.04335-.0708-.1035-.15732-.13366-.08653-.03017-.14356-.07711-.12674-.10433.01682-.02722.07582-.03513.13109-.01758.05528.01754.10051.0083.10051-.02056 0-.02885-.04389-.06639-.09753-.08342-.05364-.01702-.13627-.01609-.18362.0021-.04735.01817-.08608.07896-.08608.13508 0 .06659.05561.12143.16006.15784.08804.03069.14581.07005.12839.08747-.01742.01742-.11425.03454-.21519.03804-.15569.0054-.18223-.01026-.17505-.10332.0046-.06033.0059-.1392.0026-.17526-.0034-.03861-.07994-.06558-.18613-.06558-.17827 0-.18001.0023-.15292.19673.01507.1082.04135.23215.05839.27543.02266.05753.03655.04694.05164-.03935zm.09205-.22296c-.04809 0-.07897-.02537-.06864-.0564.01034-.03101.04123-.0564.06864-.0564s.0583.02538.06864.0564c.01034.03101-.02055.0564-.06864.0564zm5.4954.28766c.06492-.0098.23608-.03443.38035-.05467.14427-.02023.29772-.04372.341-.05218.04328-.0085.13181-.0172.19673-.0194.07022-.0024.11804-.03715.11804-.0858 0-.04499-.02361-.0672-.05246-.04937s-.05246.01047-.05246-.01637c0-.02683-.08669-.04438-.19266-.03899-.13601.0069-.20434.03964-.23239.11128-.02185.0558-.04139.07452-.04342.04159-.0024-.03832-.1077-.05668-.29259-.05099-.1589.0049-.28874.02593-.28854.04676.00021.02083.000368.0712.000368.11194 0 .04714.04292.06757.11804.05621zm1.2853-.20966c.05049-.02098.19214-.03795.31477-.0377.20712.00042.22267-.0094.21882-.13796-.0023-.07613-.01477-.11275-.02775-.08139-.01417.03424-.14865.05177-.33657.04388-.17213-.0073-.32629.0084-.34258.03478-.01629.02636-.0046.04792.02594.04792.03056 0 .05556.03794.05556.08431 0 .05985.02663.07324.09181.04616zm-.0077-.03975c-.01744.01743-.02983-.01355-.02755-.06886.0025-.06112.01495-.07354.0317-.0317.01515.03787.01329.08312-.0041.10055zm.84705-.06963c.1082-.01987.20377-.05384.21236-.0755.0086-.02166.06171-.02732.11804-.01259.07038.01841.10241.000258.10241-.05803 0-.06195-.04949-.08481-.18362-.08481-.13832 0-.18464.02265-.18776.09181-.0024.05485-.01479.0654-.0306.02623-.01451-.03606-.07167-.06557-.12697-.06557-.06632 0-.10055.03653-.10055.1073 0 .09544.02175.10331.19673.07117zm.66548-.12601c.06683 0 .19528-.01475.28545-.03279.1284-.02568.16394-.05981.16394-.15739 0-.06852-.02222-.1246-.04937-.1246s-.0642.02399-.08232.05332c-.01813.02933-.05242.04129-.07622.02658-.02379-.01471-.12935.0092-.23457.0532-.10522.04396-.17716.10283-.15986.13081.0173.02798.08612.05087.15294.05087zm.61989-.06558c.03607-.01202.06558-.05334.06558-.09181s-.02951-.07979-.06558-.09181c-.03901-.013-.06558.02419-.06558.09181 0 .06761.02657.10481.06558.09181zm.26231-.07029c.06492-.02091.14755-.03824.18362-.03851.03607-.000262.06558-.04378.06558-.09668s-.01027-.09618-.02281-.09618c-.01255 0-.0818.02243-.15389.04984-.09306.03539-.1385.03158-.15666-.01312-.01407-.03463-.02745.0036-.02973.08486-.0037.13019.0099.14328.1139.1098zm.48528-.08601c.09663-.008.13116-.04107.13116-.12563 0-.10358-.01276-.10886-.13075-.05413-.07191.03335-.13093.08989-.13116.12563-.000209.03733.05542.06037.13075.05413zm-6.4361-.74387c.16014-.01882.32487-.0622.36608-.0964.05541-.04598.06676-.1317.04356-.32907-.01725-.14678-.04624-.34123-.06441-.4321-.02993-.14964-.01887-.16856.11728-.2007.08268-.01952.30502-.11556.4941-.21343.18908-.09787.45521-.28781.5914-.42208.13619-.13427.32381-.39874.41692-.58771.14939-.30317.17144-.40438.18746-.86052.01302-.37059-.01483-.70271-.09834-1.1731-.09839-.55417-.10591-.67591-.04837-.78342.04898-.09153.0545-.18242.01965-.32352-.04259-.1724-.06977-.19828-.22381-.21304-.09643-.0092-.25345.02027-.34893.06558-.09549.04531-.18775.08238-.20503.08238s-.03142-.0331-.03142-.07356-.06889-.09758-.15308-.12693c-.13854-.04829-.1566-.08244-.19009-.35925-.02036-.16824-.08929-.60099-.15319-.96167-.0639-.36068-.16688-.75451-.22886-.87518-.06197-.12067-.13701-.23444-.16674-.25282-.02974-.01838-.0381-.06129-.01857-.09537.01952-.03407.01667-.04494-.0063-.02416-.02301.02079-.10786-.0092-.18856-.06668-.08074-.05746-.24573-.13939-.36668-.18207-.12095-.04268-.32908-.07716-.46251-.07662-.13343.000532-.43146.03453-.6623.07554-.23083.04102-.50742.11138-.61464.15638-.10722.045-.27397.16083-.37056.25742-.09659.09659-.22134.26777-.27722.3804-.07647.15412-.1016.3151-.1016.65071 0 .24526.04275.71574.09499 1.0455.05224.32976.10832.66618.1246.74759.02289.11443.01.14802-.05677.14802-.0475 0-.11237.05705-.14414.12679-.05123.11243-.09071.12649-.3486.12418-.21893-.002-.30748.02016-.3582.08952-.03944.05394-.0552.16015-.03802.25618.01615.09022.06871.19945.1168.24273.06079.05471.13016.33849.2276.93105.10668.64881.17937.93453.30436 1.1964.09404.19705.27505.45375.4236.60075.14266.14117.40642.3286.58613.4165.17971.08791.45391.18356.60933.21257.15542.029.38373.05274.50734.05274.20332 0 .22746.01375.25316.14427.01563.07935.04412.26231.06331.40658.0192.14427.04687.2829.06149.30805.01463.02516.15762.03034.31775.01152zm-.67143-1.1871c-.34597-.0013-.58051-.03109-.76322-.09691-.14508-.05226-.35855-.15485-.47438-.22797-.11583-.07312-.28098-.2131-.367-.31107-.08602-.09797-.21905-.30734-.29563-.46526-.09191-.18954-.1767-.51894-.24947-.96915-.06063-.3751-.12115-.74883-.13449-.8305-.01433-.08771.0062-.17897.05022-.22296.04096-.04096.10905-.07448.1513-.07448.04226 0 .09042.03541.10703.07869.0166.04328.08889.07869.16062.07869.10624 0 .13578.03161.15931.1705.01589.09378.05007.31215.07596.48528.03651.24412.03101.33287-.02453.3954-.03937.04435-.06211.12697-.05051.18362.01159.05664.03476.16791.05147.24726.01672.07935.06504.14427.10738.14427.04235 0 .10976.07844.14982.17432.04006.09587.15028.26252.24493.37033.09465.1078.26448.24314.37739.30074.11291.0576.31745.11801.45454.13425.13709.01624.46008.0022.71777-.03128.28608-.03713.57523-.11228.74259-.193.15074-.07271.35603-.22795.4562-.34497.10017-.11702.21882-.32046.26366-.45208.04485-.13162.08154-.28401.08154-.33864 0-.05463.03694-.13627.0821-.18142.06125-.06125.07329-.1369.04741-.29791-.01908-.1187-.07607-.25123-.12666-.29451-.05767-.04935-.11596-.22541-.1563-.47216-.03539-.21641-.07594-.43478-.09013-.48528-.01884-.06707.0047-.09181.08758-.09181.07024 0 .12409-.04099.14154-.10774.02192-.08381.06343-.1042.1869-.09181.1243.01247.1625.04438.17609.14708.0096.07214.05719.34363.10587.60332s.08915.70824.08994.99678c.0013.4909-.0096.54605-.17002.85794-.0943.18332-.27021.42765-.39092.54294-.12071.1153-.32952.26564-.46402.33411-.1345.06846-.41732.17236-.62849.23088-.26565.07361-.53783.10581-.88339.1045zm-1.588-4.31c-.06442.01241-.09181-.01592-.09181-.09494s.02739-.10734.09181-.09494c.05049.0097.09181.05245.09181.09494s-.04131.08522-.09181.09494zm.45904-.04248c-.03711 0-.08039-.03369-.09619-.07485-.0158-.04117.000157-.09884.03549-.12815.03532-.02932.09374-.03505.12981-.01276.03608.0223.05047.07997.03198.12816-.01849.04819-.06398.08761-.10109.08761zm.48528-.11491c-.06442.01241-.09181-.01592-.09181-.09494s.02739-.10734.09181-.09494c.05049.0097.09181.05244.09181.09494 0 .04249-.04131.08522-.09181.09494zm.45905-.04248c-.03711 0-.08039-.03369-.096191-.07485-.0158-.04117.0011-.09963.03761-.12991.04647-.03857.08357-.0378.12394.0025.03169.03169.04512.09014.02986.12991-.01526.03977-.0581.0723-.09521.0723zm.48528-.11491c-.06442.01241-.09181-.01592-.09181-.09494s.02739-.10734.09181-.09494c.05049.0097.09181.05245.09181.09494 0 .0425-.04131.08522-.09181.09494zm.4727-.05269c-.04541.0088-.09924-.01096-.11961-.04392-.02037-.03296-.01235-.08462.01781-.1148.03017-.03017.09382-.03991.14144-.02163s.07676.06273.06475.09877c-.01201.03605-.05898.07276-.1044.08157zm.51792-.10049c-.05403.04484-.08566.04276-.12816-.0085-.03267-.03937-.03783-.09806-.01226-.13945.02429-.0393.08196-.05696.12816-.03923.04619.01772.08398.05369.08398.07992 0 .02622-.03228.07447-.07173.10722zm-2.9532-.0089c-.03343.01113-.07613-.0046-.09491-.035-.01877-.03038-.01954-.07884-.0017-.1077.01783-.02885.06818-.05246.11187-.05246.04597 0 .07229.03685.06248.08746-.0093.04811-.04431.09657-.07773.10769zm.44617-.03776c-.02622 0-.06188-.037-.07924-.08222s-.0058-.10796.02565-.13942c.0413-.0413.07988-.03838.13877.01048.06213.05157.06739.08478.02203.13942-.03275.03945-.08099.07173-.10722.07173zm.50956-.10492c-.04158 0-.09019-.02361-.10802-.05246-.01784-.02885-.01784-.07607 0-.10492.01783-.02885.06644-.05246.10802-.05246s.0756.04722.0756.10492c0 .05771-.03402.10492-.0756.10492zm.44515-.05246c-.020511 0-.053031-.01574-.072271-.03497-.01924-.01924-.03497-.06645-.03497-.10492 0-.03847.04328-.06995.096181-.06995.0529 0 .11171.01554.1307.03452.01898.01898.0082.0662-.02391.10492-.03213.03873-.07521.0704-.09573.0704zm.46984-.10492c-.07902 0-.10734-.02739-.09494-.09181.0097-.05049.05245-.09181.09494-.09181s.08522.04131.09494.09181c.0124.06442-.01592.09181-.09494.09181zm.49511-.06883c-.03066.0102-.07197.0024-.09181-.01751-.01984-.01984-.03607-.06754-.03607-.10602 0-.03847.04895-.06995.10877-.06995.07334 0 .10325.02849.09181.08746-.0093.04811-.04205.09581-.0727.10602zm-2.4275-.08855c-.0529 0-.11029-.01411-.12754-.03136-.01725-.01725-.01866-.06447-.0031-.10492.01552-.04046.07291-.07356.12754-.07356.06434 0 .09931.03695.09931.10492 0 .06677-.03498.10492-.09618.10492zm2.8767 0c-.07902 0-.10734-.02739-.09494-.09181.0097-.0505.05245-.09181.09494-.09181.0425 0 .08522.04131.09494.09181.0124.06442-.01592.09181-.09494.09181zm-2.4133-.05246c-.03066 0-.07026-.03779-.08798-.08398s.000524-.10423.04055-.12897c.04096-.02531.09323-.02454.11954.0017.02572.02571.03255.08375.0152.12897-.01736.04522-.05664.08222-.08731.08222zm.47601-.10492c-.07508 0-.10877-.03369-.10877-.10877 0-.07508.02825-.10333.09121-.09121.05016.0097.09911.05861.10877.10877.01213.06296-.01612.09121-.09121.09121zm.46357-.05246c-.02806 0-.06521-.037-.08257-.08222s-.0086-.10524.01961-.13338c.03323-.03323.07402-.02362.11641.02745.03588.04324.05001.10326.03141.13338-.01862.03012-.056801.05476-.084861.05476zm.48-.10492c-.056 0-.11805-.02625-.13788-.05833-.01982-.03208-.0057-.07711.03149-.10007.03714-.02296.09919-.0296.13788-.01475.03868.01485.07033.05988.07033.10007 0 .04019-.04583.07308-.10183.07308zm.46432-.05246c-.02806 0-.06521-.037-.08257-.08222s-.0086-.10524.01961-.13338c.03323-.03323.07401-.02362.11641.02745.03588.04324.05001.10326.03141.13338-.01862.03012-.0568.05476-.08486.05476zm.49789-.06817c-.03174.01056-.08465-.01326-.11758-.05294-.03294-.03969-.04435-.08769-.02536-.10667.01899-.01898.07953-.03452.13455-.03452.06518 0 .09412.03047.08306.08746-.0093.04811-.04293.09611-.07466.10667zm-2.919-.04695c-.04541.0088-.09924-.01096-.11961-.04392-.02037-.03296-.01236-.08462.01781-.1148.03017-.03017.09382-.03991.14144-.02163.04762.01827.07676.06273.06476.09878-.01201.03605-.05899.07276-.1044.08157zm.52408-.08182c-.03607.01326-.09509.01382-.13116.0012-.03607-.01258-.06558-.05379-.06558-.09158s.03253-.08119.0723-.09645.09879-.0012.13116.03111c.03237.03237.05885.07521.05885.09521s-.02951.04721-.06558.06047zm.47386-.08391c-.06675.06675-.0845.06641-.14188-.0027-.03608-.04347-.05035-.10367-.03174-.13379.01862-.03011.06647-.05476.10635-.05476.03988 0 .08849.02587.10804.0575.01954.03163.0012.09183-.04075.13379zm.45406-.05114c-.02705.0086-.08439-.0067-.12744-.03388-.05992-.03784-.06382-.06386-.01664-.11104.03389-.03389.10058-.04667.1482-.02839.04762.01827.07724.06125.06582.0955s-.042891.06927-.06994.07781zm.41733-.08768c-.03677 0-.08145-.02361-.09928-.05246s-.01783-.07607 0-.10492c.01784-.02885.06392-.05246.10241-.05246.03849 0 .08269.0331.09821.07356.01553.04046.01411.08768-.0031.10492-.01723.01725-.06142.03136-.0982.03136zm.4809-.05246c-.04158 0-.09019-.02361-.10802-.05246-.01783-.02885-.01783-.07607 0-.10492.01784-.02885.06644-.05246.10802-.05246.04158 0 .0756.04722.0756.10492 0 .05771-.03402.10492-.0756.10492zm.46906-.10492c-.03988 0-.08414-.01883-.09837-.04186-.01423-.02302-.0056-.07462.01914-.11467.03707-.05998.05947-.0608.12712-.0046.04516.03748.06918.08908.05336.11467-.01581.02558-.06138.04652-.10125.04652zm-2.4165-.06883c-.03066.0102-.07197.0024-.09181-.01751-.01984-.01984-.03607-.06754-.03607-.10602 0-.03847.04895-.06995.10877-.06995.07334 0 .10324.02849.09181.08746-.0093.04811-.04205.09581-.0727.10602zm.47854-.08855c-.04158 0-.09146-.02566-.11085-.05704-.01938-.03137-.01103-.08125.01856-.11085.0296-.0296.07948-.03795.11085-.01856.03136.01938.05704.06927.05704.11085 0 .04158-.03402.0756-.0756.0756zm.44283-.05246c-.03067 0-.06995-.037-.08731-.08222s-.01051-.10326.0152-.12897c.02631-.02631.07857-.02708.11954-.0017.04003.02474.05828.08278.04055.12897-.01772.04619-.05732.08398-.08798.08398zm.47216-.10492c-.07902 0-.10734-.02739-.09494-.09181.0097-.0505.05244-.09181.09494-.09181.04249 0 .08522.04131.09494.09181.01241.06442-.01592.09181-.09494.09181zm.45904-.06245c-.06442.01241-.09181-.01592-.09181-.09494s.02739-.10734.09181-.09494c.05049.0097.09181.05245.09181.09494s-.04131.08522-.09181.09494zm-1.4684-.26254c-.04542.0088-.09924-.01096-.11961-.04392-.02037-.03296-.01235-.08462.01781-.1148.03017-.03017.09382-.03991.14144-.02163.04762.01827.07676.06272.06476.09877-.01201.03605-.05898.07276-.1044.08157zm.52174-.10366c-.03796.03149-.0972.03659-.1373.01181-.0388-.02398-.05432-.06985-.03449-.10192.01982-.03208.06867-.05833.10855-.05833.03988 0 .08544.02093.10125.04652.01582.02558-.0013.07145-.038011.10192zm.46522-.02602c-.04117.0158-.09884-.000174-.12815-.03549-.03045-.03668-.03435-.09487-.0091-.13568.02429-.0393.08196-.05696.12815-.03923.04619.01772.08398.06586.08398.10696 0 .0411-.03369.08765-.07486.10345z" stroke-width=".052462"/>
</svg>
