<svg version="1.1" viewBox="0 0 24 24" xmlns="http://www.w3.org/2000/svg">
 <path d="M0,0H24V24H0Z" fill="none"/>
 <path d="m12 2c-1.3711.88361-2.265 1.8479-2.8496 2.7422-1.1276-.32585-2.5537-.40801-4.2207.1875-.34448 1.5933-.29673 2.9058-.078125 3.9512-1.0277.56695-2.094 1.5194-2.8516 3.1191.88361 1.3711 1.8479 2.265 2.7422 2.8496-.32585 1.1276-.40801 2.5538.1875 4.2207 1.5933.34448 2.9058.29673 3.9512.078126.56695 1.0277 1.5194 2.094 3.1191 2.8516 1.3711-.88361 2.265-1.8479 2.8496-2.7422 1.1276.32585 2.5538.40801 4.2207-.1875.34448-1.5933.29673-2.9058.078126-3.9512 1.0277-.56695 2.094-1.5194 2.8516-3.1191-.88361-1.3711-1.8479-2.265-2.7422-2.8496.32585-1.1276.40801-2.5537-.1875-4.2207-1.5933-.34448-2.9058-.29673-3.9512-.078125-.56695-1.0277-1.5194-2.094-3.1191-2.8516zm-.017578 3.5625c1.242 0 2.25 1.008 2.25 2.25v1.9121h-4.498v-1.9121c0-1.242 1.0062-2.25 2.248-2.25zm-2.248 4.8926h4.498v1.9121c0 1.242-1.0081 2.25-2.25 2.25-1.242 0-2.248-1.008-2.248-2.25v-1.9121zm-1.2676.39258c.19947 0 .36133.1599.36133.35938v1.1895c0 1.7422 1.4109 3.155 3.1523 3.1582h.005859c.0015 2e-6.002406-2.2e-5.003906 0 1.7418-.0025 3.1543-1.4157 3.1543-3.1582v-1.1895c0-.19948.16185-.35938.36133-.35938.19947 0 .35938.1599.35938.35938v1.1895c0 2.0213-1.5438 3.6811-3.5176 3.8633l-.003906 2.0527c-.000216.19957-.16176.36154-.36133.36133-.19957-.000216-.36154-.16176-.36133-.36133l.001953-2.0527c-1.9734-.18248-3.5176-1.8422-3.5176-3.8633v-1.1895c0-.19948.16185-.35938.36133-.35938z" fill-rule="evenodd" opacity=".8613" style="mix-blend-mode:screen"/>
</svg>
