<svg xmlns="http://www.w3.org/2000/svg" viewBox="0 0 24 24">
    <path d="M0 0h24v24H0Z" fill="none" />
    <path d="M7.53 12.59a5 5 0 0 1 0-7.36 1 1 0 0 1 1.35 1.45 3 3 0 0 0 0 4.48 1 1 0 0 1 0 1.39 1 1 0 0 1-1.35.04ZM6.83 14A.89.89 0 0 1 7 15.42a.92.92 0 0 1-.8.39 1.42 1.42 0 0 1-.6-.2 8.88 8.88 0 0 1-3.39-6.7A7.92 7.92 0 0 1 5.63 2.2 1 1 0 0 1 7 2.4a1 1 0 0 1-.2 1.38 6.23 6.23 0 0 0-2.56 5.13A6.34 6.34 0 0 0 6.83 14Zm8.23-1.48a1 1 0 0 1 0-1.4 3 3 0 0 0 0-4.48 1 1 0 0 1 0-1.39 1 1 0 0 1 1.41 0 5 5 0 0 1 0 7.36 1 1 0 0 1-1.41-.06ZM18.37 2.2a7.94 7.94 0 0 1 3.39 6.71 8.29 8.29 0 0 1-3.39 6.7 1.42 1.42 0 0 1-.6.2.92.92 0 0 1-.8-.39.89.89 0 0 1 .2-1.39 6.34 6.34 0 0 0 2.59-5.12 6.23 6.23 0 0 0-2.59-5.13A1 1 0 0 1 17 2.4a1 1 0 0 1 1.37-.2Zm-4.23 6.7a2.14 2.14 0 1 0-3.29 1.81L8.43 22h2.1l2.4-11.17a2.14 2.14 0 0 0 1.21-1.93Z" />
</svg>