<svg fill="currentColor" viewBox="0 0 24 24" width="1em" height="1em"><path fill="none" d="M0 0h24v24H0Z"/><path d="M12 2a10 10 0 1 0 10 10A10 10 0 0 0 12 2Zm.07 11.5a1.5 1.5 0 1 1 1.5-1.5 1.5 1.5 0 0 1-1.5 1.5Zm5.34-.5h-1.55a4.09 4.09 0 0 0 .14-1 4 4 0 0 0-4-4 3.75 3.75 0 0 0-.95.13V6.59A5 5 0 0 1 12 6.5a5.5 5.5 0 0 1 5.5 5.5 6.52 6.52 0 0 1-.09 1Zm1.51 0a6.63 6.63 0 0 0 .08-1 7 7 0 0 0-7-7 7.45 7.45 0 0 0-.95.07V3.56A7.46 7.46 0 0 1 12 3.5a8.51 8.51 0 0 1 8.5 8.5 8.26 8.26 0 0 1-.06 1Z"/></svg>