<svg xmlns="http://www.w3.org/2000/svg" viewBox="0 0 24 24">
    <path d="M0,0H24V24H0Z" fill="none" />
    <path d="M2.49,10.51a.27.27,0,0,1,.37-.09l2.63,1.66a.27.27,0,0,1,.08.38.26.26,0,0,1-.22.12.28.28,0,0,1-.15,0L2.57,10.88A.27.27,0,0,1,2.49,10.51Zm3.61,1a.28.28,0,0,0,.23.13.23.23,0,0,0,.14,0,.27.27,0,0,0,.1-.37L5.32,9.14A.27.27,0,0,0,5,9.05a.28.28,0,0,0-.1.37ZM4.92,14a.28.28,0,0,0,.27-.24.27.27,0,0,0-.23-.3l-2.41-.33a.27.27,0,1,0-.08.53L4.88,14ZM21.6,6.89h0a.71.71,0,0,0-1-.09h0l-4.1,3.42L13.46,5.09a1.49,1.49,0,0,0-1-.73V1.89a.27.27,0,0,0-.54,0V4.34a1.5,1.5,0,0,0-1.1.75h0l-7,13.81a.73.73,0,0,0,1.26.72h0l7-13.78a.09.09,0,0,1,.09,0h0a.12.12,0,0,1,.09,0h0l3.13,5.3h0L9.91,15.71h0a.69.69,0,0,0,.88,1.07l5.31-4.42,3.3,5.58a.11.11,0,0,1-.1.16h0L5.34,20.24a.69.69,0,0,0-.68.69.7.7,0,0,0,.7.69h0l14-2.13a1.53,1.53,0,0,0,1.3-2.29h0l-3.44-5.77,4.28-3.55h0A.71.71,0,0,0,21.6,6.89Z" />
</svg>