<svg version="1.1" viewBox="0 0 24 24" xmlns="http://www.w3.org/2000/svg">
 <path d="M0,0H24V24H0Z" fill="none"/>
 <path d="m12.307 22.011c-.54416.01481-1.2177-.0015-1.4968-.03635-.27911-.03481-.81195-.13936-1.1841-.23234-.37214-.09298-.90999-.25894-1.1953-.36881-.28526-.10986-.71154-.29672-.94727-.41524-.23574-.11852-.64175-.35291-.90228-.52086-.26053-.16795-.68677-.4801-.94727-.69368-.2605-.21357-.6576-.58228-.88246-.81932-.22484-.23706-.5486-.6144-.71952-.83854-.17088-.22413-.45353-.64277-.6281-.93029-.17458-.28754-.43866-.80241-.58686-1.144-.1482-.34163-.34496-.88178-.43724-1.2003-.09228-.31844-.21611-.86858-.27518-1.2226-.06692-.40104-.10649-1.0388-.10501-1.6924.0017-.80126.03677-1.2164.14807-1.7592.08013-.39075.22138-.93882.3139-1.2179.09251-.27911.34519-.87285.5615-1.3194.21632-.44657.58776-1.0848.82541-1.4182.23765-.33344.70619-.88496 1.0411-1.2256.33493-.34061.83901-.78779 1.1202-.99362.28114-.20583.78319-.53024 1.1156-.72088.33246-.19063.90931-.46485 1.2819-.60937.37258-.14453.93625-.32576 1.2526-.40273.31632-.07697.87163-.16934 1.234-.20526.36237-.03592.98652-.05135 1.3871-.03431.40056.01705 1.0026.07484 1.338.12842.33537.05358.87034.17292 1.1888.26521.31844.09228.85092.28648 1.1833.43154.33236.14507.84578.40736 1.1409.58288.29511.17552.78542.51345 1.0896.75098.30418.23751.80417.7001 1.111 1.0279.30689.32786.74029.86852.9631 1.2015.22282.33295.52669.84713.67528 1.1427.14859.29552.38827.89091.53264 1.323.14437.43214.31614 1.075.38171 1.4285.08669.46742.11783.96588.11412 1.8269-.004.93895-.03526 1.3269-.15076 1.8734-.08012.37915-.23934.95769-.35382 1.2856-.11448.32792-.34122.86472-.50386 1.1929-.16264.32816-.46205.84578-.66536 1.1503-.20331.30449-.5714.77676-.81797 1.0496-.24657.27282-.65255.67838-.90221.9014-.24964.22302-.72277.58628-1.0513.80721-.32862.22096-.84625.52006-1.1503.66467-.30403.14461-.82108.35725-1.149.47253-.32792.11528-.90268.27207-1.2773.34841-.43399.08844-1.04.14857-1.6704.16573zm-.16458-8.7799c.23213-.01715.44149-.08573.61768-.20232.15771-.10437.32512-.29742.41005-.47285.07894-.16306.14353-.4251.14353-.58229 0-.15719-.05766-.39878-.12813-.53685-.07047-.13807-.18465-.30065-.25373-.36129-.06908-.06064-.22306-.15959-.34215-.2199-.1191-.06031-.35628-.10966-.52708-.10966-.17554 0-.42424.05801-.57209.13344-.14386.07339-.3236.21231-.39943.30871-.07583.0964-.1736.28355-.21728.41589-.04367.13234-.06431.37458-.04585.53831.01845.16373.11087.41452.20536.5573.09504.14361.30276.32615.46489.40854.22146.11254.37892.14259.64425.12298zm5.0067-.45529c.2015 0 .45778-.04727.56949-.10504.11172-.05777.22679-.16903.25572-.24723.02893-.07821.01272-.37162-.03606-.65202-.04876-.2804-.15393-.70958-.23372-.95377-.07979-.24418-.24351-.64651-.36383-.89409-.12032-.24756-.36646-.67384-.54698-.94727-.18052-.27344-.5739-.74151-.8742-1.0402-.30029-.29868-.76411-.68806-1.0307-.86527-.2666-.17724-.71025-.42645-.98591-.55382-.27566-.12736-.77223-.31027-1.1034-.40646-.33122-.09619-.83116-.1927-1.111-.21446-.43608-.03392-.52308-.02233-.60893.0811-.06394.07704-.10753.30656-.12054.6347-.01679.42323.0039.55286.11738.73394.13364.21331.15168.2199.60158.2199.25509 0 .69841.06001.98523.13335.28677.07335.7112.22393.94315.33463.23196.1107.62495.35511.87332.54313.24837.18801.60701.53221.797.76485.18999.23264.46424.66662.60946.96432.14522.29772.30811.73921.36197.98111.05386.24189.1181.61434.14273.82765.0352.30482.08195.41709.21836.52438.12553.09875.27495.13652.53994.13652zm2.8249-.34096c.10919.0014.32556-.05884.4808-.13399.15524-.07515.3119-.20306.34812-.28425.04456-.09986.0362-.33475-.02583-.72608-.05043-.31814-.16925-.86479-.26405-1.2147-.0948-.34995-.2893-.90749-.43222-1.239-.14292-.33152-.42724-.88252-.63181-1.2244-.20457-.34192-.61486-.91094-.91175-1.2645-.29689-.35354-.70775-.78664-.91297-.9625-.20523-.17582-.60186-.48376-.88137-.68434-.27952-.20054-.80768-.51794-1.1737-.70531-.36599-.18738-.93374-.43492-1.2617-.5501-.32792-.11518-.89118-.26835-1.2518-.34037-.36055-.07203-.8878-.15157-1.1717-.17677-.28388-.0252-.5782-.02611-.65405-.002-.07586.02407-.17091.13842-.21123.25409-.04033.11568-.07332.38945-.07332.60837 0 .21893.04412.50364.09804.6327.05392.12905.12243.23488.15224.23517.02981.000216.34079.01451.6911.03162.35028.01709.88313.08123 1.1841.14253.30097.06129.76032.18792 1.0208.2814.2605.09348.70281.28484.983.42526.28019.14041.75207.43659 1.0488.65817.2967.22158.74111.61353.9876.87102.24651.25748.62397.73779.83881 1.0674s.49327.84267.61874 1.1402c.12546.29749.28564.76046.35594 1.0289.0703.26839.14777.66808.17215.8882.02438.22013.05833.5045.07544.63194.01711.12744.06847.27673.11415.33176.04567.05503.1744.13988.28606.18854.11166.04866.29236.08967.40156.09113z" stroke-width=".067663"/>
</svg>
