<svg version="1.1" viewBox="0 0 24 24" xmlns="http://www.w3.org/2000/svg">
 <path d="m10.785 20.351a.82433.82433 0 11.017 1.6486.82433.82433 0 01-.017-1.6486m4.2489-12.237c0 .24644-.19545.44189-.44189.44189a.44189.44189 0 01-.44188-.44189v-1.6996c0-.24644.19545-.44189.44188-.44189.24644 0 .44189.20395.44189.44189zm-3.0422-6.1099s-5.0732-.27193-5.0732 5.2941v9.0672h2.5069v-1.5976h-.50137v-7.5036a3.2377 3.2377 0 013.0762-3.2207h.15296c1.2322 0 2.3029.68832 2.8468 1.7081a.7818.7818 0 00-1.1812.67133v1.6911a.7818.7818 0 001.1812.67133 3.2292 3.2292 0 01-4.5123 1.2407v4.7418h-.49287v2.8298a.80729.80729 0 00.80729.80729c.44188 0 .79879-.35691.79879-.79879v-.51837a.56085.56085 0 01.56935-.56935.57785.57785 0 01.57785.56935v1.4786c0 .22094.09348.41639.23794.56935.14446.14446.33991.23794.56086.23794.44189 0 .79879-.35691.79879-.79879v-1.4786a.56085.56085 0 01.56935-.56935c.23794 0 .45038.14446.52686.35691a.59485.59485 0 01.04249.21244v4.0874c0 .22094.09348.41639.23794.56935.14446.14446.33991.23794.56086.23794a.80729.80729 0 00.79879-.80729v-13.639c0-5.9145-5.0732-5.5406-5.0732-5.5406" fill="var(--podnews-accent)" stroke-width=".084978"/>
</svg>
