<svg version="1.1" viewBox="0 0 24 24" xmlns="http://www.w3.org/2000/svg">
 <path d="M0,0H24V24H0Z" fill="none"/>
 <path d="m2.0003 19.493v-2.5069l.3875.0346c1.5215.13601 2.8978.92444 3.7082 2.1244.5348.79185.7968 1.5253.88125 2.4672l.0348.3875h-5.0115zm7.48 1.9944c-.1245-1.8474-.8648-3.4743-2.1788-4.7884-1.3117-1.3117-2.9435-2.0542-4.7884-2.1788l-.5125-.0346v-4.9857l.2375.00045c.42992.00078 1.3777.0992 1.949.20233 2.9141.5262 5.5195 2.0512 7.4424 4.3566.77935.93414 1.5813 2.3025 2.0444 3.4883.46485 1.1902.82369 3.0216.82584 4.2148l.00045.23748h-4.9857zm7.5199.21976c0-.78355-.15831-2.1173-.35399-2.9822-.4852-2.1448-1.3533-4.0198-2.6931-5.817-.56-.75109-1.9436-2.1629-2.6529-2.7069-2.4364-1.8687-5.103-2.9093-8.0699-3.1491-.35462-.0287-.77649-.0521-.93749-.0521h-.29274v-5h.29602c.58554 0 1.8445.10771 2.6442.22622 6.3514.9413 11.887 4.9133 14.838 10.646 1.0045 1.9515 1.6758 4.0337 1.995 6.1875.11851.79969.22622 2.0586.22622 2.6442v.29601h-5z" stroke-width=".05"/>
</svg>
