<svg xmlns="http://www.w3.org/2000/svg" viewBox="0 0 24 24"><path d="M0,0H24V24H0Z" fill="none"/><path d="M13.51,22l-.45-.08A2.68,2.68,0,0,1,11,20.08a5.9,5.9,0,0,1-.28-1.91c0-.29,0-.3-.31-.3H9.11a.53.53,0,0,1,0-1.05c.44,0,.87,0,1.31,0,.19,0,.26-.07.26-.26,0-.4,0-.79,0-1.19,0-.16-.07-.23-.23-.25a3.34,3.34,0,0,1-2.94-3.47c0-.53.05-.48-.48-.48H6.75a.6.6,0,0,1-.51-.54.57.57,0,0,1,.51-.52h.46c.3,0,.31,0,.31-.3V5.43A3.36,3.36,0,0,1,10.3,2l.1,0h1.79a3.78,3.78,0,0,1,1.65.76A3.22,3.22,0,0,1,15,5.21c0,2.26,0,4.51,0,6.77a3.3,3.3,0,0,1-2.87,3.14c-.41.05-.41,0-.41.47v1c0,.17.07.24.24.24h1.46a.46.46,0,0,1,.51.51.48.48,0,0,1-.52.54H12c-.19,0-.26.07-.25.25A5,5,0,0,0,12,19.72a1.73,1.73,0,0,0,1.41,1.2A2.17,2.17,0,0,0,15.71,20c.36-.51.64-1.06,1-1.59a10,10,0,0,1,.79-1.24,2.14,2.14,0,0,1,2.9-.39,1.53,1.53,0,0,1,.32.35.42.42,0,0,1-.05.58.52.52,0,0,1-.59.11l-.17-.12a1.11,1.11,0,0,0-1.67.19c-.24.33-.43.7-.64,1.05-.38.62-.74,1.26-1.16,1.84A2.9,2.9,0,0,1,14.46,22l-.1,0ZM11.27,10.1h2.39c.3,0,.31,0,.31-.3V9.69c0-.37,0-.37-.38-.37H12.27a.52.52,0,0,1-.52-.52.53.53,0,0,1,.49-.54h1.48c.24,0,.24,0,.25-.35s0-.26-.25-.25H12.33a.54.54,0,1,1,0-1.08h1.33c.27,0,.28,0,.28-.3S14,6,13.69,6H12.17a.53.53,0,0,1-.5-.57.54.54,0,0,1,.44-.49,1.22,1.22,0,0,1,.27,0h1.29c.23,0,.25,0,.18-.25a2.18,2.18,0,0,0-1.8-1.53,6.19,6.19,0,0,0-1.29,0,2.27,2.27,0,0,0-2,1.55c-.07.23-.05.26.18.26h1.32a.54.54,0,1,1,0,1.08H8.91c-.3,0-.31,0-.31.3s0,.31.3.31h1.41a.54.54,0,1,1,0,1.07c-.5,0-1,0-1.48,0-.24,0-.27,0-.27.31s0,.28.27.29h1.38c.39,0,.64.21.65.52s-.25.55-.65.55H9.07c-.5,0-.48-.06-.48.49,0,.27,0,.29.3.29Zm0,1.06H8.85c-.18,0-.27.06-.26.25s0,.36,0,.52a2.25,2.25,0,0,0,2.18,2.15c.32,0,.64,0,1,0a2.23,2.23,0,0,0,2-1.26A2.61,2.61,0,0,0,14,11.44c0-.26,0-.28-.29-.28Z"/></svg>