<svg xmlns="http://www.w3.org/2000/svg" viewBox="0 0 24 24">
    <path d="M0 0h24v24H0Z" fill="none" />
    <path d="M20.47 16.9a2.14 2.14 0 0 0-2-.38c-.87.23-1.36 1.13-1.86 2.09C16 19.77 15.32 21 14 21c-1.11 0-2.25-.32-2.25-2.72v-.38h1.81c.23 0 .4-.23.4-.52s-.17-.53-.4-.53h-1.8v-1.68A3.35 3.35 0 0 0 15 11.83V5.36A3.35 3.35 0 0 0 11.68 2h-.8a3.34 3.34 0 0 0-3.34 3.36v4.78H6.8a.53.53 0 1 0 0 1h.74v.65a3.34 3.34 0 0 0 3.16 3.33v1.68H9c-.22 0-.4.24-.4.53a.47.47 0 0 0 .4.52h1.69v.38c0 2.49 1.1 3.74 3.27 3.74 1.95 0 2.81-1.62 3.5-2.92.4-.75.78-1.47 1.23-1.58a1.06 1.06 0 0 1 1.16.23.58.58 0 0 0 .36.15.47.47 0 0 0 .5-.48.66.66 0 0 0-.24-.47ZM8.58 9.34h1.77a.53.53 0 0 0 .53-.53.52.52 0 0 0-.52-.52H8.58v-.64h1.77a.53.53 0 1 0 0-1.05H8.58V6h1.67a.53.53 0 0 0 .53-.53.52.52 0 0 0-.53-.52H8.62a2.31 2.31 0 0 1 2.26-1.87h.81A2.31 2.31 0 0 1 14 4.92h-1.81a.52.52 0 0 0-.52.52.53.53 0 0 0 .52.53H14v.64h-1.7a.53.53 0 1 0 0 1H14v.69h-1.7a.53.53 0 1 0 0 1H14v.8H8.58v-.76Zm2.3 4.78a2.3 2.3 0 0 1-2.3-2.29v-.65H14v.65a2.3 2.3 0 0 1-2.3 2.29Z" />
</svg>