<svg xmlns="http://www.w3.org/2000/svg" viewBox="0 0 24 24"><path d="M0,0H24V24H0Z" fill="none"/><path d="M15.52,12.63V9.58l.37-.08c.46-.11.51.13.51.52v1.8c0,.33,0,.62-.51.73ZM7.65,9.85V7.12L8.09,7c.4-.09.49,0,.49.5V9c0,.51-.15.69-.55.78Zm5.89-4.47V2.48C9.92.82,6.3,4.14,2.68,2.48V19.06c2.64,1.21,5.27-.22,7.91-.44v2.9c3.58,1.66,7.15-1.66,10.73,0V4.94C18.73,3.74,16.14,5.14,13.54,5.38Zm-2.8,10.31a13.18,13.18,0,0,0-2,.32c-.1-.1-.18-.31-.18-.79V12.06c0-.5-.12-.61-.52-.52l-.41.1v4.62a16.38,16.38,0,0,1-2,.34V5.79a24.5,24.5,0,0,0,3.12-.6c1.21-.27,1.81.35,1.81,1.5V8.42A1.72,1.72,0,0,1,9.73,10a1.09,1.09,0,0,1,.84,1.17v3.67a1.36,1.36,0,0,0,.17.79Zm7.65-4a2.26,2.26,0,0,1-1.93,2.51l-.94.22v4.33a14.75,14.75,0,0,1-2,.34V8.26a23.56,23.56,0,0,0,2.81-.54c1.68-.38,2,.46,2,1.78Z" fill-rule="evenodd"/></svg>