<svg version="1.1" viewBox="0 0 24 24" xmlns="http://www.w3.org/2000/svg">
 <path d="m10.358 21.539c.08272-.05114.16617-.13476.21775-.21817l.08362-.13524.0074-2.3881c.0069-2.2528.01004-2.387.05526-2.3694.12357.0482.58719.12769.90126.15454.48955.04183 1.0924-.01518 1.626-.1538l.07553-.01962.0148 4.7764.08362.13524c.10433.16873.29465.29198.47809.30961.30606.02941 1.403-.18256 2.0276-.3918.98235-.32909 1.69-.74584 2.3026-1.356.63919-.63669.95066-1.2366 1.1477-2.2105.1059-.52336.20556-.82521.4105-1.2434.37464-.76441 1.0215-1.5066 1.7475-2.0049.26932-.18486.38664-.31108.43302-.4659.05887-.19645.02689-1.1117-.06762-1.9363-.3695-3.2226-1.8585-5.9164-4.2558-7.6991-1.1837-.88025-2.6717-1.5417-4.0862-1.8165-.57608-.11191-.88066-.13904-1.5611-.13904-1.0019 0-1.7092.11556-2.7152.4436-2.609.85082-4.7495 2.6928-6.004 5.1668-.78355 1.5452-1.2097 3.3155-1.274 5.2921-.025162.77343.00265.84389.45549 1.1541.90925.6229 1.665 1.6041 1.9914 2.5854.045488.13677.12044.43518.16657.66313.13849.68442.30814 1.1155.63008 1.6008.22607.34084.74186.86472 1.0987 1.1159.83661.58896 1.9379 1.0042 3.1642 1.1929.47655.07335.67354.06338.8453-.04282zm-1.2045-1.337c-.80172-.1879-1.4101-.43696-1.9508-.79858-.74127-.49583-1.1343-1.0776-1.3108-1.94-.042157-.206-.090887-.4298-.10829-.49735-.19576-.7598-.62223-1.5963-1.1614-2.278-.23004-.29085-.78062-.8363-1.0882-1.0781l-.24541-.19291.018108-.38781c.10813-2.3158.82785-4.3759 2.0969-6.0022.24135-.30928.6414-.74695.66256-.72488.00729.0076.25017.47542.53975 1.0396l.52651 1.0258.011926 1.7096c.011219 1.6068.015522 1.7287.071621 2.0274.19441 1.0349.55051 1.8826 1.0998 2.6181.20312.27199.67288.75698.88973.91856l.16686.12434.0011 2.245c.00061 1.2347-.002 2.2438-.0058 2.2425-.0038-.0014-.10016-.02436-.21414-.05107zm5.4708-2.2114v-2.2601l.07496-.04912c.12029-.07881.58114-.53428.75352-.74471.62733-.7658 1.0872-1.8226 1.2745-2.9288.06427-.37964.10343-1.4145.10596-2.7994l.0016-.83763 1.0914-2.0999.22179.23353c.91816.96675 1.6782 2.3383 2.097 3.7841.2572.88804.45812 2.1872.45812 2.9622v.17113l-.24177.19046c-.30517.24041-.8562.7869-1.0846 1.0756-.66704.84336-1.0643 1.7128-1.2702 2.7805-.07105.36824-.1338.55131-.28897.84299-.15703.29518-.31976.5056-.57631.74519-.55681.52-1.3887.9129-2.4442 1.1544l-.17269.03951zm-3.1637-2.7227c-.69929-.11368-1.2962-.43392-1.8094-.97076-.54801-.57322-.95345-1.3731-1.1324-2.234-.0762-.36662-.11564-1.2449-.10547-2.3486l.0079-.85655 7.1206-.0142-.01401 1.2918c-.0083.76703-.02742 1.3872-.04694 1.5267-.05094.36378-.20378.93426-.34038 1.2705-.50876 1.2524-1.3609 2.0516-2.4486 2.2965-.32343.0728-.90775.09103-1.2313.03844zm-3.8438-8.7784-.55573-1.0834.11664-.089061c.20135-.15375.65023-.436.99482-.62554.82886-.45592 1.812-.79551 2.7907-.96393.30231-.052032.46422-.061963 1.0223-.062769.66909-.0009591.80229.011176 1.3815.12653.82152.16352 1.7819.51933 2.5317.93795.30689.17134.93621.58104.98758.64294.03087.037192-.04558.20029-.52586 1.1219l-.56198 1.0784-7.626.000442-.55573-1.0834z" stroke-width=".02763"/>
 <path d="M0,0H24V24H0Z" fill="none"/>
</svg>
