<svg xmlns="http://www.w3.org/2000/svg" viewBox="0 0 24 24">
    <path d="M0 0h24v24H0Z" fill="none" />
    <path d="M10.36 21.54a.92.92 0 0 0 .22-.22l.08-.13V18.8a10.27 10.27 0 0 1 .05-2.37 4.61 4.61 0 0 0 .9.15 5.12 5.12 0 0 0 1.63-.15h.07v4.78l.08.13a.69.69 0 0 0 .48.31 8 8 0 0 0 2-.39 5.61 5.61 0 0 0 2.3-1.36 3.85 3.85 0 0 0 1.15-2.21 4.52 4.52 0 0 1 .41-1.24 5.36 5.36 0 0 1 1.75-2A.93.93 0 0 0 22 14a8.63 8.63 0 0 0-.1-2 10.94 10.94 0 0 0-4.25-7.7 10.37 10.37 0 0 0-4.09-1.81A6.38 6.38 0 0 0 12 2.37a7.87 7.87 0 0 0-2.72.44 10.28 10.28 0 0 0-6 5.19A12.42 12.42 0 0 0 2 13.27c0 .77 0 .84.45 1.15a5.35 5.35 0 0 1 2 2.59c0 .14.12.43.17.66a4.07 4.07 0 0 0 .63 1.6 5.3 5.3 0 0 0 1.1 1.12 7.56 7.56 0 0 0 3.16 1.19c.48.08.68.07.85 0ZM9.15 20.2a5.61 5.61 0 0 1-1.95-.8 2.83 2.83 0 0 1-1.31-1.94c0-.2-.09-.43-.11-.49a6.33 6.33 0 0 0-1.16-2.28 8.56 8.56 0 0 0-1.09-1.08l-.24-.19v-.39A10.39 10.39 0 0 1 5.4 7a5.55 5.55 0 0 1 .67-.73l.54 1 .52 1v1.71a11.37 11.37 0 0 0 .08 2 6 6 0 0 0 1.1 2.62 6 6 0 0 0 .89.92l.16.13v4.48l-.22-.05Zm5.47-2.2v-2.27l.08-.05a6.4 6.4 0 0 0 .75-.74A6.46 6.46 0 0 0 16.73 12a25.43 25.43 0 0 0 .1-2.8v-.83l1.1-2.1.22.23a9.46 9.46 0 0 1 2.1 3.79 13.06 13.06 0 0 1 .45 3v.17l-.24.19a9.18 9.18 0 0 0-1.08 1.08 6.05 6.05 0 0 0-1.27 2.78 2.83 2.83 0 0 1-.87 1.59 5.29 5.29 0 0 1-2.44 1.15h-.18Zm-3.16-2.72a3.2 3.2 0 0 1-1.81-1 4.68 4.68 0 0 1-1.13-2.24 14 14 0 0 1-.11-2.35v-.83h7.12V11.68a5.94 5.94 0 0 1-.34 1.27 3.52 3.52 0 0 1-2.45 2.3 4.23 4.23 0 0 1-1.23 0ZM7.62 6.49l-.56-1.08.12-.09a9.15 9.15 0 0 1 1-.63 9.31 9.31 0 0 1 2.79-1 6.06 6.06 0 0 1 1-.07 5.49 5.49 0 0 1 1.38.13 9.11 9.11 0 0 1 2.53.94 9.21 9.21 0 0 1 1 .64s-.05.2-.53 1.12l-.55 1.12H8.17l-.55-1.08Z" />
</svg>