<svg xmlns="http://www.w3.org/2000/svg" viewBox="0 0 24 24"><path d="M0,0H24V24H0Z" fill="none"/><path d="M17.91,10.87C14.69,9,9.37,8.77,6.3,9.71a.93.93,0,1,1-.54-1.79c3.53-1.08,9.4-.87,13.11,1.34a.93.93,0,1,1-1,1.6h0Zm-.1,2.83a.78.78,0,0,1-1.07.26h0a13.14,13.14,0,0,0-10-1.17.78.78,0,0,1-1-.49.79.79,0,0,1,.5-1h0a14.58,14.58,0,0,1,11.23,1.33.78.78,0,0,1,.26,1.07Zm-1.22,2.72a.63.63,0,0,1-.86.21h0c-2.35-1.44-5.3-1.76-8.79-1a.62.62,0,0,1-.27-1.21c3.81-.87,7.07-.5,9.71,1.11a.63.63,0,0,1,.21.86ZM12,2A10,10,0,1,0,22,12,10,10,0,0,0,12,2Z"/></svg>