<svg fill="currentColor" viewBox="0 0 24 24" width="1em" height="1em"><path d="M8.503 2.111q1.56-.873 3.49-.873 1.931 0 3.491.867a6.32 6.32 0 0 1 2.447 2.393q.885 1.527.885 3.404 0 1.88-.885 3.406a6.32 6.32 0 0 1-2.447 2.393q-1.56.866-3.49.866-1.931 0-3.491-.872a6.338 6.338 0 0 1-2.44-2.393q-.88-1.523-.88-3.399 0-1.876.88-3.399a6.338 6.338 0 0 1 2.44-2.393m6.335 2.87Q13.7 3.842 11.994 3.842T9.16 4.98Q8.028 6.118 8.028 7.903q0 1.785 1.13 2.922 1.132 1.138 2.836 1.138 1.705 0 2.844-1.138 1.138-1.137 1.137-2.922 0-1.785-1.137-2.923M6.333 23.032H3.326a8.367 8.367 0 0 1 2.356-4.52 8.487 8.487 0 0 1 1.797-1.338 8.672 8.672 0 0 1 2.136-.846 10.185 10.185 0 0 1 4.752-.002 8.733 8.733 0 0 1 2.138.84 8.303 8.303 0 0 1 1.799 1.333 8.395 8.395 0 0 1 2.37 4.533h-3.009a5.535 5.535 0 0 0-.55-1.308 5.48 5.48 0 0 0-2.11-2.064c-.893-.496-1.906-.747-3.01-.747s-2.119.253-3.012.753a5.489 5.489 0 0 0-2.104 2.063 5.535 5.535 0 0 0-.546 1.302"/></svg>