<svg version="1.1" viewBox="0 0 24 24" xmlns="http://www.w3.org/2000/svg">
 <path d="M0,0H24V24H0Z" fill="none"/>
 <path d="m11.43 22c-.48717 0-.61072-.02629-.97196-.2068-.22762-.11374-.49596-.30394-.59632-.42266-.10036-.11872-.24613-.3528-.32394-.52018-.13815-.29718-.14226-.41442-.17528-4.9986l-.033813-4.6943-1.7063-.62661c-.93846-.34464-1.8971-.72639-2.1302-.84834-.25186-.13173-.62087-.41918-.90912-.70819-.37027-.37123-.54903-.62015-.7547-1.0509-.14823-.31044-.30268-.72571-.34322-.92281-.040546-.1971-.073719-.61875-.073719-.93701 0-.31825.04776-.76299.10615-.9883.05838-.22532.20947-.61482.33574-.86556.12627-.25074.39796-.63776.60375-.86003.20579-.22228.56781-.53031.80449-.68451.23668-.1542.60154-.34055.81079-.41409s.6091-.16773.88856-.20929c.37465-.055723.64187-.055675 1.0174.0001826.36862.054826 1.8212.55433 5.2579 1.808 2.6117.95275 4.9616 1.8423 5.222 1.9768.31088.16056.63991.41223.95847.73313.33964.34213.55731.63656.72597.98198.13248.27134.28699.67472.34334.89641.05635.22168.10245.66416.10245.98328 0 .31912-.0461.7616-.10245.98328-.05635.22168-.20671.61608-.33414.87644s-.3865.6466-.57572.85832-.55878.52769-.82124.70217c-.26246.17448-.71047.39346-.99557.48662-.41145.13445-.65787.16959-1.1946.17036-.53435.000771-.7898-.03455-1.2173-.1683-.29756-.0931-.83772-.27901-1.2004-.41313l-.65936-.24386v3.8057c0 3.2144-.01603 3.8597-.10317 4.1531-.05674.19108-.20268.47788-.3243.63734-.14035.18401-.37656.37038-.64662.51018-.37947.19644-.48587.22027-.98361.22027z" stroke-width=".067626"/>
</svg>
