<svg version="1.1" viewBox="0 0 24 24" xmlns="http://www.w3.org/2000/svg">
 <path d="m8.1993 20.988c-.22052-.0023-.49602-.03072-.61222-.06314-.1162-.03242-.33804-.12338-.49298-.20213-.15493-.07875-.37998-.22989-.5001-.33586-.12012-.10597-.29766-.31208-.39453-.45802-.09687-.14594-.21553-.36905-.26369-.4958-.04817-.12675-.10873-.38258-.13459-.56852-.03621-.26031-.0311-.42928.02221-.73463.04235-.24256.12932-.51536.22394-.70244.08509-.16822.27091-.42282.41293-.56576.14202-.14295.43781-.36875.6573-.50179.2195-.13304.53084-.35657.69188-.49673.16104-.14016.42034-.39933.57624-.57592.15589-.17659.34918-.4546.42952-.6178.13127-.26665.14377-.32886.12331-.61388-.013611-.18969-.062429-.39483-.12146-.51042-.054276-.1063-.15077-.25516-.21442-.33081-.063652-.07565-.2284-.19995-.36611-.27623-.21879-.1212-.29774-.13869-.62597-.13869-.32924 0-.40689.01733-.62908.14038-.16587.09186-.33894.24749-.50074.45027-.13599.17044-.34205.39333-.4579.49531-.11586.10198-.32725.24251-.46977.3123-.14252.06978-.38143.15874-.53092.19768-.14949.03893-.40692.07079-.57207.07079s-.4284-.0332-.585-.07378c-.1566-.04058-.41292-.13849-.56961-.21759-.16977-.0857-.40878-.26932-.59148-.45441-.17722-.17953-.36056-.42295-.43448-.57685-.070342-.14644-.15975-.38856-.19868-.53805-.03893-.14949-.07079-.42138-.07079-.6042 0-.18282.03235-.4566.07189-.6084s.13989-.40448.22301-.56152c.08312-.15704.27979-.41458.43705-.57232.17366-.1742.40409-.34485.58688-.43464.16552-.081309.4594-.18126.65307-.22211.23099-.048723.4527-.064342.6445-.045405.1608.015877.42642.070272.59026.12088.16384.050605.42487.17408.58008.27439.1552.10031.37552.29397.48959.43036s.28712.33745.38454.44682c.10096.11333.28268.24481.42255.30574.16549.07208.33715.1069.52711.1069.19076 0 .36172-.03485.52957-.10796.15273-.06653.32677-.19572.45344-.3366.11306-.12576.23921-.32736.28032-.44801.04112-.12065.07382-.32652.07269-.45749-.0011-.13097-.02975-.31563-.06358-.41037-.03383-.09473-.16226-.31341-.28538-.48595-.12312-.17254-.33411-.42396-.46887-.55872-.13476-.13476-.36986-.34043-.52245-.45706-.15259-.11663-.42789-.29938-.61178-.40611-.18589-.1079-.44238-.31227-.57766-.46029-.13383-.14643-.29314-.36454-.35403-.4847-.06089-.12016-.1426-.33377-.18158-.47469-.03898-.14092-.08369-.35188-.09935-.46879-.01567-.11691-.0064-.37044.0205-.5634.03302-.23653.11004-.47872.2364-.74339.13451-.28174.2639-.4673.45831-.6573.14899-.14561.39905-.33288.55569-.41616.15664-.083277.42017-.18332.58561-.22232.16544-.038997.4194-.071217.56436-.071598.14496-.0003803.37736.020754.51645.046969.13909.026215.40781.12107.59716.2108.23786.11271.43492.25398.63757.45705.19604.19644.35076.41069.46654.64604.09527.19367.19382.47889.21899.63382.02517.15494.04556.37677.0453.49298-.000234.1162-.04239.40991-.09363.65269-.05124.24278-.09316.55053-.09316.68389s.02228.36784.04952.52106c.02723.15322.14802.4793.26842.72461.17307.35265.29294.52096.57257.80397.22674.22948.45477.40825.63537.49813.15493.077102.45478.1973.66633.2671.21154.069802.50733.20629.6573.3033.14997.097014.36775.28226.48395.41166.1162.1294.26868.34078.33884.46973.07016.12896.15995.3588.19954.51078.03958.15197.07196.44702.07196.65566s-.03152.50034-.07003.64822c-.03852.14788-.12295.3733-.18763.50094-.06467.12763-.24438.3676-.39935.53326-.1848.19755-.39086.35777-.59879.46557-.17436.0904-.48633.21988-.69326.28773-.20693.06785-.50648.20847-.66568.31249-.1592.10402-.39437.30392-.5226.44422s-.30736.38788-.39806.55018c-.0907.16229-.21266.43241-.271.60026-.08467.24359-.10638.4094-.10753.82162-.000939.33487.02234.58248.06621.70425.04406.12231.06693.3679.06558.70425-.0018.45673-.01754.55446-.13581.8451-.07355.18076-.19277.41523-.26493.52105-.07216.10582-.2447.29597-.38343.42255-.13872.12658-.35806.28756-.48741.35772-.12935.07016-.35952.15995-.5115.19954-.15375.04004-.45416.07011-.67726.06777zm7.6745-.01823c-.2324.01012-.51643-.0014-.63118-.02564-.11474-.02422-.36473-.11817-.55553-.20878-.24012-.11404-.43787-.25571-.64242-.46025-.17068-.17068-.35763-.41858-.44259-.58687-.08089-.16025-.17826-.42363-.21638-.58528-.03811-.16166-.06961-.4038-.06999-.5381-.000375-.1343.02282-.35614.05155-.49298.02874-.13684.12293-.40305.20933-.59159.11191-.24421.24203-.42756.45247-.63757.19824-.19784.41119-.35166.64751-.46773.24266-.11919.47127-.19014.7354-.22823.28844-.04161.46796-.04218.72555-.0023.22346.03459.47421.11836.72235.24131.26754.13257.45683.26898.63929.4607.14257.1498.31683.371.38726.49155.07042.12055.16729.35642.21525.52414.05298.18529.08721.45552.08721.68865 0 .2316-.03419.50325-.08625.68528-.04744.16587-.15042.41376-.22886.55086-.07844.1371-.26474.36491-.414.50626-.14926.14134-.34847.30403-.44269.36152-.09422.05749-.29494.14776-.44603.2006-.1699.05941-.43592.10309-.69726.11446zm3.6856-6.5099c-.09037-.0026-.2732-.02287-.40627-.04509-.13307-.02223-.35578-.08301-.49492-.13507-.13913-.05205-.38303-.18928-.54199-.30495-.15896-.11567-.3737-.32246-.4772-.45955-.1035-.13708-.24052-.36477-.3045-.50597-.06397-.1412-.14102-.39406-.17123-.5619-.03251-.18069-.04226-.44753-.02389-.65418.01882-.21166.0876-.49571.17479-.7218.11743-.3045.20285-.43499.46626-.7123.19233-.20247.43321-.39852.59678-.4857.15086-.080405.39848-.17854.55028-.21808.1518-.039539.43614-.07189.63187-.07189s.48007.032351.63187.07189.40426.1399.56101.22301c.15676.083118.40245.27011.54599.41553.14354.14543.32811.39036.41016.5443.08205.15394.18108.41525.22008.58069.03899.16544.07121.43898.0716.60785.000375.16888-.03166.43125-.07119.58305-.03954.1518-.13942.40449-.22196.56153-.08254.15704-.27731.41408-.43282.57119-.18532.18723-.39203.33774-.59987.43678-.17441.08311-.45963.18131-.63383.21823-.17419.03691-.39066.06501-.48104.06244zm-3.8332-6.5709c-.20285-.00231-.47303-.032793-.60039-.067743-.12736-.03495-.36586-.13171-.52999-.21502-.19477-.098859-.39972-.25917-.59006-.46154-.1604-.17054-.34961-.42947-.42047-.57542s-.16034-.39898-.19884-.56231c-.0385-.16333-.07001-.41316-.07001-.55518 0-.14202.03191-.39359.0709-.55903.039-.16544.13399-.41897.2111-.5634.0771-.14443.22482-.36143.32825-.48224.10343-.1208.31413-.30383.46822-.40673.15409-.1029.42312-.235.59784-.29357.24138-.080907.42479-.10648.7637-.10648.33744 0 .5225.025634.76014.1053.17276.057913.43686.1847.58688.28174.15002.097045.37314.2882.49582.42479.12269.13659.28493.37808.36054.53664.07561.15857.1627.43342.19354.61079.03083.17737.04484.47315.03114.6573s-.06067.44045-.10436.56956c-.04369.12911-.14127.34393-.21685.47736-.07557.13344-.25167.35688-.39132.49653-.13966.13965-.37679.3192-.52696.399-.15017.079794-.40286.17855-.56152.21946-.15866.040907-.45445.072489-.6573.070179z" stroke-width=".04695"/>
</svg>
