<svg xmlns="http://www.w3.org/2000/svg" viewBox="0 0 24 24"><path d="M0,0H24V24H0Z" fill="none"/><path d="M12,2c2.72,0,3.06,0,4.12.06a7.3,7.3,0,0,1,2.43.47,4.7,4.7,0,0,1,1.77,1.15,4.84,4.84,0,0,1,1.15,1.77,7.3,7.3,0,0,1,.47,2.43C22,8.94,22,9.28,22,12s0,3.06-.06,4.12a7.3,7.3,0,0,1-.47,2.43,5.08,5.08,0,0,1-2.92,2.92,7.3,7.3,0,0,1-2.43.47c-1.06,0-1.4.06-4.12.06s-3.06,0-4.12-.06a7.3,7.3,0,0,1-2.43-.47,4.84,4.84,0,0,1-1.77-1.15,4.84,4.84,0,0,1-1.15-1.77,7.3,7.3,0,0,1-.47-2.43C2,15.06,2,14.72,2,12s0-3.06.06-4.12a7.3,7.3,0,0,1,.47-2.43A4.84,4.84,0,0,1,3.68,3.68,4.84,4.84,0,0,1,5.45,2.53a7.3,7.3,0,0,1,2.43-.47C8.94,2,9.28,2,12,2Zm0,5a5,5,0,1,0,5,5A5,5,0,0,0,12,7Zm6.5-.25A1.25,1.25,0,1,0,17.25,8,1.25,1.25,0,0,0,18.5,6.75ZM12,9a3,3,0,1,1-3,3A3,3,0,0,1,12,9Z"/></svg>