<svg xmlns="http://www.w3.org/2000/svg" viewBox="0 0 24 24"><path d="M0,0H24V24H0Z" fill="none"/><path d="M16,8.17a5.11,5.11,0,0,0-4.11-1.44,4.57,4.57,0,0,0-2.48.42A6.23,6.23,0,0,0,6,11.86a14.48,14.48,0,0,0,.33,5.52,5.8,5.8,0,0,0,4.43,3.83h0a6.17,6.17,0,0,0,5.14-1.35A5.77,5.77,0,0,0,17.8,16.6C18.61,13.41,17.88,10,16,8.17Zm-1.6,8.65a3,3,0,0,1-1.33,2.23,2.09,2.09,0,0,1-2.28,0c-.91-.52-1.35-1.7-1.45-3.86A7.94,7.94,0,0,1,10,11.25,1.85,1.85,0,0,1,11.8,10c1.54-.1,2.2.55,2.63,2.6A10.2,10.2,0,0,1,14.42,16.82ZM10.78,4.73c-.56-.16-.74-.54-.74-1.62s.16-1.42.83-1.63a4.68,4.68,0,0,1,2.52,0c.58.2.8.64.8,1.63s-.22,1.42-.8,1.62a5.48,5.48,0,0,1-2.61,0Z"/></svg>