<svg xmlns="http://www.w3.org/2000/svg" viewBox="0 0 24 24"><path d="M0,0H24V24H0Z" fill="none"/><path d="M2.09,21.87c-.12-.15-.12-.46,0-.92a10.48,10.48,0,0,1,1.26-2.42,18.94,18.94,0,0,0,1.06-2.05C6,12.16,7.64,9.27,10,6.92a10.18,10.18,0,0,1,2.51-2c.15,0,.14.43.09.6s.28-.27.49-.49c1.3-1.39,3.18-2.12,7.18-2.82C21.61,2,21.88,2,22,2.14s0,.23-.32.56A4.51,4.51,0,0,0,20.42,5a6.74,6.74,0,0,1-1.14,2.31l-.72.77.83-.19c.18.17,0,.4-.32,1.06-.93,2.26-4.58,5.76-8.47,7.7A17.29,17.29,0,0,1,7,18l-.44.09L5,19.67C3.24,21.62,2.83,22,2.4,22a.42.42,0,0,1-.31-.11Z"/></svg>