<svg version="1.1" viewBox="0 0 300 300" xmlns="http://www.w3.org/2000/svg">
 <rect width="300" height="300" rx="67" fill="#fff"/>
 <g transform="matrix(.18722 0 0 .18722 22.187 22.187)">
  <circle cx="682.67" cy="682.67" r="454" fill="#219dff"/>
  <g stroke-width="1.8511">
   <path d="m684.63 369.89c-30.328-0.19072-60.66 3.7865-90.174 11.924-75.664 20.861-141.7 69.154-187.06 136.81-16.702 24.907-35.504 67.624-43.424 98.652-30.406 119.13 10.485 249.64 103.11 329.1 11.68 10.02 35.34 28.056 36.912 28.139 0.4157 0.0219 4.4739-10.608 9.0195-23.623s8.2364-24.263 8.2012-24.996c-0.0352-0.73322-3.7896-4.0326-8.3438-7.332-11.262-8.1592-35.408-31.659-45.889-44.66-41.118-51.006-62.054-110.64-62.012-176.64 0.0281-44.14 9.0261-82.782 28.328-121.65 41.156-82.883 118.3-138.83 210.28-152.51 19.137-2.8445 58.771-2.8282 78.039 0.0332 123.25 18.302 218.67 113.95 236.24 236.8 2.6716 18.681 2.9826 54.435 0.625 71.988-7.2733 54.151-28.808 104.05-62.129 143.98-10.249 12.28-31.548 33.033-43.629 42.512-4.9475 3.8817-8.9941 7.5494-8.9941 8.1504 0 0.60105 3.7748 11.654 8.3887 24.564l8.3887 23.475 9.9336-6.8301c16.268-11.182 27.712-20.847 43.977-37.137 26.937-26.98 44.633-51.564 62.01-86.152 33.563-66.807 42.974-144.94 26.375-218.96-13.261-59.134-42.302-112.25-85.658-156.68-41.938-42.977-95.65-74.155-152.8-88.699-26.188-6.664-52.945-10.078-79.705-10.246zm-3.4902 126.9c-25.617 0.0821-40.596 2.4243-62.699 9.8047-42.582 14.218-82.4 45.34-106.82 83.486-12.014 18.768-24.43 50.892-28.545 73.855-2.8002 15.627-3.1666 49.819-0.68555 63.99 6.1754 35.272 18.553 64.851 38.334 91.607 7.4456 10.071 25.39 29.707 27.148 29.707 0.54638 0 4.9719-11.248 9.834-24.996 4.862-13.748 8.8365-25.609 8.832-26.357-4e-3 -0.74892-2.9144-5.3502-6.4668-10.225-19.334-26.529-28.693-55.995-28.713-90.398-0.0161-27.648 6.2921-51.227 20.021-74.836 41.912-72.071 134.34-96.885 206.39-55.408 69.532 40.028 95.763 125.29 60.779 197.57-3.549 7.3321-9.7238 17.768-13.723 23.193l-7.2715 9.8633 6.2246 16.799c3.4229 9.2394 7.5615 20.85 9.1992 25.799s3.4896 8.998 4.1133 8.998c1.9707 0 22.549-23.129 30.588-34.379 14.862-20.798 27.475-49.854 32.529-74.938 9.0653-44.987 3.9852-87.74-15.162-127.63-11.039-22.999-21.92-38.363-39.934-56.383-23.686-23.694-47.905-38.656-79.863-49.336-23.439-7.833-36.795-9.8707-64.109-9.7832z" fill="#1460cc"/>
   <path d="m684.63 353.89c-30.328-0.19072-60.66 3.7865-90.174 11.924-75.664 20.861-141.7 69.154-187.06 136.81-16.702 24.907-35.504 67.624-43.424 98.652-30.406 119.13 10.485 249.64 103.11 329.1 11.68 10.02 35.34 28.056 36.912 28.139 0.4157 0.0219 4.4739-10.608 9.0195-23.623s8.2364-24.263 8.2012-24.996c-0.0352-0.73322-3.7896-4.0326-8.3438-7.332-11.262-8.1592-35.408-31.659-45.889-44.66-41.118-51.006-62.054-110.64-62.012-176.64 0.0281-44.14 9.0261-82.782 28.328-121.65 41.156-82.883 118.3-138.83 210.28-152.51 19.137-2.8445 58.771-2.8282 78.039 0.0332 123.25 18.302 218.67 113.95 236.24 236.8 2.6716 18.681 2.9826 54.435 0.625 71.988-7.2733 54.151-28.808 104.05-62.129 143.98-10.249 12.28-31.548 33.033-43.629 42.512-4.9475 3.8817-8.9941 7.5494-8.9941 8.1504 0 0.60105 3.7748 11.654 8.3887 24.564l8.3887 23.475 9.9336-6.8301c16.268-11.182 27.712-20.847 43.977-37.137 26.937-26.98 44.633-51.564 62.01-86.152 33.563-66.807 42.974-144.94 26.375-218.96-13.261-59.134-42.302-112.25-85.658-156.68-41.938-42.977-95.65-74.155-152.8-88.699-26.188-6.664-52.945-10.078-79.705-10.246zm-3.4902 126.9c-25.617 0.0821-40.596 2.4243-62.699 9.8047-42.582 14.218-82.4 45.34-106.82 83.486-12.014 18.768-24.43 50.892-28.545 73.855-2.8002 15.627-3.1666 49.819-0.68555 63.99 6.1754 35.272 18.553 64.851 38.334 91.607 7.4456 10.071 25.39 29.707 27.148 29.707 0.54638 0 4.9719-11.248 9.834-24.996 4.862-13.748 8.8365-25.609 8.832-26.357-4e-3 -0.74892-2.9144-5.3502-6.4668-10.225-19.334-26.529-28.693-55.995-28.713-90.398-0.0161-27.648 6.2921-51.227 20.021-74.836 41.912-72.071 134.34-96.885 206.39-55.408 69.532 40.028 95.763 125.29 60.779 197.57-3.549 7.3321-9.7238 17.768-13.723 23.193l-7.2715 9.8633 6.2246 16.799c3.4229 9.2394 7.5615 20.85 9.1992 25.799s3.4896 8.998 4.1133 8.998c1.9707 0 22.549-23.129 30.588-34.379 14.862-20.798 27.475-49.854 32.529-74.938 9.0653-44.987 3.9852-87.74-15.162-127.63-11.039-22.999-21.92-38.363-39.934-56.383-23.686-23.694-47.905-38.656-79.863-49.336-23.439-7.833-36.795-9.8707-64.109-9.7832z" fill="#d1edfc" fill-opacity=".87843"/>
  </g>
  <g>
   <path d="m682.03 622.6c-19.36 0.0221-37.97 7.7326-52.885 22.652-16.373 16.378-23.647 35.213-22.15 57.348 1.1862 17.539 6.0532 30.177 16.906 43.912l5.6055 7.0957-4.0566 11.49c-2.2314 6.3194-18.997 53.783-37.256 105.47-18.259 51.692-45.144 128.02-59.746 169.62-8.9313 25.443-16.753 47.261-21.799 60.967a454 454 0 0 0 60.086 20.459l1.2168-3.4649c3.6623-10.421 13.074-37.144 20.916-59.385l14.258-40.436 4.0254 0.5977c2.2145 0.3288 11.823 2.0197 21.352 3.7578 15.561 2.8383 21.124 3.1583 54.639 3.1523 33.586-0.01 38.979-0.3194 53.973-3.1484 9.162-1.7287 18.492-3.4201 20.732-3.7578l4.0742-0.6133 20.82 59.088c6.307 17.9 11.678 33.388 15.406 44.33a454 454 0 0 0 60.4-20.52c-9.5845-26.55-31.781-89.038-57.273-161.32-33.746-95.685-62.366-176.69-63.6-180l-2.2441-6.0312 6.5312-8.6328c18.543-24.511 21.476-53.85 8.1211-81.219-5.7788-11.842-21.191-27.262-33.029-33.043-11.52-5.6256-23.407-8.3804-35.023-8.3672zm0.0352 172.9c0.70363-1.1389 57.584 157.79 57.676 161.15 0.10235 3.7643-60.665 8.6812-79.922 6.4668-15.31-1.7605-34.648-5.1487-34.648-6.0703 0-1.3249 55.809-159.79 56.895-161.54z" fill="#1460cc"/>
   <path d="m682.03 606.6c-19.36 0.0221-37.97 7.7326-52.885 22.652-16.373 16.378-23.647 35.213-22.15 57.348 1.1862 17.539 6.0532 30.177 16.906 43.912l5.6055 7.0957-4.0566 11.49c-2.2314 6.3194-18.997 53.783-37.256 105.47-18.259 51.692-45.144 128.02-59.746 169.62-13.273 37.813-24.664 69.294-27.016 74.734 19.531 8.5036 39.636 15.622 60.166 21.303l6.3535-18.076c3.6623-10.421 13.074-37.144 20.916-59.385l14.258-40.436 4.0254 0.5977c2.2145 0.3288 11.823 2.0197 21.352 3.7578 15.561 2.8383 21.124 3.1583 54.639 3.1523 33.586-0.01 38.979-0.3194 53.973-3.1484 9.162-1.7287 18.492-3.4201 20.732-3.7578l4.0742-0.6133 20.82 59.088c10.619 30.139 19.265 55.326 20.275 59.022 20.749-5.7038 41.065-12.876 60.797-21.461-0.0977-0.01-0.17206-0.031-0.21093-0.072-0.53381-0.5652-28.582-79.314-62.328-175-33.746-95.685-62.366-176.69-63.6-180l-2.2441-6.0312 6.5312-8.6328c18.543-24.511 21.476-53.85 8.1211-81.219-5.7788-11.842-21.191-27.262-33.029-33.043-11.52-5.6256-23.407-8.3804-35.023-8.3672zm0.0352 172.9c0.70363-1.1389 57.584 157.79 57.676 161.15 0.10235 3.7643-60.665 8.6812-79.922 6.4668-15.31-1.7605-34.648-5.1487-34.648-6.0703 0-1.3249 55.809-159.79 56.895-161.54z" fill="#fff" fill-opacity=".87843"/>
  </g>
 </g>
</svg>
