<svg xmlns="http://www.w3.org/2000/svg" xmlns:xlink="http://www.w3.org/1999/xlink" viewBox="0 0 300 300">
  <defs>
    <linearGradient id="apple-podcasts" x1="150" y1="300" x2="150" gradientUnits="userSpaceOnUse">
      <stop offset="0" stop-color="#822cbe"/>
      <stop offset="1" stop-color="#d772fb"/>
    </linearGradient>
  </defs>
  <g id="apple-podcasts-2" data-name="apple-podcasts">
    <rect width="300" height="300" rx="67" fill="url(#apple-podcasts)"/>
    <path d="M144.55,233.2c-6.53-2.34-7.94-5.51-10.61-24.11-3.12-21.62-3.8-35-2-39.23,2.39-5.62,8.88-8.81,18-8.85s15.56,3.18,18,8.85c1.81,4.23,1.14,17.61-2,39.23-2.12,15.1-3.28,18.92-6.2,21.49a15,15,0,0,1-15.1,2.63ZM116.65,211c-22.54-11.09-37-29.86-42.24-54.82-1.31-6.44-1.53-21.82-.29-27.73,3.28-15.86,9.56-28.27,20-39.25C109.14,73.38,128.47,65,150,65a74.93,74.93,0,0,1,55.22,23.59c11.17,11.61,17.44,23.88,20.65,40.06,1.1,5.38,1.1,20.06.08,26.12a77.61,77.61,0,0,1-29.55,48.3c-5.55,4.18-19.12,11.49-21.31,11.49-.8,0-.87-.83-.51-4.19.66-5.4,1.32-6.52,4.38-7.81,4.89-2,13.21-8,18.31-13.09a69.77,69.77,0,0,0,18.32-32.24c1.89-7.52,1.67-24.23-.44-32-6.64-24.59-26.71-43.7-51.29-48.81-7.15-1.46-20.14-1.46-27.36,0-24.88,5.11-45.45,25.17-51.73,50.42-1.68,6.85-1.68,23.56,0,30.42,4.16,16.71,15,32,29.11,41.15a62.4,62.4,0,0,0,7.52,4.3c3.06,1.32,3.72,2.41,4.3,7.81.37,3.28.29,4.23-.51,4.23a59.41,59.41,0,0,1-8.17-3.5Zm.3-29.68c-7.59-6.06-14.3-16.8-17.08-27.33-1.67-6.36-1.67-18.46.08-24.81,4.59-17.13,17.21-30.41,34.72-36.64,6-2.12,19.27-2.59,26.63-1,25.39,5.66,43.41,31.08,39.91,56.31a51.41,51.41,0,0,1-11.09,26.26c-3.06,3.92-10.5,10.49-11.82,10.49-.22,0-.43-2.48-.43-5.5v-5.52l3.79-4.52c14.3-17.13,13.28-41.06-2.34-56.76-6-6.11-13-9.7-22.1-11.36-5.84-1.08-7.08-1.08-13.21-.07a40,40,0,0,0-22.91,11.45c-15.68,15.54-16.7,39.6-2.4,56.74l3.76,4.52v5.55c0,3.06-.24,5.54-.54,5.54a26.16,26.16,0,0,1-4.67-3.28Zm25.31-29.79c-6.49-3-10-8.72-10.07-16.15,0-6.67,3.72-12.49,10.14-15.9,4.09-2.15,11.31-2.15,15.4,0A19.81,19.81,0,0,1,167.21,131c4.24,14.39-11,27-24.8,20.55Z" fill="#fff"/>
    <circle cx="151.15" cy="136.19" r="18.2" fill="#fff"/>
    <path d="M152.89,161.43a36.45,36.45,0,0,1,6.09,1.24,21.89,21.89,0,0,1,6.1,3.05,10.74,10.74,0,0,1,3.51,3.85,16.33,16.33,0,0,1,1.31,6.09,102.7,102.7,0,0,1-.51,14.3c-.66,7.42-2,18.3-3,25.27s-1.75,10.07-2.7,12.33a11.08,11.08,0,0,1-8.1,7.08,17.7,17.7,0,0,1-4.23.36,18.24,18.24,0,0,1-4.23-.36,13.42,13.42,0,0,1-5.48-2.34,11.86,11.86,0,0,1-3.64-5.69c-.88-2.48-1.54-5.47-2.41-11.45s-2-14.89-2.77-21.67-1-11.46-1.08-14.59a22.66,22.66,0,0,1,.43-6.21,12.6,12.6,0,0,1,1.75-4,13.39,13.39,0,0,1,2.92-3,12,12,0,0,1,3.4-1.84,25.47,25.47,0,0,1,4.67-1.31c1.9-.37,4.09-.73,5.21-.88a5.61,5.61,0,0,1,2.38,0Z" fill="#fff"/>
  </g>
</svg>
