<svg version="1.1" viewBox="0 0 300 300" xmlns="http://www.w3.org/2000/svg">
 <rect width="300" height="300" rx="67" fill="#f2f8ff"/>
 <g transform="matrix(1.36 0 0 1.36 -45.282 22.882)">
  <path d="m133.88 120.47c4.08 12.49 10.64 23.85 19.12 33.5 15.88-2.06 29.85-10.22 39.46-22.06-7.84 2.07-16.07 3.17-24.56 3.17-6.79 0-13.42-.72-19.81-2.06-6.67-1.36-12.07-6.21-14.21-12.55z" fill="#1269ff"/>
  <path d="m145.09 154.47c2.68 0 5.32-.17 7.91-.51-8.48-9.65-15.04-21.01-19.12-33.5-.64-1.91-.99-3.95-.99-6.07 0-4.77 1.76-9.12 4.66-12.46-11.1 12.41-19.02 27.71-22.48 44.64 8.85 5.03 19.1 7.9 30.02 7.9z" fill="#5c9dff"/>
  <path d="m85.78 107.8c4 16.61 14.79 30.57 29.28 38.78 3.47-16.95 11.4-32.28 22.52-44.69 3.48-3.98 8.6-6.49 14.3-6.49 1.27 0 2.5.12 3.7.36-6.36-1.33-12.95-2.04-19.71-2.04-18.35-.01-35.5 5.14-50.09 14.08z" fill="#9ec6ff"/>
  <path d="m155.59 95.754c-6.36-1.33-12.95-2.04-19.71-2.04-18.36 0-35.51 5.15-50.1 14.09-1.1-4.59-1.69-9.39-1.69-14.33 0-19.02 8.71-36.01 22.35-47.2 29.91 9.03 53.64 32.31 63.39 61.91.09.26.18.52.26.79-.08-.26-.17-.53-.26-.79-2.19-6.29-7.6-11.12-14.24-12.43z" fill="#d1e3ff"/>
  <path d="m203.08 82.474c0-27-22.49-50-58-50-14.66 0-28.12 5.18-38.64 13.8 30.18 9.12 54.07 32.7 63.64 62.69.56 1.75 1.07 3.62 1.53 5.42 17.34-.38 31.47-14.48 31.47-31.91z" fill="#fff"/>
  <path d="m151.89 98.394c1.12 0 2.06.09 3.12.3 5.56 1.1 10.12 5.14 11.98 10.43.54 1.7 1.25 4.25 1.7 6l.59 2.31 2.38-.05c18.94-.4 34.43-15.81 34.43-34.91 0-28.93-24.13-53-61-53-15.21.05-29.63 5.58-40.55 14.48-14.31 11.73-23.45 29.56-23.45 49.52.01 5.12.63 10.27 1.78 15.03 4.2 17.43 15.52 32.08 30.71 40.68 9.19 5.18 20.18 8.25 31.51 8.28 2.78 0 5.61-.19 8.29-.53 16.67-2.16 31.32-10.73 41.41-23.14l.66-.81-1.28-4.63-2.47.65c-7.66 2.03-15.51 3.08-23.8 3.07-6.63 0-12.95-.68-19.19-2-5.62-1.13-10.19-5.22-11.99-10.56-.58-1.68-.84-3.24-.83-5.11-.06-4.17 1.37-7.6 3.95-10.53 2.94-3.36 7.25-5.48 12.05-5.48zm-6.8-62.92c34.12 0 55 21.92 55 47 0 14.99-11.56 27.3-26.23 28.78-.39-1.39-.81-2.86-1.17-3.98-9.29-29.1-31.41-51.63-59.87-62.03 9.25-6.28 20.16-9.81 32.27-9.77zm-58 58c0-17.51 7.76-33.21 20.03-43.85 23.34 7.48 42.47 23.45 53.64 44.64-1.45-.64-2.98-1.13-4.58-1.45-6.5-1.35-13.39-2.1-20.3-2.1-17.28.03-33.84 4.58-48 12.4-.53-3.13-.79-6.31-.79-9.64zm60.39 42.48c6.53 1.37 13.47 2.12 20.42 2.12 5.31 0 10.59-.44 15.72-1.25-8.1 7.21-18.23 12.17-29.43 13.94-4.26-5-7.96-10.4-11.05-16.17 1.38.59 2.83 1.05 4.34 1.36zm-.45 15.49c-.64.02-1.29.03-1.94.03-9.73.03-18.59-2.26-26.63-6.45 2.31-10.17 6.25-19.6 11.58-28.14.18 1.57.53 3.13.99 4.52 3.57 10.89 9.08 21.14 16 30.04zm-11.69-51.54c-10.42 11.68-18.29 26.2-22.27 41.94-11.43-7.58-20.01-19.1-23.82-32.62 13.79-8.04 29.5-12.54 46.63-12.51.96 0 1.91.01 2.86.04-1.24.93-2.38 1.98-3.4 3.15z" fill="#003dad"/>
 </g>
</svg>
