<svg version="1.1" viewBox="0 0 300 300" xmlns="http://www.w3.org/2000/svg">
 <rect width="300" height="300" rx="67" fill="#e7f9e4"/>
 <g transform="matrix(.91201 0 0 .91201 57.704 86.433)">
  <path fill="#009486" d="m181.9 131.7h-32.5s-1.2-2.5-2.5-4.9-4.4-2.3-4.4-2.3h-82.8s-3-0.4-4.5 2.3c-1.6 2.7-2.6 4.9-2.6 4.9h-32c-6.9 0-12.6-5.6-12.6-12.5v-98.9c0-6.9 5.6-12.6 12.5-12.6h161.3c6.9 0 12.6 5.6 12.6 12.5v98.9c0.1 6.9-5.6 12.6-12.5 12.6z"/>
  <path fill="#E7F9E4" d="m143.7 34.5h-85.1c-14.6 0-26.5 12-26.5 26.6s11.9 26.5 26.5 26.5h85.1c14.6 0 26.5-11.9 26.5-26.5 0.1-14.8-11.8-26.7-26.5-26.6zm-75.4 34.2s-3.9-2.9-9.4-2.9c-4.1 0-8.9 2.5-8.9 2.5-1.3-1.9-2.1-4.1-2.1-6.6 0-6.3 5.1-11.4 11.4-11.4s11.4 5.1 11.4 11.4c0 2.7-0.9 5.1-2.4 7zm32.9 6.6c-12.5 0-12-9.6-12-9.6-0.2-1.8 2.1-2.4 2.9-1.3 0.4 0.6 0.4 0.6 0.7 1.7 1.7 5.9 8.4 5.6 8.4 5.6s6.7 0.4 8.4-5.6c0.3-1 0.3-1.1 0.7-1.7 0.8-1 3.1-0.5 2.9 1.3 0 0 0.5 9.6-12 9.6zm51.1-6.9s-4.8-2.5-8.9-2.5c-5.5 0-9.4 2.9-9.4 2.9-1.5-1.9-2.4-4.3-2.4-7 0-6.3 5.1-11.4 11.4-11.4s11.4 5.1 11.4 11.4c0.1 2.4-0.7 4.7-2.1 6.6z"/>
  <path fill="#009486" d="m110.3 64.3c-0.4 0.6-0.4 0.6-0.7 1.7-1.7 5.9-8.4 5.6-8.4 5.6s-6.7 0.4-8.4-5.6c-0.3-1-0.3-1.1-0.7-1.7-0.8-1-3.1-0.5-2.9 1.3 0 0-0.5 9.6 12 9.6s12-9.6 12-9.6c0.2-1.7-2.1-2.3-2.9-1.3z"/>
  <path fill="#009486" d="m143.1 50.4c-6.3 0-11.4 5.1-11.4 11.4 0 2.6 0.9 5 2.4 7 0 0 3.9-2.9 9.4-2.9 4.1 0 8.9 2.5 8.9 2.5 1.3-1.9 2.1-4.1 2.1-6.6 0-6.3-5.1-11.4-11.4-11.4z"/>
  <path fill="#009486" d="m59.3 50.4c-6.3 0-11.4 5.1-11.4 11.4 0 2.5 0.8 4.7 2.1 6.6 0 0 4.8-2.5 8.9-2.5 5.5 0 9.4 2.9 9.4 2.9 1.5-1.9 2.4-4.3 2.4-7 0-6.3-5.1-11.4-11.4-11.4z"/>
  <path fill="#E7FFE3" d="m47.1 23.3c-6.3-1.7-11.7 2.1-14.7 7.3-0.7 1.2-0.2 2.2 0.5 2.6 1 0.3 1.7 0.1 2.8-1.5 2.2-3.9 5.9-6.1 10.1-5.3 0 0 2.9 0.9 3.3-1 0.3-1.2-0.8-1.8-2-2.1z"/>
  <path fill="#E7FFE3" d="m159.9 27.3c-0.1 1.9 2.9 1.9 2.9 1.9 4.2 0.4 6.8 2.3 7.8 6.7 0.6 1.9 1.2 2.2 2.3 2.2 0.8-0.1 1.6-1 1.2-2.4-1.4-5.8-5.1-9.8-11.7-9.9-1.2-0.1-2.4 0.2-2.5 1.5z"/>
 </g>
</svg>
