<svg version="1.1" viewBox="0 0 300 300" xmlns="http://www.w3.org/2000/svg">
 <rect width="300" height="300" rx="67" fill="#fff"/>
 <circle cx="150" cy="150" r="85" fill="#bddbe8" stroke-dasharray="1.52637, 1.52637" stroke-width="1.5264"/>
 <path d="m119.28 196.55c-5.2759-0.41139-9.7186-1.2399-13.653-2.546-6.9248-2.2989-13.222-6.449-17.286-11.393-6.5353-7.949-9.2631-17.839-8.3879-30.411 0.69606-9.9992 2.6547-17.49 6.6052-25.262 2.764-5.4374 5.807-9.5961 9.9143-13.549 6.809-6.5529 15.012-10.554 24.086-11.749 4.0314-0.5307 10.66-0.32651 13.845 0.42647 6.8313 1.6152 11.839 5.4866 14.493 11.204 3.474 7.4848 2.6106 19.176-1.736 23.508-1.4198 1.415-2.8164 2.0178-4.9897 2.1538-2.9275 0.18324-5.0304-0.6543-6.3473-2.5281-0.89207-1.2693-1.0071-3.371-0.38296-6.9966 0.66108-3.8401 0.77076-5.5125 0.48376-7.3769-0.85327-5.5432-4.6866-8.1686-11.469-7.855-13.666 0.63195-24.596 12.949-27.39 30.867-1.1945 7.6596-0.89556 15.506 0.79293 20.81 1.3593 4.2696 3.1725 7.197 6.2806 10.14 5.1317 4.8585 11.858 7.0392 21.7 7.0348 8.6376-4e-3 15.814-1.5049 26.495-5.5418l2.8851-1.0904 0.14272-2.3326c0.0785-1.2829 0.14272-4.0282 0.14272-6.1006 0-9.519 1.416-22.71 3.654-34.039 3.8056-19.265 10.84-34.868 18.012-39.952 3.5656-2.5275 7.4093-3.4892 10.969-2.7444 3.867 0.80906 7.2202 4.5523 8.5708 9.5679 0.35828 1.3305 0.49623 2.6199 0.57664 5.3896 0.42125 14.51-6.9524 28.93-25.438 49.747l-2.4331 2.7399-0.14394 2.435c-0.0792 1.3392-0.11252 3.8008-0.0741 5.4702l0.0698 3.0351 0.96327-2.2644c4.4317-10.418 10.798-18.348 17.357-21.619 5.3814-2.6841 10.575-2.3474 12.763 0.82754 1.8537 2.6898 1.6068 6.521-1.3468 20.904-2.0726 10.093-2.3421 12.548-1.6299 14.847 0.5834 1.8829 2.8235 2.3929 5.2061 1.1853 2.1175-1.0732 5.6588-4.4869 10.01-9.6492 1.8391-2.182 2.612-2.7044 4.0007-2.7044 2.1334 0 3.0319 1.3454 3.1708 4.7478 0.10319 2.5289-0.27738 4.4331-1.2009 6.0091-1.3062 2.2289-6.3345 7.1702-10.394 10.214-3.3075 2.4801-6.686 3.8597-10.679 4.3606-7.3802 0.9259-12.053-1.7734-13.736-7.9354-0.30195-1.1054-0.38626-2.2087-0.37017-4.8446 0.0214-3.5012 0.19513-4.749 1.958-14.061 1.2473-6.5885 1.1942-8.2173-0.27231-8.359-0.60292-0.0583-0.90324 0.11129-1.9499 1.101-3.9066 3.6942-8.8177 13.999-11.538 24.21-0.96881 3.6364-1.719 5.3125-3.0559 6.8279-1.8926 2.1453-4.2493 3.1338-7.5137 3.1517-1.8941 0.0104-2.1889-0.0455-3.1168-0.59101-1.2312-0.72379-1.875-1.9008-2.23-4.0773-0.13331-0.81733-0.25689-1.5112-0.27462-1.5419-0.0177-0.0307-1.2127 0.39274-2.6556 0.94107-6.3414 2.41-12.926 3.9576-20.57 4.8351-2.9227 0.3355-10.723 0.59197-12.882 0.42359zm53.857-55.273c8.9818-11.73 14.266-25.324 13.216-33.999-0.30601-2.5291-0.58398-3.3974-1.3765-4.3001-1.4905-1.6976-3.179-0.61904-5.0729 3.2403-2.4678 5.029-4.9006 13.393-7.0014 24.071-0.65028 3.3054-2.204 13.036-2.1975 13.763 3e-3 0.38751 0.0549 0.32874 2.4321-2.7759z" fill="#30657b" stroke-width=".22021"/>
</svg>
