<svg version="1.1" viewBox="0 0 300 300" xmlns="http://www.w3.org/2000/svg">
 <rect width="300" height="300" rx="67" fill="#fff"/>
 <g transform="matrix(.46296 0 0 .46296 64.352 65)" clip-rule="evenodd" fill="#008000" fill-rule="evenodd" stroke-linejoin="round" stroke-miterlimit="1.4142">
  <path d="m1.4 183.6c0-101.4 82.2-183.6 183.6-183.6 101.3 0 183.6 82.2 183.6 183.6 0 101.3-82.2 183.6-183.6 183.6-101.4-0.1-183.6-82.3-183.6-183.6zm149.9 119.3c6 6 15.5 6 21.5 0l108.5-108.5c6-6 6-15.5 0-21.5l-108.5-108.6c-6-6-15.5-6-21.5 0l-24.4 24.4c-6 6-6 15.5 0 21.5l73.4 73.4-73.4 73.4c-6 6-6 15.5 0 21.5z" fill="#008000"/>
 </g>
</svg>
