<svg xmlns="http://www.w3.org/2000/svg" viewBox="0 0 300 300">
  <g id="google-podcasts">
    <rect width="300" height="300" rx="67" fill="#fff"/>
    <path id="Shape" d="M75.39,133.66A10.5,10.5,0,0,0,65,144.08v11.84a10.39,10.39,0,1,0,20.78,0V144.08C86.25,138.4,81.53,133.66,75.39,133.66Z" fill="#0066d9"/>
    <path d="M224.61,133.66a10.5,10.5,0,0,0-10.39,10.42v11.84a10.39,10.39,0,1,0,20.78,0V144.08A10.5,10.5,0,0,0,224.61,133.66Z" fill="#4285f4"/>
    <path d="M112.22,168.7a10.5,10.5,0,0,0-10.39,10.42V191a10.39,10.39,0,1,0,20.78,0V179.12C123.08,173.44,118.36,168.7,112.22,168.7Z" fill="#ea4335"/>
    <path d="M112.22,99.09a10.5,10.5,0,0,0-10.39,10.42V147.4h0a10.39,10.39,0,1,0,20.78,0h0V109.51C123.08,103.83,118.36,99.09,112.22,99.09Z" fill="#ea4335"/>
    <path d="M187.78,99.09a10.5,10.5,0,0,0-10.39,10.42v11.84a10.39,10.39,0,1,0,20.78,0V109.51A10.5,10.5,0,0,0,187.78,99.09Z" fill="#34a853"/>
    <path d="M150,65a10.5,10.5,0,0,0-10.39,10.42V87.26a10.39,10.39,0,1,0,20.78,0V75.42A10.5,10.5,0,0,0,150,65Z" fill="#fab908"/>
    <path d="M150,202.33a10.49,10.49,0,0,0-10.39,10.41v11.84a10.39,10.39,0,1,0,20.78,0V212.74A10.81,10.81,0,0,0,150,202.33Z" fill="#fab908"/>
    <path d="M187.78,142.66a10.5,10.5,0,0,0-10.39,10.42V191a10.39,10.39,0,1,0,20.78,0V153.08A10.5,10.5,0,0,0,187.78,142.66Z" fill="#34a853"/>
    <path d="M160.39,119.46a10.39,10.39,0,1,0-20.78,0h0V182h0a10.39,10.39,0,1,0,20.78,0h0v-62.5Z" fill="#fab908"/>
  </g>
</svg>
