<svg xmlns="http://www.w3.org/2000/svg" viewBox="0 0 300 300">
  <g id="ivoox">
    <rect width="300" height="300" rx="67" fill="#ff8600"/>
    <path d="M136.58,126.88a23.51,23.51,0,0,0,.31-47c-13.32,0-23.66,10.19-23.66,23.35A23,23,0,0,0,136.58,126.88Z" fill="#fff"/>
    <path d="M116.52,181.56c0,36.82.16,81.65.16,118.31H159.3V201.62c0-16.45.15-32.91.15-49.52,0-5.32-1.41-10.18-6.11-12.84a20.43,20.43,0,0,0-9.09-2.82c-20.84-.32-41.68-.16-62.36-.16-2.19,0-2.82.78-2.82,3q.24,17.85,0,35.72c0,2.2.63,2.82,2.82,2.82,10.34-.15,20.68,0,31,0C116.52,177.8,116.52,177.8,116.52,181.56Z" fill="#fff"/>
  </g>
</svg>
