<svg xmlns="http://www.w3.org/2000/svg" viewBox="0 0 300 300">
  <g id="listennotes">
    <rect width="300" height="300" rx="67" fill="#fff"/>
    <path d="M178.46,193.16c-15.55,11.36-32.83,16.1-51.88,13.64C108.33,204.44,93.22,196,81.41,182A70.71,70.71,0,1,1,196.05,99.76a69.54,69.54,0,0,1,9.6,26.08,70.58,70.58,0,0,1-13,52.94c.13.08.22.15.32.2a79.82,79.82,0,0,1,12.38,8.13,113.6,113.6,0,0,1,19.26,19.2,69.62,69.62,0,0,1,7.15,10.9,31.83,31.83,0,0,1,2.83,7.19,13.09,13.09,0,0,1,.39,4.18,5.47,5.47,0,0,1-2.22,4.25,6.07,6.07,0,0,1-3.14,1.08,15.69,15.69,0,0,1-5.85-.74,42,42,0,0,1-8.45-3.67,83.54,83.54,0,0,1-12-8.18,115.42,115.42,0,0,1-16.93-16.73,77.74,77.74,0,0,1-7.69-11.09C178.62,193.39,178.54,193.28,178.46,193.16ZM135.77,80.84a55.91,55.91,0,1,0,55.93,55.95A55.9,55.9,0,0,0,135.77,80.84Z"/>
    <path d="M108.43,97.91a63.9,63.9,0,0,1,25.67,5.27A66.07,66.07,0,0,1,174,164.05H163.68c0-.21,0-.43,0-.65a55.86,55.86,0,0,0-24.29-45.52,54.44,54.44,0,0,0-17.67-8,52,52,0,0,0-7.62-1.34c-1.59-.16-3.19-.19-4.78-.27l-.86,0Z" fill="#b82f00"/>
    <path d="M155.73,165.78h-10.3a37.4,37.4,0,0,0-11.48-27c-7.53-7.37-16.69-10.94-27.23-11.13V117.3a49.2,49.2,0,0,1,42.52,24.31A46.75,46.75,0,0,1,155.73,165.78Z" fill="#b82f00"/>
    <path d="M106.71,143.76v-9.5a31.07,31.07,0,0,1,27.45,16.52,28.64,28.64,0,0,1,3.42,14.06c-.45.12-8.82.13-9.41,0a20.92,20.92,0,0,0-6.4-14.93A21.45,21.45,0,0,0,106.71,143.76Z" fill="#b82f00"/>
    <path d="M121.11,161a9,9,0,1,1-9.08-9A9,9,0,0,1,121.11,161Z" fill="#b82f00"/>
  </g>
</svg>
