<svg xmlns="http://www.w3.org/2000/svg" viewBox="0 0 300 300">
  <g id="overcast">
    <rect width="300" height="300" rx="67" fill="#fc7e0f"/>
    <path id="overcastCanvas-bezier" d="M150,235a85,85,0,1,1,85-85A84.65,84.65,0,0,1,150,235Zm0-33.53,6.14-6.14L150,170.78l-6.14,24.55Zm-8-.47-3.3,12.28,7.55-7.56ZM158,201l-4.25,4.25,7.55,7.56Zm6.14,21.72L150,208.56l-14.17,14.16A71.77,71.77,0,0,0,150,224.14C154.72,224.14,159.44,224.14,164.17,222.72ZM150,75.39A74.77,74.77,0,0,0,75.39,150a73.52,73.52,0,0,0,50.05,69.89l16.06-59c-3.78-2.36-5.67-6.61-5.67-11.33A14.21,14.21,0,0,1,150,135.36a13.92,13.92,0,0,1,14.17,14.17c0,4.72-2.36,8.5-5.67,11.33l16.06,59A74,74,0,0,0,224.61,150,74.77,74.77,0,0,0,150,75.39Zm48.64,111.44c-1.89,2.36-4.72,2.84-7.56.95-2.36-1.89-2.83-4.72-.94-7.09a54.61,54.61,0,0,0,0-61.38c-1.89-2.37-1.42-5.2.94-7.09s5.67-.94,7.56,1c.94.47,11.8,15.11,11.8,36.83S199.11,186.36,198.64,186.83Zm-26-13.69c-1.89-2.36-1.89-6.14.47-8A23.68,23.68,0,0,0,178.33,150c0-9-5.19-14.64-5.19-15.11-2.36-1.89-2.36-5.67-.47-8a5.29,5.29,0,0,1,7.55-.47,35.56,35.56,0,0,1,0,47.22C177.86,175.5,175,175,172.67,173.14Zm-45.34,0a5.29,5.29,0,0,1-7.55.47,34.37,34.37,0,0,1-9-23.61c0-14.64,8.5-22.67,9-23.61,2.36-1.89,5.66-1.89,7.55.47s1.89,6.14-.47,8c0,.47-5.19,5.67-5.19,15.11a25.31,25.31,0,0,0,5.19,15.11C129.22,167,129.22,170.78,127.33,173.14Zm-18.41,14.64c-2.36,1.89-5.67.94-7.56-.95-.94-.47-11.8-15.11-11.8-36.83s10.86-35.89,11.8-36.83c1.89-2.36,4.72-2.84,7.56-1,2.36,1.89,2.83,4.72.94,7.09a54.61,54.61,0,0,0,0,61.38A4.74,4.74,0,0,1,108.92,187.78Z" fill="#fff" fill-rule="evenodd"/>
  </g>
</svg>
