<svg xmlns="http://www.w3.org/2000/svg" viewBox="0 0 300 300">
  <g id="podbean">
    <rect width="300" height="300" rx="67" fill="#252027"/>
    <path d="M148.57,167.13c6.39-.62,12.72,2.28,17.07,6.87a30.92,30.92,0,0,1,3.62,5.75c1.55,3.56,1.63,7.54,1.39,11.35A20.88,20.88,0,0,1,162,204.85a18.47,18.47,0,0,1-9.54,3.53,28,28,0,0,1-7.26-.28,25.22,25.22,0,0,1-8.1-3.91,22.63,22.63,0,0,1-6.51-9,20.48,20.48,0,0,1,1.5-17.62,20.12,20.12,0,0,1,3.52-4.57,26,26,0,0,1,6.39-4.31A30.54,30.54,0,0,1,148.57,167.13Z" fill="#fff"/>
    <path d="M148.25,80.27a82.52,82.52,0,0,1,14.31.74,89.08,89.08,0,0,1,11.79,2.23,97.77,97.77,0,0,1,16.75,5.84,93.84,93.84,0,0,1,18.05,10.77,76.07,76.07,0,0,1,9.17,7.73c1.71,1.74,3.48,3.44,5.17,5.22A91,91,0,0,1,234,126.69a12.09,12.09,0,0,1,1,4.11,10.52,10.52,0,0,1-3.68,8.11,9.54,9.54,0,0,1-5.66,2.22,9.67,9.67,0,0,1-7.44-2.31c-1.95-1.76-3.12-4.14-4.69-6.2a78.41,78.41,0,0,0-20-19,82.9,82.9,0,0,0-11.91-6.53c-1.53-.66-3.11-1.21-4.66-1.83a64.2,64.2,0,0,0-11.13-3.16,82,82,0,0,0-15.15-1.5,71.44,71.44,0,0,0-15.17,1.21,74.6,74.6,0,0,0-11.84,3.24,79,79,0,0,0-35.06,24.66c-1.58,2.07-3.16,4.14-4.59,6.32A13.36,13.36,0,0,1,81,139.45,10.15,10.15,0,0,1,77.26,141a14,14,0,0,1-4.74-.07,9.72,9.72,0,0,1-5.93-4.49,10.1,10.1,0,0,1-1-8.75,16.89,16.89,0,0,1,1.48-2.7,99.33,99.33,0,0,1,35-32.49,109.06,109.06,0,0,1,18-7.7A102.4,102.4,0,0,1,148.25,80.27Z" fill="#8dc742"/>
    <path d="M149.23,116.85a61.61,61.61,0,0,1,44.29,17.86,54,54,0,0,1,8.92,11.06,10.64,10.64,0,0,1,.74,8.52,10.28,10.28,0,0,1-5.48,5.79,10.11,10.11,0,0,1-10.29-1.36,13.3,13.3,0,0,1-2.68-3,47.3,47.3,0,0,0-6-7.2A42,42,0,0,0,158.5,138a46.12,46.12,0,0,0-9.6-.81c-8.2,0-16.2,2.92-22.93,7.48a46,46,0,0,0-8,7.36c-1.65,1.92-2.92,4.13-4.6,6a10.14,10.14,0,0,1-16.8-4.67,9.48,9.48,0,0,1-.06-5.12,13,13,0,0,1,2-4,70.45,70.45,0,0,1,7.33-9,66.92,66.92,0,0,1,10.51-8.46,60.35,60.35,0,0,1,11.73-5.93A62.53,62.53,0,0,1,149.23,116.85Z" fill="#8dc742"/>
    <path d="M148.52,156.34a31.67,31.67,0,0,1,27.41,13.37,31.25,31.25,0,0,1,5.64,15.71,42.81,42.81,0,0,1-.23,8.16,33,33,0,0,1-10.05,18,31.78,31.78,0,0,1-15,7.55,33.35,33.35,0,0,1-10.64.37,32.19,32.19,0,0,1-11.24-3.84,33.53,33.53,0,0,1-9.36-8,36.17,36.17,0,0,1-4.84-8.67,31.75,31.75,0,0,1-.57-20.13A32,32,0,0,1,132,161.93a31,31,0,0,1,16.5-5.59m.28,15.08a23.89,23.89,0,0,0-5.29,1.21,20.94,20.94,0,0,0-5.13,3.46,16.85,16.85,0,0,0-4,17.79,18.07,18.07,0,0,0,5.21,7.24,20.08,20.08,0,0,0,6.5,3.14,22.67,22.67,0,0,0,5.82.23,14.86,14.86,0,0,0,7.65-2.83,16.76,16.76,0,0,0,7-11,19.55,19.55,0,0,0-1.12-9.1,24.82,24.82,0,0,0-2.9-4.61A17,17,0,0,0,148.8,171.42Z" fill="#8dc742"/>
  </g>
</svg>
