<svg version="1.1" viewBox="0 0 300 300" xmlns="http://www.w3.org/2000/svg">
 <rect width="300" height="300" rx="67" fill="#fff"/>
 <g transform="matrix(.625 0 0 .625 .5364 .11496)">
  <path fill="#fdfdfd" d="m276.6 128.4c-1.18 0.05-2.85 0.16-3.7 0.24-0.85 0.09-3.08 0.38-4.95 0.65-1.87 0.28-4.39 0.71-5.6 0.96s-2.63 0.55-3.15 0.66c-0.52 0.1-1.31 0.3-1.75 0.44-0.44 0.13-1.36 0.38-2.05 0.56-0.69 0.17-1.57 0.43-1.95 0.56-0.39 0.14-1.47 0.51-2.4 0.83-0.94 0.32-2.33 0.81-3.1 1.08s-1.58 0.58-1.8 0.7c-0.22 0.11-0.81 0.36-1.3 0.55-0.5 0.19-1.53 0.64-2.3 0.99s-2.12 1.01-3 1.47c-0.88 0.47-1.89 0.99-2.25 1.16-0.36 0.18-1.1 0.58-1.65 0.9-0.55 0.31-1.38 0.8-1.85 1.07-0.47 0.28-1.12 0.67-1.45 0.86s-1.43 0.91-2.45 1.59-2.28 1.55-2.8 1.94c-0.52 0.38-1.27 0.92-1.65 1.18-0.39 0.26-1.29 0.95-2 1.52-0.72 0.58-1.75 1.41-2.3 1.85-0.55 0.45-1.92 1.67-3.05 2.71s-2.95 2.84-4.05 3.99-2.3 2.43-2.66 2.84-1.03 1.22-1.49 1.8c-0.47 0.58-1.07 1.32-1.35 1.65s-0.97 1.23-1.55 2c-0.57 0.77-1.25 1.69-1.5 2.05s-0.86 1.23-1.35 1.93c-0.65 0.92-0.94 1.26-1.05 1.22-0.08-0.03-0.92-0.11-1.85-0.18-0.94-0.06-3.12-0.11-4.85-0.12-1.73 0-3.85 0.06-4.7 0.13s-2 0.17-2.55 0.23-1.63 0.19-2.4 0.29c-0.77 0.11-1.9 0.28-2.5 0.39-0.61 0.11-1.71 0.32-2.45 0.46-0.74 0.13-2.39 0.52-3.65 0.86-1.27 0.33-2.37 0.64-2.45 0.68-0.08 0.05-1.12 0.41-2.3 0.81-1.18 0.39-2.96 1.05-3.95 1.45-0.99 0.41-2.68 1.16-3.75 1.68-1.07 0.51-2.51 1.25-3.2 1.62-0.69 0.38-1.52 0.84-1.85 1.02-0.33 0.19-1.16 0.68-1.85 1.11-0.69 0.42-1.68 1.06-2.2 1.41s-1.33 0.91-1.8 1.25c-0.47 0.33-1.35 0.99-1.95 1.45-0.61 0.47-1.66 1.33-2.35 1.9-0.69 0.58-1.93 1.66-2.75 2.41-0.83 0.76-2.08 2-2.8 2.76-0.71 0.76-1.5 1.62-1.75 1.89-0.25 0.28-0.58 0.66-0.75 0.85-0.16 0.19-0.75 0.91-1.3 1.6s-1.2 1.51-1.45 1.84c-0.25 0.32-0.68 0.91-0.97 1.3-0.28 0.39-0.85 1.2-1.26 1.81-0.41 0.6-1.08 1.62-1.49 2.25s-1.04 1.67-1.4 2.3-1.03 1.89-1.49 2.8-0.98 1.96-1.14 2.33l-0.3 0.68c-1.32-0.01-2.31 0.04-3.05 0.09-0.74 0.06-2.59 0.27-4.1 0.46s-3.79 0.55-5.05 0.8c-1.27 0.25-3.04 0.66-3.95 0.9s-2.15 0.58-2.75 0.74c-0.61 0.17-1.91 0.58-2.9 0.92-0.99 0.33-2.48 0.87-3.3 1.2-0.83 0.33-2.04 0.85-2.7 1.15-0.66 0.31-1.81 0.86-2.55 1.23s-2.23 1.16-3.3 1.75-2.6 1.49-3.4 2.01c-0.8 0.51-1.86 1.21-2.37 1.56-0.5 0.35-1.6 1.15-2.45 1.79-0.84 0.64-2.16 1.69-2.93 2.33s-2.26 1.98-3.3 2.99c-1.05 1-2.4 2.36-3.01 3.02s-1.47 1.63-1.9 2.15c-0.44 0.52-1.07 1.29-1.4 1.7-0.34 0.41-0.97 1.22-1.4 1.8-0.44 0.58-1.31 1.84-1.95 2.8s-1.41 2.15-1.71 2.65c-0.31 0.49-0.9 1.48-1.31 2.2-0.41 0.71-1.06 1.93-1.44 2.7-0.39 0.77-0.97 2.01-1.3 2.75-0.34 0.74-0.81 1.84-1.06 2.45-0.25 0.6-0.66 1.66-0.9 2.35-0.25 0.69-0.71 2.04-1.02 3s-0.79 2.67-1.07 3.8c-0.27 1.13-0.58 2.45-0.68 2.95-0.1 0.49-0.32 1.75-0.49 2.8-0.17 1.04-0.35 2.3-0.41 2.8-0.06 0.49-0.18 1.64-0.25 2.55-0.1 1.06-0.15 3.06-0.15 5.6 0 2.17 0.05 4.44 0.1 5.05 0.06 0.6 0.2 1.86 0.31 2.8 0.11 0.93 0.34 2.49 0.5 3.45 0.17 0.96 0.45 2.4 0.64 3.2 0.18 0.8 0.5 2.1 0.7 2.9s0.54 2.03 0.76 2.75c0.23 0.71 0.83 2.42 1.34 3.8 0.52 1.37 1.19 3.06 1.5 3.75s1.08 2.26 1.71 3.5c0.64 1.24 1.52 2.86 1.96 3.6s1.24 2 1.77 2.8 1.3 1.92 1.71 2.5 0.97 1.34 1.25 1.7c0.27 0.36 1.03 1.3 1.69 2.1s1.86 2.17 2.66 3.05 1.59 1.7 1.75 1.82c0.17 0.12 0.75 0.67 1.3 1.23s1.51 1.45 2.14 1.98c0.62 0.53 1.64 1.37 2.26 1.87 0.62 0.49 1.77 1.37 2.56 1.95s2.12 1.5 2.95 2.05c0.84 0.55 2.21 1.4 3.06 1.9 0.84 0.49 2.16 1.23 2.93 1.64s2.21 1.12 3.2 1.58c0.99 0.47 2.18 1 2.65 1.2 0.47 0.19 1.07 0.43 1.35 0.53 0.27 0.1 1.02 0.38 1.65 0.63 0.63 0.24 2.05 0.72 3.15 1.06 1.1 0.35 2.79 0.83 3.75 1.07 0.96 0.25 2.15 0.53 2.65 0.64 0.49 0.11 1.64 0.33 2.55 0.49s2.3 0.39 3.1 0.51 2.44 0.28 3.65 0.36 3.28 0.17 4.6 0.21c1.32 0.03 11.62 0 22.9-0.06 11.27-0.06 32.74-0.18 47.7-0.26s52.62-0.28 83.7-0.45c31.07-0.16 57.94-0.31 59.7-0.34 1.88-0.02 3.84-0.11 4.75-0.2 0.85-0.09 2.29-0.25 3.2-0.37s2.14-0.29 2.75-0.4c0.6-0.1 1.73-0.3 2.5-0.44 0.77-0.15 2.52-0.55 3.9-0.9 1.37-0.35 3.11-0.85 3.85-1.11s1.78-0.61 2.3-0.79 1.38-0.49 1.9-0.69 1.51-0.6 2.2-0.89c0.68-0.29 2.39-1.09 3.8-1.79 1.4-0.7 3.2-1.66 4-2.13 0.8-0.48 1.88-1.14 2.4-1.48s1.47-0.95 2.1-1.36c0.63-0.42 1.78-1.23 2.55-1.81s1.76-1.34 2.2-1.69 1.02-0.85 1.3-1.11c0.27-0.27 0.81-0.74 1.2-1.06 0.38-0.33 1.59-1.47 2.68-2.54s2.47-2.49 3.06-3.15 1.4-1.63 1.81-2.15c0.4-0.52 0.94-1.2 1.2-1.5s0.89-1.14 1.4-1.85c0.52-0.72 1.33-1.91 1.82-2.65 0.48-0.74 1.28-2.03 1.77-2.85 0.49-0.83 1.06-1.79 1.25-2.15 0.2-0.36 0.68-1.3 1.07-2.1s0.94-1.95 1.21-2.55c0.27-0.61 0.91-2.16 1.43-3.45 0.51-1.29 1.2-3.23 1.53-4.3s0.74-2.47 0.9-3.1c0.17-0.63 0.49-2.01 0.71-3.05 0.22-1.05 0.47-2.37 0.56-2.95s0.23-1.5 0.31-2.05 0.24-1.83 0.35-2.85c0.11-1.04 0.23-2.93 0.26-4.3 0.03-1.38 0.01-3.54-0.06-4.95-0.07-1.38-0.23-3.49-0.36-4.7-0.14-1.21-0.38-3.01-0.55-4s-0.43-2.34-0.59-3c-0.17-0.66-0.48-1.97-0.71-2.9-0.23-0.94-0.66-2.42-0.95-3.3s-0.86-2.46-1.25-3.5c-0.39-1.05-0.84-2.19-1-2.55s-0.83-1.78-1.5-3.15c-0.67-1.38-1.73-3.36-2.36-4.4-0.63-1.05-1.43-2.33-1.77-2.85-0.34-0.53-1.1-1.63-1.68-2.45-0.59-0.83-1.71-2.31-2.5-3.3s-1.95-2.36-2.58-3.05-1.89-1.98-2.8-2.88-2.09-2.01-2.61-2.46c-0.52-0.46-1.38-1.18-1.91-1.62-0.52-0.43-1.29-1.05-1.7-1.36s-1.03-0.79-1.39-1.06-1.24-0.89-1.95-1.38c-0.72-0.49-1.77-1.19-2.35-1.55-0.58-0.37-1.39-0.87-1.8-1.12-0.41-0.24-1.45-0.83-2.3-1.29-0.85-0.47-2.09-1.12-2.76-1.44-0.66-0.33-1.66-0.79-2.21-1.04l-1.01-0.45c-0.07-2.95-0.14-4.34-0.2-5-0.07-0.66-0.17-1.67-0.23-2.25s-0.22-1.82-0.35-2.75c-0.13-0.94-0.33-2.26-0.43-2.95-0.11-0.69-0.27-1.57-0.35-1.95-0.08-0.39-0.38-1.67-0.66-2.85s-0.6-2.56-0.71-3.05c-0.12-0.5-0.52-1.87-0.91-3.05-0.38-1.18-0.95-2.89-1.25-3.8-0.31-0.91-0.71-2.01-0.9-2.45s-0.48-1.14-0.63-1.55c-0.16-0.41-0.48-1.22-0.73-1.8-0.24-0.58-1.15-2.45-2.01-4.15-0.86-1.71-1.97-3.8-2.47-4.65s-1.07-1.82-1.27-2.15-1.03-1.61-1.85-2.85c-0.83-1.24-1.76-2.59-2.08-3s-1.05-1.38-1.64-2.15c-0.58-0.77-1.31-1.72-1.63-2.1-0.31-0.39-1.13-1.36-1.81-2.15-0.68-0.8-2.62-2.82-4.3-4.5-1.69-1.68-3.43-3.37-3.87-3.75-0.44-0.39-1.2-1.04-1.69-1.45-0.48-0.41-1.23-1.02-1.66-1.35-0.42-0.33-1.15-0.9-1.61-1.26-0.46-0.37-1.35-1.04-1.98-1.5s-2.17-1.51-3.42-2.34-2.48-1.63-2.75-1.78c-0.26-0.15-0.91-0.53-1.43-0.84-0.52-0.3-1.54-0.88-2.25-1.28-0.72-0.4-1.71-0.93-2.2-1.18-0.5-0.24-1.13-0.58-1.4-0.74-0.28-0.16-0.77-0.4-1.1-0.53s-0.89-0.38-1.25-0.56c-0.36-0.17-1.06-0.49-1.55-0.69-0.5-0.2-1.55-0.64-2.35-0.97-0.8-0.34-2.06-0.82-2.8-1.09-0.74-0.26-1.8-0.63-2.35-0.83-0.55-0.19-1.72-0.57-2.6-0.85s-2.46-0.73-3.5-1.01c-1.05-0.28-3.05-0.75-4.45-1.04-1.4-0.3-2.89-0.61-3.3-0.7-0.41-0.08-1.38-0.24-2.15-0.35-0.77-0.12-2.01-0.28-2.75-0.36-0.74-0.09-1.91-0.22-2.6-0.3s-2.17-0.19-3.3-0.24c-1.13-0.06-3.4-0.13-5.05-0.15s-3.97-0.01-5.15 0.04z"/>
  <path fill="#21218b" d="m277.3 137.4c-1.24 0.05-2.77 0.14-3.4 0.2s-2.57 0.32-4.3 0.56-4.37 0.69-5.85 0.99c-1.49 0.3-3.04 0.65-3.45 0.76-0.41 0.12-1.4 0.39-2.2 0.6s-1.95 0.56-2.55 0.78c-0.61 0.22-1.64 0.58-2.3 0.81s-1.74 0.61-2.4 0.84c-0.66 0.24-1.83 0.7-2.6 1.03s-1.81 0.78-2.3 1.01c-0.5 0.22-1.4 0.66-2 0.97-0.61 0.32-1.64 0.86-2.3 1.2s-1.63 0.87-2.15 1.17-1.22 0.71-1.55 0.91c-0.33 0.19-0.96 0.57-1.4 0.84-0.43 0.26-1.22 0.77-1.75 1.12-0.52 0.35-1.36 0.93-1.85 1.29-0.5 0.36-1.26 0.92-1.7 1.24s-1.09 0.79-1.44 1.06c-0.36 0.26-1.21 0.94-1.9 1.5-0.7 0.57-1.46 1.2-1.71 1.4-0.24 0.21-1 0.89-1.68 1.52s-1.78 1.69-2.45 2.36c-0.67 0.66-1.69 1.7-2.27 2.3-0.57 0.6-1.29 1.38-1.6 1.74s-1.03 1.23-1.61 1.93c-0.57 0.7-1.21 1.49-1.41 1.75-0.21 0.26-0.77 1.01-1.26 1.67-0.48 0.66-1.18 1.63-1.54 2.15-0.37 0.52-0.76 1.06-0.86 1.2-0.11 0.14-0.43 0.63-0.72 1.1s-0.85 1.39-1.25 2.05c-0.39 0.66-0.83 1.4-0.97 1.65s-0.38 0.55-0.54 0.68c-0.23 0.18-0.41 0.22-0.84 0.22-0.3-0.01-0.78-0.05-1.05-0.11-0.28-0.05-1.45-0.22-2.6-0.38-1.16-0.16-3.11-0.34-4.35-0.41s-3.02-0.1-3.95-0.08c-0.94 0.03-2.31 0.11-3.05 0.17s-1.82 0.16-2.4 0.22-1.61 0.19-2.3 0.29-2.02 0.32-2.95 0.49c-0.94 0.16-2.33 0.46-3.1 0.66s-1.63 0.43-1.9 0.5c-0.28 0.07-1.6 0.51-2.95 0.98-1.35 0.46-3.19 1.14-4.1 1.51s-2.62 1.16-3.8 1.75-2.74 1.41-3.45 1.83c-0.72 0.42-1.55 0.91-1.85 1.1s-1 0.63-1.55 0.99-1.36 0.92-1.81 1.25c-0.44 0.32-1.16 0.86-1.6 1.18-0.43 0.33-1.38 1.09-2.09 1.7-0.72 0.6-1.75 1.51-2.3 2-0.55 0.5-1.29 1.21-1.65 1.57s-1.11 1.15-1.66 1.75c-0.56 0.6-1.26 1.38-1.55 1.73-0.3 0.35-0.83 1.01-1.19 1.45-0.36 0.45-0.99 1.26-1.4 1.81-0.4 0.55-0.9 1.22-1.1 1.5-0.21 0.27-0.68 0.97-1.05 1.55s-0.84 1.3-1.05 1.6c-0.2 0.3-0.54 0.86-0.75 1.25-0.21 0.38-0.46 0.81-0.55 0.95s-0.44 0.79-0.78 1.45c-0.33 0.66-0.88 1.78-1.2 2.5-0.33 0.71-0.92 2.11-1.32 3.1-0.39 0.99-0.81 2-0.93 2.24-0.12 0.25-0.36 0.53-0.52 0.63-0.17 0.1-0.49 0.18-0.75 0.18-0.25 0-0.99-0.07-1.65-0.15s-1.9-0.15-2.75-0.15-2.18 0.05-2.95 0.1c-0.77 0.06-1.72 0.15-2.1 0.21-0.39 0.05-1.43 0.19-2.33 0.3-0.89 0.1-2.51 0.37-3.6 0.58-1.08 0.22-2.56 0.55-3.27 0.74-0.72 0.19-1.86 0.51-2.55 0.7s-2.06 0.63-3.05 0.96c-0.99 0.34-2.05 0.72-2.35 0.85s-0.91 0.38-1.35 0.56c-0.44 0.19-1.54 0.69-2.45 1.13s-2.44 1.22-3.4 1.75c-0.96 0.52-2.04 1.13-2.4 1.35s-1.35 0.86-2.2 1.43-2.18 1.51-2.95 2.1c-0.77 0.58-2.05 1.61-2.85 2.28-0.8 0.66-2.19 1.95-3.11 2.86-0.91 0.91-1.99 2.01-2.4 2.45s-1.25 1.41-1.86 2.15c-0.62 0.74-1.44 1.77-1.82 2.27-0.39 0.51-1.15 1.59-1.69 2.4-0.55 0.82-1.26 1.91-1.58 2.43-0.33 0.52-0.78 1.26-0.99 1.65-0.22 0.38-0.5 0.88-0.63 1.1-0.12 0.22-0.58 1.12-1.02 2-0.43 0.88-1.06 2.25-1.4 3.05s-0.84 2.06-1.12 2.8-0.7 1.96-0.95 2.7c-0.24 0.74-0.7 2.43-1.03 3.75s-0.69 2.96-0.8 3.65c-0.12 0.69-0.3 1.83-0.4 2.55-0.1 0.71-0.26 2.08-0.34 3.02-0.11 1.15-0.16 2.85-0.16 5.05 0 1.83 0.04 3.82 0.1 4.43 0.06 0.6 0.17 1.71 0.26 2.45 0.08 0.74 0.22 1.73 0.3 2.2s0.19 1.12 0.25 1.45c0.05 0.33 0.23 1.21 0.4 1.95s0.48 2.02 0.69 2.85c0.21 0.82 0.51 1.88 0.65 2.35 0.15 0.47 0.63 1.82 1.07 3s0.98 2.58 1.21 3.1c0.22 0.52 0.89 1.89 1.47 3.05 0.58 1.15 1.44 2.73 1.9 3.5s1.22 1.98 1.7 2.7c0.48 0.71 1.11 1.64 1.41 2.05s0.76 1.04 1.04 1.4c0.27 0.36 1.03 1.3 1.69 2.1s2.28 2.53 3.6 3.85c1.33 1.32 2.72 2.66 3.11 2.97 0.38 0.32 1.01 0.84 1.4 1.17 0.38 0.33 0.88 0.73 1.1 0.88 0.23 0.15 0.97 0.69 1.65 1.2 0.69 0.51 1.7 1.23 2.25 1.59 0.55 0.37 1.72 1.1 2.6 1.62s2.07 1.2 2.65 1.5 1.09 0.58 1.15 0.62c0.05 0.04 0.8 0.4 1.65 0.8s1.83 0.83 2.17 0.96c0.35 0.13 0.71 0.28 0.8 0.34 0.1 0.05 0.9 0.37 1.78 0.69 0.88 0.33 2.39 0.84 3.35 1.14s2.56 0.75 3.55 1 2.65 0.61 3.7 0.8c1.04 0.19 2.21 0.39 2.6 0.46 0.38 0.06 1.06 0.15 1.5 0.2 0.44 0.06 2.15 0.18 3.8 0.27 2.81 0.16 4.94 0.16 33.45 0 16.75-0.09 55.15-0.3 85.35-0.46 30.19-0.16 64.06-0.34 75.25-0.4 11.19-0.05 21.34-0.12 22.55-0.15 1.21-0.02 3.1-0.14 4.2-0.25s2.47-0.26 3.05-0.34c0.58-0.09 1.32-0.2 1.65-0.25s1.21-0.21 1.95-0.35 1.98-0.4 2.75-0.59 1.83-0.46 2.35-0.6 1.4-0.42 1.95-0.62c0.55-0.19 1.47-0.51 2.05-0.71 0.58-0.19 1.43-0.51 1.9-0.69 0.47-0.19 1.5-0.62 2.3-0.95 0.8-0.34 2.19-0.99 3.1-1.45s2.23-1.19 2.95-1.61c0.71-0.42 2.11-1.29 3.1-1.93s2.44-1.64 3.22-2.24c0.79-0.59 1.72-1.31 2.07-1.6 0.35-0.28 1.12-0.95 1.72-1.47s1.9-1.76 2.89-2.75c1-0.99 2.19-2.23 2.65-2.76 0.47-0.53 1.1-1.29 1.4-1.69s0.77-0.98 1.03-1.29c0.27-0.31 0.9-1.15 1.41-1.86 0.5-0.72 1.26-1.84 1.68-2.5s1.04-1.67 1.38-2.25c0.35-0.58 1.05-1.86 1.56-2.85s1.24-2.54 1.62-3.45 0.93-2.26 1.22-3 0.75-2.05 1.02-2.9 0.63-2.07 0.79-2.7 0.43-1.76 0.59-2.5c0.17-0.74 0.41-2.03 0.55-2.85 0.13-0.83 0.29-1.84 0.35-2.25s0.17-1.43 0.25-2.25c0.08-0.83 0.18-2.33 0.21-3.35 0.04-1.04 0.02-2.88-0.05-4.2-0.07-1.29-0.16-2.82-0.22-3.4-0.05-0.58-0.14-1.43-0.2-1.9s-0.22-1.55-0.35-2.4c-0.14-0.85-0.33-1.89-0.44-2.3s-0.38-1.52-0.6-2.45c-0.23-0.94-0.53-2.08-0.67-2.55s-0.68-2-1.2-3.4c-0.63-1.69-1.36-3.4-2.16-5.05-0.66-1.38-1.3-2.66-1.42-2.85s-0.39-0.64-0.6-1-0.48-0.81-0.6-1-0.55-0.87-0.95-1.5-1.11-1.69-1.58-2.35-1.26-1.72-1.76-2.35-1.13-1.42-1.41-1.75c-0.27-0.33-1.02-1.16-1.65-1.85s-1.75-1.84-2.5-2.56c-0.74-0.72-1.68-1.6-2.09-1.95s-1.04-0.89-1.4-1.19-1.5-1.18-2.53-1.95-2.65-1.9-3.6-2.51-2.36-1.46-3.13-1.89-2.01-1.09-2.75-1.46-1.87-0.91-2.5-1.19c-0.63-0.29-1.56-0.68-2.05-0.87-0.5-0.19-1.55-0.59-2.35-0.89-0.94-0.35-1.55-0.64-1.73-0.82-0.15-0.15-0.32-0.41-0.39-0.57-0.09-0.23-0.07-0.6 0.06-1.65 0.14-1.08 0.16-1.91 0.13-4.1-0.02-1.51-0.09-3.34-0.16-4.05-0.06-0.72-0.16-1.75-0.22-2.3s-0.17-1.47-0.25-2.05-0.21-1.43-0.29-1.9-0.19-1.19-0.25-1.6-0.27-1.4-0.46-2.2c-0.2-0.8-0.53-2.24-0.75-3.2s-0.59-2.34-0.84-3.05c-0.24-0.72-0.69-2.11-1.01-3.1-0.31-0.99-0.77-2.27-1.02-2.85-0.24-0.58-0.57-1.39-0.72-1.8-0.16-0.41-0.48-1.22-0.73-1.8-0.24-0.58-0.56-1.28-0.71-1.55-0.14-0.28-0.3-0.57-0.35-0.65-0.06-0.08-0.46-0.92-0.91-1.85-0.45-0.94-0.97-1.93-1.15-2.2-0.18-0.28-0.68-1.13-1.11-1.9s-0.97-1.68-1.19-2.01c-0.22-0.34-0.62-0.95-0.89-1.35-0.27-0.41-0.73-1.12-1.04-1.59-0.3-0.47-0.81-1.19-1.14-1.6-0.32-0.41-0.99-1.29-1.48-1.95-0.5-0.66-1.14-1.49-1.43-1.85s-1.08-1.31-1.76-2.1c-0.68-0.8-2.48-2.68-4-4.19-1.52-1.5-3.3-3.19-3.96-3.74-0.66-0.56-1.25-1.06-1.31-1.11-0.06-0.06-0.39-0.34-0.73-0.61-0.35-0.28-0.93-0.74-1.3-1.04-0.36-0.29-1.38-1.06-2.26-1.7-0.88-0.63-2.4-1.68-3.37-2.31-0.98-0.63-2.15-1.38-2.6-1.66-0.46-0.29-1.03-0.62-1.28-0.74s-0.52-0.28-0.6-0.35-0.51-0.32-0.95-0.55c-0.44-0.24-1.27-0.68-1.85-0.97-0.58-0.3-1.3-0.67-1.6-0.83s-1.09-0.54-1.75-0.84-1.7-0.74-2.3-0.99c-0.61-0.25-1.51-0.62-2-0.83-0.5-0.2-1.22-0.48-1.6-0.61-0.39-0.13-1.31-0.46-2.05-0.72-0.74-0.27-2-0.7-2.8-0.95s-2.22-0.66-3.15-0.91c-0.94-0.25-2.2-0.57-2.8-0.7-0.61-0.14-1.96-0.42-3-0.64-1.05-0.22-2.19-0.45-2.55-0.5-0.36-0.06-1.44-0.2-2.4-0.31-0.96-0.12-2.31-0.28-3-0.36s-2.22-0.19-3.4-0.24-3.12-0.11-4.3-0.13c-1.18-0.03-3.16-0.01-4.4 0.03z"/>
  <path fill="#fdfdfd" d="m249.9 177.72c1.29-0.01 3.07 0.03 3.95 0.08 0.88 0.06 2.39 0.19 3.35 0.3 0.96 0.1 2.47 0.31 3.35 0.45s2.32 0.41 3.2 0.6 2.3 0.53 3.15 0.75c0.85 0.23 1.64 0.42 1.75 0.44s0.76 0.2 1.45 0.41c0.69 0.2 1.95 0.63 2.8 0.95s2.25 0.85 3.1 1.19c0.85 0.35 1.82 0.74 2.15 0.89 0.33 0.14 1.81 0.87 3.3 1.62 1.48 0.75 3.55 1.9 4.6 2.55 1.04 0.65 2.28 1.44 2.75 1.74 0.47 0.31 1.16 0.79 1.55 1.06 0.38 0.27 1.15 0.83 1.7 1.23 0.55 0.41 1.4 1.09 1.88 1.51 0.49 0.42 1.09 0.93 1.35 1.15 0.26 0.21 1.14 1.01 1.97 1.77 0.82 0.75 2.15 2.07 2.95 2.92 0.8 0.84 1.8 1.94 2.23 2.43s0.91 1.02 1.07 1.19c0.15 0.16 0.83 1.02 1.5 1.9 0.66 0.88 1.72 2.36 2.34 3.3 0.62 0.93 1.42 2.17 1.78 2.75 0.35 0.58 0.94 1.57 1.31 2.2 0.36 0.63 0.66 1.18 0.67 1.22 0 0.05 0.21 0.47 0.48 0.95 0.26 0.49 0.64 1.24 0.84 1.68s0.5 1.1 0.67 1.47c0.17 0.38 0.31 0.7 0.31 0.73s0.14 0.35 0.31 0.72c0.17 0.38 0.43 0.99 0.59 1.38 0.15 0.38 0.42 1.08 0.6 1.55s0.41 1.07 0.52 1.35c0.1 0.27 0.43 1.33 0.73 2.35s0.84 3 1.19 4.4c0.39 1.53 0.81 3.53 1.05 5 0.22 1.35 0.47 2.97 0.55 3.6s0.2 1.76 0.26 2.5c0.07 0.74 0.11 3.19 0.11 5.45-0.01 2.25-0.06 4.64-0.11 5.3-0.06 0.66-0.15 1.56-0.2 2-0.06 0.44-0.15 1.11-0.21 1.5-0.06 0.38-0.29 1.71-0.5 2.95-0.22 1.24-0.62 3.1-0.9 4.15-0.28 1.04-0.71 2.6-0.95 3.45-0.25 0.85-0.65 2.11-0.89 2.8s-0.59 1.65-0.78 2.15c-0.19 0.49-0.71 1.73-1.15 2.75s-1.03 2.32-1.3 2.9c-0.28 0.58-0.8 1.57-1.15 2.2-0.34 0.63-0.82 1.51-1.06 1.95s-0.62 1.09-0.84 1.45-0.83 1.29-1.36 2.08c-0.53 0.78-1.12 1.66-1.31 1.95s-0.71 1-1.15 1.57c-0.43 0.58-0.99 1.3-1.23 1.6-0.23 0.3-0.66 0.84-0.95 1.19-0.29 0.36-0.97 1.14-1.51 1.75-0.55 0.61-1.32 1.45-1.72 1.86-0.39 0.41-1.29 1.31-2 2s-1.78 1.68-2.38 2.2c-0.61 0.52-1.37 1.16-1.7 1.42-0.34 0.26-1.13 0.87-1.76 1.36-0.63 0.48-1.52 1.13-1.98 1.45-0.45 0.31-0.85 0.57-0.9 0.57-0.04 0-0.06-2.62-0.05-11.65l0.24-0.47c0.15-0.3 1.05-1.3 2.5-2.8 1.24-1.28 2.59-2.71 3-3.18s1.08-1.28 1.5-1.8 1.23-1.6 1.8-2.4 1.32-1.9 1.67-2.45 1-1.61 1.44-2.35 1.13-2 1.53-2.8 0.79-1.61 0.88-1.8c0.08-0.19 0.43-0.98 0.77-1.75s0.82-1.94 1.07-2.6 0.61-1.65 0.79-2.2c0.19-0.55 0.48-1.5 0.64-2.1 0.16-0.61 0.45-1.71 0.64-2.45s0.51-2.14 0.7-3.1c0.2-0.96 0.47-2.63 0.6-3.7 0.14-1.07 0.3-2.6 0.36-3.4s0.1-2.67 0.1-4.15c0-1.49-0.04-3.31-0.1-4.05s-0.2-2.09-0.31-3-0.31-2.21-0.44-2.9-0.35-1.77-0.5-2.4c-0.14-0.63-0.46-1.94-0.71-2.9-0.26-0.96-0.64-2.31-0.86-3-0.23-0.69-0.71-2.02-1.08-2.95-0.38-0.94-0.86-2.08-1.07-2.55-0.22-0.47-0.4-0.88-0.41-0.93-0.01-0.04-0.34-0.71-0.74-1.5-0.39-0.78-1.14-2.16-1.65-3.07-0.52-0.91-1.18-2.01-1.46-2.45-0.29-0.44-0.57-0.87-0.64-0.95s-0.6-0.83-1.19-1.65c-0.58-0.83-1.57-2.13-2.19-2.9-0.63-0.77-1.5-1.81-1.96-2.3-0.45-0.5-1.32-1.41-1.93-2.04-0.61-0.62-1.74-1.7-2.51-2.4s-1.76-1.56-2.2-1.92-1.18-0.94-1.65-1.29c-0.46-0.36-1.07-0.81-1.36-1-0.28-0.19-0.85-0.57-1.25-0.85-0.41-0.27-0.92-0.63-1.14-0.8-0.22-0.16-0.78-0.53-1.25-0.81s-1.44-0.82-2.15-1.21c-0.72-0.39-1.82-0.97-2.45-1.31-0.63-0.33-2.03-0.94-3.1-1.37-1.07-0.42-2.36-0.94-2.85-1.15-0.5-0.21-1.78-0.65-2.85-0.98s-3.1-0.85-4.5-1.16c-1.4-0.3-3.05-0.62-3.65-0.71-0.61-0.08-1.98-0.24-3.05-0.35s-3.12-0.25-4.55-0.31c-1.92-0.09-3.24-0.09-5.05-0.01-1.35 0.06-3.35 0.23-4.45 0.37s-2.34 0.32-2.75 0.4-1.67 0.36-2.8 0.61-2.86 0.7-3.85 1-2.36 0.77-3.05 1.04-1.52 0.59-1.85 0.7-0.96 0.37-1.4 0.56c-0.44 0.2-0.96 0.43-1.15 0.51-0.19 0.09-1 0.49-1.8 0.88-0.8 0.4-2.08 1.07-2.85 1.5s-1.64 0.93-1.93 1.11c-0.28 0.19-0.54 0.34-0.57 0.34s-0.24 0.15-0.46 0.32c-0.23 0.18-0.63 0.46-0.9 0.63-0.26 0.16-0.81 0.52-1.21 0.8-0.4 0.27-1.2 0.86-1.78 1.29-0.58 0.44-1.3 1-1.6 1.25-0.3 0.24-0.91 0.75-1.35 1.12s-1.32 1.16-1.95 1.76-1.65 1.6-2.26 2.23-1.63 1.76-2.25 2.51c-0.63 0.75-1.28 1.54-1.45 1.75-0.17 0.22-0.66 0.88-1.1 1.49-0.44 0.6-1.09 1.53-1.44 2.05-0.34 0.52-0.77 1.17-0.95 1.45-0.18 0.27-0.48 0.77-0.68 1.1-0.19 0.33-0.54 0.91-0.77 1.3-0.23 0.38-0.88 1.64-1.45 2.8-0.56 1.15-1.14 2.35-1.28 2.65s-0.52 1.22-0.85 2.05c-0.33 0.82-0.74 1.93-0.92 2.45-0.17 0.52-0.61 1.96-0.96 3.2-0.36 1.24-0.81 2.99-1 3.9s-0.48 2.46-0.64 3.45-0.36 2.56-0.46 3.5c-0.15 1.32-0.19 2.53-0.19 5.45 0 2.33 0.05 4.24 0.13 5.05 0.07 0.71 0.24 2.06 0.37 3 0.14 0.93 0.4 2.49 0.6 3.45 0.19 0.96 0.55 2.49 0.8 3.4s0.69 2.37 0.97 3.25 0.65 1.98 0.83 2.45 0.49 1.2 0.69 1.62c0.2 0.43 0.36 0.8 0.36 0.83s0.32 0.76 0.71 1.62c0.39 0.87 0.93 2.01 1.21 2.53s0.73 1.33 1.01 1.8 0.77 1.3 1.1 1.85 0.96 1.54 1.4 2.2 1.26 1.81 1.81 2.55 1.12 1.47 1.26 1.61c0.14 0.15 0.45 0.51 0.7 0.8s0.88 1 1.41 1.58 1.34 1.44 1.79 1.91c0.46 0.47 1.29 1.27 1.84 1.78 0.56 0.51 1.1 1.08 1.2 1.25 0.19 0.31 0.19 0.38 0.05 2.52-0.08 1.29-0.14 3.77-0.14 9.84l-0.3-0.23c-0.17-0.13-0.62-0.45-1-0.73-0.39-0.27-1.02-0.74-1.41-1.04-0.38-0.3-1.06-0.83-1.5-1.19s-1.09-0.89-1.45-1.19c-0.35-0.29-1.35-1.19-2.22-2-0.87-0.8-2.16-2.07-2.86-2.81-0.69-0.74-1.69-1.84-2.21-2.44s-1.19-1.39-1.48-1.75-1.04-1.34-1.66-2.16c-0.62-0.83-1.51-2.05-1.97-2.73s-1.1-1.62-1.41-2.1c-0.32-0.48-0.64-1.01-0.71-1.17-0.08-0.17-0.36-0.68-0.64-1.15s-0.93-1.66-1.45-2.65-1.11-2.21-1.32-2.7c-0.21-0.5-0.58-1.35-0.82-1.9s-0.65-1.54-0.92-2.2c-0.28-0.66-0.61-1.56-0.75-2s-0.45-1.45-0.71-2.25c-0.25-0.8-0.48-1.59-0.52-1.75-0.04-0.17-0.27-1.04-0.51-1.95s-0.63-2.73-0.88-4.05c-0.24-1.32-0.51-2.87-0.59-3.45-0.09-0.58-0.18-1.46-0.2-1.95-0.03-0.5-0.11-1.6-0.17-2.45-0.08-0.87-0.13-3.17-0.13-5.25 0-2.04 0.05-4.44 0.12-5.35s0.15-2.08 0.17-2.6c0.03-0.52 0.1-1.22 0.16-1.55s0.3-1.61 0.54-2.85 0.57-2.77 0.73-3.4 0.49-1.83 0.72-2.65c0.23-0.83 0.52-1.82 0.65-2.2 0.13-0.39 0.33-1.04 0.45-1.45s0.47-1.38 0.76-2.15c0.3-0.77 0.65-1.65 0.79-1.95 0.13-0.3 0.51-1.18 0.85-1.95s0.9-1.99 1.25-2.7c0.36-0.72 0.95-1.82 1.31-2.45 0.37-0.63 0.79-1.38 0.94-1.65 0.15-0.28 0.55-0.95 0.9-1.5s0.91-1.41 1.25-1.9c0.34-0.5 0.9-1.31 1.25-1.8 0.34-0.5 0.79-1.1 0.98-1.35 0.2-0.25 0.4-0.46 0.44-0.48 0.04-0.01 0.08-0.09 0.08-0.17s0.03-0.15 0.07-0.15c0.05 0 0.28-0.26 0.53-0.57s0.85-1.04 1.33-1.62c0.49-0.58 1.48-1.71 2.2-2.5 0.73-0.8 2.04-2.12 2.92-2.94 0.88-0.83 2.03-1.87 2.55-2.32 0.52-0.44 1.42-1.19 2-1.65s1.06-0.88 1.07-0.92c0.02-0.05 0.1-0.08 0.18-0.08s0.15-0.03 0.15-0.08c0-0.04 0.52-0.46 1.17-0.93s1.47-1.05 1.83-1.29c0.36-0.23 1.17-0.75 1.8-1.15s1.66-1.03 2.27-1.39c0.62-0.36 1.17-0.66 1.23-0.66 0.05 0 0.11-0.04 0.12-0.09 0.02-0.05 1.18-0.66 2.58-1.35 1.4-0.7 2.75-1.34 3-1.43s0.47-0.21 0.5-0.25c0.03-0.05 0.12-0.1 0.2-0.12s0.28-0.08 0.45-0.15c0.16-0.07 1.22-0.48 2.35-0.91s2.68-0.98 3.45-1.23 1.74-0.52 2.15-0.62 0.97-0.24 1.25-0.32c0.27-0.07 1.26-0.31 2.2-0.53 0.93-0.21 2.35-0.5 3.15-0.64s2.51-0.39 3.8-0.55c1.29-0.17 3-0.35 3.8-0.41 0.8-0.05 1.63-0.12 1.85-0.13 0.22-0.02 1.46-0.04 2.75-0.05zm0 26c0.8-0.01 2.08 0.03 2.85 0.08 0.77 0.06 2.19 0.22 3.15 0.35 1.17 0.16 2.53 0.43 4.1 0.84 1.29 0.33 3.07 0.84 3.95 1.15 0.88 0.3 2.3 0.86 3.15 1.24s1.98 0.91 2.5 1.17 1.26 0.66 1.65 0.88c0.38 0.22 1.42 0.88 2.3 1.46s2.16 1.51 2.84 2.06 1.38 1.11 1.56 1.25c0.17 0.14 0.78 0.68 1.34 1.2 0.57 0.52 1.56 1.53 2.21 2.25 0.65 0.71 1.36 1.52 1.59 1.8 0.23 0.27 0.81 1.02 1.29 1.66s1.11 1.52 1.41 1.95c0.3 0.44 0.83 1.25 1.18 1.81 0.34 0.57 1.07 1.92 1.62 3 0.54 1.09 1.24 2.6 1.55 3.35 0.31 0.76 0.65 1.71 0.75 2.1 0.11 0.4 0.35 1.22 0.54 1.83 0.19 0.6 0.42 1.44 0.51 1.85s0.25 1.15 0.35 1.65c0.11 0.49 0.31 1.64 0.45 2.55 0.13 0.91 0.3 2.3 0.37 3.1 0.07 0.9 0.1 2.27 0.06 3.6-0.03 1.32-0.14 2.75-0.27 3.7-0.11 0.85-0.35 2.22-0.51 3.05-0.17 0.82-0.51 2.24-0.76 3.15s-0.6 2.1-0.78 2.65-0.54 1.52-0.8 2.15-0.97 2.16-1.59 3.4c-0.77 1.54-1.5 2.82-2.31 4.05-0.65 0.99-1.51 2.23-1.92 2.75-0.4 0.52-0.83 1.07-1.18 1.49l-0.85-0.82c-0.47-0.45-1.57-1.41-2.45-2.15s-1.67-1.38-1.75-1.42c-0.13-0.07-0.09-0.16 0.18-0.52 0.18-0.24 0.6-0.84 0.92-1.33 0.33-0.5 0.67-1.01 0.77-1.15s0.47-0.72 0.82-1.3 0.99-1.7 1.42-2.5 0.79-1.51 0.79-1.58c0-0.06 0.17-0.49 0.39-0.95 0.21-0.45 0.46-1 0.55-1.22 0.1-0.22 0.41-1.12 0.71-2 0.29-0.88 0.67-2.29 0.84-3.15 0.17-0.85 0.4-2.38 0.52-3.4 0.14-1.3 0.2-2.5 0.21-4.05 0-1.21-0.05-2.74-0.12-3.4s-0.13-1.27-0.15-1.35-0.06-0.38-0.1-0.65c-0.03-0.28-0.13-0.86-0.22-1.3-0.08-0.44-0.26-1.25-0.4-1.8-0.13-0.55-0.47-1.68-0.75-2.5-0.28-0.83-0.75-2.09-1.04-2.8-0.3-0.72-0.78-1.77-1.06-2.35-0.29-0.57-0.94-1.7-1.44-2.5s-1.12-1.77-1.38-2.15c-0.27-0.39-0.65-0.9-0.85-1.14-0.2-0.25-0.43-0.54-0.51-0.66s-0.44-0.56-0.8-0.96c-0.36-0.41-1.1-1.19-1.65-1.74s-1.48-1.41-2.06-1.9c-0.59-0.5-1.33-1.1-1.65-1.35-0.33-0.25-1.11-0.8-1.74-1.21-0.63-0.42-1.42-0.93-1.75-1.15-0.33-0.21-0.69-0.44-0.8-0.5s-0.76-0.4-1.45-0.76-1.57-0.78-1.95-0.93c-0.39-0.15-0.97-0.38-1.3-0.51-0.33-0.12-1.03-0.36-1.55-0.53-0.52-0.16-1.4-0.43-1.95-0.6s-1.56-0.42-2.25-0.55c-0.69-0.14-2.13-0.34-3.2-0.46-1.7-0.19-2.32-0.21-4.8-0.17-2.12 0.03-3.24 0.1-4.35 0.25-0.83 0.12-1.97 0.3-2.55 0.42-0.58 0.11-1.46 0.34-1.95 0.5-0.5 0.16-1.31 0.41-1.8 0.55-0.5 0.15-1.15 0.38-1.45 0.52s-1.05 0.45-1.65 0.7c-0.61 0.24-1.15 0.48-1.2 0.53-0.06 0.05-0.6 0.35-1.2 0.68-0.61 0.32-1.44 0.78-1.85 1.02s-1.18 0.72-1.7 1.08c-0.52 0.35-1.09 0.75-1.25 0.88-0.17 0.13-0.84 0.69-1.5 1.23s-1.69 1.47-2.29 2.07-1.5 1.56-2 2.14-1.06 1.26-1.24 1.5c-0.18 0.25-0.54 0.74-0.8 1.1-0.27 0.36-0.83 1.2-1.25 1.87-0.42 0.68-0.77 1.25-0.77 1.28s-0.15 0.29-0.33 0.57c-0.18 0.29-0.48 0.87-0.67 1.28-0.18 0.41-0.51 1.13-0.72 1.6-0.22 0.47-0.46 1.03-0.53 1.25s-0.34 0.98-0.6 1.7c-0.26 0.71-0.64 2.02-0.85 2.9s-0.46 2.09-0.54 2.7c-0.09 0.6-0.21 1.8-0.27 2.65-0.07 0.85-0.12 2.49-0.12 3.65 0 1.15 0.06 2.71 0.12 3.45 0.07 0.74 0.21 1.8 0.32 2.35s0.34 1.54 0.5 2.2c0.17 0.66 0.43 1.56 0.59 2s0.44 1.2 0.63 1.7c0.19 0.49 0.66 1.59 1.06 2.42 0.39 0.84 0.71 1.55 0.71 1.58s0.28 0.56 0.63 1.17c0.35 0.62 1.09 1.83 1.64 2.68 0.56 0.85 1.19 1.77 1.4 2.04s0.42 0.55 0.48 0.63c0.07 0.1 0.05 0.17-0.1 0.26-0.11 0.06-0.31 0.22-0.45 0.35-0.14 0.14-0.45 0.41-0.7 0.6-0.25 0.2-0.86 0.72-1.35 1.16-0.5 0.44-1.26 1.15-2.5 2.37l-0.92-1.23c-0.51-0.68-1.36-1.91-1.89-2.73-0.53-0.83-1.11-1.75-1.29-2.05s-0.73-1.34-1.22-2.3-1.11-2.25-1.37-2.85c-0.27-0.61-0.66-1.62-0.88-2.25-0.21-0.63-0.61-1.94-0.89-2.9-0.27-0.96-0.63-2.4-0.79-3.2s-0.33-1.79-0.39-2.2-0.16-1.38-0.23-2.15-0.13-2.66-0.13-4.2c0-1.68 0.05-3.22 0.13-3.85 0.07-0.58 0.22-1.61 0.33-2.3s0.38-1.99 0.6-2.9 0.63-2.35 0.9-3.2c0.28-0.85 0.59-1.8 0.7-2.1 0.1-0.3 0.34-0.93 0.54-1.4s0.75-1.64 1.23-2.6c0.47-0.96 1.06-2.11 1.31-2.55s0.82-1.34 1.27-2c0.44-0.66 1.1-1.62 1.45-2.14s0.98-1.33 1.39-1.8 0.91-1.06 1.1-1.31 0.72-0.85 1.19-1.34c0.47-0.48 1.17-1.19 1.56-1.56 0.38-0.37 1.02-0.94 1.42-1.26 0.39-0.33 1-0.82 1.35-1.1 0.34-0.28 1.03-0.78 1.53-1.11 0.49-0.33 1.37-0.92 1.95-1.29 0.58-0.38 1.3-0.83 1.6-0.98 0.3-0.16 0.66-0.37 0.8-0.46s0.79-0.42 1.45-0.72c0.66-0.31 1.76-0.81 2.45-1.11 0.69-0.31 1.83-0.77 2.55-1.02 0.71-0.25 2.06-0.66 3-0.9 0.93-0.23 2.19-0.55 2.8-0.69 0.6-0.14 1.71-0.35 2.45-0.45 0.74-0.11 1.91-0.25 2.6-0.31 0.69-0.05 1.43-0.12 1.65-0.14 0.22-0.01 1.05-0.03 1.85-0.04zm0.65 23.43c1.11 0.02 2.13 0.11 2.92 0.24 0.83 0.14 1.74 0.39 2.8 0.77 0.87 0.31 1.74 0.64 1.93 0.73 0.19 0.1 0.78 0.41 1.3 0.7 0.52 0.28 1.31 0.77 1.76 1.09 0.44 0.31 1.23 0.93 1.74 1.37 0.52 0.44 1.23 1.14 1.6 1.55 0.36 0.41 0.9 1.09 1.21 1.5 0.3 0.41 0.79 1.14 1.07 1.62 0.29 0.49 0.52 0.92 0.52 0.98 0 0.05 0.03 0.11 0.08 0.12 0.04 0.02 0.24 0.39 0.44 0.83s0.52 1.25 0.71 1.8 0.44 1.4 0.55 1.9c0.12 0.49 0.28 1.37 0.37 1.95 0.08 0.58 0.15 1.72 0.15 2.55 0 0.82-0.05 1.88-0.11 2.35-0.05 0.47-0.19 1.3-0.31 1.85-0.11 0.55-0.36 1.47-0.54 2.05-0.19 0.58-0.72 1.81-1.18 2.75-0.54 1.08-1.13 2.1-1.64 2.8-0.43 0.6-1.21 1.53-1.73 2.05s-1.37 1.28-1.89 1.69c-0.52 0.4-1.33 0.96-1.8 1.23-0.47 0.28-1.32 0.74-1.9 1.03s-1.52 0.69-2.1 0.89-1.41 0.46-1.85 0.57-0.98 0.23-1.2 0.25c-0.22 0.03-0.74 0.08-1.15 0.12s-1.49 0.07-2.4 0.07-2.04-0.03-2.53-0.08c-0.48-0.04-1.29-0.16-1.8-0.27-0.5-0.11-1.19-0.29-1.52-0.39-0.33-0.11-0.8-0.27-1.05-0.36-0.25-0.08-1.08-0.47-1.85-0.84-0.77-0.38-1.76-0.93-2.2-1.22-0.44-0.28-1.12-0.77-1.5-1.08-0.39-0.31-1.11-0.97-1.6-1.46-0.5-0.5-1.2-1.29-1.56-1.75-0.37-0.47-0.95-1.32-1.3-1.9-0.34-0.58-0.8-1.43-1.01-1.9-0.22-0.47-0.48-1.03-0.58-1.25s-0.3-0.76-0.43-1.2c-0.14-0.44-0.35-1.27-0.46-1.85-0.12-0.58-0.26-1.59-0.31-2.25s-0.1-1.76-0.1-2.45c0-0.77 0.07-1.71 0.19-2.45 0.11-0.66 0.36-1.76 0.56-2.45s0.62-1.79 0.94-2.45c0.31-0.66 0.86-1.67 1.21-2.25 0.36-0.58 0.92-1.41 1.26-1.85s0.99-1.18 1.45-1.65 1.13-1.1 1.49-1.41 1.03-0.83 1.5-1.16 1.19-0.78 1.6-0.98c0.41-0.21 0.93-0.5 1.15-0.63 0.22-0.14 1.01-0.47 1.75-0.74s1.71-0.58 2.15-0.68 1.23-0.24 1.75-0.29c0.52-0.06 1.13-0.13 1.35-0.15s1.16-0.03 2.1-0.01zm2.05 49.63c7.29 0.01 12.44 0.07 13.05 0.13 0.55 0.06 1.43 0.21 1.95 0.34s1.24 0.36 1.6 0.5 0.94 0.42 1.3 0.61c0.36 0.2 1.01 0.65 1.45 0.99 0.44 0.35 1.21 1.05 1.71 1.57 0.51 0.51 1.18 1.27 1.49 1.68s0.8 1.13 1.07 1.6c0.28 0.47 0.62 1.07 0.76 1.35 0.14 0.27 0.45 0.97 0.69 1.55s0.59 1.61 0.78 2.3 0.45 1.79 0.59 2.45c0.13 0.66 0.27 1.56 0.31 2 0.03 0.44 0.1 1.29 0.15 1.9 0.06 0.6 0.1 1.8 0.1 2.65s-0.05 2.07-0.1 2.7c-0.06 0.63-0.13 1.58-0.16 2.1s-0.21 1.76-0.41 2.75c-0.19 0.99-0.5 2.34-0.69 3s-0.49 1.63-0.66 2.15-0.53 1.56-0.8 2.3-0.69 1.84-0.94 2.45c-0.24 0.6-0.84 1.84-1.32 2.75-0.49 0.91-1.01 1.87-1.16 2.15-0.15 0.27-0.44 0.77-0.64 1.1s-0.61 0.96-0.91 1.4c-0.31 0.44-0.84 1.18-1.2 1.65-0.35 0.47-0.85 1.1-1.1 1.4s-0.8 0.9-1.21 1.34c-0.41 0.45-1.29 1.31-1.95 1.92-0.66 0.62-1.54 1.38-1.95 1.7s-1.2 0.87-1.75 1.22c-0.55 0.36-1.59 0.93-2.3 1.28-0.72 0.34-1.98 0.86-2.8 1.15-0.87 0.3-2.07 0.63-2.85 0.77-1.28 0.25-1.53 0.26-4.85 0.26-3.27 0.01-3.58-0.01-4.75-0.23-0.69-0.13-1.75-0.4-2.35-0.61-0.61-0.2-1.51-0.54-2-0.75-0.5-0.2-1.31-0.58-1.8-0.84-0.5-0.27-1.22-0.68-1.6-0.94-0.39-0.25-1.1-0.74-1.59-1.09s-1.13-0.83-1.41-1.08-0.67-0.59-0.86-0.76c-0.19-0.16-0.41-0.39-0.5-0.5-0.09-0.1-0.36-0.38-0.6-0.6-0.24-0.23-0.54-0.53-0.67-0.68-0.12-0.14-0.28-0.29-0.35-0.34-0.07-0.04-0.35-0.34-0.63-0.67s-0.91-1.14-1.4-1.8c-0.5-0.66-1.08-1.47-1.3-1.8-0.23-0.33-0.68-1.05-1.01-1.6s-0.87-1.47-1.2-2.05-0.81-1.47-1.07-1.98c-0.25-0.5-0.52-1.09-0.6-1.3-0.07-0.2-0.41-1.07-0.76-1.92-0.34-0.85-0.84-2.2-1.1-3s-0.66-2.17-0.88-3.05-0.42-1.85-0.45-2.15-0.15-1.14-0.26-1.85c-0.11-0.72-0.25-1.98-0.32-2.8-0.07-0.97-0.1-2.43-0.06-4.1 0.03-1.44 0.13-3.07 0.21-3.65s0.24-1.64 0.35-2.35c0.11-0.72 0.34-1.75 0.51-2.3 0.18-0.55 0.43-1.27 0.57-1.6s0.41-0.96 0.6-1.4c0.2-0.44 0.63-1.27 0.96-1.85s0.76-1.25 0.96-1.5 0.39-0.46 0.43-0.48c0.04-0.01 0.08-0.07 0.08-0.12 0-0.06 0.42-0.53 0.92-1.06 0.51-0.53 1.31-1.27 1.78-1.65 0.47-0.37 1.28-0.91 1.8-1.18s1.42-0.66 2-0.85 1.43-0.4 1.9-0.46 2.27-0.15 4-0.19c1.73-0.03 8.57-0.05 15.2-0.03z" fill-rule="evenodd"/>
 </g>
</svg>
