<svg version="1.1" viewBox="0 0 300 300" xmlns="http://www.w3.org/2000/svg">
 <rect width="300" height="300" rx="67" fill="#a00"/>
 <path d="m86.443 74.014-1.164 1.2443c-10.624 11.352-17.086 24.618-19.614 40.264-0.6282 3.889-0.87221 13.034-0.46444 17.395 0.52565 5.6222 1.6382 10.827 3.5778 16.742 2.6825 8.1804 7.1797 16.385 12.617 23.014 2.1481 2.6189 4.9164 5.6404 5.1618 5.6348 0.08123-2e-3 2.4698-2.3265 5.308-5.1661l5.1604-5.1632-1.4277-1.4678c-7.6388-7.8558-12.989-18.745-15.144-30.825-0.70766-3.9654-0.88111-12.413-0.33973-16.557 1.6185-12.39 6.8116-23.696 15.055-32.78l1.7202-1.8964-5.2235-5.2192zm127.11 0.0029-10.444 10.435 1.6513 1.7689c2.2391 2.3976 5.507 6.7796 7.2406 9.7087 8.0172 13.549 10.381 29.552 6.5837 44.577-1.4313 5.6636-3.8657 11.534-6.8129 16.433-1.5633 2.5982-5.4754 7.722-7.263 9.5122l-1.4062 1.4091 5.2091 5.222 5.2091 5.2235 1.1425-1.1138c0.62864-0.61189 1.9098-2.0097 2.8468-3.1077 8.797-10.308 14.719-23.267 16.826-36.816 0.71394-4.5915 0.89257-14.531 0.34547-19.278-0.98586-8.555-3.2874-16.413-7.0613-24.109-3.4164-6.9672-7.6663-13.139-12.66-18.387zm-17.587 17.584-5.0572 5.0586-5.0586 5.0572 0.92311 1.0937c4.507 5.3429 7.067 10.372 8.4301 16.557 0.61235 2.7794 0.74026 8.9539 0.25086 12.091-0.67188 4.3072-2.4127 9.1197-4.5884 12.686-1.0693 1.7527-3.6154 5.1128-4.4236 5.837-0.48933 0.43841-0.48125 0.4479 4.4895 5.5789 2.7385 2.8267 5.0446 5.1114 5.126 5.0787 0.0814-0.0327 0.67246-0.63988 1.313-1.3503 5.4732-6.0703 9.281-13.131 11.33-21.01 3.9908-15.344-0.12986-32.456-10.683-44.363zm-91.754 0.2537c-0.30746-0.06121-0.69429 0.37777-2.1659 2.0785-2.4502 2.8316-3.4895 4.2471-5.2163 7.1112-3.1224 5.179-5.2049 10.824-6.3716 17.263-0.50856 2.8066-0.71317 9.9642-0.36983 12.939 1.187 10.286 5.3538 19.803 11.912 27.202l2.0656 2.3293 5.007-5.1102 5.0084-5.1102-1.1496-1.3302c-4.047-4.6807-6.7034-10.007-8.0774-16.2-0.68545-3.0884-0.7384-9.911-0.10034-13.07 1.2873-6.3732 4.2129-12.347 8.1446-16.632l1.4621-1.5926-4.6673-4.63c-2.5673-2.5468-4.8907-4.8196-5.1632-5.05-0.12226-0.10336-0.21574-0.17885-0.31822-0.19924zm16.644 16.354-0.58771 0.70382c-1.9132 2.2963-4.0928 6.939-5.0457 10.745-0.6866 2.7426-0.86529 8.2349-0.36122 11.128 0.43461 2.4945 1.3262 5.4446 2.2892 7.5754 0.71497 1.5823 3.1697 5.427 3.4646 5.427 0.0953 0 1.4731-1.3158 3.0633-2.9242l2.8912-2.9242-0.47877-0.77406c-4.3296-7.0055-4.2822-15.126 0.12758-22.112l0.58198-0.92311-2.9715-2.9615zm58.352 0.1161c-0.32564 0-5.7194 5.529-5.7194 5.8628 0 0.2031 0.27558 0.77701 0.61351 1.2744 3.8598 5.6802 4.0679 14.341 0.49454 20.594l-1.0163 1.7803 2.831 2.9615c1.5571 1.6292 2.9014 2.9696 2.9873 2.9773 0.0859 8e-3 0.52626-0.49123 0.97907-1.108 1.1824-1.6107 2.6499-4.4136 3.4274-6.5465 2.8302-7.7643 2.1774-16.582-1.7603-23.759-0.84692-1.5436-2.5988-4.0366-2.8368-4.0366zm-28.656 1.5753c-1.4423 4e-3 -2.8916 0.14205-3.9549 0.41426-4.614 1.1814-8.6196 4.4216-10.764 8.708-4.0197 8.0358-0.68308 17.77 7.5172 21.928 2.5055 1.2708 4.4886 1.6762 7.7092 1.5768 2.0654-0.0637 3.2574-0.22545 4.4623-0.60634 4.9195-1.5552 8.8553-5.4521 10.685-10.58 0.74-2.0743 0.93617-6.706 0.37843-8.9346-1.4801-5.914-6.1361-10.567-12.12-12.111-1.0353-0.26722-2.471-0.39908-3.9132-0.39563zm-9.379 39.291-0.65075 4.9898c-0.98758 7.5709-3.0927 23.539-4.2659 32.351-1.3288 9.9815-3.4038 25.731-4.3318 32.88-0.39403 3.0355-0.77054 5.757-0.83571 6.0476l-0.11755 0.52751h18.072l0.12757-0.7626c0.0701-0.41981 0.28334-1.9792 0.47447-3.4646 0.19114-1.4854 0.82221-6.2945 1.4019-10.686 0.57967-4.3918 1.642-12.475 2.3608-17.965 1.7847-13.63 3.4514-26.298 4.7045-35.735 0.57723-4.3475 1.0507-7.9666 1.0507-8.0428 0-0.0766-4.048-0.13904-8.9948-0.13904z" fill="#fff" stroke-width=".36682"/>
</svg>
