<svg version="1.1" viewBox="0 0 300 300" xmlns="http://www.w3.org/2000/svg">
 <rect width="300" height="300" rx="67" fill="#00a4ff"/>
 <g transform="matrix(.72999 0 0 .72999 304.76 303.22)">
  <path fill="#ff00b7" d="m-322.55-166.48h221.1s-11.256 73.535-110.59 73.535c-99.331 0-110.52-73.535-110.52-73.535z"/>
  <path d="m-277.13-107.51c-22.588-10.667-39.639-32.37-44.651-56.836q25.424-1.3916 50.895-1.8896c11.941-0.23145 26.604-2.6191 38.268-0.0439-12.012 6.1934-22.772 10.778-31.348 22.011a64.523 64.523 0 0 0-9.5566 17.646c-0.74121 2.0508-5.6748 18.138-3.6064 19.113z"/>
  <path d="m-214.43-124.95c-0.29297 2.2002-0.24024 4.9805 1.7578 5.9766 1.4824 0.75 3.3662 0 4.4443-1.2744 1.0781-1.2744 1.5469-2.9297 2.0361-4.5146 5.1387-16.951 15.431-30.158 28.271-41.938-7.5674 0.74121-17.15-0.52149-22.626 5.7686-8.1182 9.3106-12.237 24.023-13.884 35.982z"/>
  <path fill="#fff" d="m-286.12-133.07c6.6826 0 12.847-17.487 14.965-30.747h-27.425c1.1162 13.151 5.9502 30.747 12.46 30.747z"/>
  <path fill="#fff" d="m-137.88-133.07c6.5332 0 11.358-17.596 12.463-30.747h-27.434c2.127 13.26 8.2998 30.747 14.971 30.747z"/>
  <path d="m-212.04-87.893c-53.282 0-81.832-20.982-96.404-38.596-15.926-19.242-18.987-38.423-19.116-39.223l-0.87891-5.8213h232.88l-0.87891 5.8242c-0.12598 0.8086-3.2227 19.989-19.151 39.226-14.599 17.607-43.175 38.59-96.451 38.59zm-104.12-73.535c4.9453 16.781 25.743 63.404 104.12 63.404 77.531 0 98.941-46.723 104.11-63.404z"/>
  <circle fill="#00a397" cx="-212" cy="-244.74" r="53.013"/>
  <circle cx="-212" cy="-244.74" r="27.305"/>
  <circle fill="#fff" cx="-189" cy="-259.72" r="15.185"/>
  <path fill="#fff" d="m-212.71-326.84c90.34 0 96.202 86.845 96.202 86.845s6.3926 47.417-26.106 47.417h-74.722"/>
  <path fill="#fff" d="m-211.29-326.84c-90.34 0-96.202 86.845-96.202 86.845s-6.3926 47.417 26.106 47.417h74.725"/>
  <circle fill="#00a397" cx="-212" cy="-244.74" r="53.013"/>
  <circle cx="-212" cy="-244.74" r="27.305"/>
  <circle fill="#fff" cx="-189" cy="-259.72" r="15.185"/>
  <path d="m-111.48-240.54c-0.41895-4.793-9.3193-90.439-99.806-91.342v-0.0205h-0.71484-0.71484v0.0205c-90.478 0.90234-99.384 86.54-99.806 91.339-0.29297 2.3877-3.3809 29.106 9.375 43.696 5.4082 6.1875 12.732 9.3252 21.765 9.3252h138.76c9.0322 0 16.354-3.1377 21.765-9.3252 12.756-14.59 9.6797-41.306 9.375-43.693zm-16.992 37.031c-3.4541 3.9492-8.0801 5.8594-14.147 5.8594h-138.76c-6.0586 0-10.682-1.9131-14.133-5.8594-10.058-11.479-6.9902-35.59-6.958-35.827l0.0322-0.33106c0.23437-3.3428 6.7031-81.671 90.439-82.119 83.736 0.44824 90.202 78.776 90.439 82.113l0.0322 0.33692c0.90527 6.7295 1.4238 26.256-6.9434 35.836z"/>
 </g>
</svg>
