<svg version="1.1" viewBox="0 0 300 300" xmlns="http://www.w3.org/2000/svg">
 <rect width="300" height="300" rx="67" fill="#1c185b"/>
 <path d="m89.047 222.88-12.09-12.122v-145.76h38.496c21.876 0 40.89 0.45403 44.041 1.0516 12.35 2.3421 17.534 5.9045 37.172 25.542 20.305 20.305 23.32 24.884 25.741 39.088 4.3347 25.437-13.949 51.09-39.775 55.808-3.3624 0.61415-11.592 1.1167-18.288 1.1167h-12.174v47.394h-51.032zm46.637-1.7876-9.7472-9.7881h-21.162v19.576h40.656zm-35.03-1.0303v-8.7573h-17.984l8.7117 8.7573c4.7917 4.8166 8.8384 8.7573 8.9922 8.7573 0.15377 0 0.28032-3.9409 0.28032-8.7573zm47.394-24.212v-31.939h-19.576v44.78l9.51 9.5494c5.2304 5.2523 9.6351 9.5494 9.7881 9.5494 0.15286 0 0.27793-14.373 0.27793-31.939zm-47.394-46.642v-57.975l-19.575-19.494v135.44h19.575zm23.697 0.79305v-57.182h-19.576v114.36h19.576zm65.939 30.608c11.361-4.5296 21.383-14.54 26.002-25.971 1.8769-4.6453 2.2934-7.7093 2.3108-17 0.0201-10.675-0.17353-11.745-3.3326-18.415-2.3347-4.9298-5.415-9.1027-10.137-13.732-3.7304-3.6577-6.9882-6.4448-7.2394-6.1936-0.25125 0.25125 0.0894 3.7648 0.75719 7.8076 3.0251 18.318-5.9376 38.414-21.621 48.478-5.1536 3.3071-14.15 6.64-20.997 7.779l-3.8636 0.64265v19.664l16.227-0.39957c13.681-0.33686 17.117-0.75412 21.894-2.659zm-42.243-54.304v-33.485h-19.576v66.97h19.576zm18.659 30.441c11.115-4.1886 21.419-14.499 25.788-25.804 3.0932-8.0031 3.6953-20 1.4245-28.389l-1.7941-6.628-5.2259-1.552c-3.5923-1.0668-9.8376-1.5519-19.978-1.5519h-14.752v67.25l4.4922-0.61573c2.4707-0.33865 6.9912-1.5574 10.045-2.7085zm19.458-70.113c-4.6159-5.828-10.991-10.805-18.098-14.13-5.6804-2.6572-7.1962-2.8816-21.564-3.1922l-15.455-0.33408 19.535 19.722 14.445 0.1219c7.9444 0.0671 15.836 0.47583 17.536 0.90842 6.7179 1.7094 7.1284 1.3564 3.6016-3.0965zm-61.814-7.7217v-9.7881h-40.656l19.494 19.576h21.162zm20.606 9.5061c0-0.15496-3.7091-3.9691-8.2427-8.476l-8.2427-8.194v16.951h8.2427c4.5334 0 8.2427-0.12679 8.2427-0.28174z" fill="#fff" stroke-width="1.3333"/>
</svg>
