<svg version="1.1" viewBox="0 0 300 300" xmlns="http://www.w3.org/2000/svg"><rect width="300" height="300" rx="67" fill="#db73f5"/><path d="m82.825 212.98 59.131-117.38c4.1141-7.1264 14.395-7.1264 18.51 0l61.264 102.9c4.1141 7.1264-1.0266 16.028-9.2548 16.028l-118.92 18.169c-1.9897 0-3.6068-1.6131-3.6068-3.6068s1.6131-3.6068 3.6068-3.6068l118.52-18.153c2.4613 0 4.0071-2.6635 2.7824-4.7998l-60.693-102.77c-1.2287-2.1443-4.3202-2.1522-5.5568-.01189l-59.088 117.1a3.8664 3.8664 0 01-5.2279 1.4427c-1.8906-1.0503-2.5525-3.4443-1.4705-5.3151z" fill="#fff" stroke="#000" stroke-linecap="round" stroke-miterlimit="10" stroke-width="4.5953"/><path d="m151.66 98.17v-30.872m-80.538 74.419 22.326 14.122m-2.2037-25.739 10.602 17.749m-32.485 17.031 20.475 2.822" fill="#fff" stroke="#000" stroke-linecap="round" stroke-miterlimit="10" stroke-width="4.5953"/><path d="m229.36 116.33-91.085 75.695a3.5977 3.5977 0 01-5.0693-.4677 3.5977 3.5977 0 01.46769-5.0693l91.089-75.695a3.5977 3.5977 0 015.0693.4677c1.2683 1.5299 1.0582 3.801-.47166 5.0693z" fill="#fff" stroke="#000" stroke-linecap="round" stroke-miterlimit="10" stroke-width="4.5953"/></svg>
