<svg version="1.1" viewBox="0 0 300 300" xmlns="http://www.w3.org/2000/svg">
 <rect width="300" height="300" rx="67" fill="#0d7ab3"/>
 <path d="m108.51 232.73c-8.2227-2.8269-17.674-12.373-20.933-21.144-1.4665-3.9465-4.7117-10.21-7.2115-13.92-15.531-23.047-19.28-51.198-10.163-76.316 12.336-33.985 44.034-56.346 79.872-56.346 68.149 0 108 75.842 69.71 132.66-2.4999 3.7094-5.7451 9.973-7.2115 13.92-3.3562 9.032-12.39 17.953-21.395 21.127-3.8172 1.346-7.2108 2.1768-7.5413 1.8463-1.069-1.0689 17.424-64.017 18.807-64.017 0.73594 0 2.9804 1.7721 4.9877 3.9381 2.0073 2.166 4.003 3.9381 4.4348 3.9381s2.0278-3.9506 3.5465-8.7789c2.0748-6.5964 2.6018-12.426 2.1197-23.448-0.57133-13.063-1.2825-15.965-6.4982-26.518-25.161-50.91-96.762-50.91-121.92 0-5.2156 10.553-5.9268 13.456-6.4982 26.518-0.48205 11.022 0.04497 16.851 2.1197 23.448 1.5187 4.8284 3.1146 8.7789 3.5464 8.7789s2.4275-1.7721 4.4348-3.9381c2.0073-2.166 4.2812-3.9381 5.053-3.9381 0.77188 0 3.994 9.3922 7.1604 20.871 3.1664 11.48 7.1234 25.647 8.7936 31.484 1.6701 5.8367 2.5558 10.91 1.9681 11.273-0.58766 0.36319-3.8201-0.28564-7.1833-1.4418zm11.966-2.5793c-0.80948-2.894-5.2598-18.597-9.8898-34.897-7.1225-25.074-8.0649-29.859-6.1239-31.086 3.777-2.3892 10.294-1.6927 13.093 1.3991 2.2627 2.5003 18.343 55.943 18.343 60.964 0 2.6724-4.9172 6.6288-9.732 7.8301-3.7779 0.94269-4.3723 0.50303-5.6902-4.2091zm49.68 3.1452c-2.4441-0.89259-4.7315-3.1626-5.2438-5.204-1.1929-4.7531 13.211-56.734 17.086-61.66 1.8185-2.3119 4.5872-3.7542 7.178-3.7395 9.4435 0.0541 9.4384 0.20748-1.2564 37.644-5.4668 19.136-10.724 34.736-11.684 34.668-0.95949-0.0683-3.6954-0.83679-6.0796-1.7076z" fill="#fff" stroke-width="1.6667"/>
</svg>
